<svg width="14" height="10" viewBox="0 0 14 10" fill="none" xmlns="http://www.w3.org/2000/svg">
<path d="M13.3333 5.67982H3.55571C3.3789 5.67982 3.20933 5.60795 3.08431 5.48003C2.95929 5.35211 2.88905 5.17861 2.88905 4.9977C2.88905 4.81679 2.95929 4.64329 3.08431 4.51537C3.20933 4.38744 3.3789 4.31558 3.55571 4.31558H13.3333C13.5102 4.31558 13.6797 4.38744 13.8047 4.51537C13.9298 4.64329 14 4.81679 14 4.9977C14 5.17861 13.9298 5.35211 13.8047 5.48003C13.6797 5.60795 13.5102 5.67982 13.3333 5.67982ZM13.3333 1.58708H3.55571C3.3789 1.58708 3.20933 1.51522 3.08431 1.3873C2.95929 1.25937 2.88905 1.08587 2.88905 0.904962C2.88905 0.724052 2.95929 0.550551 3.08431 0.422628C3.20933 0.294705 3.3789 0.222839 3.55571 0.222839H13.3333C13.5102 0.222839 13.6797 0.294705 13.8047 0.422628C13.9298 0.550551 14 0.724052 14 0.904962C14 1.08587 13.9298 1.25937 13.8047 1.3873C13.6797 1.51522 13.5102 1.58708 13.3333 1.58708ZM13.3333 9.77256H3.55571C3.3789 9.77256 3.20933 9.70069 3.08431 9.57277C2.95929 9.44485 2.88905 9.27135 2.88905 9.09044C2.88905 8.90952 2.95929 8.73602 3.08431 8.6081C3.20933 8.48018 3.3789 8.40831 3.55571 8.40831H13.3333C13.5102 8.40831 13.6797 8.48018 13.8047 8.6081C13.9298 8.73602 14 8.90952 14 9.09044C14 9.27135 13.9298 9.44485 13.8047 9.57277C13.6797 9.70069 13.5102 9.77256 13.3333 9.77256ZM0.889083 1.81446C0.773517 1.81591 0.658785 1.79428 0.55131 1.75079C0.445309 1.69768 0.346671 1.63039 0.257981 1.5507C0.175599 1.46572 0.110422 1.36493 0.066187 1.25412C0.0219524 1.14331 -0.000469501 1.02466 0.000206838 0.904962C0.003481 0.664157 0.0955532 0.433509 0.257981 0.259219C0.34089 0.174321 0.441031 0.109116 0.55131 0.0682246C0.767717 -0.0227415 1.01045 -0.0227415 1.22686 0.0682246C1.33597 0.111512 1.43565 0.176418 1.52018 0.259219C1.68261 0.433509 1.77468 0.664157 1.77796 0.904962C1.77863 1.02466 1.75621 1.14331 1.71198 1.25412C1.66774 1.36493 1.60257 1.46572 1.52018 1.5507C1.43149 1.63039 1.33286 1.69768 1.22686 1.75079C1.11938 1.79428 1.00465 1.81591 0.889083 1.81446ZM0.889083 5.9072C0.772927 5.90576 0.658172 5.88104 0.55131 5.83444C0.443982 5.78761 0.34489 5.72309 0.257981 5.64344C0.175599 5.55846 0.110422 5.45767 0.066187 5.34686C0.0219524 5.23605 -0.000469501 5.11739 0.000206838 4.9977C0.003481 4.75689 0.0955532 4.52625 0.257981 4.35196C0.34489 4.2723 0.443982 4.20778 0.55131 4.16096C0.712216 4.08462 0.891762 4.05928 1.06686 4.0882L1.22686 4.14277L1.38685 4.22463C1.43298 4.2588 1.47747 4.29522 1.52018 4.33377C1.68682 4.51262 1.77922 4.7506 1.77796 4.9977C1.77796 5.23891 1.68431 5.47025 1.51761 5.64081C1.35092 5.81137 1.12483 5.9072 0.889083 5.9072ZM0.889083 9.99993C0.773517 10.0014 0.658785 9.97976 0.55131 9.93627C0.445309 9.88315 0.346671 9.81586 0.257981 9.73618C0.180135 9.64725 0.117077 9.54586 0.0713168 9.43604C0.0242907 9.32718 0 9.20946 0 9.09044C0 8.97141 0.0242907 8.85369 0.0713168 8.74483C0.117077 8.63501 0.180135 8.53362 0.257981 8.44469C0.382978 8.31849 0.541707 8.233 0.71414 8.19901C0.886572 8.16502 1.06498 8.18405 1.22686 8.2537C1.33597 8.29698 1.43565 8.36189 1.52018 8.44469C1.59803 8.53362 1.66109 8.63501 1.70685 8.74483C1.75387 8.85369 1.77817 8.97141 1.77817 9.09044C1.77817 9.20946 1.75387 9.32718 1.70685 9.43604C1.66109 9.54586 1.59803 9.64725 1.52018 9.73618C1.43713 9.82047 1.33863 9.88716 1.23033 9.93242C1.12203 9.97768 1.00606 10.0006 0.889083 9.99993Z" fill="#FFFFF2"/>
</svg>
