<?xml version="1.0" encoding="UTF-8"?>
<svg version="1.1" xmlns="http://www.w3.org/2000/svg" width="122" height="58">
<path d="M0 0 C40.26 0 80.52 0 122 0 C122 19.14 122 38.28 122 58 C81.74 58 41.48 58 0 58 C0 38.86 0 19.72 0 0 Z " fill="#FCD5BB" transform="translate(0,0)"/>
<path d="M0 0 C4.29 0 8.58 0 13 0 C13 19.14 13 38.28 13 58 C10.69 58 8.38 58 6 58 C5.94465088 57.16227051 5.88930176 56.32454102 5.83227539 55.46142578 C5.62508453 52.35636559 5.41406729 49.2515961 5.20043945 46.14697266 C5.1087312 44.80267572 5.01855335 43.45827347 4.92993164 42.11376953 C4.80235801 40.18234758 4.66884146 38.25132106 4.53515625 36.3203125 C4.456604 35.15773926 4.37805176 33.99516602 4.29711914 32.79736328 C4.17031374 30.04875846 4.17031374 30.04875846 3 28 C1.82395725 20.71143875 1.88617721 13.3605403 2 6 C1.34 6 0.68 6 0 6 C0 4.02 0 2.04 0 0 Z " fill="#9A7B70" transform="translate(109,0)"/>
<path d="M0 0 C3.96 0 7.92 0 12 0 C12 2.64 12 5.28 12 8 C11.34 8 10.68 8 10 8 C10.01522705 8.56090332 10.0304541 9.12180664 10.04614258 9.69970703 C10.15619318 17.16068866 9.48937171 24.46267348 8.6875 31.875 C8.56955078 33.06480469 8.45160156 34.25460938 8.33007812 35.48046875 C7.50799985 43.19535718 6.09505792 50.52976892 4 58 C2.68 58 1.36 58 0 58 C0 38.86 0 19.72 0 0 Z " fill="#926857" transform="translate(0,0)"/>
<path d="M0 0 C1.65 0 3.3 0 5 0 C5 1.32 5 2.64 5 4 C5.66 4 6.32 4 7 4 C7.26618595 10.95041086 6.6120509 17.23514355 5 24 C3.33333333 24 1.66666667 24 0 24 C0 16.08 0 8.16 0 0 Z " fill="#98786E" transform="translate(0,0)"/>
<path d="M0 0 C0.33 0 0.66 0 1 0 C1.103125 1.03125 1.20625 2.0625 1.3125 3.125 C1.99647839 6.98015093 3.00699485 9.65175135 5 13 C5.66 13.33 6.32 13.66 7 14 C7 18.95 7 23.9 7 29 C4.69 29 2.38 29 0 29 C0 19.43 0 9.86 0 0 Z " fill="#97715F" transform="translate(115,29)"/>
<path d="M0 0 C0.99 0.33 1.98 0.66 3 1 C6.97969543 21.04060914 6.97969543 21.04060914 4 27 C2.68 27 1.36 27 0 27 C0 18.09 0 9.18 0 0 Z " fill="#916B5A" transform="translate(0,31)"/>
<path d="M0 0 C0.33 0 0.66 0 1 0 C1.99 4.95 2.98 9.9 4 15 C4.99 13.68 5.98 12.36 7 11 C7.25515919 18.52719602 6.28297723 25.58851545 5 33 C4.67 33 4.34 33 4 33 C3.80664062 31.87980469 3.61328125 30.75960937 3.4140625 29.60546875 C3.1514114 28.13274651 2.88837017 26.66009381 2.625 25.1875 C2.49867187 24.44951172 2.37234375 23.71152344 2.2421875 22.95117188 C1.59836518 19.39405354 1.03003944 17.04505916 -1 14 C-0.9765625 10.64453125 -0.9765625 10.64453125 -0.625 6.8125 C-0.51414063 5.54019531 -0.40328125 4.26789062 -0.2890625 2.95703125 C-0.19367187 1.98121094 -0.09828125 1.00539063 0 0 Z " fill="#A8836E" transform="translate(1,17)"/>
<path d="M0 0 C1.65 0 3.3 0 5 0 C5 11.55 5 23.1 5 35 C4.67 35 4.34 35 4 35 C2.68 23.45 1.36 11.9 0 0 Z " fill="#000000" transform="translate(117,0)"/>
<path d="M0 0 C1.65 0 3.3 0 5 0 C5.19977261 3.31187649 5.38251777 6.62449376 5.5625 9.9375 C5.61857422 10.86369141 5.67464844 11.78988281 5.73242188 12.74414062 C6.04292831 18.64376282 5.81051594 24.1462738 5 30 C0.67366967 25.67366967 1.94435368 17.15950626 1.9375 11.375 C1.953296 9.58328184 1.97229525 7.79157359 2 6 C1.34 6 0.68 6 0 6 C0 4.02 0 2.04 0 0 Z " fill="#A8806C" transform="translate(109,0)"/>
<path d="M0 0 C1.32 0 2.64 0 4 0 C4.1754368 5.50432961 3.5274161 10.53662347 2.5 15.9375 C2.28537109 17.10635742 2.28537109 17.10635742 2.06640625 18.29882812 C1.71645276 20.2002421 1.35900335 22.10027393 1 24 C0.67 24 0.34 24 0 24 C0 16.08 0 8.16 0 0 Z " fill="#000000" transform="translate(0,0)"/>
<path d="M0 0 C0.99 0 1.98 0 3 0 C3 6.6 3 13.2 3 20 C2.01 19.67 1.02 19.34 0 19 C0 12.73 0 6.46 0 0 Z " fill="#896A5F" transform="translate(114,0)"/>
<path d="M0 0 C2.31 0 4.62 0 7 0 C7 2.64 7 5.28 7 8 C6.34 8 5.68 8 5 8 C3 6 3 6 2 4 C1.34 4 0.68 4 0 4 C0 2.68 0 1.36 0 0 Z " fill="#937161" transform="translate(5,0)"/>
<path d="M0 0 C3.625 0.1875 3.625 0.1875 7 1 C7.33 1.66 7.66 2.32 8 3 C4.37 3 0.74 3 -3 3 C-2.01 2.01 -1.02 1.02 0 0 Z " fill="#A3806F" transform="translate(58,55)"/>
</svg>
