<?xml version="1.0" encoding="UTF-8"?>
<svg version="1.1" xmlns="http://www.w3.org/2000/svg" width="118" height="93">
<path d="M0 0 C38.94 0 77.88 0 118 0 C118 30.69 118 61.38 118 93 C79.06 93 40.12 93 0 93 C0 62.31 0 31.62 0 0 Z " fill="#FCD5BB" transform="translate(0,0)"/>
<path d="M0 0 C0 30.69 0 61.38 0 93 C-4.29 93 -8.58 93 -13 93 C-13.06794991 85.42828922 -13.12291616 77.85669307 -13.15543652 70.28475094 C-13.17104978 66.76825002 -13.19220765 63.2519697 -13.22631836 59.7355957 C-13.26534335 55.68699095 -13.27974501 51.63861561 -13.29296875 47.58984375 C-13.30845261 46.33541977 -13.32393646 45.08099579 -13.33988953 43.78855896 C-13.3411363 37.29204189 -12.95481903 32.77517852 -10 27 C-9.39038273 24.18945875 -9.39038273 24.18945875 -9.15625 21.42578125 C-9.04410156 20.42869141 -8.93195313 19.43160156 -8.81640625 18.40429688 C-8.60428188 16.33150133 -8.39335752 14.25858264 -8.18359375 12.18554688 C-8.07144531 11.19232422 -7.95929688 10.19910156 -7.84375 9.17578125 C-7.70743164 7.82867065 -7.70743164 7.82867065 -7.56835938 6.4543457 C-6.41651176 1.48032335 -5.17596321 0 0 0 Z " fill="#AA8B7C" transform="translate(118,0)"/>
<path d="M0 0 C1.32 0.33 2.64 0.66 4 1 C6.13480153 8.73865554 6.20483028 16.00023956 6 24 C6.66 24 7.32 24 8 24 C9.71235319 36.44513835 10.19986982 48.76847338 10.1875 61.3125 C10.1882251 62.02621765 10.1889502 62.7399353 10.18969727 63.47528076 C10.18856342 73.35704013 9.77572255 83.14769874 9 93 C6.03 93 3.06 93 0 93 C0 62.31 0 31.62 0 0 Z " fill="#896757" transform="translate(0,0)"/>
<path d="M0 0 C1.32 0.33 2.64 0.66 4 1 C6.13480153 8.73865554 6.20483028 16.00023956 6 24 C6.66 24 7.32 24 8 24 C8.66 31.59 9.32 39.18 10 47 C9.01 45.68 8.02 44.36 7 43 C5.68 43.66 4.36 44.32 3 45 C2.67 55.89 2.34 66.78 2 78 C1.34 78 0.68 78 0 78 C0 52.26 0 26.52 0 0 Z " fill="#BA9E90" transform="translate(0,0)"/>
<path d="M0 0 C0.04935509 5.37514905 0.08569802 10.75016685 0.10986328 16.12548828 C0.11993484 17.95493873 0.13359276 19.78437303 0.15087891 21.61376953 C0.17507677 24.23994934 0.18647132 26.86591675 0.1953125 29.4921875 C0.20563507 30.31306854 0.21595764 31.13394958 0.22659302 31.97970581 C0.22699184 33.98789142 0.1224954 35.99555382 0 38 C-0.66 38.66 -1.32 39.32 -2 40 C-4.04219706 38.30820672 -4.91793306 37.36272334 -5.51171875 34.73828125 C-5.59873047 33.53751953 -5.59873047 33.53751953 -5.6875 32.3125 C-5.75324219 31.50425781 -5.81898437 30.69601563 -5.88671875 29.86328125 C-5.94279297 28.94095703 -5.94279297 28.94095703 -6 28 C-6.66 28.66 -7.32 29.32 -8 30 C-8.66 29.67 -9.32 29.34 -10 29 C-9.58293757 24.91430801 -9.13783572 20.83214771 -8.6875 16.75 C-8.56955078 15.59113281 -8.45160156 14.43226562 -8.33007812 13.23828125 C-8.20439453 12.12324219 -8.07871094 11.00820312 -7.94921875 9.859375 C-7.78425903 8.31975098 -7.78425903 8.31975098 -7.6159668 6.74902344 C-6.46843476 1.62765572 -5.36412609 0 0 0 Z " fill="#AE8B79" transform="translate(118,0)"/>
<path d="M0 0 C2.28756013 2.28756013 2.93628788 3.88363522 3.12025452 7.10710144 C3.11803391 7.91762466 3.11581329 8.72814789 3.11352539 9.56323242 C3.11341209 10.94432442 3.11341209 10.94432442 3.11329651 12.35331726 C3.10813522 13.34402725 3.10297394 14.33473724 3.09765625 15.35546875 C3.0962413 16.37224197 3.09482635 17.3890152 3.09336853 18.43659973 C3.08776707 21.68692964 3.07521432 24.93719088 3.0625 28.1875 C3.05748519 30.38997296 3.05292225 32.59244701 3.04882812 34.79492188 C3.03779717 40.19663804 3.02105762 45.59831412 3 51 C1.68 50.67 0.36 50.34 -1 50 C-0.67 33.5 -0.34 17 0 0 Z " fill="#000000" transform="translate(115,42)"/>
<path d="M0 0 C0.66 0 1.32 0 2 0 C2.66 7.59 3.32 15.18 4 23 C1.50494038 20.50494038 1.64051624 19.32671112 1.375 15.875 C1.30023437 14.96492188 1.22546875 14.05484375 1.1484375 13.1171875 C1.09945313 12.41851562 1.05046875 11.71984375 1 11 C-0.32 10.67 -1.64 10.34 -3 10 C-3.33 10.66 -3.66 11.32 -4 12 C-4.79953138 8.71303767 -5.09658936 7.28976808 -4 4 C-3.34 4 -2.68 4 -2 4 C-2 3.34 -2 2.68 -2 2 C-1.34 2 -0.68 2 0 2 C0 1.34 0 0.68 0 0 Z " fill="#AF8672" transform="translate(6,24)"/>
<path d="M0 0 C0.66 0.33 1.32 0.66 2 1 C2.4140625 3.28515625 2.4140625 3.28515625 2.625 6.0625 C2.69976562 6.98160156 2.77453125 7.90070312 2.8515625 8.84765625 C2.90054688 9.55792969 2.94953125 10.26820312 3 11 C1.68 10.67 0.36 10.34 -1 10 C-1 11.65 -1 13.3 -1 15 C-1.99 15.33 -2.98 15.66 -4 16 C-4.18451025 6.58997722 -4.18451025 6.58997722 -3 2 C-2.34 2 -1.68 2 -1 2 C-0.67 1.34 -0.34 0.68 0 0 Z " fill="#916957" transform="translate(111,27)"/>
<path d="M0 0 C1.98 0.495 1.98 0.495 4 1 C4.33 3.31 4.66 5.62 5 8 C2.525 9.485 2.525 9.485 0 11 C-1.26026798 8.47946405 -0.91874445 7.1457902 -0.5625 4.375 C-0.46066406 3.55773438 -0.35882813 2.74046875 -0.25390625 1.8984375 C-0.17011719 1.27195313 -0.08632813 0.64546875 0 0 Z " fill="#937265" transform="translate(3,34)"/>
<path d="M0 0 C0.66 0 1.32 0 2 0 C2 6.93 2 13.86 2 21 C1.67 21 1.34 21 1 21 C-0.25414271 14.28137832 -1.38754557 7.84663832 -1 1 C-0.67 0.67 -0.34 0.34 0 0 Z " fill="#8D6450" transform="translate(113,1)"/>
<path d="M0 0 C0.66 0.33 1.32 0.66 2 1 C2 4.63 2 8.26 2 12 C1.01 12.33 0.02 12.66 -1 13 C-1.02696365 11.20841511 -1.04637917 9.41671527 -1.0625 7.625 C-1.07410156 6.62726563 -1.08570312 5.62953125 -1.09765625 4.6015625 C-1 2 -1 2 0 0 Z " fill="#906654" transform="translate(108,80)"/>
<path d="M0 0 C0.66 0.33 1.32 0.66 2 1 C2.4140625 3.28515625 2.4140625 3.28515625 2.625 6.0625 C2.69976562 6.98160156 2.77453125 7.90070312 2.8515625 8.84765625 C2.90054688 9.55792969 2.94953125 10.26820312 3 11 C2.01 10.67 1.02 10.34 0 10 C-0.6875 7.9375 -0.6875 7.9375 -1 6 C-1.99 6.495 -1.99 6.495 -3 7 C-3 5.35 -3 3.7 -3 2 C-2.34 2 -1.68 2 -1 2 C-0.67 1.34 -0.34 0.68 0 0 Z " fill="#856352" transform="translate(111,27)"/>
<path d="M0 0 C1.98 0.495 1.98 0.495 4 1 C4 2.65 4 4.3 4 6 C2.35 6 0.7 6 -1 6 C-0.67 4.02 -0.34 2.04 0 0 Z " fill="#906958" transform="translate(3,34)"/>
</svg>
