<?xml version="1.0" encoding="UTF-8"?>
<svg version="1.1" xmlns="http://www.w3.org/2000/svg" width="79" height="51">
<path d="M0 0 C11.22 0 22.44 0 34 0 C34 14.11764706 34 14.11764706 33.6875 19.375 C33.60048828 21.05722656 33.60048828 21.05722656 33.51171875 22.7734375 C32.5196092 29.029029 29.59525661 32.82249399 25 37 C24.47277344 37.4846875 23.94554687 37.969375 23.40234375 38.46875 C21.64344357 40.03933968 19.84428723 41.5307565 18 43 C17.41605469 43.46921875 16.83210938 43.9384375 16.23046875 44.421875 C9.130477 49.50397436 0.23234349 50.80678155 -8.3125 49.4375 C-13.07345664 48.24726084 -17.19396532 46.10047734 -21 43 C-22.60988604 39.78022792 -22.45861345 36.49201386 -22 33 C-20.09665625 29.26944626 -17.66329206 26.62525854 -14.6875 23.75 C-7.3926294 16.62732591 -3.8217649 9.55441226 0 0 Z " fill="#A07A68" transform="translate(28,0)"/>
<path d="M0 0 C5.94 0 11.88 0 18 0 C18.1079196 4.2298487 18.18729193 8.45694493 18.25 12.6875 C18.30027344 14.48477539 18.30027344 14.48477539 18.3515625 16.31835938 C18.36445312 17.47529297 18.37734375 18.63222656 18.390625 19.82421875 C18.41157227 20.88729248 18.43251953 21.95036621 18.45410156 23.0456543 C17.88627014 26.73991669 16.56413522 28.33140217 14 31 C12.04109119 32.39300182 10.0360882 33.72245446 8 35 C6.19390499 36.30269406 4.40116267 37.62166542 2.61328125 38.94921875 C-0.93311111 41.25909659 -4.26762174 41.16400241 -8.375 41.1875 C-9.49648438 41.20167969 -10.61796875 41.21585938 -11.7734375 41.23046875 C-15.01889213 40.99865056 -17.18266331 40.62381042 -20 39 C-21.0078125 37.21875 -21.0078125 37.21875 -21 35 C-19.7421875 32.34375 -19.7421875 32.34375 -17.875 29.5 C-17.27429688 28.5615625 -16.67359375 27.623125 -16.0546875 26.65625 C-13.93171534 23.91172325 -11.84416548 21.97692813 -9 20 C-8.34 20 -7.68 20 -7 20 C-6.7525 19.175 -6.505 18.35 -6.25 17.5 C-5.05630152 14.15764427 -3.61178825 11.2213523 -1.90234375 8.125 C-0.66701119 5.44638998 -0.66701119 5.44638998 0 0 Z " fill="#FBD4BA" transform="translate(35,0)"/>
<path d="M0 0 C0.66 0.33 1.32 0.66 2 1 C2 2.32 2 3.64 2 5 C6.62 5.66 11.24 6.32 16 7 C16 7.33 16 7.66 16 8 C14.35 8 12.7 8 11 8 C11.33 9.32 11.66 10.64 12 12 C15.96 12.33 19.92 12.66 24 13 C20.69500127 16.30499873 16.51828751 15.93671866 12 16 C4.92197761 15.42610629 -0.30024615 13.17132824 -6 9 C-3 7 -3 7 -1 7 C-1.020625 6.030625 -1.04125 5.06125 -1.0625 4.0625 C-1 1 -1 1 0 0 Z " fill="#A27C6B" transform="translate(13,34)"/>
<path d="M0 0 C1.32 0 2.64 0 4 0 C3.66009167 5.37992836 3.31442207 9.53273547 0 14 C-0.99 13.67 -1.98 13.34 -3 13 C-2.52060632 8.28596212 -2.03165952 4.33420699 0 0 Z " fill="#9C735E" transform="translate(31,0)"/>
<path d="M0 0 C0.33 0 0.66 0 1 0 C1 5.28 1 10.56 1 16 C2.98 15.67 4.96 15.34 7 15 C7.33 13.68 7.66 12.36 8 11 C7.59080462 16.93333307 6.81109992 20.38048494 3 25 C2.34 25 1.68 25 1 25 C1.04125 23.88625 1.0825 22.7725 1.125 21.625 C1.41121859 17.95633975 1.41121859 17.95633975 -1 16 C-0.98252073 13.24410223 -0.86136729 10.61213324 -0.625 7.875 C-0.56828125 7.12089844 -0.5115625 6.36679687 -0.453125 5.58984375 C-0.3115535 3.72581904 -0.15700041 1.86278863 0 0 Z " fill="#A08073" transform="translate(53,10)"/>
<path d="M0 0 C1.41655793 -0.0272415 2.83327045 -0.04650467 4.25 -0.0625 C5.43335938 -0.07990234 5.43335938 -0.07990234 6.640625 -0.09765625 C8.90691002 -0.00385306 10.8288895 0.36758937 13 1 C13.33 2.32 13.66 3.64 14 5 C7.07 4.505 7.07 4.505 0 4 C0 2.68 0 1.36 0 0 Z " fill="#8F6E5E" transform="translate(24,43)"/>
<path d="M0 0 C-0.33 1.32 -0.66 2.64 -1 4 C-6.93024803 4.97040422 -12.06390334 4.89316269 -18 4 C-18 3.67 -18 3.34 -18 3 C-16.12743583 2.49095343 -14.25180659 1.99317545 -12.375 1.5 C-11.33085937 1.2215625 -10.28671875 0.943125 -9.2109375 0.65625 C-6.04312582 0.00881404 -3.22258533 -0.1161292 0 0 Z " fill="#9C7A69" transform="translate(42,39)"/>
<path d="M0 0 C-0.39064415 2.46528135 -0.73239371 3.73307988 -2.5234375 5.51953125 C-3.43996094 6.15955078 -3.43996094 6.15955078 -4.375 6.8125 C-4.98085938 7.25207031 -5.58671875 7.69164062 -6.2109375 8.14453125 C-8 9 -8 9 -11 8 C-10.67 6.68 -10.34 5.36 -10 4 C-9.01 4 -8.02 4 -7 4 C-6.67 3.01 -6.34 2.02 -6 1 C-3 0 -3 0 0 0 Z " fill="#958074" transform="translate(48,38)"/>
<path d="M0 0 C0.66 0 1.32 0 2 0 C1.87431641 0.92232422 1.87431641 0.92232422 1.74609375 1.86328125 C1.64425781 2.67152344 1.54242187 3.47976562 1.4375 4.3125 C1.33308594 5.11300781 1.22867187 5.91351563 1.12109375 6.73828125 C0.85244822 9.16817116 0.85244822 9.16817116 2 12 C0.02 12 -1.96 12 -4 12 C-5 10 -5 10 -4.51171875 8.125 C-4.23972656 7.42375 -3.96773438 6.7225 -3.6875 6 C-3.42324219 5.29875 -3.15898438 4.5975 -2.88671875 3.875 C-2 2 -2 2 0 0 Z " fill="#8E7064" transform="translate(11,30)"/>
<path d="M0 0 C2.64 0.99 5.28 1.98 8 3 C8 3.66 8 4.32 8 5 C8.99 5.33 9.98 5.66 11 6 C11.66 6.66 12.32 7.32 13 8 C6.83543922 7.61471495 3.01372252 5.52913975 -2 2 C-1.34 1.34 -0.68 0.68 0 0 Z " fill="#9C867C" transform="translate(9,41)"/>
<path d="M0 0 C0 3.13604096 -0.45408323 4.23568381 -1.875 6.9375 C-2.22304687 7.60652344 -2.57109375 8.27554688 -2.9296875 8.96484375 C-3.45949219 9.97224609 -3.45949219 9.97224609 -4 11 C-4.66943531 12.33194542 -5.33691996 13.66487938 -6 15 C-6.45826062 9.2717423 -5.55825861 6.5001506 -2 2 C-1.34 1.34 -0.68 0.68 0 0 Z " fill="#A68473" transform="translate(12,25)"/>
<path d="M0 0 C1.65 0.33 3.3 0.66 5 1 C4.67 1.99 4.34 2.98 4 4 C2.35 4.33 0.7 4.66 -1 5 C-0.67 3.35 -0.34 1.7 0 0 Z " fill="#936F5A" transform="translate(15,24)"/>
<path d="M0 0 C1.32 0 2.64 0 4 0 C3.67 1.32 3.34 2.64 3 4 C1.68 3.67 0.36 3.34 -1 3 C-0.67 2.01 -0.34 1.02 0 0 Z " fill="#947061" transform="translate(38,39)"/>
</svg>
