<?xml version="1.0" encoding="UTF-8"?>
<svg version="1.1" xmlns="http://www.w3.org/2000/svg" width="64" height="75">
<path d="M0 0 C11.55 0 23.1 0 35 0 C33 6 33 6 32.01757812 8.38696289 C27.51651065 19.90145109 27.29512205 32.43139925 26.21826172 44.62866211 C25.94113786 47.7110114 25.64328917 50.79085467 25.34375 53.87109375 C25.26757446 54.81383652 25.19139893 55.75657928 25.11291504 56.72789001 C24.60097688 61.92348683 24.02730578 65.29670841 20 69 C17.640625 69.48828125 17.640625 69.48828125 15.25 69.3125 C14.45078125 69.26738281 13.6515625 69.22226563 12.828125 69.17578125 C12.22484375 69.11777344 11.6215625 69.05976562 11 69 C10.855625 69.639375 10.71125 70.27875 10.5625 70.9375 C10 73 10 73 9 74 C5.08916637 74.14757863 1.76724335 73.94181084 -2 73 C-3.175625 73.0825 -4.35125 73.165 -5.5625 73.25 C-6.696875 73.1675 -7.83125 73.085 -9 73 C-11.38164192 70.15739513 -12 68.71594733 -12 65 C-12.928125 65.103125 -13.85625 65.20625 -14.8125 65.3125 C-18 65 -18 65 -19.9375 63.0625 C-22.92135315 54.46198209 -18.30717649 45.89573132 -15 38 C-15.90492187 38.05220703 -15.90492187 38.05220703 -16.828125 38.10546875 C-20.35894487 38.22506104 -23.27601232 38.25856703 -26.625 37.0625 C-28.6246993 34.06295104 -28.36807681 31.81798283 -27.77734375 28.32421875 C-26.34059743 24.02841946 -23.46356314 21.7742685 -20 19 C-19.48695312 18.58508301 -18.97390625 18.17016602 -18.4453125 17.74267578 C-7.98564551 9.3285485 -7.98564551 9.3285485 -4 8 C-2.68 5.36 -1.36 2.72 0 0 Z " fill="#977262" transform="translate(28,0)"/>
<path d="M0 0 C5.94 0 11.88 0 18 0 C16 6 16 6 14.91015625 8.53881836 C13.91316267 11.23481952 13.62775147 13.51526736 13.4375 16.37890625 C13.36273438 17.38244141 13.28796875 18.38597656 13.2109375 19.41992188 C13.07005148 21.5188627 12.92942744 23.61782113 12.7890625 25.71679688 C12.71429688 26.71904297 12.63953125 27.72128906 12.5625 28.75390625 C12.47162109 30.12011108 12.47162109 30.12011108 12.37890625 31.51391602 C11.98958787 34.06831621 11.21119586 35.74206587 10 38 C9.54724722 40.81496741 9.54724722 40.81496741 9.375 43.75 C9.30023438 44.73484375 9.22546875 45.7196875 9.1484375 46.734375 C9.09945312 47.48203125 9.05046875 48.2296875 9 49 C8.67 49 8.34 49 8 49 C8 47.02 8 45.04 8 43 C5.525 43.495 5.525 43.495 3 44 C2.80664062 44.92941406 2.61328125 45.85882813 2.4140625 46.81640625 C-0.17223199 59.09490334 -0.17223199 59.09490334 -2 65 C-2.33 65 -2.66 65 -3 65 C-3.13690844 57.27227893 -2.75166913 49.69118596 -2 42 C-5.99687977 44.66458651 -6.08411088 47.56026632 -7 52 C-8.59459459 59.72972973 -8.59459459 59.72972973 -12 62 C-12 58.04 -12 54.08 -12 50 C-10.515 49.505 -10.515 49.505 -9 49 C-9 45.7 -9 42.4 -9 39 C-10.485 39.495 -10.485 39.495 -12 40 C-13.21869929 42.50447516 -13.21869929 42.50447516 -14 45 C-14.66 45 -15.32 45 -16 45 C-16.144375 46.11375 -16.28875 47.2275 -16.4375 48.375 C-17 52 -17 52 -18 54 C-18.66 54 -19.32 54 -20 54 C-20 54.99 -20 55.98 -20 57 C-20.66 57 -21.32 57 -22 57 C-21.67 54.36 -21.34 51.72 -21 49 C-19.515 48.505 -19.515 48.505 -18 48 C-17.10569907 45.57871576 -17.10569907 45.57871576 -16.5625 42.625 C-15.18898564 36.53185649 -13.25588064 30.81719475 -11 25 C-14.72491022 25.96847666 -17.77019582 26.87833896 -21.1875 28.6875 C-24 30 -24 30 -26.375 29.6875 C-26.91125 29.460625 -27.4475 29.23375 -28 29 C-27.67 28.34 -27.34 27.68 -27 27 C-26.01 27 -25.02 27 -24 27 C-23.773125 26.4225 -23.54625 25.845 -23.3125 25.25 C-21.22062803 21.66393377 -18.4235336 19.54751292 -14.5625 18.0625 C-9.26777285 15.86712533 -5.44576808 12.14898544 -3 7 C-2.29329272 4.30745009 -2.29329272 4.30745009 -2 2 C-1.34 2 -0.68 2 0 2 C0 1.34 0 0.68 0 0 Z " fill="#FAD3B9" transform="translate(36,0)"/>
<path d="M0 0 C0.66 0 1.32 0 2 0 C2 6.93 2 13.86 2 21 C4.15453023 12.97629375 4.15453023 12.97629375 5.625 4.8125 C6 2 6 2 7 1 C8.65 1 10.3 1 12 1 C12 6.94 12 12.88 12 19 C12.66 19 13.32 19 14 19 C14.33 17.35 14.66 15.7 15 14 C16.0326802 16.78823655 16.04509293 17.8677274 15.0625 20.75 C14.5365625 21.86375 14.5365625 21.86375 14 23 C11.69 22.67 9.38 22.34 7 22 C6.87625 22.804375 6.7525 23.60875 6.625 24.4375 C6.41875 25.283125 6.2125 26.12875 6 27 C4 28 4 28 1.125 27.875 C-2.47493268 28.01899731 -3.24790907 28.86934896 -6 31 C-8.75 31.1875 -8.75 31.1875 -11 31 C-11 30.01 -11 29.02 -11 28 C-11.66 28 -12.32 28 -13 28 C-12.505 26.515 -12.505 26.515 -12 25 C-11.34 25.33 -10.68 25.66 -10 26 C-10 25.34 -10 24.68 -10 24 C-9.01 23.67 -8.02 23.34 -7 23 C-6.14713646 20.92589052 -6.14713646 20.92589052 -5.68359375 18.37890625 C-5.47669922 17.44369141 -5.26980469 16.50847656 -5.05664062 15.54492188 C-4.85232422 14.56072266 -4.64800781 13.57652344 -4.4375 12.5625 C-4.02603283 10.62491 -3.60835323 8.68862577 -3.18359375 6.75390625 C-3.00368896 5.89095947 -2.82378418 5.0280127 -2.63842773 4.13891602 C-2 2 -2 2 0 0 Z " fill="#9A705C" transform="translate(32,42)"/>
<path d="M0 0 C0.33 0 0.66 0 1 0 C1.07347656 0.95712891 1.07347656 0.95712891 1.1484375 1.93359375 C1.22320312 2.75988281 1.29796875 3.58617187 1.375 4.4375 C1.44460937 5.26121094 1.51421875 6.08492187 1.5859375 6.93359375 C1.72257812 7.61550781 1.85921875 8.29742187 2 9 C2.66 9.33 3.32 9.66 4 10 C4.33 7.69 4.66 5.38 5 3 C5.66 3 6.32 3 7 3 C7.07338722 9.14006393 6.87116706 15.14185727 6.25 21.25 C6.1571875 22.41402344 6.1571875 22.41402344 6.0625 23.6015625 C5.56585395 28.45213887 4.80878106 31.61367176 1 35 C-1.359375 35.48828125 -1.359375 35.48828125 -3.75 35.3125 C-4.54921875 35.26738281 -5.3484375 35.22226563 -6.171875 35.17578125 C-7.07679687 35.08876953 -7.07679687 35.08876953 -8 35 C-8.144375 35.639375 -8.28875 36.27875 -8.4375 36.9375 C-9 39 -9 39 -10 40 C-16.52542373 40.23728814 -16.52542373 40.23728814 -19 39 C-18.34 37.68 -17.68 36.36 -17 35 C-14.36 35 -11.72 35 -9 35 C-8.67 33.35 -8.34 31.7 -8 30 C-5.69 30.33 -3.38 30.66 -1 31 C-0.67 28.69 -0.34 26.38 0 24 C-0.33 24.99 -0.66 25.98 -1 27 C-1.66 27 -2.32 27 -3 27 C-3.33217348 5.85162172 -3.33217348 5.85162172 0 0 Z " fill="#937C71" transform="translate(47,34)"/>
<path d="M0 0 C2.97 0 5.94 0 9 0 C8.05966209 2.87558692 7.10738487 5.72692362 6 8.54296875 C2.49123915 17.82199646 1.77970078 27.19218494 1 37 C0.67 37 0.34 37 0 37 C-0.33 28.09 -0.66 19.18 -1 10 C-1.66 11.32 -2.32 12.64 -3 14 C-3.66 14 -4.32 14 -5 14 C-4.45734262 8.57342622 -2.53634391 4.74541763 0 0 Z " fill="#9D806F" transform="translate(54,0)"/>
<path d="M0 0 C0.33 0 0.66 0 1 0 C1.12117187 0.62648437 1.24234375 1.25296875 1.3671875 1.8984375 C1.53476563 2.71570312 1.70234375 3.53296875 1.875 4.375 C2.03742187 5.18710937 2.19984375 5.99921875 2.3671875 6.8359375 C2.86658932 9.18673923 2.86658932 9.18673923 5 11 C5.886875 10.649375 6.77375 10.29875 7.6875 9.9375 C11.10311356 8.97081692 12.6554863 9.07096842 16 10 C16.66 10 17.32 10 18 10 C17.67 11.65 17.34 13.3 17 15 C16.01 15 15.02 15 14 15 C14 15.66 14 16.32 14 17 C13.34 17 12.68 17 12 17 C11.67 17.66 11.34 18.32 11 19 C11.66 19 12.32 19 13 19 C13 19.99 13 20.98 13 22 C11.0625 21.375 11.0625 21.375 9 20 C8.25 16.875 8.25 16.875 8 14 C6.6078125 14.1546875 6.6078125 14.1546875 5.1875 14.3125 C2 14 2 14 0.0625 12.0625 C-1.40471148 7.83347867 -0.78479451 4.3400082 0 0 Z " fill="#99857B" transform="translate(8,51)"/>
<path d="M0 0 C0.33 0 0.66 0 1 0 C1.06058594 0.63808594 1.12117188 1.27617188 1.18359375 1.93359375 C1.26738281 2.75988281 1.35117187 3.58617187 1.4375 4.4375 C1.51871094 5.26121094 1.59992187 6.08492187 1.68359375 6.93359375 C1.78930815 8.98662025 1.78930815 8.98662025 3 10 C3.07244053 12.01964199 3.08377188 14.04167124 3.0625 16.0625 C3.05347656 17.16722656 3.04445313 18.27195312 3.03515625 19.41015625 C3.02355469 20.26480469 3.01195312 21.11945312 3 22 C2.01 22 1.02 22 0 22 C-0.33 23.65 -0.66 25.3 -1 27 C-1.66 27 -2.32 27 -3 27 C-3.33217348 5.85162172 -3.33217348 5.85162172 0 0 Z " fill="#B18674" transform="translate(47,34)"/>
<path d="M0 0 C0.25 2.3125 0.25 2.3125 0 5 C-0.639375 5.45375 -1.27875 5.9075 -1.9375 6.375 C-4.40541151 7.95929206 -4.40541151 7.95929206 -4.75 11.6875 C-4.8325 12.780625 -4.915 13.87375 -5 15 C-1.37 15.66 2.26 16.32 6 17 C5.67 17.66 5.34 18.32 5 19 C3.41753293 19.08153933 1.83383727 19.13943557 0.25 19.1875 C-1.07257812 19.23970703 -1.07257812 19.23970703 -2.421875 19.29296875 C-5.5293536 18.93984618 -6.84054849 18.24963742 -9 16 C-9.65798258 12.82692513 -9.05849781 10.03502928 -8 7 C-2.75956284 0 -2.75956284 0 0 0 Z " fill="#9E8A81" transform="translate(9,19)"/>
<path d="M0 0 C-1.78321678 10.8041958 -1.78321678 10.8041958 -5 15 C-5.33 15 -5.66 15 -6 15 C-6.10807131 13.06372231 -6.1856225 11.12572244 -6.25 9.1875 C-6.29640625 8.10855469 -6.3428125 7.02960937 -6.390625 5.91796875 C-6 3 -6 3 -4.109375 1.11328125 C-2 0 -2 0 0 0 Z " fill="#E2BAA4" transform="translate(30,47)"/>
<path d="M0 0 C2.05078125 0.03255208 4.1015625 0.06510417 6.15234375 0.09765625 C6.15234375 0.75765625 6.15234375 1.41765625 6.15234375 2.09765625 C5.49234375 2.09765625 4.83234375 2.09765625 4.15234375 2.09765625 C4.15234375 3.74765625 4.15234375 5.39765625 4.15234375 7.09765625 C1.51234375 7.42765625 -1.12765625 7.75765625 -3.84765625 8.09765625 C-2.83612374 0.14990083 -2.83612374 0.14990083 0 0 Z " fill="#A57D6C" transform="translate(29.84765625,-0.09765625)"/>
<path d="M0 0 C0.99 0.66 1.98 1.32 3 2 C2.67 3.65 2.34 5.3 2 7 C1.34 7 0.68 7 0 7 C-0.144375 8.11375 -0.28875 9.2275 -0.4375 10.375 C-1 14 -1 14 -2 16 C-2.66 16 -3.32 16 -4 16 C-4 16.99 -4 17.98 -4 19 C-4.66 19 -5.32 19 -6 19 C-5.67 16.36 -5.34 13.72 -5 11 C-4.01 10.67 -3.02 10.34 -2 10 C-1.34 6.7 -0.68 3.4 0 0 Z " fill="#E0B9A2" transform="translate(20,38)"/>
<path d="M0 0 C2.125 1.375 2.125 1.375 4 4 C3.83148197 7.46063809 2.93682253 10.6752983 2 14 C1.8040625 14.72832031 1.608125 15.45664062 1.40625 16.20703125 C0.96180237 17.81161791 0.48478471 19.40713596 0 21 C-0.33 21 -0.66 21 -1 21 C-1.12109311 13.92278069 -0.85373239 7.02804699 0 0 Z " fill="#DDB59F" transform="translate(34,44)"/>
<path d="M0 0 C0.66 0.33 1.32 0.66 2 1 C3.67654729 0.72057545 5.34608154 0.39171753 7 0 C7 4 7 4 6 6 C3.69 6 1.38 6 -1 6 C-0.67 4.02 -0.34 2.04 0 0 Z " fill="#996F60" transform="translate(25,6)"/>
<path d="M0 0 C0.66 1.32 1.32 2.64 2 4 C0.29171079 6.10633718 -0.52148416 6.93801608 -3.26171875 7.29296875 C-4.06222656 7.25816406 -4.86273438 7.22335938 -5.6875 7.1875 C-6.49574219 7.16042969 -7.30398437 7.13335937 -8.13671875 7.10546875 C-8.75160156 7.07066406 -9.36648437 7.03585938 -10 7 C-9.34 6.67 -8.68 6.34 -8 6 C-8 5.34 -8 4.68 -8 4 C-6.02 4 -4.04 4 -2 4 C-2 3.34 -2 2.68 -2 2 C-1.34 2 -0.68 2 0 2 C0 1.34 0 0.68 0 0 Z " fill="#96827B" transform="translate(49,62)"/>
<path d="M0 0 C-0.33 1.65 -0.66 3.3 -1 5 C-1.99 5 -2.98 5 -4 5 C-4 5.66 -4 6.32 -4 7 C-4.99 6.67 -5.98 6.34 -7 6 C-7.33 4.35 -7.66 2.7 -8 1 C-5.10765685 0.17361624 -3.11257569 0 0 0 Z " fill="#A87F6C" transform="translate(26,61)"/>
<path d="M0 0 C2.3125 0.1875 2.3125 0.1875 4 1 C3.34 2.65 2.68 4.3 2 6 C-0.31 5.67 -2.62 5.34 -5 5 C-2.75 2.4375 -2.75 2.4375 0 0 Z " fill="#9D7E73" transform="translate(21,9)"/>
<path d="M0 0 C1.32 0 2.64 0 4 0 C3.65120368 3.25543229 2.97866739 4.01873107 0.4375 6.25 C-0.366875 6.8275 -1.17125 7.405 -2 8 C-1.125 1.125 -1.125 1.125 0 0 Z " fill="#9F8676" transform="translate(28,0)"/>
<path d="M0 0 C0.66 0 1.32 0 2 0 C2 2.97 2 5.94 2 9 C1.34 9 0.68 9 0 9 C-1.125 2.25 -1.125 2.25 0 0 Z " fill="#9E8272" transform="translate(52,37)"/>
<path d="M0 0 C0.99 0 1.98 0 3 0 C2.8125 2.3125 2.8125 2.3125 2 5 C-0.5625 6.8125 -0.5625 6.8125 -3 8 C-1.125 2.25 -1.125 2.25 0 0 Z " fill="#B48B75" transform="translate(54,0)"/>
<path d="M0 0 C0.33 0 0.66 0 1 0 C1.29296875 6.0546875 1.29296875 6.0546875 1 8 C0.01 8.66 -0.98 9.32 -2 10 C-2.25 3.375 -2.25 3.375 0 0 Z " fill="#F4D0B9" transform="translate(26,52)"/>
<path d="M0 0 C1.98 0 3.96 0 6 0 C6 1.32 6 2.64 6 4 C4.35 4 2.7 4 1 4 C0.67 2.68 0.34 1.36 0 0 Z " fill="#8B6F64" transform="translate(20,69)"/>
<path d="M0 0 C1.32 0 2.64 0 4 0 C3.67 1.98 3.34 3.96 3 6 C2.01 6 1.02 6 0 6 C0 4.02 0 2.04 0 0 Z " fill="#90684F" transform="translate(21,26)"/>
<path d="M0 0 C0.33 0.99 0.66 1.98 1 3 C0.01 4.485 0.01 4.485 -1 6 C-2.5 4.625 -2.5 4.625 -4 3 C-4 2.34 -4 1.68 -4 1 C-2.68 0.67 -1.36 0.34 0 0 Z " fill="#A47D6C" transform="translate(19,40)"/>
</svg>
