<?xml version="1.0" encoding="UTF-8"?>
<svg version="1.1" xmlns="http://www.w3.org/2000/svg" width="223" height="228">
<path d="M0 0 C7.82833199 7.25279343 14.91342129 15.81511975 18.875 25.8125 C19.21015625 26.65683594 19.5453125 27.50117187 19.890625 28.37109375 C24.94619986 42.27392462 26.31926066 57.1885502 27.875 71.8125 C29.76798828 72.23595703 29.76798828 72.23595703 31.69921875 72.66796875 C37.00232619 73.85426143 39.36434311 76.87022685 42.625 81.0625 C44.39172193 84.94928824 44.65189662 88.58029652 44.875 92.8125 C44.95427734 93.99199219 44.95427734 93.99199219 45.03515625 95.1953125 C45.48862491 107.45868222 41.72514248 117.41089355 33.875 126.8125 C29.71470668 130.84928461 25.79422981 134.12166126 20.3046875 136.09765625 C16.10839619 138.19580191 14.88603019 140.58520298 13.0625 144.6875 C9.2128013 152.56348909 4.47769484 159.09795254 -1.125 165.8125 C-2.32576172 167.26076172 -2.32576172 167.26076172 -3.55078125 168.73828125 C-7.48857131 173.31141223 -10.54701313 176.31037446 -16.125 178.8125 C-15.91875 179.59625 -15.7125 180.38 -15.5 181.1875 C-15.314375 182.486875 -15.314375 182.486875 -15.125 183.8125 C-15.785 184.4725 -16.445 185.1325 -17.125 185.8125 C-17.455 184.4925 -17.785 183.1725 -18.125 181.8125 C-18.723125 182.1425 -19.32125 182.4725 -19.9375 182.8125 C-22.125 183.8125 -22.125 183.8125 -25.125 183.8125 C-25.125 184.8025 -25.125 185.7925 -25.125 186.8125 C-24.465 187.4725 -23.805 188.1325 -23.125 188.8125 C-25.105 189.8025 -25.105 189.8025 -27.125 190.8125 C-27.455 189.8225 -27.785 188.8325 -28.125 187.8125 C-29.52309472 188.07140643 -30.91842142 188.34527461 -32.3125 188.625 C-33.47845703 188.85123047 -33.47845703 188.85123047 -34.66796875 189.08203125 C-37.1965998 189.68813018 -37.1965998 189.68813018 -39.25585938 191.33984375 C-43.01767394 193.27068662 -46.36438846 193.18930489 -50.48828125 193.10546875 C-51.28026413 193.10122391 -52.07224701 193.09697906 -52.88822937 193.09260559 C-55.40500627 193.07588163 -57.92096724 193.03824225 -60.4375 193 C-62.14907693 192.98494499 -63.86066649 192.97125801 -65.57226562 192.95898438 C-69.75682233 192.92599885 -73.94077307 192.87426098 -78.125 192.8125 C-78.125 191.4925 -78.125 190.1725 -78.125 188.8125 C-79.0325 189.01875 -79.94 189.225 -80.875 189.4375 C-84.23527897 189.8252245 -85.36575815 189.61661967 -88.125 187.8125 C-89.115 188.4725 -90.105 189.1325 -91.125 189.8125 C-91.455 189.1525 -91.785 188.4925 -92.125 187.8125 C-91.465 187.4825 -90.805 187.1525 -90.125 186.8125 C-90.125 186.1525 -90.125 185.4925 -90.125 184.8125 C-93.278368 184.11175156 -95.85224974 183.8125 -99.125 183.8125 C-98.465 183.4825 -97.805 183.1525 -97.125 182.8125 C-97.125 181.8225 -97.125 180.8325 -97.125 179.8125 C-98.59305792 178.46954211 -98.59305792 178.46954211 -100.5625 177.25 C-110.84677945 169.88594805 -119.18714463 158.73966642 -124.81811523 147.50952148 C-128.42491854 140.45749816 -132.14351395 136.89691763 -138.97094727 132.92651367 C-148.84620024 127.17807272 -153.63078965 119.55007343 -157.125 108.8125 C-158.33092023 104.24391759 -158.37931457 99.69750334 -158.4375 95 C-158.48100586 93.84661133 -158.48100586 93.84661133 -158.52539062 92.66992188 C-158.60077743 85.79812465 -156.69059709 80.52470263 -151.9375 75.5 C-149.39109763 73.97215858 -147.25195169 73.11089363 -144.44921875 72.20703125 C-143.23431763 71.81221558 -143.23431763 71.81221558 -141.99487305 71.40942383 C-141.37781494 71.21243896 -140.76075684 71.0154541 -140.125 70.8125 C-140.0748877 70.18907715 -140.02477539 69.5656543 -139.97314453 68.92333984 C-139.40098115 61.88222719 -138.78587599 54.8458517 -138.125 47.8125 C-138.05555176 47.06871094 -137.98610352 46.32492188 -137.91455078 45.55859375 C-136.17321423 28.01230175 -128.77196106 13.95759753 -116.125 1.8125 C-115.41601562 1.09449219 -114.70703125 0.37648438 -113.9765625 -0.36328125 C-83.44797654 -29.66001199 -30.70638849 -27.51023874 0 0 Z " fill="#FDD7BD" transform="translate(170.125,35.1875)"/>
<path d="M0 0 C7.82833199 7.25279343 14.91342129 15.81511975 18.875 25.8125 C19.21015625 26.65683594 19.5453125 27.50117187 19.890625 28.37109375 C24.94619986 42.27392462 26.31926066 57.1885502 27.875 71.8125 C29.76798828 72.23595703 29.76798828 72.23595703 31.69921875 72.66796875 C37.00232619 73.85426143 39.36434311 76.87022685 42.625 81.0625 C44.39172193 84.94928824 44.65189662 88.58029652 44.875 92.8125 C44.95427734 93.99199219 44.95427734 93.99199219 45.03515625 95.1953125 C45.48862491 107.45868222 41.72514248 117.41089355 33.875 126.8125 C29.71470668 130.84928461 25.79422981 134.12166126 20.3046875 136.09765625 C16.10839619 138.19580191 14.88603019 140.58520298 13.0625 144.6875 C9.2128013 152.56348909 4.47769484 159.09795254 -1.125 165.8125 C-2.32576172 167.26076172 -2.32576172 167.26076172 -3.55078125 168.73828125 C-7.48857131 173.31141223 -10.54701313 176.31037446 -16.125 178.8125 C-15.91875 179.59625 -15.7125 180.38 -15.5 181.1875 C-15.314375 182.486875 -15.314375 182.486875 -15.125 183.8125 C-15.785 184.4725 -16.445 185.1325 -17.125 185.8125 C-17.455 184.4925 -17.785 183.1725 -18.125 181.8125 C-18.723125 182.1425 -19.32125 182.4725 -19.9375 182.8125 C-22.125 183.8125 -22.125 183.8125 -25.125 183.8125 C-25.125 184.8025 -25.125 185.7925 -25.125 186.8125 C-24.465 187.4725 -23.805 188.1325 -23.125 188.8125 C-25.105 189.8025 -25.105 189.8025 -27.125 190.8125 C-27.455 189.8225 -27.785 188.8325 -28.125 187.8125 C-29.52309472 188.07140643 -30.91842142 188.34527461 -32.3125 188.625 C-33.47845703 188.85123047 -33.47845703 188.85123047 -34.66796875 189.08203125 C-37.1965998 189.68813018 -37.1965998 189.68813018 -39.25585938 191.33984375 C-43.01767394 193.27068662 -46.36438846 193.18930489 -50.48828125 193.10546875 C-51.28026413 193.10122391 -52.07224701 193.09697906 -52.88822937 193.09260559 C-55.40500627 193.07588163 -57.92096724 193.03824225 -60.4375 193 C-62.14907693 192.98494499 -63.86066649 192.97125801 -65.57226562 192.95898438 C-69.75682233 192.92599885 -73.94077307 192.87426098 -78.125 192.8125 C-78.125 191.4925 -78.125 190.1725 -78.125 188.8125 C-79.0325 189.01875 -79.94 189.225 -80.875 189.4375 C-84.23527897 189.8252245 -85.36575815 189.61661967 -88.125 187.8125 C-89.115 188.4725 -90.105 189.1325 -91.125 189.8125 C-91.455 189.1525 -91.785 188.4925 -92.125 187.8125 C-91.465 187.4825 -90.805 187.1525 -90.125 186.8125 C-90.125 186.1525 -90.125 185.4925 -90.125 184.8125 C-93.278368 184.11175156 -95.85224974 183.8125 -99.125 183.8125 C-98.465 183.4825 -97.805 183.1525 -97.125 182.8125 C-97.125 181.8225 -97.125 180.8325 -97.125 179.8125 C-98.59305792 178.46954211 -98.59305792 178.46954211 -100.5625 177.25 C-110.84677945 169.88594805 -119.18714463 158.73966642 -124.81811523 147.50952148 C-128.42491854 140.45749816 -132.14351395 136.89691763 -138.97094727 132.92651367 C-148.84620024 127.17807272 -153.63078965 119.55007343 -157.125 108.8125 C-158.33092023 104.24391759 -158.37931457 99.69750334 -158.4375 95 C-158.48100586 93.84661133 -158.48100586 93.84661133 -158.52539062 92.66992188 C-158.60077743 85.79812465 -156.69059709 80.52470263 -151.9375 75.5 C-149.39109763 73.97215858 -147.25195169 73.11089363 -144.44921875 72.20703125 C-143.23431763 71.81221558 -143.23431763 71.81221558 -141.99487305 71.40942383 C-141.37781494 71.21243896 -140.76075684 71.0154541 -140.125 70.8125 C-140.0748877 70.18907715 -140.02477539 69.5656543 -139.97314453 68.92333984 C-139.40098115 61.88222719 -138.78587599 54.8458517 -138.125 47.8125 C-138.05555176 47.06871094 -137.98610352 46.32492188 -137.91455078 45.55859375 C-136.17321423 28.01230175 -128.77196106 13.95759753 -116.125 1.8125 C-115.41601562 1.09449219 -114.70703125 0.37648438 -113.9765625 -0.36328125 C-83.44797654 -29.66001199 -30.70638849 -27.51023874 0 0 Z M-72.125 -9.1875 C-72.125 -8.5275 -72.125 -7.8675 -72.125 -7.1875 C-74.765 -7.1875 -77.405 -7.1875 -80.125 -7.1875 C-80.125 -6.5275 -80.125 -5.8675 -80.125 -5.1875 C-82.765 -5.1875 -85.405 -5.1875 -88.125 -5.1875 C-88.125 -4.1975 -88.125 -3.2075 -88.125 -2.1875 C-89.775 -2.1875 -91.425 -2.1875 -93.125 -2.1875 C-93.125 -1.5275 -93.125 -0.8675 -93.125 -0.1875 C-94.775 -0.1875 -96.425 -0.1875 -98.125 -0.1875 C-98.125 0.8025 -98.125 1.7925 -98.125 2.8125 C-98.785 2.8125 -99.445 2.8125 -100.125 2.8125 C-100.125 3.8025 -100.125 4.7925 -100.125 5.8125 C-101.115 5.8125 -102.105 5.8125 -103.125 5.8125 C-103.125 6.4725 -103.125 7.1325 -103.125 7.8125 C-104.115 7.8125 -105.105 7.8125 -106.125 7.8125 C-106.125 8.8025 -106.125 9.7925 -106.125 10.8125 C-106.785 10.8125 -107.445 10.8125 -108.125 10.8125 C-108.125 11.4725 -108.125 12.1325 -108.125 12.8125 C-109.115 12.8125 -110.105 12.8125 -111.125 12.8125 C-111.125 13.8025 -111.125 14.7925 -111.125 15.8125 C-112.115 15.8125 -113.105 15.8125 -114.125 15.8125 C-114.125 16.4725 -114.125 17.1325 -114.125 17.8125 C-114.785 17.8125 -115.445 17.8125 -116.125 17.8125 C-116.125 18.8025 -116.125 19.7925 -116.125 20.8125 C-117.115 20.8125 -118.105 20.8125 -119.125 20.8125 C-119.125 22.4625 -119.125 24.1125 -119.125 25.8125 C-119.785 25.8125 -120.445 25.8125 -121.125 25.8125 C-121.125 28.4525 -121.125 31.0925 -121.125 33.8125 C-121.785 33.8125 -122.445 33.8125 -123.125 33.8125 C-123.125 36.4525 -123.125 39.0925 -123.125 41.8125 C-124.115 41.8125 -125.105 41.8125 -126.125 41.8125 C-126.125 46.7625 -126.125 51.7125 -126.125 56.8125 C-126.785 56.8125 -127.445 56.8125 -128.125 56.8125 C-128.125 67.0425 -128.125 77.2725 -128.125 87.8125 C-127.465 87.8125 -126.805 87.8125 -126.125 87.8125 C-126.125 95.4025 -126.125 102.9925 -126.125 110.8125 C-125.135 110.8125 -124.145 110.8125 -123.125 110.8125 C-123.125 114.4425 -123.125 118.0725 -123.125 121.8125 C-122.465 121.8125 -121.805 121.8125 -121.125 121.8125 C-121.125 124.1225 -121.125 126.4325 -121.125 128.8125 C-120.135 128.8125 -119.145 128.8125 -118.125 128.8125 C-118.125 131.1225 -118.125 133.4325 -118.125 135.8125 C-117.465 135.8125 -116.805 135.8125 -116.125 135.8125 C-116.125 137.7925 -116.125 139.7725 -116.125 141.8125 C-115.135 141.8125 -114.145 141.8125 -113.125 141.8125 C-113.125 142.8025 -113.125 143.7925 -113.125 144.8125 C-112.465 144.8125 -111.805 144.8125 -111.125 144.8125 C-111.125 146.4625 -111.125 148.1125 -111.125 149.8125 C-110.135 149.8125 -109.145 149.8125 -108.125 149.8125 C-108.125 151.4625 -108.125 153.1125 -108.125 154.8125 C-107.135 154.8125 -106.145 154.8125 -105.125 154.8125 C-105.125 155.4725 -105.125 156.1325 -105.125 156.8125 C-104.465 156.8125 -103.805 156.8125 -103.125 156.8125 C-103.125 157.8025 -103.125 158.7925 -103.125 159.8125 C-102.135 159.8125 -101.145 159.8125 -100.125 159.8125 C-100.125 160.4725 -100.125 161.1325 -100.125 161.8125 C-99.465 161.8125 -98.805 161.8125 -98.125 161.8125 C-98.125 162.8025 -98.125 163.7925 -98.125 164.8125 C-97.135 164.8125 -96.145 164.8125 -95.125 164.8125 C-95.125 165.8025 -95.125 166.7925 -95.125 167.8125 C-94.465 167.8125 -93.805 167.8125 -93.125 167.8125 C-93.125 168.4725 -93.125 169.1325 -93.125 169.8125 C-92.135 169.8125 -91.145 169.8125 -90.125 169.8125 C-90.125 170.8025 -90.125 171.7925 -90.125 172.8125 C-88.475 172.8125 -86.825 172.8125 -85.125 172.8125 C-85.125 173.4725 -85.125 174.1325 -85.125 174.8125 C-83.475 174.8125 -81.825 174.8125 -80.125 174.8125 C-80.125 175.8025 -80.125 176.7925 -80.125 177.8125 C-77.485 177.8125 -74.845 177.8125 -72.125 177.8125 C-72.125 178.4725 -72.125 179.1325 -72.125 179.8125 C-62.65317776 181.03467061 -52.4937609 182.02725398 -43.125 179.8125 C-43.125 179.1525 -43.125 178.4925 -43.125 177.8125 C-39.825 177.8125 -36.525 177.8125 -33.125 177.8125 C-33.125 177.1525 -33.125 176.4925 -33.125 175.8125 C-31.475 175.4825 -29.825 175.1525 -28.125 174.8125 C-28.125 174.1525 -28.125 173.4925 -28.125 172.8125 C-27.465 172.8125 -26.805 172.8125 -26.125 172.8125 C-26.125 171.8225 -26.125 170.8325 -26.125 169.8125 C-24.475 169.8125 -22.825 169.8125 -21.125 169.8125 C-21.125 169.1525 -21.125 168.4925 -21.125 167.8125 C-20.135 167.8125 -19.145 167.8125 -18.125 167.8125 C-18.125 166.8225 -18.125 165.8325 -18.125 164.8125 C-17.465 164.8125 -16.805 164.8125 -16.125 164.8125 C-16.125 164.1525 -16.125 163.4925 -16.125 162.8125 C-15.135 162.8125 -14.145 162.8125 -13.125 162.8125 C-13.125 161.8225 -13.125 160.8325 -13.125 159.8125 C-12.135 159.8125 -11.145 159.8125 -10.125 159.8125 C-10.125 158.8225 -10.125 157.8325 -10.125 156.8125 C-9.465 156.8125 -8.805 156.8125 -8.125 156.8125 C-8.125 155.1625 -8.125 153.5125 -8.125 151.8125 C-7.135 151.8125 -6.145 151.8125 -5.125 151.8125 C-5.125 151.1525 -5.125 150.4925 -5.125 149.8125 C-4.465 149.8125 -3.805 149.8125 -3.125 149.8125 C-2.795 148.1625 -2.465 146.5125 -2.125 144.8125 C-1.465 144.8125 -0.805 144.8125 -0.125 144.8125 C-0.125 142.8325 -0.125 140.8525 -0.125 138.8125 C0.535 138.8125 1.195 138.8125 1.875 138.8125 C2.205 137.1625 2.535 135.5125 2.875 133.8125 C3.535 133.8125 4.195 133.8125 4.875 133.8125 C4.875 132.1625 4.875 130.5125 4.875 128.8125 C5.865 128.8125 6.855 128.8125 7.875 128.8125 C7.875 126.5025 7.875 124.1925 7.875 121.8125 C8.535 121.8125 9.195 121.8125 9.875 121.8125 C9.875 118.1825 9.875 114.5525 9.875 110.8125 C10.865 110.8125 11.855 110.8125 12.875 110.8125 C12.875 102.2325 12.875 93.6525 12.875 84.8125 C13.535 84.8125 14.195 84.8125 14.875 84.8125 C14.875 76.5625 14.875 68.3125 14.875 59.8125 C14.215 59.8125 13.555 59.8125 12.875 59.8125 C12.89240234 58.45705078 12.89240234 58.45705078 12.91015625 57.07421875 C12.91917969 55.89472656 12.92820313 54.71523437 12.9375 53.5 C12.95490234 51.74236328 12.95490234 51.74236328 12.97265625 49.94921875 C13.02399898 46.78190805 13.02399898 46.78190805 11.875 43.8125 C11.215 43.8125 10.555 43.8125 9.875 43.8125 C9.875 40.5125 9.875 37.2125 9.875 33.8125 C9.215 33.8125 8.555 33.8125 7.875 33.8125 C7.875 32.1625 7.875 30.5125 7.875 28.8125 C6.885 28.8125 5.895 28.8125 4.875 28.8125 C4.875 26.8325 4.875 24.8525 4.875 22.8125 C4.215 22.8125 3.555 22.8125 2.875 22.8125 C2.545 21.1625 2.215 19.5125 1.875 17.8125 C1.215 17.8125 0.555 17.8125 -0.125 17.8125 C-0.125 17.1525 -0.125 16.4925 -0.125 15.8125 C-1.115 15.8125 -2.105 15.8125 -3.125 15.8125 C-3.125 15.1525 -3.125 14.4925 -3.125 13.8125 C-3.785 13.8125 -4.445 13.8125 -5.125 13.8125 C-5.125 12.8225 -5.125 11.8325 -5.125 10.8125 C-6.115 10.8125 -7.105 10.8125 -8.125 10.8125 C-8.125 9.8225 -8.125 8.8325 -8.125 7.8125 C-8.785 7.8125 -9.445 7.8125 -10.125 7.8125 C-10.125 7.1525 -10.125 6.4925 -10.125 5.8125 C-11.115 5.8125 -12.105 5.8125 -13.125 5.8125 C-13.125 4.8225 -13.125 3.8325 -13.125 2.8125 C-14.775 2.8125 -16.425 2.8125 -18.125 2.8125 C-18.125 2.1525 -18.125 1.4925 -18.125 0.8125 C-19.775 0.8125 -21.425 0.8125 -23.125 0.8125 C-23.125 -0.1775 -23.125 -1.1675 -23.125 -2.1875 C-24.115 -2.1875 -25.105 -2.1875 -26.125 -2.1875 C-26.125 -3.1775 -26.125 -4.1675 -26.125 -5.1875 C-28.765 -5.1875 -31.405 -5.1875 -34.125 -5.1875 C-34.125 -5.8475 -34.125 -6.5075 -34.125 -7.1875 C-39.075 -7.6825 -39.075 -7.6825 -44.125 -8.1875 C-44.125 -8.8475 -44.125 -9.5075 -44.125 -10.1875 C-48.22915189 -10.21648097 -52.33327753 -10.2342922 -56.4375 -10.25 C-57.60474609 -10.25837891 -58.77199219 -10.26675781 -59.97460938 -10.27539062 C-61.09287109 -10.27861328 -62.21113281 -10.28183594 -63.36328125 -10.28515625 C-64.39493408 -10.29039307 -65.42658691 -10.29562988 -66.48950195 -10.30102539 C-69.23446274 -10.30385 -69.23446274 -10.30385 -72.125 -9.1875 Z " fill="#946B59" transform="translate(170.125,35.1875)"/>
<path d="M0 0 C11.37350688 10.53732724 18.85477849 22.84359012 22.875 37.8125 C22.875 39.1325 22.875 40.4525 22.875 41.8125 C21.225 41.8125 19.575 41.8125 17.875 41.8125 C18.54166667 38.47916667 19.20833333 35.14583333 19.875 31.8125 C18.885 31.8125 17.895 31.8125 16.875 31.8125 C16.545 31.1525 16.215 30.4925 15.875 29.8125 C13.82229537 31.65438612 13.82229537 31.65438612 12.875 33.8125 C9.875 32.8125 9.875 32.8125 7.875 29.8125 C6.885 29.4825 5.895 29.1525 4.875 28.8125 C4.875 26.8325 4.875 24.8525 4.875 22.8125 C4.215 22.8125 3.555 22.8125 2.875 22.8125 C2.75125 22.173125 2.6275 21.53375 2.5 20.875 C2.29375 20.194375 2.0875 19.51375 1.875 18.8125 C1.215 18.4825 0.555 18.1525 -0.125 17.8125 C-0.125 17.1525 -0.125 16.4925 -0.125 15.8125 C-1.115 15.8125 -2.105 15.8125 -3.125 15.8125 C-3.125 15.1525 -3.125 14.4925 -3.125 13.8125 C-3.785 13.8125 -4.445 13.8125 -5.125 13.8125 C-5.125 12.8225 -5.125 11.8325 -5.125 10.8125 C-6.115 10.8125 -7.105 10.8125 -8.125 10.8125 C-8.125 9.8225 -8.125 8.8325 -8.125 7.8125 C-8.785 7.8125 -9.445 7.8125 -10.125 7.8125 C-10.125 7.1525 -10.125 6.4925 -10.125 5.8125 C-11.115 5.8125 -12.105 5.8125 -13.125 5.8125 C-13.125 4.8225 -13.125 3.8325 -13.125 2.8125 C-14.775 2.8125 -16.425 2.8125 -18.125 2.8125 C-18.125 2.1525 -18.125 1.4925 -18.125 0.8125 C-19.775 0.8125 -21.425 0.8125 -23.125 0.8125 C-23.125 -0.1775 -23.125 -1.1675 -23.125 -2.1875 C-24.115 -2.1875 -25.105 -2.1875 -26.125 -2.1875 C-26.125 -3.1775 -26.125 -4.1675 -26.125 -5.1875 C-28.765 -5.1875 -31.405 -5.1875 -34.125 -5.1875 C-34.125 -5.8475 -34.125 -6.5075 -34.125 -7.1875 C-35.218125 -7.166875 -36.31125 -7.14625 -37.4375 -7.125 C-41.125 -7.1875 -41.125 -7.1875 -44.125 -8.1875 C-44.125 -8.8475 -44.125 -9.5075 -44.125 -10.1875 C-53.365 -9.8575 -62.605 -9.5275 -72.125 -9.1875 C-72.125 -8.5275 -72.125 -7.8675 -72.125 -7.1875 C-74.765 -7.1875 -77.405 -7.1875 -80.125 -7.1875 C-80.125 -6.5275 -80.125 -5.8675 -80.125 -5.1875 C-82.765 -5.1875 -85.405 -5.1875 -88.125 -5.1875 C-88.125 -4.1975 -88.125 -3.2075 -88.125 -2.1875 C-89.775 -2.1875 -91.425 -2.1875 -93.125 -2.1875 C-93.125 -1.5275 -93.125 -0.8675 -93.125 -0.1875 C-94.775 -0.1875 -96.425 -0.1875 -98.125 -0.1875 C-98.125 0.8025 -98.125 1.7925 -98.125 2.8125 C-98.785 2.8125 -99.445 2.8125 -100.125 2.8125 C-100.125 3.8025 -100.125 4.7925 -100.125 5.8125 C-101.115 5.8125 -102.105 5.8125 -103.125 5.8125 C-103.125 6.4725 -103.125 7.1325 -103.125 7.8125 C-104.115 7.8125 -105.105 7.8125 -106.125 7.8125 C-106.125 8.8025 -106.125 9.7925 -106.125 10.8125 C-106.785 10.8125 -107.445 10.8125 -108.125 10.8125 C-108.125 11.4725 -108.125 12.1325 -108.125 12.8125 C-109.115 12.8125 -110.105 12.8125 -111.125 12.8125 C-111.125 13.8025 -111.125 14.7925 -111.125 15.8125 C-112.115 15.8125 -113.105 15.8125 -114.125 15.8125 C-114.125 16.4725 -114.125 17.1325 -114.125 17.8125 C-114.785 17.8125 -115.445 17.8125 -116.125 17.8125 C-116.125 18.8025 -116.125 19.7925 -116.125 20.8125 C-117.115 20.8125 -118.105 20.8125 -119.125 20.8125 C-119.125 22.4625 -119.125 24.1125 -119.125 25.8125 C-119.785 25.8125 -120.445 25.8125 -121.125 25.8125 C-121.125 28.4525 -121.125 31.0925 -121.125 33.8125 C-121.785 33.8125 -122.445 33.8125 -123.125 33.8125 C-123.125 36.4525 -123.125 39.0925 -123.125 41.8125 C-124.115 41.8125 -125.105 41.8125 -126.125 41.8125 C-126.125 46.7625 -126.125 51.7125 -126.125 56.8125 C-126.785 56.8125 -127.445 56.8125 -128.125 56.8125 C-128.125 67.0425 -128.125 77.2725 -128.125 87.8125 C-127.465 87.8125 -126.805 87.8125 -126.125 87.8125 C-126.125 96.3925 -126.125 104.9725 -126.125 113.8125 C-125.465 113.8125 -124.805 113.8125 -124.125 113.8125 C-124.125 117.1125 -124.125 120.4125 -124.125 123.8125 C-125.115 124.1425 -126.105 124.4725 -127.125 124.8125 C-127.41375 124.008125 -127.7025 123.20375 -128 122.375 C-128.85762568 119.6798532 -128.85762568 119.6798532 -131.125 118.8125 C-131.125 120.4625 -131.125 122.1125 -131.125 123.8125 C-132.115 123.4825 -133.105 123.1525 -134.125 122.8125 C-134.125 118.8525 -134.125 114.8925 -134.125 110.8125 C-134.785 110.8125 -135.445 110.8125 -136.125 110.8125 C-136.17398438 109.81347656 -136.22296875 108.81445312 -136.2734375 107.78515625 C-136.34820312 106.49480469 -136.42296875 105.20445312 -136.5 103.875 C-136.56960937 102.58722656 -136.63921875 101.29945313 -136.7109375 99.97265625 C-136.91589844 98.40837891 -136.91589844 98.40837891 -137.125 96.8125 C-137.785 96.4825 -138.445 96.1525 -139.125 95.8125 C-139.125 91.1925 -139.125 86.5725 -139.125 81.8125 C-140.115 81.4825 -141.105 81.1525 -142.125 80.8125 C-142.785 80.4825 -143.445 80.1525 -144.125 79.8125 C-144.125 79.1525 -144.125 78.4925 -144.125 77.8125 C-141.65 77.3175 -141.65 77.3175 -139.125 76.8125 C-139.14071045 76.25602783 -139.1564209 75.69955566 -139.17260742 75.1262207 C-139.79437172 49.46598201 -137.69308895 27.31551008 -121.125 6.8125 C-119.49007086 5.11468897 -117.82505657 3.44509401 -116.125 1.8125 C-115.41601562 1.09449219 -114.70703125 0.37648438 -113.9765625 -0.36328125 C-83.44797654 -29.66001199 -30.70638849 -27.51023874 0 0 Z " fill="#906A5B" transform="translate(170.125,35.1875)"/>
<path d="M0 0 C0 1.98 0 3.96 0 6 C-1.65 6.33 -3.3 6.66 -5 7 C-5 7.66 -5 8.32 -5 9 C-4.0409375 9.2165625 -4.0409375 9.2165625 -3.0625 9.4375 C-1 10 -1 10 0 11 C0.07271741 13.35313555 0.08370868 15.70833668 0.0625 18.0625 C0.05347656 19.35285156 0.04445313 20.64320312 0.03515625 21.97265625 C0.02355469 22.97167969 0.01195313 23.97070312 0 25 C0.99 25.33 1.98 25.66 3 26 C3 30.62 3 35.24 3 40 C3.66 40 4.32 40 5 40 C5.04898438 40.85464844 5.09796875 41.70929688 5.1484375 42.58984375 C5.22320312 43.69457031 5.29796875 44.79929688 5.375 45.9375 C5.44460937 47.03964844 5.51421875 48.14179688 5.5859375 49.27734375 C5.72257812 50.17582031 5.85921875 51.07429688 6 52 C6.66 52.33 7.32 52.66 8 53 C8 51.35 8 49.7 8 48 C11 49 11 49 12.1875 51.0625 C12.455625 51.701875 12.72375 52.34125 13 53 C13.66 53 14.32 53 15 53 C15 49.7 15 46.4 15 43 C14.34 43 13.68 43 13 43 C13 42.01 13 41.02 13 40 C13.99 40 14.98 40 16 40 C16 43.63 16 47.26 16 51 C16.66 51 17.32 51 18 51 C18 51.66 18 52.32 18 53 C17.34 53 16.68 53 16 53 C16.20625 53.9075 16.4125 54.815 16.625 55.75 C17.0127245 59.11027897 16.80411967 60.24075815 15 63 C14.34 63 13.68 63 13 63 C12.67 62.34 12.34 61.68 12 61 C11.34 61.99 10.68 62.98 10 64 C10.66 64.33 11.32 64.66 12 65 C11.67 65.99 11.34 66.98 11 68 C0.2796142 64.00158584 -9.28620971 57.27013811 -14.56640625 46.93359375 C-17.89891571 39.19571565 -19.20897284 32.54559273 -19.3125 24.1875 C-19.34150391 23.41857422 -19.37050781 22.64964844 -19.40039062 21.85742188 C-19.47577743 14.98562465 -17.56559709 9.71220263 -12.8125 4.6875 C-9.2304871 2.53829226 -4.30163314 0 0 0 Z " fill="#936B58" transform="translate(31,106)"/>
<path d="M0 0 C0.33 0 0.66 0 1 0 C1.33 1.98 1.66 3.96 2 6 C3.216875 6.226875 4.43375 6.45375 5.6875 6.6875 C11.00686715 8.02204088 13.45059179 11.00790374 16.75 15.25 C18.51672193 19.13678824 18.77689662 22.76779652 19 27 C19.05285156 27.78632813 19.10570312 28.57265625 19.16015625 29.3828125 C19.61417858 41.66115557 15.786405 51.53081883 8 61 C6.37362229 62.38219069 4.71678612 63.73185136 3 65 C2.67 64.34 2.34 63.68 2 63 C-0.31 63 -2.62 63 -5 63 C-4.67 62.34 -4.34 61.68 -4 61 C-2.68 61 -1.36 61 0 61 C0 59.35 0 57.7 0 56 C-0.99 56 -1.98 56 -3 56 C-3 56.66 -3 57.32 -3 58 C-3.66 58 -4.32 58 -5 58 C-5 56.35 -5 54.7 -5 53 C-4.34 53 -3.68 53 -3 53 C-3.01160156 52.28972656 -3.02320313 51.57945312 -3.03515625 50.84765625 C-3.04417969 49.92855469 -3.05320313 49.00945312 -3.0625 48.0625 C-3.07410156 47.14597656 -3.08570313 46.22945312 -3.09765625 45.28515625 C-3 43 -3 43 -2 42 C-1.84213692 40.14825294 -1.74892644 38.2909089 -1.68359375 36.43359375 C-1.62075195 34.7465332 -1.62075195 34.7465332 -1.55664062 33.02539062 C-1.51732422 31.84138672 -1.47800781 30.65738281 -1.4375 29.4375 C-1.39431641 28.24962891 -1.35113281 27.06175781 -1.30664062 25.83789062 C-1.20016454 22.89205216 -1.09815159 19.9461257 -1 17 C-1.66 16.67 -2.32 16.34 -3 16 C-2.67 15.67 -2.34 15.34 -2 15 C-1.60056824 12.47804033 -1.24920152 9.97036344 -0.9375 7.4375 C-0.84662109 6.72658203 -0.75574219 6.01566406 -0.66210938 5.28320312 C-0.43760497 3.52261597 -0.21831603 1.76136522 0 0 Z " fill="#936D61" transform="translate(196,101)"/>
<path d="M0 0 C0.66 0 1.32 0 2 0 C2 1.65 2 3.3 2 5 C2.99 5 3.98 5 5 5 C5 7.31 5 9.62 5 12 C5.66 12 6.32 12 7 12 C7 13.98 7 15.96 7 18 C7.99 18 8.98 18 10 18 C10 18.99 10 19.98 10 21 C10.66 21 11.32 21 12 21 C12 22.65 12 24.3 12 26 C12.99 26 13.98 26 15 26 C15 27.65 15 29.3 15 31 C15.99 31 16.98 31 18 31 C18 31.66 18 32.32 18 33 C18.66 33 19.32 33 20 33 C20 33.99 20 34.98 20 36 C20.99 36 21.98 36 23 36 C23 36.66 23 37.32 23 38 C23.66 38 24.32 38 25 38 C25 38.99 25 39.98 25 41 C25.99 41 26.98 41 28 41 C28 41.99 28 42.98 28 44 C28.66 44 29.32 44 30 44 C30 44.66 30 45.32 30 46 C30.99 46 31.98 46 33 46 C33 46.99 33 47.98 33 49 C34.65 49 36.3 49 38 49 C38 49.66 38 50.32 38 51 C39.65 51 41.3 51 43 51 C43 51.99 43 52.98 43 54 C44.65 54 46.3 54 48 54 C47.67 54.99 47.34 55.98 47 57 C46.34 57 45.68 57 45 57 C44.67 58.32 44.34 59.64 44 61 C41.36 61 38.72 61 36 61 C36 60.34 36 59.68 36 59 C34.14375 59.2475 34.14375 59.2475 32.25 59.5 C29.42179168 59.87709444 26.88435938 60 24 60 C24.99 59.505 24.99 59.505 26 59 C26 58.01 26 57.02 26 56 C24.53194208 54.65704211 24.53194208 54.65704211 22.5625 53.4375 C10.81244311 45.02387902 -0.38257996 30.29138708 -6 17 C-5.68359375 14.3984375 -5.68359375 14.3984375 -5 12 C-5 10.68 -5 9.36 -5 8 C-4.01 8 -3.02 8 -2 8 C-2.33 8.66 -2.66 9.32 -3 10 C-2.34 9.67 -1.68 9.34 -1 9 C-0.53348793 6.87423218 -0.53348793 6.87423218 -0.375 4.4375 C-0.30023438 3.61121094 -0.22546875 2.78492188 -0.1484375 1.93359375 C-0.09945312 1.29550781 -0.05046875 0.65742188 0 0 Z " fill="#946E5C" transform="translate(47,159)"/>
<path d="M0 0 C0.33 0.99 0.66 1.98 1 3 C2.32303717 3.3721042 3.65737935 3.70630173 5 4 C6.53445094 7.06890187 5.54984289 9.70094266 5 13 C5.99 12.67 6.98 12.34 8 12 C8.01213028 12.82899055 8.01213028 12.82899055 8.02450562 13.67472839 C8.11065313 19.43385586 8.2101611 25.19264316 8.31738281 30.95141602 C8.35563385 33.09979534 8.39049347 35.24823787 8.421875 37.39672852 C8.46760937 40.48737146 8.52559056 43.57758081 8.5859375 46.66796875 C8.59748871 47.62648239 8.60903992 48.58499603 8.62094116 49.57255554 C8.72294674 54.19576571 8.97364089 57.76270254 11 62 C11.1953125 65.33203125 11.1953125 65.33203125 11.125 68.8125 C11.10695313 69.97394531 11.08890625 71.13539063 11.0703125 72.33203125 C11.04710938 73.21246094 11.02390625 74.09289062 11 75 C11.66 75 12.32 75 13 75 C13 78.3 13 81.6 13 85 C11.515 85.495 11.515 85.495 10 86 C9.71125 85.195625 9.4225 84.39125 9.125 83.5625 C8.26737432 80.8673532 8.26737432 80.8673532 6 80 C6 81.65 6 83.3 6 85 C5.01 84.67 4.02 84.34 3 84 C3 80.04 3 76.08 3 72 C2.34 72 1.68 72 1 72 C0.95101562 71.00097656 0.90203125 70.00195312 0.8515625 68.97265625 C0.77679688 67.68230469 0.70203125 66.39195312 0.625 65.0625 C0.52058594 63.13083984 0.52058594 63.13083984 0.4140625 61.16015625 C0.27742188 60.11730469 0.14078125 59.07445312 0 58 C-0.66 57.67 -1.32 57.34 -2 57 C-2 52.38 -2 47.76 -2 43 C-2.99 42.67 -3.98 42.34 -5 42 C-5.66 41.67 -6.32 41.34 -7 41 C-7 40.34 -7 39.68 -7 39 C-4.525 38.505 -4.525 38.505 -2 38 C-2.01047363 37.41734375 -2.02094727 36.8346875 -2.03173828 36.234375 C-2.22226485 23.96349942 -1.94680711 12.13278002 0 0 Z " fill="#8E6853" transform="translate(33,74)"/>
<path d="M0 0 C0 0.99 0 1.98 0 3 C-0.66 3 -1.32 3 -2 3 C-2.33 3.66 -2.66 4.32 -3 5 C-4.216875 5.37125 -5.43375 5.7425 -6.6875 6.125 C-10.42136984 7.39836236 -11.86637974 8.83346461 -14 12.125 C-16.44113899 15.80693893 -16.44113899 15.80693893 -19.1484375 16.7421875 C-21.375 17 -21.375 17 -25 17 C-25.33 17.99 -25.66 18.98 -26 20 C-26.99 20.4640625 -26.99 20.4640625 -28 20.9375 C-30.12693831 21.8243009 -30.12693831 21.8243009 -30.9375 23.8125 C-31.02448997 26.85714884 -29.59649788 28.47221168 -28 31 C-28.33 31.66 -28.66 32.32 -29 33 C-29.66 33 -30.32 33 -31 33 C-31 33.99 -31 34.98 -31 36 C-31.99 36 -32.98 36 -34 36 C-34 37.65 -34 39.3 -34 41 C-34.66 41 -35.32 41 -36 41 C-36 43.64 -36 46.28 -36 49 C-36.66 49 -37.32 49 -38 49 C-38 51.64 -38 54.28 -38 57 C-38.99 57 -39.98 57 -41 57 C-41 61.95 -41 66.9 -41 72 C-41.66 72 -42.32 72 -43 72 C-43 82.23 -43 92.46 -43 103 C-42.34 103 -41.68 103 -41 103 C-41 107.29 -41 111.58 -41 116 C-41.66 114.68 -42.32 113.36 -43 112 C-43.33 111.67 -43.66 111.34 -44 111 C-44.12197808 109.61949142 -44.17768899 108.23302353 -44.20532227 106.84741211 C-44.2352401 105.52615578 -44.2352401 105.52615578 -44.26576233 104.1782074 C-44.28247482 103.22092239 -44.29918732 102.26363739 -44.31640625 101.27734375 C-44.3475779 99.81452721 -44.3475779 99.81452721 -44.37937927 98.32215881 C-44.44498412 95.1940137 -44.50381028 92.06578178 -44.5625 88.9375 C-44.60567483 86.8222565 -44.64928877 84.70702191 -44.69335938 82.59179688 C-44.80067655 77.39462413 -44.9024222 72.19736423 -45 67 C-45.66 67 -46.32 67 -47 67 C-47 64.36 -47 61.72 -47 59 C-48.32 58.34 -49.64 57.68 -51 57 C-52.33252436 43.40825151 -44.14916335 32.08458964 -36 22 C-34.36507086 20.30218897 -32.70005657 18.63259401 -31 17 C-30.29101562 16.28199219 -29.58203125 15.56398438 -28.8515625 14.82421875 C-24.03437541 10.20140938 -19.09014055 6.61173916 -13.25 3.4375 C-12.62432129 3.09098389 -11.99864258 2.74446777 -11.35400391 2.38745117 C-7.41010306 0.34112706 -4.4260308 -0.37336149 0 0 Z " fill="#8F6957" transform="translate(85,20)"/>
<path d="M0 0 C1.65 0 3.3 0 5 0 C5 3.63 5 7.26 5 11 C5.99 11.33 6.98 11.66 8 12 C8 16.62 8 21.24 8 26 C8.66 26 9.32 26 10 26 C10.04898438 26.85464844 10.09796875 27.70929688 10.1484375 28.58984375 C10.22320312 29.69457031 10.29796875 30.79929688 10.375 31.9375 C10.44460937 33.03964844 10.51421875 34.14179688 10.5859375 35.27734375 C10.72257812 36.17582031 10.85921875 37.07429688 11 38 C11.66 38.33 12.32 38.66 13 39 C13 37.35 13 35.7 13 34 C16 35 16 35 17.1875 37.0625 C17.455625 37.701875 17.72375 38.34125 18 39 C18.66 39 19.32 39 20 39 C20 35.7 20 32.4 20 29 C19.34 29 18.68 29 18 29 C18 28.01 18 27.02 18 26 C18.99 26 19.98 26 21 26 C21 29.63 21 33.26 21 37 C21.66 37 22.32 37 23 37 C23 37.66 23 38.32 23 39 C22.34 39 21.68 39 21 39 C21.20625 39.9075 21.4125 40.815 21.625 41.75 C22.0127245 45.11027897 21.80411967 46.24075815 20 49 C19.34 49 18.68 49 18 49 C17.67 48.34 17.34 47.68 17 47 C16.34 47.99 15.68 48.98 15 50 C15.66 50.33 16.32 50.66 17 51 C16.67 51.99 16.34 52.98 16 54 C7.69323658 50.93010917 0.14829791 46.27862807 -5 39 C-4.01 39 -3.02 39 -2 39 C-2 39.66 -2 40.32 -2 41 C-0.68 41 0.64 41 2 41 C2.33 40.34 2.66 39.68 3 39 C3.33 39 3.66 39 4 39 C4.33 36.36 4.66 33.72 5 31 C4.34 31 3.68 31 3 31 C3 29.35 3 27.7 3 26 C2.01 26 1.02 26 0 26 C0 24.35 0 22.7 0 21 C-0.99 20.67 -1.98 20.34 -3 20 C-3 14.39 -3 8.78 -3 3 C-2.01 3 -1.02 3 0 3 C0 2.01 0 1.02 0 0 Z " fill="#956A5A" transform="translate(26,120)"/>
<path d="M0 0 C0.99 0 1.98 0 3 0 C3 0.66 3 1.32 3 2 C12.57 2 22.14 2 32 2 C32 1.34 32 0.68 32 0 C33.32 0 34.64 0 36 0 C35.67 0.99 35.34 1.98 35 3 C33.02 3 31.04 3 29 3 C29 3.66 29 4.32 29 5 C29.78375 5.103125 30.5675 5.20625 31.375 5.3125 C34 6 34 6 36 9 C37.96361864 9.57748803 37.96361864 9.57748803 40.125 9.6875 C41.40375 9.790625 42.6825 9.89375 44 10 C44 10.33 44 10.66 44 11 C42.9275 11.28875 41.855 11.5775 40.75 11.875 C37.23350678 12.75439956 37.23350678 12.75439956 35.28222656 14.05810547 C31.83796873 15.4795803 28.3992602 15.24464805 24.734375 15.1953125 C23.94097717 15.1924826 23.14757935 15.18965271 22.33013916 15.18673706 C19.80327083 15.17556779 17.27676068 15.15046944 14.75 15.125 C13.0338593 15.11496598 11.31771302 15.10584087 9.6015625 15.09765625 C5.40090426 15.07563914 1.2005128 15.04113187 -3 15 C-3 13.68 -3 12.36 -3 11 C-3.9075 11.20625 -4.815 11.4125 -5.75 11.625 C-9.11027897 12.0127245 -10.24075815 11.80411967 -13 10 C-13.99 10.66 -14.98 11.32 -16 12 C-16.33 11.34 -16.66 10.68 -17 10 C-16.34 9.67 -15.68 9.34 -15 9 C-15 8.34 -15 7.68 -15 7 C-15.66 6.34 -16.32 5.68 -17 5 C-15.35 5 -13.7 5 -12 5 C-12 5.66 -12 6.32 -12 7 C-9.36 6.67 -6.72 6.34 -4 6 C-3.67 5.01 -3.34 4.02 -3 3 C-2.34 3 -1.68 3 -1 3 C-0.67 2.01 -0.34 1.02 0 0 Z " fill="#936E5A" transform="translate(95,213)"/>
<path d="M0 0 C1.65 0 3.3 0 5 0 C5 0.99 5 1.98 5 3 C5.66 3 6.32 3 7 3 C7 7.95 7 12.9 7 18 C6.34 18 5.68 18 5 18 C5 20.64 5 23.28 5 26 C4.01 26 3.02 26 2 26 C2 28.64 2 31.28 2 34 C1.34 34 0.68 34 0 34 C0 34.99 0 35.98 0 37 C-0.99 37 -1.98 37 -3 37 C-3 37.66 -3 38.32 -3 39 C-3.66 39 -4.32 39 -5 39 C-5 37.35 -5 35.7 -5 34 C-4.34 34 -3.68 34 -3 34 C-3.02320313 33.34773438 -3.04640625 32.69546875 -3.0703125 32.0234375 C-3.08835938 31.14945313 -3.10640625 30.27546875 -3.125 29.375 C-3.14820313 28.51648438 -3.17140625 27.65796875 -3.1953125 26.7734375 C-3 24 -3 24 -2.03125 21.25 C-0.69056249 17.02480301 -0.54368258 13.03183236 -0.375 8.625 C-0.33632812 7.79355469 -0.29765625 6.96210937 -0.2578125 6.10546875 C-0.16425754 4.07064844 -0.08107287 2.03535584 0 0 Z " fill="#FCDFC4" transform="translate(196,120)"/>
<path d="M0 0 C1.65 0 3.3 0 5 0 C5 5.28 5 10.56 5 16 C5.66 16 6.32 16 7 16 C7 21.94 7 27.88 7 34 C6.34 34 5.68 34 5 34 C5 33.01 5 32.02 5 31 C4.34 31 3.68 31 3 31 C3 29.35 3 27.7 3 26 C2.01 26 1.02 26 0 26 C0 24.35 0 22.7 0 21 C-0.99 20.67 -1.98 20.34 -3 20 C-3 14.39 -3 8.78 -3 3 C-2.01 3 -1.02 3 0 3 C0 2.01 0 1.02 0 0 Z " fill="#FBD9C6" transform="translate(26,120)"/>
<path d="M0 0 C11.3568461 8.30988739 17.43321992 21.71943589 21 35 C21 36.32 21 37.64 21 39 C19.35 39 17.7 39 16 39 C16.66666667 35.66666667 17.33333333 32.33333333 18 29 C17.01 29 16.02 29 15 29 C14.67 28.34 14.34 27.68 14 27 C11.94729537 28.84188612 11.94729537 28.84188612 11 31 C8 30 8 30 6 27 C5.01 26.67 4.02 26.34 3 26 C3 25.01 3 24.02 3 23 C3.99 23 4.98 23 6 23 C6.165 21.7625 6.33 20.525 6.5 19.25 C6.5928125 18.55390625 6.685625 17.8578125 6.78125 17.140625 C7.06777357 14.69541605 7.06777357 14.69541605 7 11 C6.01 10.67 5.02 10.34 4 10 C4.33 8.68 4.66 7.36 5 6 C4.0409375 6.2784375 4.0409375 6.2784375 3.0625 6.5625 C2.381875 6.706875 1.70125 6.85125 1 7 C0 6 0 6 -0.0625 2.9375 C-0.041875 1.968125 -0.02125 0.99875 0 0 Z " fill="#926C5F" transform="translate(172,38)"/>
<path d="M0 0 C0 0.99 0 1.98 0 3 C-0.66 3 -1.32 3 -2 3 C-2.33 3.66 -2.66 4.32 -3 5 C-4.216875 5.37125 -5.43375 5.7425 -6.6875 6.125 C-10.42136984 7.39836236 -11.86637974 8.83346461 -14 12.125 C-16.44113899 15.80693893 -16.44113899 15.80693893 -19.1484375 16.7421875 C-21.375 17 -21.375 17 -25 17 C-25.33 17.99 -25.66 18.98 -26 20 C-26.598125 20.268125 -27.19625 20.53625 -27.8125 20.8125 C-30.93576046 22.50798425 -32.18267347 25.01439213 -34 28 C-35.32 27.34 -36.64 26.68 -38 26 C-36.44383904 22.1803322 -33.95579712 19.75967788 -31 17 C-30.33226562 16.32710937 -29.66453125 15.65421875 -28.9765625 14.9609375 C-24.12811103 10.27356416 -19.14843419 6.64342299 -13.25 3.4375 C-12.62432129 3.09098389 -11.99864258 2.74446777 -11.35400391 2.38745117 C-7.41010306 0.34112706 -4.4260308 -0.37336149 0 0 Z " fill="#88675C" transform="translate(85,20)"/>
<path d="M0 0 C2 1 2 1 2.61450195 2.68701172 C3.4619301 7.77158062 3.18473317 12.98423251 3.1875 18.125 C3.19974609 19.33027344 3.21199219 20.53554687 3.22460938 21.77734375 C3.22750977 23.50017578 3.22750977 23.50017578 3.23046875 25.2578125 C3.23457764 26.3111377 3.23868652 27.36446289 3.24291992 28.44970703 C3 31 3 31 1 33 C0.34 33.99 -0.32 34.98 -1 36 C-1.99 35.67 -2.98 35.34 -4 35 C-3.34 34.34 -2.68 33.68 -2 33 C-1.95833998 30.6670386 -1.95833998 28.3329614 -2 26 C-1.67 25.34 -1.34 24.68 -1 24 C-2.98 25.65 -4.96 27.3 -7 29 C-7 27.02 -7 25.04 -7 23 C-6.01 23 -5.02 23 -4 23 C-4 16.73 -4 10.46 -4 4 C-2.68 3.67 -1.36 3.34 0 3 C0 2.01 0 1.02 0 0 Z " fill="#956B58" transform="translate(208,118)"/>
<path d="M0 0 C0 1.98 0 3.96 0 6 C-1.65 6.33 -3.3 6.66 -5 7 C-5 7.66 -5 8.32 -5 9 C-3.68 9.33 -2.36 9.66 -1 10 C-0.67 11.32 -0.34 12.64 0 14 C-6.435 14.495 -6.435 14.495 -13 15 C-13.33 15.99 -13.66 16.98 -14 18 C-15.32 17.67 -16.64 17.34 -18 17 C-18 21.95 -18 26.9 -18 32 C-18.33 32 -18.66 32 -19 32 C-19.75462263 13.55366903 -19.75462263 13.55366903 -15 7 C-11.48456752 3.28368566 -5.3237593 0 0 0 Z " fill="#916E63" transform="translate(31,106)"/>
<path d="M0 0 C0.33 0 0.66 0 1 0 C1.33 2.97 1.66 5.94 2 9 C2.66 7.68 3.32 6.36 4 5 C4.66 5 5.32 5 6 5 C5.67 3.68 5.34 2.36 5 1 C6.32 0.67 7.64 0.34 9 0 C9 2.64 9 5.28 9 8 C8.01 8 7.02 8 6 8 C6 11.3 6 14.6 6 18 C6.99 18 7.98 18 9 18 C9 20.64 9 23.28 9 26 C8.34 26 7.68 26 7 26 C7 36.23 7 46.46 7 57 C7.66 57 8.32 57 9 57 C9 61.29 9 65.58 9 70 C8.34 68.68 7.68 67.36 7 66 C6.67 65.67 6.34 65.34 6 65 C5.87802192 63.61949142 5.82231101 62.23302353 5.79467773 60.84741211 C5.77473251 59.96657455 5.75478729 59.085737 5.73423767 58.1782074 C5.71752518 57.22092239 5.70081268 56.26363739 5.68359375 55.27734375 C5.6524221 53.81452721 5.6524221 53.81452721 5.62062073 52.32215881 C5.55501588 49.1940137 5.49618972 46.06578178 5.4375 42.9375 C5.39432517 40.8222565 5.35071123 38.70702191 5.30664062 36.59179688 C5.19932345 31.39462413 5.0975778 26.19736423 5 21 C4.34 21 3.68 21 3 21 C3 18.36 3 15.72 3 13 C1.68 12.34 0.36 11.68 -1 11 C-1.125 3.375 -1.125 3.375 0 0 Z " fill="#9B7164" transform="translate(35,66)"/>
<path d="M0 0 C0.99 0.33 1.98 0.66 3 1 C2.67 1.66 2.34 2.32 2 3 C2.598125 2.814375 3.19625 2.62875 3.8125 2.4375 C6 2 6 2 9 3 C8.71874308 7.64073925 6.54875813 10.14028602 3.66796875 13.546875 C1.76885162 15.20137517 0.42346195 15.46909961 -2 16 C-2.66 16.66 -3.32 17.32 -4 18 C-4 17.34 -4 16.68 -4 16 C-4.99 16 -5.98 16 -7 16 C-7 14.35 -7 12.7 -7 11 C-7.66 11 -8.32 11 -9 11 C-9 10.01 -9 9.02 -9 8 C-8.01 8 -7.02 8 -6 8 C-6 7.01 -6 6.02 -6 5 C-5.34 5 -4.68 5 -4 5 C-4 4.34 -4 3.68 -4 3 C-3.01 3 -2.02 3 -1 3 C-0.67 2.01 -0.34 1.02 0 0 Z " fill="#8F6756" transform="translate(166,187)"/>
<path d="M0 0 C0.33 0 0.66 0 1 0 C1.33 1.98 1.66 3.96 2 6 C4.64 6.66 7.28 7.32 10 8 C10 8.33 10 8.66 10 9 C8.35 9 6.7 9 5 9 C5 9.99 5 10.98 5 12 C6.32 12 7.64 12 9 12 C8.67 21.24 8.34 30.48 8 40 C7.01 40 6.02 40 5 40 C5 39.01 5 38.02 5 37 C5.66 37 6.32 37 7 37 C7 32.05 7 27.1 7 22 C6.34 22 5.68 22 5 22 C5 21.01 5 20.02 5 19 C3.35 19 1.7 19 0 19 C0 24.94 0 30.88 0 37 C-0.33 37 -0.66 37 -1 37 C-1 30.4 -1 23.8 -1 17 C-1.66 16.67 -2.32 16.34 -3 16 C-2.67 15.67 -2.34 15.34 -2 15 C-1.60056824 12.47804033 -1.24920152 9.97036344 -0.9375 7.4375 C-0.84662109 6.72658203 -0.75574219 6.01566406 -0.66210938 5.28320312 C-0.43760497 3.52261597 -0.21831603 1.76136522 0 0 Z " fill="#A06F5F" transform="translate(196,101)"/>
<path d="M0 0 C1.32 0 2.64 0 4 0 C3.67 0.99 3.34 1.98 3 3 C1.02 3 -0.96 3 -3 3 C-3 3.66 -3 4.32 -3 5 C-1.824375 5.1546875 -1.824375 5.1546875 -0.625 5.3125 C2 6 2 6 4 9 C5.96361864 9.57748803 5.96361864 9.57748803 8.125 9.6875 C9.40375 9.790625 10.6825 9.89375 12 10 C12 10.33 12 10.66 12 11 C10.9275 11.28875 9.855 11.5775 8.75 11.875 C5.20239987 12.78999111 5.20239987 12.78999111 3 14.125 C0.01521337 15.43084415 -2.78966601 15.12347438 -6 15 C-6 14.34 -6 13.68 -6 13 C-3.36 13 -0.72 13 2 13 C2 12.01 2 11.02 2 10 C-0.31 10 -2.62 10 -5 10 C-5.33 8.68 -5.66 7.36 -6 6 C-11.28 5.67 -16.56 5.34 -22 5 C-22 4.34 -22 3.68 -22 3 C-24.31 3 -26.62 3 -29 3 C-29 2.67 -29 2.34 -29 2 C-19.43 2 -9.86 2 0 2 C0 1.34 0 0.68 0 0 Z " fill="#B38D79" transform="translate(127,213)"/>
<path d="M0 0 C0.33 0.99 0.66 1.98 1 3 C2.32303717 3.3721042 3.65737935 3.70630173 5 4 C6.53445094 7.06890187 5.54984289 9.70094266 5 13 C5.99 12.67 6.98 12.34 8 12 C8 13.98 8 15.96 8 18 C7.05125 18.20625 6.1025 18.4125 5.125 18.625 C1.70833333 19.70833333 1.70833333 19.70833333 0.625 23.125 C0.41875 24.07375 0.2125 25.0225 0 26 C-0.66 26 -1.32 26 -2 26 C-2.38064163 17.20294908 -1.20731692 8.68836995 0 0 Z " fill="#8C695B" transform="translate(33,74)"/>
<path d="M0 0 C0.33 0 0.66 0 1 0 C1 4.29 1 8.58 1 13 C1.66 13 2.32 13 3 13 C3 21.25 3 29.5 3 38 C2.34 38 1.68 38 1 38 C1 46.58 1 55.16 1 64 C0.01 64 -0.98 64 -2 64 C-2 62.35 -2 60.7 -2 59 C-1.34 59 -0.68 59 0 59 C0 39.53 0 20.06 0 0 Z " fill="#E6C5AB" transform="translate(182,82)"/>
<path d="M0 0 C0.99 0 1.98 0 3 0 C1.96687638 6.6613344 -0.08580266 11.51713579 -4 17 C-4.33 16.34 -4.66 15.68 -5 15 C-5.99 15 -6.98 15 -8 15 C-8 14.34 -8 13.68 -8 13 C-8.66 13 -9.32 13 -10 13 C-10.12375 12.360625 -10.2475 11.72125 -10.375 11.0625 C-10.58125 10.381875 -10.7875 9.70125 -11 9 C-11.66 8.67 -12.32 8.34 -13 8 C-13 7.01 -13 6.02 -13 5 C-12.21625 4.896875 -11.4325 4.79375 -10.625 4.6875 C-7.66954819 4.22404978 -7.66954819 4.22404978 -6 1 C-5.34 1 -4.68 1 -4 1 C-3.94600264 2.45792884 -3.90720823 3.91642712 -3.875 5.375 C-3.85179687 6.18710938 -3.82859375 6.99921875 -3.8046875 7.8359375 C-4 10 -4 10 -6 12 C-5.34 12 -4.68 12 -4 12 C-3.67 10.68 -3.34 9.36 -3 8 C-2.01 8 -1.02 8 0 8 C0 5.36 0 2.72 0 0 Z " fill="#A07160" transform="translate(211,141)"/>
<path d="M0 0 C2.31 0 4.62 0 7 0 C7.12375 0.639375 7.2475 1.27875 7.375 1.9375 C7.58125 2.618125 7.7875 3.29875 8 4 C8.66 4.33 9.32 4.66 10 5 C10 5.66 10 6.32 10 7 C9.34 7 8.68 7 8 7 C8 7.99 8 8.98 8 10 C5.03 10 2.06 10 -1 10 C-1.66 8.68 -2.32 7.36 -3 6 C-5.05000871 5.19471111 -5.05000871 5.19471111 -7 5 C-7 4.34 -7 3.68 -7 3 C-5.5459375 2.814375 -5.5459375 2.814375 -4.0625 2.625 C-2.5465625 2.315625 -2.5465625 2.315625 -1 2 C-0.67 1.34 -0.34 0.68 0 0 Z " fill="#8F6754" transform="translate(131,213)"/>
<path d="M0 0 C1.65 1.65 3.3 3.3 5 5 C4.67 5.99 4.34 6.98 4 8 C3.34 8 2.68 8 2 8 C2 8.99 2 9.98 2 11 C1.01 11 0.02 11 -1 11 C-1 12.32 -1 13.64 -1 15 C-1.66 15 -2.32 15 -3 15 C-3.33 13.35 -3.66 11.7 -4 10 C-4.99 10 -5.98 10 -7 10 C-7.66 11.32 -8.32 12.64 -9 14 C-9.33 14 -9.66 14 -10 14 C-10 12.35 -10 10.7 -10 9 C-9.34 9 -8.68 9 -8 9 C-8 8.01 -8 7.02 -8 6 C-7.01 6 -6.02 6 -5 6 C-5 4.35 -5 2.7 -5 1 C-3.68 1 -2.36 1 -1 1 C-0.67 0.67 -0.34 0.34 0 0 Z " fill="#8E6856" transform="translate(52,45)"/>
<path d="M0 0 C0.33 0 0.66 0 1 0 C1 1.65 1 3.3 1 5 C1.99 5 2.98 5 4 5 C4.66 4.34 5.32 3.68 6 3 C6 4.65 6 6.3 6 8 C5.01 8 4.02 8 3 8 C3 10.64 3 13.28 3 16 C2.34 16 1.68 16 1 16 C1 16.99 1 17.98 1 19 C0.01 19 -0.98 19 -2 19 C-2 19.66 -2 20.32 -2 21 C-2.66 21 -3.32 21 -4 21 C-4 19.35 -4 17.7 -4 16 C-3.34 16 -2.68 16 -2 16 C-2.02320313 15.34773437 -2.04640625 14.69546875 -2.0703125 14.0234375 C-2.17583753 8.91301097 -2.01926302 4.79574967 0 0 Z " fill="#F1CDB4" transform="translate(195,138)"/>
<path d="M0 0 C1.32 0 2.64 0 4 0 C4.33 0.99 4.66 1.98 5 3 C4.34 3 3.68 3 3 3 C3 16.53 3 30.06 3 44 C1.515 44.495 1.515 44.495 0 45 C0 41.04 0 37.08 0 33 C0.66 33 1.32 33 2 33 C2 24.75 2 16.5 2 8 C1.34 8 0.68 8 0 8 C0 5.36 0 2.72 0 0 Z " fill="#A9846C" transform="translate(183,87)"/>
<path d="M0 0 C0.99 0 1.98 0 3 0 C3 1.65 3 3.3 3 5 C2.34 5 1.68 5 1 5 C1 15.23 1 25.46 1 36 C1.66 36 2.32 36 3 36 C3 40.29 3 44.58 3 49 C2.34 47.68 1.68 46.36 1 45 C0.67 44.67 0.34 44.34 0 44 C-0.0927833 42.61839885 -0.11747043 41.23211962 -0.11352539 39.84741211 C-0.11341209 38.52615578 -0.11341209 38.52615578 -0.11329651 37.1782074 C-0.10555458 35.74227989 -0.10555458 35.74227989 -0.09765625 34.27734375 C-0.0962413 33.30213272 -0.09482635 32.32692169 -0.09336853 31.32215881 C-0.08775133 28.19390857 -0.07519593 25.06572877 -0.0625 21.9375 C-0.05748722 19.82226666 -0.05292393 17.70703219 -0.04882812 15.59179688 C-0.03777631 10.39450704 -0.02102146 5.19725855 0 0 Z " fill="#CEA68F" transform="translate(41,87)"/>
<path d="M0 0 C0.99 0.66 1.98 1.32 3 2 C3 2.66 3 3.32 3 4 C3.66 4 4.32 4 5 4 C5 4.99 5 5.98 5 7 C4.01 7 3.02 7 2 7 C2 7.66 2 8.32 2 9 C0.35 9 -1.3 9 -3 9 C-3 9.99 -3 10.98 -3 12 C-3.99 12 -4.98 12 -6 12 C-6 12.66 -6 13.32 -6 14 C-6.66 14 -7.32 14 -8 14 C-7.65015815 8.40253042 -3.85992893 3.85992893 0 0 Z " fill="#8F6754" transform="translate(75,26)"/>
<path d="M0 0 C0.99 0 1.98 0 3 0 C5.15384615 14.53846154 5.15384615 14.53846154 3 21 C2.01 21 1.02 21 0 21 C0 14.07 0 7.14 0 0 Z " fill="#896C61" transform="translate(211,120)"/>
<path d="M0 0 C0.33 0 0.66 0 1 0 C1.33 1.98 1.66 3.96 2 6 C4.64 6.66 7.28 7.32 10 8 C10 8.33 10 8.66 10 9 C6.7 9 3.4 9 0 9 C0 9.66 0 10.32 0 11 C0.66 11 1.32 11 2 11 C2 11.66 2 12.32 2 13 C2.66 13.33 3.32 13.66 4 14 C3.34 14 2.68 14 2 14 C2 14.66 2 15.32 2 16 C1.34 16 0.68 16 0 16 C0 22.93 0 29.86 0 37 C-0.33 37 -0.66 37 -1 37 C-1 30.4 -1 23.8 -1 17 C-1.66 16.67 -2.32 16.34 -3 16 C-2.67 15.67 -2.34 15.34 -2 15 C-1.60056824 12.47804033 -1.24920152 9.97036344 -0.9375 7.4375 C-0.84662109 6.72658203 -0.75574219 6.01566406 -0.66210938 5.28320312 C-0.43760497 3.52261597 -0.21831603 1.76136522 0 0 Z " fill="#A27964" transform="translate(196,101)"/>
<path d="M0 0 C1.11826172 0.00322266 2.23652344 0.00644531 3.38867188 0.00976562 C4.55591797 0.01814453 5.72316406 0.02652344 6.92578125 0.03515625 C8.10462891 0.03966797 9.28347656 0.04417969 10.49804688 0.04882812 C13.41150914 0.06062352 16.32486988 0.07708355 19.23828125 0.09765625 C19.23828125 0.75765625 19.23828125 1.41765625 19.23828125 2.09765625 C20.22828125 2.42765625 21.21828125 2.75765625 22.23828125 3.09765625 C18.27828125 3.09765625 14.31828125 3.09765625 10.23828125 3.09765625 C10.23828125 2.43765625 10.23828125 1.77765625 10.23828125 1.09765625 C7.92828125 1.09765625 5.61828125 1.09765625 3.23828125 1.09765625 C3.23828125 1.75765625 3.23828125 2.41765625 3.23828125 3.09765625 C-0.72171875 3.09765625 -4.68171875 3.09765625 -8.76171875 3.09765625 C-8.76171875 2.43765625 -8.76171875 1.77765625 -8.76171875 1.09765625 C-5.58384334 0.03836445 -3.33582932 -0.01693314 0 0 Z " fill="#D5B097" transform="translate(106.76171875,24.90234375)"/>
<path d="M0 0 C0.92470553 4.71599818 1.22923777 7.67265609 -1 12 C-1.99 12 -2.98 12 -4 12 C-4 11.01 -4 10.02 -4 9 C-4.66 9 -5.32 9 -6 9 C-6.12375 8.360625 -6.2475 7.72125 -6.375 7.0625 C-6.684375 6.0415625 -6.684375 6.0415625 -7 5 C-7.66 4.67 -8.32 4.34 -9 4 C-8.67 3.01 -8.34 2.02 -8 1 C-5.23735711 0.40267181 -2.83967231 0 0 0 Z " fill="#906854" transform="translate(179,49)"/>
<path d="M0 0 C0.99 0.33 1.98 0.66 3 1 C3 5.62 3 10.24 3 15 C3.66 15 4.32 15 5 15 C5 19.29 5 23.58 5 28 C4.34 28 3.68 28 3 28 C3 27.34 3 26.68 3 26 C2.01 26 1.02 26 0 26 C0 25.01 0 24.02 0 23 C0.66 23 1.32 23 2 23 C2 17.06 2 11.12 2 5 C1.34 5 0.68 5 0 5 C0 3.35 0 1.7 0 0 Z " fill="#CAA18D" transform="translate(31,131)"/>
<path d="M0 0 C0.99 0 1.98 0 3 0 C3 0.66 3 1.32 3 2 C3.66 2.33 4.32 2.66 5 3 C5 4.32 5 5.64 5 7 C4.01 7.495 4.01 7.495 3 8 C1.86649466 10.01669827 1.86649466 10.01669827 1 12 C0.67 12 0.34 12 0 12 C0 8.04 0 4.08 0 0 Z M7 0 C7.99 0.33 8.98 0.66 10 1 C10 3.97 10 6.94 10 10 C9.34 10 8.68 10 8 10 C7.87625 8.88625 7.7525 7.7725 7.625 6.625 C7.3534187 2.96896323 7.3534187 2.96896323 5 1 C5.66 0.67 6.32 0.34 7 0 Z " fill="#8B6351" transform="translate(36,64)"/>
<path d="M0 0 C0.33 0.66 0.66 1.32 1 2 C1.66 2 2.32 2 3 2 C3 2.99 3 3.98 3 5 C3.99 5 4.98 5 6 5 C6 7.64 6 10.28 6 13 C5.01 13 4.02 13 3 13 C3 12.34 3 11.68 3 11 C2.34 11 1.68 11 1 11 C0.67 10.34 0.34 9.68 0 9 C-1.32 9 -2.64 9 -4 9 C-4.33 8.01 -4.66 7.02 -5 6 C-4.175 5.566875 -3.35 5.13375 -2.5 4.6875 C-1.2625 3.8521875 -1.2625 3.8521875 0 3 C0 2.01 0 1.02 0 0 Z " fill="#9E6E5F" transform="translate(69,195)"/>
<path d="M0 0 C0 0.66 0 1.32 0 2 C-0.66 2 -1.32 2 -2 2 C-1.67 2.99 -1.34 3.98 -1 5 C-1.99 5.495 -1.99 5.495 -3 6 C-3.66 5.67 -4.32 5.34 -5 5 C-5 5.99 -5 6.98 -5 8 C-5.66 8 -6.32 8 -7 8 C-7.268125 8.928125 -7.53625 9.85625 -7.8125 10.8125 C-8.91148371 13.76240366 -9.62418561 15.05615186 -12 17 C-12.99 16.34 -13.98 15.68 -15 15 C-13.43122312 11.14936584 -10.9838272 8.84819869 -8 6 C-7.21302734 5.18208984 -7.21302734 5.18208984 -6.41015625 4.34765625 C-2.22617647 0 -2.22617647 0 0 0 Z " fill="#8F746D" transform="translate(62,31)"/>
<path d="M0 0 C1.65 0 3.3 0 5 0 C2.58846624 2.79737916 0.91654886 4.03367327 -2.5625 5.4375 C-6.32688212 7.14858278 -7.30781035 8.31699899 -9 12 C-9.66 11.67 -10.32 11.34 -11 11 C-11.625 8.4375 -11.625 8.4375 -12 6 C-10.09598862 4.09598862 -8.66574314 3.06479561 -5.953125 2.80078125 C-3.96766727 2.8113422 -1.9830086 2.90084957 0 3 C0 2.01 0 1.02 0 0 Z " fill="#8E746D" transform="translate(193,166)"/>
<path d="M0 0 C0.66 0 1.32 0 2 0 C2 0.66 2 1.32 2 2 C4.31 2 6.62 2 9 2 C8.67 2.99 8.34 3.98 8 5 C7.34 5 6.68 5 6 5 C5.67 6.32 5.34 7.64 5 9 C3.02 9 1.04 9 -1 9 C-1.09765625 2.84765625 -1.09765625 2.84765625 -1 1 C-0.67 0.67 -0.34 0.34 0 0 Z " fill="#8C6655" transform="translate(86,211)"/>
<path d="M0 0 C0.99 0 1.98 0 3 0 C3 0.99 3 1.98 3 3 C1.35 3 -0.3 3 -2 3 C-2.93423645 6.01031744 -3.04449911 6.86650268 -2 10 C-3.28926992 10.36279456 -4.58153272 10.71496698 -5.875 11.0625 C-6.59429687 11.25972656 -7.31359375 11.45695312 -8.0546875 11.66015625 C-10 12 -10 12 -12 11 C-12.33 11.66 -12.66 12.32 -13 13 C-13 12.01 -13 11.02 -13 10 C-12.01 10 -11.02 10 -10 10 C-10 9.34 -10 8.68 -10 8 C-9.01 8 -8.02 8 -7 8 C-7 7.01 -7 6.02 -7 5 C-6.34 5 -5.68 5 -5 5 C-5 4.01 -5 3.02 -5 2 C-3.35 2 -1.7 2 0 2 C0 1.34 0 0.68 0 0 Z " fill="#F3CFB4" transform="translate(77,33)"/>
<path d="M0 0 C0.99 0.33 1.98 0.66 3 1 C4.22329074 4.66987221 3.88021006 7.33967822 3.5625 11.1875 C3.46066406 12.45980469 3.35882812 13.73210937 3.25390625 15.04296875 C3.17011719 16.01878906 3.08632813 16.99460938 3 18 C2.01 18 1.02 18 0 18 C-1.23102992 14.30691024 -0.87175152 11.11949288 -0.5625 7.3125 C-0.51029297 6.61060547 -0.45808594 5.90871094 -0.40429688 5.18554688 C-0.27492135 3.45661946 -0.13817469 1.72824645 0 0 Z " fill="#7F6152" transform="translate(13,123)"/>
<path d="M0 0 C1.65 0 3.3 0 5 0 C5 0.66 5 1.32 5 2 C6.65 2.33 8.3 2.66 10 3 C10 3.66 10 4.32 10 5 C11.65 5 13.3 5 15 5 C15 5.99 15 6.98 15 8 C18.3 8 21.6 8 25 8 C25 8.33 25 8.66 25 9 C21.37 9.33 17.74 9.66 14 10 C14 8.68 14 7.36 14 6 C12.63875 6.309375 12.63875 6.309375 11.25 6.625 C7.88972103 7.0127245 6.75924185 6.80411967 4 5 C3.01 5.66 2.02 6.32 1 7 C0.67 6.34 0.34 5.68 0 5 C0.66 4.67 1.32 4.34 2 4 C2 3.34 2 2.68 2 2 C1.34 1.34 0.68 0.68 0 0 Z " fill="#F3DDC6" transform="translate(78,218)"/>
<path d="M0 0 C0.33 0.66 0.66 1.32 1 2 C2.32 2 3.64 2 5 2 C5 2.66 5 3.32 5 4 C5.66 4 6.32 4 7 4 C7 3.34 7 2.68 7 2 C7.66 2 8.32 2 9 2 C7.54744301 5.82946843 5.57104439 7.12050295 2 9 C2 8.34 2 7.68 2 7 C-0.31 7 -2.62 7 -5 7 C-4.67 6.34 -4.34 5.68 -4 5 C-2.68 5 -1.36 5 0 5 C0 3.35 0 1.7 0 0 Z " fill="#967062" transform="translate(196,157)"/>
<path d="M0 0 C1.65 0 3.3 0 5 0 C4.67 1.32 4.34 2.64 4 4 C3.34 4 2.68 4 2 4 C2 4.66 2 5.32 2 6 C0.68 5.67 -0.64 5.34 -2 5 C-2 9.29 -2 13.58 -2 18 C-1.34 18 -0.68 18 0 18 C0 18.99 0 19.98 0 21 C-0.99 20.67 -1.98 20.34 -3 20 C-3 14.39 -3 8.78 -3 3 C-2.01 3 -1.02 3 0 3 C0 2.01 0 1.02 0 0 Z " fill="#F5D5C3" transform="translate(26,120)"/>
<path d="M0 0 C0.33 0.99 0.66 1.98 1 3 C2.32303717 3.3721042 3.65737935 3.70630173 5 4 C6.53445094 7.06890187 5.54984289 9.70094266 5 13 C3.68 13 2.36 13 1 13 C0.1276588 10.00519083 -0.10829766 7.36424089 -0.0625 4.25 C-0.05347656 3.45078125 -0.04445312 2.6515625 -0.03515625 1.828125 C-0.02355469 1.22484375 -0.01195312 0.6215625 0 0 Z " fill="#88675F" transform="translate(33,74)"/>
<path d="M0 0 C5.65728428 4.1394763 9.17376609 9.17008739 13 15 C12.01 15.495 12.01 15.495 11 16 C10.67 16.66 10.34 17.32 10 18 C10 16.35 10 14.7 10 13 C9.34 13 8.68 13 8 13 C8 12.01 8 11.02 8 10 C6.68 10 5.36 10 4 10 C4.33 8.68 4.66 7.36 5 6 C4.0409375 6.2784375 4.0409375 6.2784375 3.0625 6.5625 C2.381875 6.706875 1.70125 6.85125 1 7 C0 6 0 6 -0.0625 2.9375 C-0.041875 1.968125 -0.02125 0.99875 0 0 Z " fill="#8D7971" transform="translate(172,38)"/>
<path d="M0 0 C0.99 0 1.98 0 3 0 C3 0.66 3 1.32 3 2 C4.32 2 5.64 2 7 2 C7.33 1.34 7.66 0.68 8 0 C10 3 10 3 10 7 C10.66 7 11.32 7 12 7 C11.67 7.99 11.34 8.98 11 10 C9.72390677 9.09066991 8.45434447 8.17217147 7.1875 7.25 C6.47980469 6.73953125 5.77210937 6.2290625 5.04296875 5.703125 C2.97022309 3.97517642 1.52624146 2.21473524 0 0 Z " fill="#897168" transform="translate(21,159)"/>
<path d="M0 0 C0.99 0 1.98 0 3 0 C1.96687638 6.6613344 -0.08580266 11.51713579 -4 17 C-4.33 16.34 -4.66 15.68 -5 15 C-5.99 15 -6.98 15 -8 15 C-8 14.34 -8 13.68 -8 13 C-6.68 12.67 -5.36 12.34 -4 12 C-3.67 10.68 -3.34 9.36 -3 8 C-2.01 8 -1.02 8 0 8 C0 5.36 0 2.72 0 0 Z " fill="#957F78" transform="translate(211,141)"/>
<path d="M0 0 C0.99 0 1.98 0 3 0 C3 0.66 3 1.32 3 2 C3.66 2 4.32 2 5 2 C5 6.29 5 10.58 5 15 C4.34 15 3.68 15 3 15 C3 12.36 3 9.72 3 7 C2.34 7 1.68 7 1 7 C0.67 4.69 0.34 2.38 0 0 Z " fill="#FFE9CD" transform="translate(198,121)"/>
<path d="M0 0 C1.73546076 2.60319113 2.65175233 4.52267237 3.625 7.4375 C3.88539063 8.19933594 4.14578125 8.96117188 4.4140625 9.74609375 C5 12 5 12 5 16 C3.35 16 1.7 16 0 16 C0.66666667 12.66666667 1.33333333 9.33333333 2 6 C1.01 6 0.02 6 -1 6 C-0.67 4.02 -0.34 2.04 0 0 Z " fill="#957871" transform="translate(188,61)"/>
<path d="M0 0 C7.71589817 -0.1567564 15.31516461 0.32546899 23 1 C23 1.66 23 2.32 23 3 C17.72 3 12.44 3 7 3 C7 2.34 7 1.68 7 1 C4.69 1 2.38 1 0 1 C0 0.67 0 0.34 0 0 Z " fill="#D6AF9C" transform="translate(98,215)"/>
<path d="M0 0 C4.06225548 0.57823096 6.84762346 1.89117737 10.3125 4.0625 C11.19550781 4.61035156 12.07851562 5.15820312 12.98828125 5.72265625 C13.65214844 6.14417969 14.31601563 6.56570312 15 7 C13.68 7.33 12.36 7.66 11 8 C11 7.34 11 6.68 11 6 C10.01 6 9.02 6 8 6 C7.67 6.66 7.34 7.32 7 8 C6.01 7.01 5.02 6.02 4 5 C4.33 4.34 4.66 3.68 5 3 C3.35 3 1.7 3 0 3 C0 2.01 0 1.02 0 0 Z " fill="#8C7971" transform="translate(144,20)"/>
<path d="M0 0 C0 0.99 0 1.98 0 3 C0.66 3 1.32 3 2 3 C1.67 3.99 1.34 4.98 1 6 C-0.32 5.34 -1.64 4.68 -3 4 C-3.99 4.66 -4.98 5.32 -6 6 C-8.1875 5.625 -8.1875 5.625 -10 5 C-10 3 -10 3 -8.9375 1.375 C-6.03661182 -0.68369484 -3.45519943 -0.19557733 0 0 Z " fill="#8B6452" transform="translate(62,187)"/>
<path d="M0 0 C0.33 0 0.66 0 1 0 C1 1.65 1 3.3 1 5 C0.01 5 -0.98 5 -2 5 C-2 5.99 -2 6.98 -2 8 C-2.66 8 -3.32 8 -4 8 C-4 9.65 -4 11.3 -4 13 C-4.99 13 -5.98 13 -7 13 C-7 14.65 -7 16.3 -7 18 C-7.99 17.67 -8.98 17.34 -10 17 C-9.09111244 15.10042499 -8.17251969 13.20549214 -7.25 11.3125 C-6.73953125 10.25675781 -6.2290625 9.20101562 -5.703125 8.11328125 C-4.05001807 5.09143212 -2.27701639 2.5783862 0 0 Z " fill="#8E7E77" transform="translate(46,46)"/>
<path d="M0 0 C0.33 0.99 0.66 1.98 1 3 C1.66 3 2.32 3 3 3 C3 3.66 3 4.32 3 5 C3.99 5 4.98 5 6 5 C6 5.66 6 6.32 6 7 C6.99 7.33 7.98 7.66 9 8 C9 9.32 9 10.64 9 12 C9.66 12.33 10.32 12.66 11 13 C10.01 13 9.02 13 8 13 C8 12.01 8 11.02 8 10 C7.34 10 6.68 10 6 10 C5.67 9.34 5.34 8.68 5 8 C3.02 8.99 3.02 8.99 1 10 C1.33 8.35 1.66 6.7 2 5 C1.01 5 0.02 5 -1 5 C-0.67 3.35 -0.34 1.7 0 0 Z " fill="#E8C2AB" transform="translate(164,46)"/>
<path d="M0 0 C4.455 0.99 4.455 0.99 9 2 C8.01 2.33 7.02 2.66 6 3 C6 3.99 6 4.98 6 6 C6.66 6.66 7.32 7.32 8 8 C6.02 8.99 6.02 8.99 4 10 C3.67 9.01 3.34 8.02 3 7 C2.01 7 1.02 7 0 7 C0 6.01 0 5.02 0 4 C0.66 4 1.32 4 2 4 C2 3.34 2 2.68 2 2 C1.34 2 0.68 2 0 2 C0 1.34 0 0.68 0 0 Z " fill="#B18D78" transform="translate(139,216)"/>
<path d="M0 0 C0.33 0 0.66 0 1 0 C1 5.28 1 10.56 1 16 C0.01 16.33 -0.98 16.66 -2 17 C-2 13.04 -2 9.08 -2 5 C-1.34 5 -0.68 5 0 5 C0 3.35 0 1.7 0 0 Z " fill="#B28E78" transform="translate(185,115)"/>
<path d="M0 0 C1.32 0 2.64 0 4 0 C2.35821735 4.77609498 -0.26546702 8.79382904 -3 13 C-4.23593891 9.29218328 -3.5678132 8.32489747 -2.0625 4.8125 C-1.68222656 3.91144531 -1.30195313 3.01039063 -0.91015625 2.08203125 C-0.60980469 1.39496094 -0.30945313 0.70789063 0 0 Z " fill="#8F7B74" transform="translate(179,179)"/>
<path d="M0 0 C1.65 0 3.3 0 5 0 C4.01 0.33 3.02 0.66 2 1 C2 2.32 2 3.64 2 5 C2.66 5.33 3.32 5.66 4 6 C3.67 6.66 3.34 7.32 3 8 C3.66 8 4.32 8 5 8 C5 9.65 5 11.3 5 13 C4.01 13 3.02 13 2 13 C2 11.35 2 9.7 2 8 C1.34 8 0.68 8 0 8 C0 5.36 0 2.72 0 0 Z " fill="#EBCDB2" transform="translate(196,120)"/>
<path d="M0 0 C4.51045941 2.46025059 8.18504423 5.60282037 12 9 C11.01 9.33 10.02 9.66 9 10 C9 9.34 9 8.68 9 8 C8.34 8 7.68 8 7 8 C7 8.66 7 9.32 7 10 C6.01 10 5.02 10 4 10 C3.67 8.02 3.34 6.04 3 4 C2.01 3.67 1.02 3.34 0 3 C0 2.01 0 1.02 0 0 Z " fill="#8A7771" transform="translate(160,28)"/>
<path d="M0 0 C0.99 0 1.98 0 3 0 C1.33248852 3.94139078 -1.22710649 6.7892812 -4 10 C-4.33 9.34 -4.66 8.68 -5 8 C-5.99 7.67 -6.98 7.34 -8 7 C-6.25 5 -6.25 5 -4 3 C-2.68 3 -1.36 3 0 3 C0 2.01 0 1.02 0 0 Z " fill="#886E64" transform="translate(172,192)"/>
<path d="M0 0 C0.99 0 1.98 0 3 0 C3 6.93 3 13.86 3 21 C2.01 21 1.02 21 0 21 C0 20.01 0 19.02 0 18 C0.66 18 1.32 18 2 18 C2 13.05 2 8.1 2 3 C1.34 3 0.68 3 0 3 C0 2.01 0 1.02 0 0 Z " fill="#BB977E" transform="translate(201,120)"/>
<path d="M0 0 C0.33 0.99 0.66 1.98 1 3 C1.66 3 2.32 3 3 3 C3 7.29 3 11.58 3 16 C2.34 14.68 1.68 13.36 1 12 C0.67 11.67 0.34 11.34 0 11 C-0.07226502 9.14712498 -0.0838122 7.29166122 -0.0625 5.4375 C-0.05347656 4.42558594 -0.04445312 3.41367188 -0.03515625 2.37109375 C-0.02355469 1.58863281 -0.01195312 0.80617188 0 0 Z " fill="#B99480" transform="translate(41,120)"/>
<path d="M0 0 C0.66 0 1.32 0 2 0 C1.67 1.65 1.34 3.3 1 5 C1.66 5.33 2.32 5.66 3 6 C2.21625 6.4125 1.4325 6.825 0.625 7.25 C-2.05891656 9.0392777 -2.88098949 10.04988139 -4 13 C-4.33 13 -4.66 13 -5 13 C-5 11.35 -5 9.7 -5 8 C-4.34 8 -3.68 8 -3 8 C-3 7.01 -3 6.02 -3 5 C-2.01 5 -1.02 5 0 5 C0 3.35 0 1.7 0 0 Z " fill="#82675B" transform="translate(47,46)"/>
<path d="M0 0 C2.31 0 4.62 0 7 0 C7.33 0.99 7.66 1.98 8 3 C8.66 3 9.32 3 10 3 C10 3.66 10 4.32 10 5 C9.34 5 8.68 5 8 5 C7.67 5.66 7.34 6.32 7 7 C7 5.35 7 3.7 7 2 C6.34 2 5.68 2 5 2 C5 2.99 5 3.98 5 5 C4.01 5 3.02 5 2 5 C1.34 3.35 0.68 1.7 0 0 Z " fill="#86645B" transform="translate(62,203)"/>
<path d="M0 0 C1.65 0 3.3 0 5 0 C5 0.99 5 1.98 5 3 C4.34 3 3.68 3 3 3 C2.67 3.66 2.34 4.32 2 5 C-1.0625 5.625 -1.0625 5.625 -4 6 C-4 5.01 -4 4.02 -4 3 C-2.68 3 -1.36 3 0 3 C0 2.01 0 1.02 0 0 Z " fill="#846659" transform="translate(80,20)"/>
<path d="M0 0 C2.96175123 0.61277612 4.38058783 1.25372522 7 3 C7 3.66 7 4.32 7 5 C7.66 5 8.32 5 9 5 C9 5.66 9 6.32 9 7 C8.01 7.33 7.02 7.66 6 8 C4.99403703 7.0479279 3.99538437 6.08812654 3 5.125 C2.443125 4.59132812 1.88625 4.05765625 1.3125 3.5078125 C0 2 0 2 0 0 Z " fill="#826961" transform="translate(54,195)"/>
<path d="M0 0 C2.60018816 3.90028225 2.15085514 7.47434569 2 12 C0.68 11.67 -0.64 11.34 -2 11 C-1.40049704 7.31733897 -0.75241109 3.65456815 0 0 Z " fill="#947C74" transform="translate(193,78)"/>
<path d="M0 0 C0.99 0 1.98 0 3 0 C3 3.3 3 6.6 3 10 C2.01 10 1.02 10 0 10 C0 6.7 0 3.4 0 0 Z " fill="#916353" transform="translate(41,74)"/>
<path d="M0 0 C0.66 0 1.32 0 2 0 C2 3.96 2 7.92 2 12 C1.01 12 0.02 12 -1 12 C-0.67 8.04 -0.34 4.08 0 0 Z " fill="#95857E" transform="translate(32,83)"/>
<path d="M0 0 C0.99 0 1.98 0 3 0 C3 0.66 3 1.32 3 2 C2.34 2 1.68 2 1 2 C1 2.99 1 3.98 1 5 C2.32 5 3.64 5 5 5 C5 5.66 5 6.32 5 7 C4.01 7.495 4.01 7.495 3 8 C1.86649466 10.01669827 1.86649466 10.01669827 1 12 C0.67 12 0.34 12 0 12 C0 8.04 0 4.08 0 0 Z " fill="#8A685E" transform="translate(36,64)"/>
<path d="M0 0 C0 1.32 0 2.64 0 4 C-1.32 4 -2.64 4 -4 4 C-3.67 6.31 -3.34 8.62 -3 11 C-4.32 11 -5.64 11 -7 11 C-4.6557377 0 -4.6557377 0 0 0 Z " fill="#876451" transform="translate(54,173)"/>
<path d="M0 0 C0.33 0.99 0.66 1.98 1 3 C1.99 3.33 2.98 3.66 4 4 C4 4.66 4 5.32 4 6 C2.35 6 0.7 6 -1 6 C-1 5.34 -1 4.68 -1 4 C-2.65 4 -4.3 4 -6 4 C-6 3.01 -6 2.02 -6 1 C-5.34 1 -4.68 1 -4 1 C-4 1.66 -4 2.32 -4 3 C-3.01 3 -2.02 3 -1 3 C-0.67 2.01 -0.34 1.02 0 0 Z " fill="#AA7F6C" transform="translate(153,32)"/>
<path d="M0 0 C0.66 0 1.32 0 2 0 C1.33333333 3.33333333 0.66666667 6.66666667 0 10 C-0.33 9.01 -0.66 8.02 -1 7 C-1.66 7 -2.32 7 -3 7 C-3 5.35 -3 3.7 -3 2 C-2.01 2 -1.02 2 0 2 C0 1.34 0 0.68 0 0 Z " fill="#AA866E" transform="translate(183,72)"/>
<path d="M0 0 C3.6875 -0.3125 3.6875 -0.3125 7 0 C7 0.66 7 1.32 7 2 C5.35 2 3.7 2 2 2 C2 2.99 2 3.98 2 5 C0.35 5 -1.3 5 -3 5 C-1.9375 2.5 -1.9375 2.5 0 0 Z " fill="#84665C" transform="translate(191,164)"/>
<path d="M0 0 C0.33 0 0.66 0 1 0 C1.33 1.98 1.66 3.96 2 6 C5.96 6.99 5.96 6.99 10 8 C10 8.33 10 8.66 10 9 C6.7 9 3.4 9 0 9 C0 6.03 0 3.06 0 0 Z " fill="#9D8C84" transform="translate(196,101)"/>
<path d="M0 0 C0.99 0 1.98 0 3 0 C3 0.99 3 1.98 3 3 C2.34 3 1.68 3 1 3 C1 3.99 1 4.98 1 6 C0.01 6 -0.98 6 -2 6 C-2 6.66 -2 7.32 -2 8 C-2.66 8 -3.32 8 -4 8 C-4 6.35 -4 4.7 -4 3 C-3.34 3 -2.68 3 -2 3 C-2 3.66 -2 4.32 -2 5 C-1.34 5 -0.68 5 0 5 C0 3.35 0 1.7 0 0 Z " fill="#CFA68F" transform="translate(195,151)"/>
<path d="M0 0 C0.66 0 1.32 0 2 0 C2.33 2.97 2.66 5.94 3 9 C2.01 9.33 1.02 9.66 0 10 C0 6.7 0 3.4 0 0 Z " fill="#89644E" transform="translate(183,77)"/>
<path d="M0 0 C1.65 0 3.3 0 5 0 C2.74259377 2.33524782 0.7194239 4.18705073 -2 6 C-2.99 6 -3.98 6 -5 6 C-5 5.01 -5 4.02 -5 3 C-3.35 3 -1.7 3 0 3 C0 2.01 0 1.02 0 0 Z " fill="#95817D" transform="translate(193,166)"/>
<path d="M0 0 C2.475 0.495 2.475 0.495 5 1 C5.33 1.99 5.66 2.98 6 4 C5 5 5 5 2.4375 5.0625 C1.2309375 5.0315625 1.2309375 5.0315625 0 5 C0 3.35 0 1.7 0 0 Z " fill="#8E634E" transform="translate(178,159)"/>
<path d="M0 0 C0.99 0 1.98 0 3 0 C3 3.63 3 7.26 3 11 C3.66 11 4.32 11 5 11 C5 11.66 5 12.32 5 13 C4.01 13 3.02 13 2 13 C2 9.7 2 6.4 2 3 C1.34 3 0.68 3 0 3 C0 2.01 0 1.02 0 0 Z " fill="#BC977F" transform="translate(44,146)"/>
<path d="M0 0 C0.33 0 0.66 0 1 0 C1 4.95 1 9.9 1 15 C1.66 15 2.32 15 3 15 C3 15.99 3 16.98 3 18 C2.01 17.67 1.02 17.34 0 17 C0 11.39 0 5.78 0 0 Z " fill="#CDA692" transform="translate(23,123)"/>
<path d="M0 0 C0 0.99 0 1.98 0 3 C-0.99 3 -1.98 3 -3 3 C-3 3.66 -3 4.32 -3 5 C-3.66 5 -4.32 5 -5 5 C-5 6.65 -5 8.3 -5 10 C-5.99 9.67 -6.98 9.34 -8 9 C-3.8 0 -3.8 0 0 0 Z " fill="#97887F" transform="translate(21,110)"/>
<path d="M0 0 C0.99 0 1.98 0 3 0 C3 0.99 3 1.98 3 3 C2.34 3 1.68 3 1 3 C1 5.64 1 8.28 1 11 C0.01 11 -0.98 11 -2 11 C-2 10.01 -2 9.02 -2 8 C-1.34 8 -0.68 8 0 8 C0 5.36 0 2.72 0 0 Z " fill="#B69078" transform="translate(46,66)"/>
<path d="M0 0 C-0.33 1.32 -0.66 2.64 -1 4 C-3.31 4.33 -5.62 4.66 -8 5 C-3.16129032 0 -3.16129032 0 0 0 Z " fill="#8E7B69" transform="translate(70,26)"/>
<path d="M0 0 C0.99 0.33 1.98 0.66 3 1 C3 4.96 3 8.92 3 13 C2.67 13 2.34 13 2 13 C2 10.36 2 7.72 2 5 C1.34 5 0.68 5 0 5 C0 3.35 0 1.7 0 0 Z " fill="#C09A82" transform="translate(31,131)"/>
<path d="M0 0 C1.98 0.495 1.98 0.495 4 1 C4.33 2.32 4.66 3.64 5 5 C3.35 5 1.7 5 0 5 C-0.33 4.01 -0.66 3.02 -1 2 C-0.67 1.34 -0.34 0.68 0 0 Z " fill="#A17667" transform="translate(26,115)"/>
<path d="M0 0 C0.33 1.32 0.66 2.64 1 4 C-2.3 4 -5.6 4 -9 4 C-6.3144406 1.3144406 -3.62378672 0.93950026 0 0 Z " fill="#99847E" transform="translate(30,106)"/>
<path d="M0 0 C0.99 0 1.98 0 3 0 C3 0.66 3 1.32 3 2 C5.64 2 8.28 2 11 2 C11 2.99 11 3.98 11 5 C10.34 5 9.68 5 9 5 C9 4.34 9 3.68 9 3 C4.545 3.495 4.545 3.495 0 4 C0 2.68 0 1.36 0 0 Z " fill="#D8B39E" transform="translate(133,28)"/>
<path d="M0 0 C1.65 0 3.3 0 5 0 C4.01 0.33 3.02 0.66 2 1 C2 1.66 2 2.32 2 3 C-0.64 3 -3.28 3 -6 3 C-6 3.66 -6 4.32 -6 5 C-6.66 5 -7.32 5 -8 5 C-7.67 3.68 -7.34 2.36 -7 1 C-4.69 1.33 -2.38 1.66 0 2 C0 1.34 0 0.68 0 0 Z " fill="#9F7961" transform="translate(96,25)"/>
<path d="M0 0 C0.33 0.99 0.66 1.98 1 3 C-0.32 3 -1.64 3 -3 3 C-3 3.99 -3 4.98 -3 6 C-4.98 6 -6.96 6 -9 6 C-6.11912454 3.59927045 -3.43595166 1.52708963 0 0 Z " fill="#8D7D75" transform="translate(79,20)"/>
<path d="M0 0 C0.66 0 1.32 0 2 0 C2 0.66 2 1.32 2 2 C2.99 2 3.98 2 5 2 C5 2.99 5 3.98 5 5 C3.02 5.99 3.02 5.99 1 7 C0 2.25 0 2.25 0 0 Z " fill="#836357" transform="translate(167,36)"/>
<path d="M0 0 C0.33 1.32 0.66 2.64 1 4 C1.99 4 2.98 4 4 4 C4 4.99 4 5.98 4 7 C2.68 7 1.36 7 0 7 C-0.38133299 5.0085944 -0.71325582 3.00720923 -1 1 C-0.67 0.67 -0.34 0.34 0 0 Z " fill="#8A614E" transform="translate(55,178)"/>
<path d="M0 0 C0.99 0 1.98 0 3 0 C3 1.65 3 3.3 3 5 C3.66 5 4.32 5 5 5 C5 5.99 5 6.98 5 8 C4.01 8 3.02 8 2 8 C2 6.35 2 4.7 2 3 C1.34 3 0.68 3 0 3 C0 2.01 0 1.02 0 0 Z " fill="#BE9584" transform="translate(26,146)"/>
<path d="M0 0 C0.99 0 1.98 0 3 0 C3 0.66 3 1.32 3 2 C3.66 2.33 4.32 2.66 5 3 C4.34 4.32 3.68 5.64 3 7 C2.34 7 1.68 7 1 7 C0.67 4.69 0.34 2.38 0 0 Z " fill="#FBDCC3" transform="translate(198,121)"/>
<path d="M0 0 C0.99 0 1.98 0 3 0 C3 1.65 3 3.3 3 5 C1.02 5.99 1.02 5.99 -1 7 C-0.67 4.69 -0.34 2.38 0 0 Z " fill="#856256" transform="translate(187,67)"/>
<path d="M0 0 C0.66 0 1.32 0 2 0 C2 0.66 2 1.32 2 2 C1.34 2 0.68 2 0 2 C0.33 2.99 0.66 3.98 1 5 C-1.31 5.66 -3.62 6.32 -6 7 C-5.04882866 5.8274869 -4.08882991 4.66212985 -3.125 3.5 C-2.59132812 2.8503125 -2.05765625 2.200625 -1.5078125 1.53125 C-0.76144531 0.77328125 -0.76144531 0.77328125 0 0 Z " fill="#90817B" transform="translate(60,31)"/>
<path d="M0 0 C0.99 0 1.98 0 3 0 C3 0.99 3 1.98 3 3 C1.35 3 -0.3 3 -2 3 C-2 3.66 -2 4.32 -2 5 C-2.99 5 -3.98 5 -5 5 C-5 4.01 -5 3.02 -5 2 C-3.35 2 -1.7 2 0 2 C0 1.34 0 0.68 0 0 Z " fill="#C7A189" transform="translate(77,33)"/>
<path d="M0 0 C2.31 0 4.62 0 7 0 C7 0.66 7 1.32 7 2 C7.99 2.33 8.98 2.66 10 3 C7.36 3 4.72 3 2 3 C2 2.34 2 1.68 2 1 C1.34 0.67 0.68 0.34 0 0 Z " fill="#C19D84" transform="translate(119,25)"/>
<path d="M0 0 C1.65 0.33 3.3 0.66 5 1 C5 1.99 5 2.98 5 4 C3.02 4 1.04 4 -1 4 C-0.67 2.68 -0.34 1.36 0 0 Z " fill="#F2CBB6" transform="translate(91,209)"/>
<path d="M0 0 C0.99 0 1.98 0 3 0 C3 0.66 3 1.32 3 2 C3.99 2 4.98 2 6 2 C6 2.99 6 3.98 6 5 C4.35 4.67 2.7 4.34 1 4 C0.67 2.68 0.34 1.36 0 0 Z " fill="#8D634B" transform="translate(74,203)"/>
<path d="M0 0 C1.65 0 3.3 0 5 0 C5 1.65 5 3.3 5 5 C4.34 5 3.68 5 3 5 C3 4.34 3 3.68 3 3 C2.01 3 1.02 3 0 3 C0 2.01 0 1.02 0 0 Z " fill="#EBC6AD" transform="translate(62,187)"/>
<path d="M0 0 C1.32 0 2.64 0 4 0 C3.34 1.65 2.68 3.3 2 5 C1.01 5 0.02 5 -1 5 C-0.67 3.35 -0.34 1.7 0 0 Z " fill="#88746D" transform="translate(179,179)"/>
<path d="M0 0 C0.66 0 1.32 0 2 0 C0.54744301 3.82946843 -1.42895561 5.12050295 -5 7 C-5 6.34 -5 5.68 -5 5 C-4.34 5 -3.68 5 -3 5 C-3 4.34 -3 3.68 -3 3 C-3.66 2.67 -4.32 2.34 -5 2 C-3.35 2 -1.7 2 0 2 C0 1.34 0 0.68 0 0 Z " fill="#907F78" transform="translate(203,159)"/>
<path d="M0 0 C4.55384615 -0.36923077 4.55384615 -0.36923077 6.8125 1.5 C7.204375 1.995 7.59625 2.49 8 3 C6.02 3.99 6.02 3.99 4 5 C3.67 4.01 3.34 3.02 3 2 C2.01 2 1.02 2 0 2 C0 1.34 0 0.68 0 0 Z " fill="#F7D5C0" transform="translate(139,221)"/>
<path d="M0 0 C3.3 0 6.6 0 10 0 C10.33 0.99 10.66 1.98 11 3 C9.68 3 8.36 3 7 3 C7 2.34 7 1.68 7 1 C4.69 1 2.38 1 0 1 C0 0.67 0 0.34 0 0 Z " fill="#CDA794" transform="translate(98,215)"/>
<path d="M0 0 C0.66 0 1.32 0 2 0 C2.33 2.31 2.66 4.62 3 7 C-0.875 5.25 -0.875 5.25 -2 3 C-1.34 3 -0.68 3 0 3 C0 2.01 0 1.02 0 0 Z " fill="#8C7269" transform="translate(67,205)"/>
<path d="M0 0 C0.99 0 1.98 0 3 0 C3 1.65 3 3.3 3 5 C3.66 5 4.32 5 5 5 C5 5.99 5 6.98 5 8 C4.01 8 3.02 8 2 8 C2 6.02 2 4.04 2 2 C1.34 2 0.68 2 0 2 C0 1.34 0 0.68 0 0 Z " fill="#DCB5A1" transform="translate(52,169)"/>
<path d="M0 0 C0.66 0 1.32 0 2 0 C2.99 2.31 3.98 4.62 5 7 C4.34 7 3.68 7 3 7 C3 6.34 3 5.68 3 5 C2.01 5 1.02 5 0 5 C0 3.35 0 1.7 0 0 Z " fill="#816557" transform="translate(21,154)"/>
<path d="M0 0 C0.33 0 0.66 0 1 0 C1 2.64 1 5.28 1 8 C0.01 8 -0.98 8 -2 8 C-2 6.35 -2 4.7 -2 3 C-1.34 3 -0.68 3 0 3 C0 2.01 0 1.02 0 0 Z " fill="#D3AF99" transform="translate(182,138)"/>
<path d="M0 0 C0.33 0 0.66 0 1 0 C1 2.64 1 5.28 1 8 C0.01 7.34 -0.98 6.68 -2 6 C-1.125 1.125 -1.125 1.125 0 0 Z " fill="#8B634D" transform="translate(192,140)"/>
<path d="M0 0 C0.99 0 1.98 0 3 0 C3 1.65 3 3.3 3 5 C2.34 5 1.68 5 1 5 C0.67 5.99 0.34 6.98 0 8 C0 5.36 0 2.72 0 0 Z " fill="#C29784" transform="translate(41,87)"/>
<path d="M0 0 C0.99 0 1.98 0 3 0 C3 0.66 3 1.32 3 2 C2.34 2 1.68 2 1 2 C1 3.98 1 5.96 1 8 C0.01 8 -0.98 8 -2 8 C-2 7.01 -2 6.02 -2 5 C-1.34 5 -0.68 5 0 5 C0 3.35 0 1.7 0 0 Z " fill="#C5A289" transform="translate(51,56)"/>
<path d="M0 0 C0.33 1.32 0.66 2.64 1 4 C-1.97 3.505 -1.97 3.505 -5 3 C-5 3.66 -5 4.32 -5 5 C-5.99 5 -6.98 5 -8 5 C-8 4.01 -8 3.02 -8 2 C-5.36 2 -2.72 2 0 2 C0 1.34 0 0.68 0 0 Z " fill="#CFA993" transform="translate(90,28)"/>
<path d="M0 0 C0.66 0 1.32 0 2 0 C2 0.66 2 1.32 2 2 C2.66 2 3.32 2 4 2 C4.33 3.32 4.66 4.64 5 6 C4.01 6.33 3.02 6.66 2 7 C1.34 4.69 0.68 2.38 0 0 Z " fill="#8E654F" transform="translate(65,193)"/>
<path d="M0 0 C0.99 0 1.98 0 3 0 C1.70700306 2.88437779 0.34058637 4.87219421 -2 7 C-2 6.01 -2 5.02 -2 4 C-2.66 3.67 -3.32 3.34 -4 3 C-2.68 3 -1.36 3 0 3 C0 2.01 0 1.02 0 0 Z " fill="#917C73" transform="translate(172,192)"/>
<path d="M0 0 C2.375 -0.125 2.375 -0.125 5 0 C5.66 0.66 6.32 1.32 7 2 C6.67 2.99 6.34 3.98 6 5 C3.98079663 3.69593116 1.98075027 2.36176581 0 1 C0 0.67 0 0.34 0 0 Z " fill="#95837D" transform="translate(34,169)"/>
<path d="M0 0 C0.33 0.99 0.66 1.98 1 3 C1.66 3 2.32 3 3 3 C2.67 3.99 2.34 4.98 2 6 C0.02 4.68 -1.96 3.36 -4 2 C-2.68 1.34 -1.36 0.68 0 0 Z " fill="#927F79" transform="translate(30,163)"/>
<path d="M0 0 C0.99 0 1.98 0 3 0 C3 1.98 3 3.96 3 6 C2.01 5.67 1.02 5.34 0 5 C0 3.35 0 1.7 0 0 Z " fill="#7F5E57" transform="translate(190,77)"/>
<path d="" fill="#9B928F" transform="translate(0,0)"/>
<path d="" fill="#DBC7AE" transform="translate(0,0)"/>
</svg>
