<?xml version="1.0" encoding="UTF-8"?>
<svg version="1.1" xmlns="http://www.w3.org/2000/svg" width="71" height="91">
<path d="M0 0 C20.79 0 41.58 0 63 0 C64.14610356 3.43831067 64.19119812 6.48477803 64.1875 10.0625 C64.18741943 10.81619873 64.18733887 11.56989746 64.18725586 12.34643555 C64.08206871 23.88491209 63.25619112 35.4124182 62.53515625 46.92578125 C62.49152451 47.62534439 62.44789276 48.32490753 62.40293884 49.04566956 C62.14479442 53.07353446 61.80705109 57.0870151 61.43359375 61.10546875 C60.80807937 71.05171085 61 81.03410816 61 91 C44.5 91 28 91 11 91 C7.55482857 72.62575237 7.55482857 72.62575237 6.8671875 65.15234375 C6.78501984 64.32593887 6.70285217 63.499534 6.61819458 62.64808655 C6.36389639 60.07848139 6.11898446 57.50810275 5.875 54.9375 C5.62188776 52.33499318 5.36677199 49.7326943 5.11038208 47.13050842 C4.95333386 45.53017937 4.79845396 43.92963537 4.64620972 42.32884216 C4.31926797 38.94136895 3.94059588 35.5903894 3.4519043 32.22070312 C3.09687146 29.69039887 2.88131839 27.36047457 2.90234375 24.81640625 C2.90717773 23.76743164 2.90717773 23.76743164 2.91210938 22.69726562 C2.92048828 21.99279297 2.92886719 21.28832031 2.9375 20.5625 C2.94201172 19.83095703 2.94652344 19.09941406 2.95117188 18.34570312 C2.96281852 16.56376581 2.98074809 14.78187137 3 13 C2.34 13 1.68 13 1 13 C0.67 14.32 0.34 15.64 0 17 C0 11.39 0 5.78 0 0 Z " fill="#FCD5BB" transform="translate(0,0)"/>
<path d="M0 0 C2.31 0 4.62 0 7 0 C7.11593506 0.77714355 7.23187012 1.55428711 7.35131836 2.35498047 C7.87653363 5.86219012 8.40694951 9.36859364 8.9375 12.875 C9.11990234 14.09832031 9.30230469 15.32164063 9.49023438 16.58203125 C9.66748047 17.74863281 9.84472656 18.91523438 10.02734375 20.1171875 C10.18968506 21.19597168 10.35202637 22.27475586 10.51928711 23.38623047 C10.86932434 25.97035792 10.86932434 25.97035792 12 28 C12.93691788 35.31027283 13.14656989 42.63893432 13 50 C13.66 50 14.32 50 15 50 C15.81804891 53.69996705 16.23962955 57.29926632 16.5 61.078125 C16.62375 62.82029297 16.62375 62.82029297 16.75 64.59765625 C16.87375 66.40556641 16.87375 66.40556641 17 68.25 C17.527326 75.8550297 18.09032522 83.43020627 19 91 C16.36 91 13.72 91 11 91 C8.50929375 79.03059849 7.02958423 67.10211649 5.875 54.9375 C5.62188776 52.33499318 5.36677199 49.7326943 5.11038208 47.13050842 C4.95333386 45.53017937 4.79845396 43.92963537 4.64620972 42.32884216 C4.31926797 38.94136895 3.94059588 35.5903894 3.4519043 32.22070312 C3.09687146 29.69039887 2.88131839 27.36047457 2.90234375 24.81640625 C2.90717773 23.76743164 2.90717773 23.76743164 2.91210938 22.69726562 C2.92048828 21.99279297 2.92886719 21.28832031 2.9375 20.5625 C2.94201172 19.83095703 2.94652344 19.09941406 2.95117188 18.34570312 C2.96281852 16.56376581 2.98074809 14.78187137 3 13 C2.34 13 1.68 13 1 13 C0.67 14.32 0.34 15.64 0 17 C0 11.39 0 5.78 0 0 Z " fill="#9D7B6B" transform="translate(0,0)"/>
<path d="M0 0 C2.31 0 4.62 0 7 0 C8.14610356 3.43831067 8.19119812 6.48477803 8.1875 10.0625 C8.18737915 11.1930481 8.18737915 11.1930481 8.18725586 12.34643555 C8.03717419 28.80960487 6.81710998 45.37113573 5.4375 61.7734375 C4.94954739 67.96202264 4.88488165 74.1075825 4.9375 80.3125 C4.94201172 81.35083984 4.94652344 82.38917969 4.95117188 83.45898438 C4.96275592 85.97272175 4.97906077 88.48632623 5 91 C3.00045254 91.04254356 0.99958364 91.04080783 -1 91 C-2.68900922 89.31099078 -2.13010432 87.19521336 -2.1328125 84.8828125 C-2.13482666 83.80942627 -2.13684082 82.73604004 -2.13891602 81.63012695 C-2.13432373 80.47343506 -2.12973145 79.31674316 -2.125 78.125 C-2.12234131 76.95219482 -2.11968262 75.77938965 -2.11694336 74.57104492 C-2.0787492 67.47611723 -1.93466261 60.39795874 -1.5625 53.3125 C-1.52334473 52.56693848 -1.48418945 51.82137695 -1.44384766 51.05322266 C-1.25739924 47.94074845 -0.98323401 44.89610502 -0.48632812 41.81689453 C0.06277218 37.50733926 0.12581059 33.34096626 0.09765625 29.00390625 C0.0962413 28.17036118 0.09482635 27.3368161 0.09336853 26.47801208 C0.08781168 23.83947014 0.0752674 21.20101591 0.0625 18.5625 C0.05747942 16.76367311 0.05291749 14.96484487 0.04882812 13.16601562 C0.03785643 8.77731042 0.02062196 4.38867004 0 0 Z " fill="#997362" transform="translate(56,0)"/>
<path d="M0 0 C0.33 0 0.66 0 1 0 C1 2.64 1 5.28 1 8 C1.66 8 2.32 8 3 8 C4.38944965 12.16834896 4.35152111 16.36857844 4.51757812 20.7265625 C4.60881644 22.48935555 4.79703561 24.24655504 5 26 C5.66 26.33 6.32 26.66 7 27 C7 20.4 7 13.8 7 7 C7.33 7 7.66 7 8 7 C8.81804891 10.69996705 9.23962955 14.29926632 9.5 18.078125 C9.62375 19.82029297 9.62375 19.82029297 9.75 21.59765625 C9.87375 23.40556641 9.87375 23.40556641 10 25.25 C10.527326 32.8550297 11.09032522 40.43020627 12 48 C9.36 48 6.72 48 4 48 C0.72571533 32.56720492 -2.7259881 15.7296881 0 0 Z " fill="#A48270" transform="translate(7,43)"/>
<path d="M0 0 C0.99 0 1.98 0 3 0 C4.2244823 3.67344689 4.14798261 7.05085739 4.125 10.875 C4.12306641 11.65278809 4.12113281 12.43057617 4.11914062 13.23193359 C4.05084679 22.83290787 3.5293304 32.4153389 3 42 C-0.45360717 36.81958925 -0.14292967 31.25541437 -0.09765625 25.1953125 C-0.0962413 24.4713327 -0.09482635 23.74735291 -0.09336853 23.00143433 C-0.08781075 20.70924593 -0.07526633 18.41715843 -0.0625 16.125 C-0.05747953 14.56250142 -0.05291759 13.00000129 -0.04882812 11.4375 C-0.03785519 7.62496165 -0.0206201 3.81249788 0 0 Z " fill="#968072" transform="translate(60,0)"/>
<path d="M0 0 C0.33 0 0.66 0 1 0 C1 2.64 1 5.28 1 8 C1.66 8 2.32 8 3 8 C6.21865436 17.65596307 5.13970003 29.92607585 5 40 C4.01 39.67 3.02 39.34 2 39 C1.46076574 34.56453828 0.94703517 30.12646358 0.4375 25.6875 C0.28603516 24.44419922 0.13457031 23.20089844 -0.02148438 21.91992188 C-0.8674869 14.423946 -1.06543402 7.47735699 0 0 Z " fill="#A08A7A" transform="translate(7,43)"/>
<path d="M0 0 C0.33 0 0.66 0 1 0 C1.81873536 6.21796313 2.44323432 11.08480112 0 17 C-0.48715303 19.37586927 -0.92750676 21.75457803 -1.33984375 24.14453125 C-1.55769531 24.75683594 -1.77554688 25.36914062 -2 26 C-2.99 26.33 -3.98 26.66 -5 27 C-5.08076963 24.54101345 -5.14037143 22.08466258 -5.1875 19.625 C-5.21263672 18.92632812 -5.23777344 18.22765625 -5.26367188 17.5078125 C-5.29296875 15.4765625 -5.29296875 15.4765625 -5 12 C-4.01 11.34 -3.02 10.68 -2 10 C-1.20201782 7.58392583 -1.20201782 7.58392583 -0.8125 4.875 C-0.65394531 3.96492188 -0.49539062 3.05484375 -0.33203125 2.1171875 C-0.22246094 1.41851562 -0.11289062 0.71984375 0 0 Z " fill="#9E705E" transform="translate(60,33)"/>
<path d="M0 0 C0.33 0 0.66 0 1 0 C1.81935735 6.22268687 2.42568721 11.07054238 0 17 C-0.37531446 19.32694964 -0.71917202 21.65976685 -1 24 C-1.33 24 -1.66 24 -2 24 C-2.2144997 15.72984476 -2.07422976 8.03764031 0 0 Z " fill="#886A5E" transform="translate(60,33)"/>
<path d="M0 0 C0.33 0 0.66 0 1 0 C1.14525497 8.05358138 0.71413279 15.97875848 0 24 C-0.33 24 -0.66 24 -1 24 C-1.22297226 21.12546578 -1.42878171 18.2513818 -1.625 15.375 C-1.68945312 14.56675781 -1.75390625 13.75851563 -1.8203125 12.92578125 C-2.13273892 8.12222508 -1.92020113 4.52932939 0 0 Z " fill="#AB8473" transform="translate(61,44)"/>
<path d="M0 0 C1.32 0 2.64 0 4 0 C4.33 2.97 4.66 5.94 5 9 C3.35 9 1.7 9 0 9 C0 6.03 0 3.06 0 0 Z " fill="#996E5A" transform="translate(14,82)"/>
<path d="M0 0 C0.33 0 0.66 0 1 0 C2.45184478 4.53701494 3.23509196 8.18061476 3 13 C2.34 13 1.68 13 1 13 C-1.5393228 9.58168085 -2.3636198 7.24223102 -2 3 C-1.34 3 -0.68 3 0 3 C0 2.01 0 1.02 0 0 Z " fill="#AD826E" transform="translate(9,21)"/>
<path d="M0 0 C1.95387664 3.90775329 2.34762234 5.99687587 2.625 10.25 C2.69976562 11.32765625 2.77453125 12.4053125 2.8515625 13.515625 C2.92503906 14.74539063 2.92503906 14.74539063 3 16 C2.34 16 1.68 16 1 16 C1 14.68 1 13.36 1 12 C0.34 12 -0.32 12 -1 12 C-0.67 8.04 -0.34 4.08 0 0 Z " fill="#8B7060" transform="translate(2,1)"/>
<path d="M0 0 C0.33 0 0.66 0 1 0 C1 2.31 1 4.62 1 7 C0.01 7.33 -0.98 7.66 -2 8 C-2.125 5.125 -2.125 5.125 -2 2 C-1.34 1.34 -0.68 0.68 0 0 Z " fill="#976A59" transform="translate(57,52)"/>
</svg>
