<?xml version="1.0" encoding="UTF-8"?>
<svg version="1.1" xmlns="http://www.w3.org/2000/svg" width="78" height="60">
<path d="M0 0 C13.53 0 27.06 0 41 0 C38.74539964 11.27300179 38.74539964 11.27300179 37.0390625 15.41796875 C36.65548584 16.35165283 36.27190918 17.28533691 35.87670898 18.24731445 C35.25711304 19.7027063 35.25711304 19.7027063 34.625 21.1875 C33.97930054 22.72506958 33.97930054 22.72506958 33.32055664 24.29370117 C28.81294146 34.80718996 23.53254193 44.89291434 18.05639648 54.92895508 C16.88305315 57.10189615 16.88305315 57.10189615 16 60 C3.13 60 -9.74 60 -23 60 C-22 58 -22 58 -19 57 C-13.14385006 45.76683965 -10.51203346 32.54799286 -7.24755859 20.36108398 C-6.97045044 19.34176285 -6.97045044 19.34176285 -6.68774414 18.30184937 C-6.18141394 16.43780815 -5.68296005 14.57163255 -5.18505859 12.70532227 C-3.79163984 8.34852038 -1.85776003 4.17996007 0 0 Z " fill="#FCD5BB" transform="translate(34,0)"/>
<path d="M0 0 C2.31 0 4.62 0 7 0 C5.81063725 7.52205409 3.60249128 14.19356056 0.625 21.1875 C-0.02069946 22.72506958 -0.02069946 22.72506958 -0.67944336 24.29370117 C-5.18705854 34.80718996 -10.46745807 44.89291434 -15.94360352 54.92895508 C-17.11694685 57.10189615 -17.11694685 57.10189615 -18 60 C-20.97 60 -23.94 60 -27 60 C-26.38469905 55.5048847 -24.58130034 51.84535205 -22.5 47.875 C-19.98916002 43.05413393 -19.98916002 43.05413393 -18 38 C-17.01 38 -16.02 38 -15 38 C-14.87625 37.071875 -14.7525 36.14375 -14.625 35.1875 C-14 32 -14 32 -12 29 C-11.34 29 -10.68 29 -10 29 C-9.01 25.37 -8.02 21.74 -7 18 C-6.34 18 -5.68 18 -5 18 C-4.83564453 17.18208984 -4.83564453 17.18208984 -4.66796875 16.34765625 C-3.48990063 10.74464935 -1.912965 5.3945613 0 0 Z " fill="#9B7463" transform="translate(68,0)"/>
<path d="M0 0 C1.98 0 3.96 0 6 0 C5.12227722 4.46089696 4.1920217 8.73180827 2.4375 12.9375 C0.60925611 17.50810972 0.28994448 22.12093423 0 27 C-0.99 27.33 -1.98 27.66 -3 28 C-3.12117188 29.07378906 -3.24234375 30.14757812 -3.3671875 31.25390625 C-3.53615615 32.69013975 -3.70544404 34.12633572 -3.875 35.5625 C-3.95363281 36.26697266 -4.03226563 36.97144531 -4.11328125 37.69726562 C-4.66633903 42.3131709 -5.61195836 46.56176603 -7 51 C-7.66 51 -8.32 51 -9 51 C-9.12375 52.11375 -9.2475 53.2275 -9.375 54.375 C-10 58 -10 58 -12 60 C-14.6015625 60.1953125 -14.6015625 60.1953125 -17.625 60.125 C-18.62789062 60.10695312 -19.63078125 60.08890625 -20.6640625 60.0703125 C-21.82035156 60.03550781 -21.82035156 60.03550781 -23 60 C-22 58 -22 58 -19 57 C-13.14385006 45.76683965 -10.51203346 32.54799286 -7.24755859 20.36108398 C-5.33157626 13.27507869 -3.23309063 6.60516027 0 0 Z " fill="#9D7867" transform="translate(34,0)"/>
<path d="M0 0 C0.66 0 1.32 0 2 0 C2 1.98 2 3.96 2 6 C2.99 6 3.98 6 5 6 C5.33 4.68 5.66 3.36 6 2 C6.99 2 7.98 2 9 2 C7.55676531 6.73789165 5.62773267 10.98858151 3.375 15.375 C3.05015625 16.01566406 2.7253125 16.65632813 2.390625 17.31640625 C1.59742593 18.87947501 0.79922969 20.44000622 0 22 C-2.97 22 -5.94 22 -9 22 C-8.38469905 17.5048847 -6.58130034 13.84535205 -4.5 9.875 C-1.98916002 5.05413393 -1.98916002 5.05413393 0 0 Z " fill="#997D6E" transform="translate(50,38)"/>
<path d="M0 0 C0.33 0 0.66 0 1 0 C1.22731216 6.93302093 0.42002108 13.2168636 -1 20 C-0.01 20 0.98 20 2 20 C2.33 18.02 2.66 16.04 3 14 C3.33 14 3.66 14 4 14 C3.67 16.31 3.34 18.62 3 21 C2.34 21 1.68 21 1 21 C0.87625 22.11375 0.7525 23.2275 0.625 24.375 C0 28 0 28 -2 30 C-4.6015625 30.1953125 -4.6015625 30.1953125 -7.625 30.125 C-9.12933594 30.09792969 -9.12933594 30.09792969 -10.6640625 30.0703125 C-11.43492188 30.04710938 -12.20578125 30.02390625 -13 30 C-12 28 -12 28 -9 27 C-7.84901151 24.53616526 -6.89497987 22.1807613 -6 19.625 C-5.73944824 18.90634766 -5.47889648 18.18769531 -5.21044922 17.44726562 C-3.16548524 11.71266995 -1.42974212 5.91963403 0 0 Z " fill="#9E8578" transform="translate(24,30)"/>
<path d="M0 0 C0.0272415 1.41655793 0.04650467 2.83327045 0.0625 4.25 C0.07410156 5.03890625 0.08570313 5.8278125 0.09765625 6.640625 C0.00385306 8.90691002 -0.36758937 10.8288895 -1 13 C-1.66 13 -2.32 13 -3 13 C-3.33 14.98 -3.66 16.96 -4 19 C-4.99 19 -5.98 19 -7 19 C-6.71954112 16.01937854 -6.42622495 13.04103028 -6.125 10.0625 C-6.04636719 9.21236328 -5.96773437 8.36222656 -5.88671875 7.48632812 C-5.80292969 6.67744141 -5.71914063 5.86855469 -5.6328125 5.03515625 C-5.55949707 4.2862915 -5.48618164 3.53742676 -5.41064453 2.76586914 C-5.20737549 1.89176392 -5.20737549 1.89176392 -5 1 C-3 0 -3 0 0 0 Z " fill="#946D5F" transform="translate(30,31)"/>
<path d="M0 0 C1.98 0 3.96 0 6 0 C4.90301833 5.69139902 3.45946923 10.74567937 1 16 C0.34 16 -0.32 16 -1 16 C-1.02725341 14.2709226 -1.04650987 12.54171824 -1.0625 10.8125 C-1.07410156 9.84957031 -1.08570313 8.88664063 -1.09765625 7.89453125 C-1.00486622 5.14423487 -0.62111685 2.67520409 0 0 Z " fill="#956D5D" transform="translate(34,0)"/>
<path d="M0 0 C0.66 0.33 1.32 0.66 2 1 C3.67654729 0.72057545 5.34608154 0.39171753 7 0 C6.67 1.65 6.34 3.3 6 5 C2.37 5 -1.26 5 -5 5 C-4 3 -4 3 -1 2 C-0.67 1.34 -0.34 0.68 0 0 Z " fill="#997163" transform="translate(16,55)"/>
<path d="M0 0 C0.33 0 0.66 0 1 0 C0.67 2.31 0.34 4.62 0 7 C-0.66 7 -1.32 7 -2 7 C-2.33 9.31 -2.66 11.62 -3 14 C-3.33 13.01 -3.66 12.02 -4 11 C-5.32 11.33 -6.64 11.66 -8 12 C-7.67 11.01 -7.34 10.02 -7 9 C-6.34 9 -5.68 9 -5 9 C-4.67 8.01 -4.34 7.02 -4 6 C-3.01 6 -2.02 6 -1 6 C-0.67 4.02 -0.34 2.04 0 0 Z " fill="#A77F6D" transform="translate(27,44)"/>
<path d="M0 0 C1.32 0 2.64 0 4 0 C3.71788123 1.6266848 3.42397625 3.25132896 3.125 4.875 C2.96257812 5.77992188 2.80015625 6.68484375 2.6328125 7.6171875 C2 10 2 10 0 12 C-1.53166168 7.91556885 -0.63081652 4.20544343 0 0 Z " fill="#A37E6C" transform="translate(71,0)"/>
<path d="M0 0 C0.33 0 0.66 0 1 0 C1.45374191 5.67177385 0.65083143 8.5975268 -3 13 C-3.66 13 -4.32 13 -5 13 C-4.39254603 8.14036821 -2.27241033 4.2594482 0 0 Z " fill="#B68D77" transform="translate(46,47)"/>
<path d="M0 0 C1.46911544 3.81970016 0.52561108 6.30641529 -1 10 C-1.66 10.66 -2.32 11.32 -3 12 C-2.40075776 7.80530429 -1.42500059 3.99000166 0 0 Z " fill="#B08876" transform="translate(33,1)"/>
<path d="M0 0 C0.33 0 0.66 0 1 0 C1 1.98 1 3.96 1 6 C-0.65 6.66 -2.3 7.32 -4 8 C-3.67 7.01 -3.34 6.02 -3 5 C-2.34 5 -1.68 5 -1 5 C-0.67 3.35 -0.34 1.7 0 0 Z " fill="#B38974" transform="translate(33,21)"/>
</svg>
