<?xml version="1.0" encoding="UTF-8"?>
<svg version="1.1" xmlns="http://www.w3.org/2000/svg" width="267" height="57">
<path d="M0 0 C50.49 0 100.98 0 153 0 C153.33 3.96 153.66 7.92 154 12 C155.74069703 16.87395169 157.96493695 18.89610535 162 22 C162.30164063 22.63550781 162.60328125 23.27101563 162.9140625 23.92578125 C166.76143713 31.27454359 177.34194243 35.25541973 184.6953125 37.9375 C187.04730871 39.02181012 188.28426259 40.09699921 190 42 C193.90373715 44.83908157 197.97116629 45.94448868 202.55078125 47.23828125 C205.55399893 48.17229632 208.25110141 49.48087183 211 51 C211 52.98 211 54.96 211 57 C122.89 57 34.78 57 -56 57 C-56 55.68 -56 54.36 -56 53 C-54.02 53 -52.04 53 -50 53 C-50 52.34 -50 51.68 -50 51 C-49.01 51 -48.02 51 -47 51 C-46.938125 50.2575 -46.87625 49.515 -46.8125 48.75 C-45.74257307 45.12870887 -44.13114488 44.01287885 -41 42 C-40.01 42 -39.02 42 -38 42 C-37.67 41.01 -37.34 40.02 -37 39 C-33.37 39 -29.74 39 -26 39 C-26 37.35 -26 35.7 -26 34 C-24.35 34 -22.7 34 -21 34 C-21 32.68 -21 31.36 -21 30 C-17.37 29.67 -13.74 29.34 -10 29 C-10 27.68 -10 26.36 -10 25 C-9.01 25 -8.02 25 -7 25 C-7 24.01 -7 23.02 -7 22 C-6.01 22 -5.02 22 -4 22 C-4 19.36 -4 16.72 -4 14 C-3.01 14 -2.02 14 -1 14 C-1 13.34 -1 12.68 -1 12 C-0.01 12 0.98 12 2 12 C2 9.03 2 6.06 2 3 C1.34 3 0.68 3 0 3 C0 2.01 0 1.02 0 0 Z " fill="#FDD8BF" transform="translate(56,0)"/>
<path d="M0 0 C50.49 0 100.98 0 153 0 C153.33 3.96 153.66 7.92 154 12 C155.74069703 16.87395169 157.96493695 18.89610535 162 22 C162.30164063 22.63550781 162.60328125 23.27101563 162.9140625 23.92578125 C166.76143713 31.27454359 177.34194243 35.25541973 184.6953125 37.9375 C187.04730871 39.02181012 188.28426259 40.09699921 190 42 C193.90373715 44.83908157 197.97116629 45.94448868 202.55078125 47.23828125 C205.55399893 48.17229632 208.25110141 49.48087183 211 51 C211 52.98 211 54.96 211 57 C203.08 57 195.16 57 187 57 C187 56.34 187 55.68 187 55 C184.36 55 181.72 55 179 55 C179 53.68 179 52.36 179 51 C176.03 51 173.06 51 170 51 C170 49.68 170 48.36 170 47 C167.36 47 164.72 47 162 47 C162 45.68 162 44.36 162 43 C160.68 43 159.36 43 158 43 C158 41.68 158 40.36 158 39 C156.35 38.67 154.7 38.34 153 38 C153 37.01 153 36.02 153 35 C151.68 34.67 150.36 34.34 149 34 C149 33.01 149 32.02 149 31 C147.68 30.67 146.36 30.34 145 30 C145 28.68 145 27.36 145 26 C143.68 26 142.36 26 141 26 C141 23.36 141 20.72 141 18 C139.68 18 138.36 18 137 18 C137 14.04 137 10.08 137 6 C135.700625 6.12375 134.40125 6.2475 133.0625 6.375 C131.96615234 6.47941406 131.96615234 6.47941406 130.84765625 6.5859375 C130.23792969 6.72257813 129.62820312 6.85921875 129 7 C128.67 7.66 128.34 8.32 128 9 C125.35139573 9.59355614 122.70802678 9.74209269 120 10 C120 10.99 120 11.98 120 13 C116.0186217 14.3271261 112.14954773 14.06915913 108 14 C108 15.32 108 16.64 108 18 C104.04 18 100.08 18 96 18 C96 19.32 96 20.64 96 22 C84.78 22 73.56 22 62 22 C62 20.68 62 19.36 62 18 C56.72 18 51.44 18 46 18 C46 16.68 46 15.36 46 14 C43.36 14 40.72 14 38 14 C38 12.68 38 11.36 38 10 C35.36 9.67 32.72 9.34 30 9 C30 8.01 30 7.02 30 6 C27.03 6 24.06 6 21 6 C21 8.64 21 11.28 21 14 C19.68 14 18.36 14 17 14 C17 17.96 17 21.92 17 26 C15.68 26 14.36 26 13 26 C13 27.32 13 28.64 13 30 C11.35 30 9.7 30 8 30 C8 31.65 8 33.3 8 35 C7.01 35 6.02 35 5 35 C4.67 36.32 4.34 37.64 4 39 C2.68 39 1.36 39 0 39 C0 40.32 0 41.64 0 43 C-1.32 43 -2.64 43 -4 43 C-4 44.65 -4 46.3 -4 48 C-9.93891422 50.5915262 -14.54107286 51.40368295 -21 51 C-21 52.32 -21 53.64 -21 55 C-23.64 55 -26.28 55 -29 55 C-29 55.66 -29 56.32 -29 57 C-37.91 57 -46.82 57 -56 57 C-56 55.68 -56 54.36 -56 53 C-54.02 53 -52.04 53 -50 53 C-50 52.34 -50 51.68 -50 51 C-49.01 51 -48.02 51 -47 51 C-46.938125 50.2575 -46.87625 49.515 -46.8125 48.75 C-45.74257307 45.12870887 -44.13114488 44.01287885 -41 42 C-40.01 42 -39.02 42 -38 42 C-37.67 41.01 -37.34 40.02 -37 39 C-33.37 39 -29.74 39 -26 39 C-26 37.35 -26 35.7 -26 34 C-24.35 34 -22.7 34 -21 34 C-21 32.68 -21 31.36 -21 30 C-17.37 29.67 -13.74 29.34 -10 29 C-10 27.68 -10 26.36 -10 25 C-9.01 25 -8.02 25 -7 25 C-7 24.01 -7 23.02 -7 22 C-6.01 22 -5.02 22 -4 22 C-4 19.36 -4 16.72 -4 14 C-3.01 14 -2.02 14 -1 14 C-1 13.34 -1 12.68 -1 12 C-0.01 12 0.98 12 2 12 C2 9.03 2 6.06 2 3 C1.34 3 0.68 3 0 3 C0 2.01 0 1.02 0 0 Z " fill="#946B5C" transform="translate(56,0)"/>
<path d="M0 0 C5.28 0 10.56 0 16 0 C16.103125 1.85625 16.20625 3.7125 16.3125 5.625 C16.72219889 10.39546653 17.19552733 13.99361048 20 18 C21.64295195 19.36244796 23.30824337 20.69864875 25 22 C25.30164063 22.63550781 25.60328125 23.27101563 25.9140625 23.92578125 C29.76143713 31.27454359 40.34194243 35.25541973 47.6953125 37.9375 C50.04730871 39.02181012 51.28426259 40.09699921 53 42 C56.90373715 44.83908157 60.97116629 45.94448868 65.55078125 47.23828125 C68.55399893 48.17229632 71.25110141 49.48087183 74 51 C74 52.98 74 54.96 74 57 C66.08 57 58.16 57 50 57 C50 56.34 50 55.68 50 55 C47.36 55 44.72 55 42 55 C42 53.68 42 52.36 42 51 C39.03 51 36.06 51 33 51 C33 49.68 33 48.36 33 47 C30.36 47 27.72 47 25 47 C25 45.68 25 44.36 25 43 C23.68 43 22.36 43 21 43 C21 41.68 21 40.36 21 39 C19.35 38.67 17.7 38.34 16 38 C16 37.01 16 36.02 16 35 C14.68 34.67 13.36 34.34 12 34 C12 33.01 12 32.02 12 31 C10.68 30.67 9.36 30.34 8 30 C8 28.68 8 27.36 8 26 C6.68 26 5.36 26 4 26 C4 23.36 4 20.72 4 18 C2.68 18 1.36 18 0 18 C-0.33 13.38 -0.66 8.76 -1 4 C-0.34 4 0.32 4 1 4 C0.67 2.68 0.34 1.36 0 0 Z " fill="#926B5B" transform="translate(193,0)"/>
<path d="M0 0 C1.32 0 2.64 0 4 0 C4 3.63 4 7.26 4 11 C4.66 11.33 5.32 11.66 6 12 C5.34 12 4.68 12 4 12 C4 12.99 4 13.98 4 15 C3.01 15.33 2.02 15.66 1 16 C0.26676204 18.01508358 0.26676204 18.01508358 0 20 C-0.66 20 -1.32 20 -2 20 C-2.0825 20.78375 -2.165 21.5675 -2.25 22.375 C-2.4975 23.24125 -2.745 24.1075 -3 25 C-4.31647119 25.69937532 -5.65022151 26.36729133 -7 27 C-7.144375 27.66 -7.28875 28.32 -7.4375 29 C-7.623125 29.66 -7.80875 30.32 -8 31 C-10.77638863 32.5071824 -13.04597464 33.00540878 -16.1875 33.375 C-17.115625 33.58125 -18.04375 33.7875 -19 34 C-20.22527948 35.95021083 -20.22527948 35.95021083 -21 38 C-22.485 38.495 -22.485 38.495 -24 39 C-24.66 38.67 -25.32 38.34 -26 38 C-26 36.35 -26 34.7 -26 33 C-24.35 33 -22.7 33 -21 33 C-21 31.68 -21 30.36 -21 29 C-17.37 28.67 -13.74 28.34 -10 28 C-10 26.68 -10 25.36 -10 24 C-9.01 24 -8.02 24 -7 24 C-7 23.01 -7 22.02 -7 21 C-6.01 21 -5.02 21 -4 21 C-4 18.36 -4 15.72 -4 13 C-3.01 13 -2.02 13 -1 13 C-1 12.34 -1 11.68 -1 11 C-0.01 11 0.98 11 2 11 C2 8.03 2 5.06 2 2 C1.34 2 0.68 2 0 2 C0 1.34 0 0.68 0 0 Z " fill="#856F63" transform="translate(56,1)"/>
<path d="M0 0 C16.5 0 33 0 50 0 C50 0.33 50 0.66 50 1 C44.06 1.495 44.06 1.495 38 2 C38 2.66 38 3.32 38 4 C29.42 4 20.84 4 12 4 C12 3.34 12 2.68 12 2 C8.04 1.67 4.08 1.34 0 1 C0 0.67 0 0.34 0 0 Z " fill="#E3BFB3" transform="translate(110,0)"/>
<path d="M0 0 C0.99 0.33 1.98 0.66 3 1 C3.6875 3.0625 3.6875 3.0625 4 5 C2.68 5.33 1.36 5.66 0 6 C0 7.32 0 8.64 0 10 C-2.64 10 -5.28 10 -8 10 C-8 8.68 -8 7.36 -8 6 C-10.64 6 -13.28 6 -16 6 C-16 4.68 -16 3.36 -16 2 C-14.68 2 -13.36 2 -12 2 C-12 2.99 -12 3.98 -12 5 C-9.36 5 -6.72 5 -4 5 C-4 4.01 -4 3.02 -4 2 C-2.68 2 -1.36 2 0 2 C0 1.34 0 0.68 0 0 Z " fill="#9E7C67" transform="translate(110,8)"/>
<path d="M0 0 C2.64 0 5.28 0 8 0 C8 1.32 8 2.64 8 4 C6.68 4 5.36 4 4 4 C4 5.32 4 6.64 4 8 C2.68 7.67 1.36 7.34 0 7 C0 6.01 0 5.02 0 4 C-1.32 4 -2.64 4 -4 4 C-4.33 5.32 -4.66 6.64 -5 8 C-7.64 8 -10.28 8 -13 8 C-11.68 7.67 -10.36 7.34 -9 7 C-9 6.01 -9 5.02 -9 4 C-6.36 3.67 -3.72 3.34 -1 3 C-0.67 2.01 -0.34 1.02 0 0 Z " fill="#EEC7B7" transform="translate(185,6)"/>
<path d="M0 0 C2.64 0 5.28 0 8 0 C8 2.64 8 5.28 8 8 C3.25 9.125 3.25 9.125 1 8 C0.67 8.99 0.34 9.98 0 11 C0 7.37 0 3.74 0 0 Z " fill="#FDF1D4" transform="translate(77,6)"/>
<path d="M0 0 C1.32 0 2.64 0 4 0 C4 3.63 4 7.26 4 11 C4.66 11.33 5.32 11.66 6 12 C5.34 12 4.68 12 4 12 C4 12.99 4 13.98 4 15 C0.91190305 16.76462683 -0.23312136 17 -4 17 C-4 15.68 -4 14.36 -4 13 C-3.01 13 -2.02 13 -1 13 C-1 12.34 -1 11.68 -1 11 C-0.01 11 0.98 11 2 11 C2 8.03 2 5.06 2 2 C1.34 2 0.68 2 0 2 C0 1.34 0 0.68 0 0 Z " fill="#967A74" transform="translate(56,1)"/>
<path d="M0 0 C2.64 0 5.28 0 8 0 C8 1.32 8 2.64 8 4 C9.98 4 11.96 4 14 4 C13.25 5.9375 13.25 5.9375 12 8 C9.05360248 9.27677226 7.00864103 8.96706319 4 8 C4 6.68 4 5.36 4 4 C3.34 3.67 2.68 3.34 2 3 C1.34 2.01 0.68 1.02 0 0 Z " fill="#FBE4CE" transform="translate(94,14)"/>
<path d="M0 0 C2.475 0.495 2.475 0.495 5 1 C4.67 1.99 4.34 2.98 4 4 C23.305 4.495 23.305 4.495 43 5 C43 5.33 43 5.66 43 6 C29.14 6 15.28 6 1 6 C0.67 4.02 0.34 2.04 0 0 Z " fill="#8E6070" transform="translate(117,1)"/>
<path d="M0 0 C1.65 0.33 3.3 0.66 5 1 C5 1.99 5 2.98 5 4 C6.32 4 7.64 4 9 4 C9 4.66 9 5.32 9 6 C3.39 6 -2.22 6 -8 6 C-8 5.34 -8 4.68 -8 4 C-5.36 4 -2.72 4 0 4 C0 2.68 0 1.36 0 0 Z " fill="#F1CCB2" transform="translate(35,51)"/>
<path d="M0 0 C4.29 0 8.58 0 13 0 C13 1.32 13 2.64 13 4 C8.71 4 4.42 4 0 4 C0 2.68 0 1.36 0 0 Z " fill="#AD8A74" transform="translate(118,18)"/>
<path d="M0 0 C1.65 0 3.3 0 5 0 C5 1.32 5 2.64 5 4 C7.64 4 10.28 4 13 4 C13 4.66 13 5.32 13 6 C7.39 6 1.78 6 -4 6 C-3.01 5.34 -2.02 4.68 -1 4 C-0.27617533 1.94074861 -0.27617533 1.94074861 0 0 Z " fill="#ECC3AD" transform="translate(230,51)"/>
<path d="M0 0 C1.65 0.33 3.3 0.66 5 1 C5 1.99 5 2.98 5 4 C4.01 4.33 3.02 4.66 2 5 C1.67 5.66 1.34 6.32 1 7 C0.67 7.66 0.34 8.32 0 9 C-0.99 9.33 -1.98 9.66 -3 10 C-3.66 9.67 -4.32 9.34 -5 9 C-5 7.35 -5 5.7 -5 4 C-3.35 4 -1.7 4 0 4 C0 2.68 0 1.36 0 0 Z " fill="#907B73" transform="translate(35,30)"/>
<path d="M0 0 C0.74362793 0.01047363 1.48725586 0.02094727 2.25341797 0.03173828 C3.46191406 0.04140625 3.46191406 0.04140625 4.69482422 0.05126953 C5.95746094 0.07640625 5.95746094 0.07640625 7.24560547 0.10205078 C8.51984375 0.11558594 8.51984375 0.11558594 9.81982422 0.12939453 C11.9202043 0.15299431 14.02043991 0.18886595 16.12060547 0.22705078 C13.56639979 2.98687805 12.22080143 3.64008006 8.43310547 3.91455078 C7.22074219 4.01316406 7.22074219 4.01316406 5.98388672 4.11376953 C5.36900391 4.15115234 4.75412109 4.18853516 4.12060547 4.22705078 C4.12060547 3.23705078 4.12060547 2.24705078 4.12060547 1.22705078 C2.80060547 1.22705078 1.48060547 1.22705078 0.12060547 1.22705078 C0.12060547 1.88705078 0.12060547 2.54705078 0.12060547 3.22705078 C-1.19939453 2.89705078 -2.51939453 2.56705078 -3.87939453 2.22705078 C-1.87939453 0.22705078 -1.87939453 0.22705078 0 0 Z " fill="#8B6550" transform="translate(76.87939453125,-0.22705078125)"/>
<path d="M0 0 C2.64 0 5.28 0 8 0 C8 2.64 8 5.28 8 8 C6.68 8 5.36 8 4 8 C4 6.68 4 5.36 4 4 C2.68 4 1.36 4 0 4 C0 2.68 0 1.36 0 0 Z " fill="#E6C1AA" transform="translate(164,14)"/>
<path d="M0 0 C3.96 0 7.92 0 12 0 C12 1.32 12 2.64 12 4 C8.37 4 4.74 4 1 4 C0.67 2.68 0.34 1.36 0 0 Z " fill="#FEE0C8" transform="translate(156,18)"/>
<path d="M0 0 C1.32 0 2.64 0 4 0 C4 0.99 4 1.98 4 3 C6.64 3 9.28 3 12 3 C12 3.66 12 4.32 12 5 C11.34 5 10.68 5 10 5 C10.33 5.99 10.66 6.98 11 8 C10.34 8 9.68 8 9 8 C9 7.01 9 6.02 9 5 C6.03 5 3.06 5 0 5 C0 3.35 0 1.7 0 0 Z " fill="#A77A97" transform="translate(77,1)"/>
<path d="M0 0 C1.65 0 3.3 0 5 0 C5 0.99 5 1.98 5 3 C3.02 3.33 1.04 3.66 -1 4 C-1 4.66 -1 5.32 -1 6 C-2.65 6 -4.3 6 -6 6 C-6 4.68 -6 3.36 -6 2 C-4.02 2 -2.04 2 0 2 C0 1.34 0 0.68 0 0 Z " fill="#927066" transform="translate(6,51)"/>
<path d="M0 0 C2.64 0.33 5.28 0.66 8 1 C8 1.99 8 2.98 8 4 C5.03 3.505 5.03 3.505 2 3 C1.01 4.485 1.01 4.485 0 6 C-3.125 6.1875 -3.125 6.1875 -6 6 C-6 5.34 -6 4.68 -6 4 C-4.7934375 3.566875 -4.7934375 3.566875 -3.5625 3.125 C-0.8673532 2.26737432 -0.8673532 2.26737432 0 0 Z " fill="#916653" transform="translate(11,51)"/>
<path d="M0 0 C3.96 0 7.92 0 12 0 C11.67 0.99 11.34 1.98 11 3 C7.04 3 3.08 3 -1 3 C-0.67 2.01 -0.34 1.02 0 0 Z " fill="#8A624D" transform="translate(130,7)"/>
<path d="M0 0 C1.65 0 3.3 0 5 0 C6.125 3.75 6.125 3.75 5 6 C2.03 6 -0.94 6 -4 6 C-4 5.34 -4 4.68 -4 4 C-2.35 4 -0.7 4 1 4 C0.67 2.68 0.34 1.36 0 0 Z " fill="#9F6C7E" transform="translate(188,0)"/>
<path d="M0 0 C-0.33 0.99 -0.66 1.98 -1 3 C-3.31 3 -5.62 3 -8 3 C-8.33 3.66 -8.66 4.32 -9 5 C-9 3.02 -9 1.04 -9 -1 C-5.22102349 -2.0497157 -3.35080929 -2.10976881 0 0 Z " fill="#FEF6DD" transform="translate(82,19)"/>
<path d="M0 0 C1.32 0 2.64 0 4 0 C4.6875 2.3125 4.6875 2.3125 5 5 C3.5625 6.8125 3.5625 6.8125 2 8 C1.566875 7.54625 1.13375 7.0925 0.6875 6.625 C-1.10798342 4.79975666 -1.10798342 4.79975666 -4 3 C-3.01 3 -2.02 3 -1 3 C-0.67 2.01 -0.34 1.02 0 0 Z " fill="#998176" transform="translate(19,39)"/>
<path d="M0 0 C1.9375 0.3125 1.9375 0.3125 4 1 C4.33 1.99 4.66 2.98 5 4 C5.99 4.33 6.98 4.66 8 5 C8.6875 7.0625 8.6875 7.0625 9 9 C7.35 8.67 5.7 8.34 4 8 C4 7.01 4 6.02 4 5 C2.68 4.67 1.36 4.34 0 4 C0 2.68 0 1.36 0 0 Z " fill="#D3AD98" transform="translate(201,30)"/>
<path d="M0 0 C2.97 0 5.94 0 9 0 C8.67 1.32 8.34 2.64 8 4 C5.36 3.67 2.72 3.34 0 3 C0 2.01 0 1.02 0 0 Z " fill="#8C6350" transform="translate(223,43)"/>
<path d="M0 0 C0.33 0.99 0.66 1.98 1 3 C-0.32 3 -1.64 3 -3 3 C-3.33 4.32 -3.66 5.64 -4 7 C-6.64 7 -9.28 7 -12 7 C-10.68 6.67 -9.36 6.34 -8 6 C-8 5.01 -8 4.02 -8 3 C-5.36 2.67 -2.72 2.34 0 2 C0 1.34 0 0.68 0 0 Z " fill="#D1AE99" transform="translate(184,7)"/>
<path d="M0 0 C3.3 0 6.6 0 10 0 C9.67 0.99 9.34 1.98 9 3 C6.03 3 3.06 3 0 3 C0 2.01 0 1.02 0 0 Z " fill="#816046" transform="translate(110,14)"/>
<path d="M0 0 C0 1.98 0 3.96 0 6 C-2.31 6 -4.62 6 -7 6 C-5.52079701 3.04159403 -3.49712979 0 0 0 Z " fill="#926F5F" transform="translate(267,51)"/>
<path d="M0 0 C3.3 0 6.6 0 10 0 C8.68 0.33 7.36 0.66 6 1 C6 2.32 6 3.64 6 5 C4.68 5 3.36 5 2 5 C2 3.68 2 2.36 2 1 C1.34 0.67 0.68 0.34 0 0 Z " fill="#A47B68" transform="translate(50,38)"/>
<path d="M0 0 C1.65 0 3.3 0 5 0 C3.68 0.33 2.36 0.66 1 1 C1 3.64 1 6.28 1 9 C-0.65 9 -2.3 9 -4 9 C-3.67 7.68 -3.34 6.36 -3 5 C-2.01 5 -1.02 5 0 5 C0 3.35 0 1.7 0 0 Z " fill="#D7AF99" transform="translate(64,30)"/>
<path d="M0 0 C2.52349243 3.12432397 4.27256146 6.38060496 6 10 C4.68 10 3.36 10 2 10 C2 10.66 2 11.32 2 12 C1.34 11.67 0.68 11.34 0 11 C0.33 10.01 0.66 9.02 1 8 C0.90731495 5.93381251 0.90731495 5.93381251 0.5625 3.8125 C0.376875 2.554375 0.19125 1.29625 0 0 Z " fill="#886C62" transform="translate(208,10)"/>
<path d="M0 0 C2.64 0 5.28 0 8 0 C8 0.99 8 1.98 8 3 C5.03 3 2.06 3 -1 3 C-0.67 2.01 -0.34 1.02 0 0 Z " fill="#825945" transform="translate(152,14)"/>
<path d="M0 0 C2.64 0 5.28 0 8 0 C7.67 0.99 7.34 1.98 7 3 C4.69 3.33 2.38 3.66 0 4 C0 2.68 0 1.36 0 0 Z " fill="#7F655B" transform="translate(23,39)"/>
<path d="M0 0 C2.64 0 5.28 0 8 0 C8 0.99 8 1.98 8 3 C5.36 3 2.72 3 0 3 C0 2.01 0 1.02 0 0 Z " fill="#866350" transform="translate(98,10)"/>
<path d="M0 0 C2.475 0.495 2.475 0.495 5 1 C4.67 1.99 4.34 2.98 4 4 C6.97 4.495 6.97 4.495 10 5 C10 5.33 10 5.66 10 6 C7.03 6 4.06 6 1 6 C0.67 4.02 0.34 2.04 0 0 Z " fill="#9A6D72" transform="translate(117,1)"/>
<path d="M0 0 C2.64 0 5.28 0 8 0 C8 0.99 8 1.98 8 3 C5.36 3 2.72 3 0 3 C0 2.01 0 1.02 0 0 Z " fill="#8B624E" transform="translate(164,10)"/>
<path d="M0 0 C1.85625 -0.061875 1.85625 -0.061875 3.75 -0.125 C4.79414062 -0.15980469 4.79414062 -0.15980469 5.859375 -0.1953125 C8 0 8 0 12 2 C7.545 2.495 7.545 2.495 3 3 C3 2.34 3 1.68 3 1 C2.01 0.67 1.02 0.34 0 0 Z " fill="#C59A91" transform="translate(119,1)"/>
<path d="M0 0 C1.32 0 2.64 0 4 0 C4 2.97 4 5.94 4 9 C3.34 9 2.68 9 2 9 C2 6.69 2 4.38 2 2 C1.34 2 0.68 2 0 2 C0 1.34 0 0.68 0 0 Z " fill="#938191" transform="translate(56,1)"/>
<path d="M0 0 C1.65 0 3.3 0 5 0 C5 1.32 5 2.64 5 4 C3.35 4 1.7 4 0 4 C0 2.68 0 1.36 0 0 Z " fill="#8B5C4A" transform="translate(238,51)"/>
<path d="M0 0 C1.65 0 3.3 0 5 0 C5 1.32 5 2.64 5 4 C3.35 4 1.7 4 0 4 C0 2.68 0 1.36 0 0 Z " fill="#C8A18C" transform="translate(147,18)"/>
<path d="M0 0 C1.65 0 3.3 0 5 0 C5 1.32 5 2.64 5 4 C3.35 4 1.7 4 0 4 C0 2.68 0 1.36 0 0 Z " fill="#CFAD97" transform="translate(118,18)"/>
<path d="M0 0 C1.32 0 2.64 0 4 0 C4 0.99 4 1.98 4 3 C5.32 3.33 6.64 3.66 8 4 C5.36 4 2.72 4 0 4 C0 2.68 0 1.36 0 0 Z " fill="#A38473" transform="translate(94,10)"/>
<path d="M0 0 C2.64 0 5.28 0 8 0 C8 1.32 8 2.64 8 4 C6.68 4 5.36 4 4 4 C4 3.01 4 2.02 4 1 C2.68 0.67 1.36 0.34 0 0 Z " fill="#FDE7DD" transform="translate(77,6)"/>
<path d="M0 0 C1.65 0 3.3 0 5 0 C5.33 0.99 5.66 1.98 6 3 C4.1875 3.625 4.1875 3.625 2 4 C1.01 3.34 0.02 2.68 -1 2 C-0.67 1.34 -0.34 0.68 0 0 Z " fill="#7D6357" transform="translate(228,35)"/>
<path d="M0 0 C2.475 0.495 2.475 0.495 5 1 C5 1.99 5 2.98 5 4 C3.35 4 1.7 4 0 4 C0 2.68 0 1.36 0 0 Z " fill="#9B8E89" transform="translate(35,30)"/>
<path d="M0 0 C1.32 0 2.64 0 4 0 C4.33 1.32 4.66 2.64 5 4 C3.35 4 1.7 4 0 4 C0 2.68 0 1.36 0 0 Z " fill="#885B7C" transform="translate(0,53)"/>
<path d="M0 0 C1.32 0 2.64 0 4 0 C4 1.32 4 2.64 4 4 C2.02 4 0.04 4 -2 4 C-1.34 3.67 -0.68 3.34 0 3 C0 2.01 0 1.02 0 0 Z " fill="#886148" transform="translate(27,51)"/>
<path d="M0 0 C1.32 0 2.64 0 4 0 C4 1.65 4 3.3 4 5 C3.01 5 2.02 5 1 5 C0.67 3.35 0.34 1.7 0 0 Z " fill="#A47389" transform="translate(48,43)"/>
<path d="M0 0 C0.99 0.33 1.98 0.66 3 1 C2.34 2.65 1.68 4.3 1 6 C-0.32 6 -1.64 6 -3 6 C-3 5.34 -3 4.68 -3 4 C-2.01 4 -1.02 4 0 4 C0 2.68 0 1.36 0 0 Z " fill="#8C7B72" transform="translate(46,25)"/>
<path d="M0 0 C1.32 0 2.64 0 4 0 C3.67 1.32 3.34 2.64 3 4 C2.34 4 1.68 4 1 4 C0.67 4.66 0.34 5.32 0 6 C0 4.02 0 2.04 0 0 Z " fill="#FEEBD6" transform="translate(73,18)"/>
</svg>
