<?xml version="1.0" encoding="UTF-8"?>
<svg version="1.1" xmlns="http://www.w3.org/2000/svg" width="67" height="97">
<path d="M0 0 C21.78 0 43.56 0 66 0 C66 10.56 66 21.12 66 32 C65.67 32 65.34 32 65 32 C65 26.72 65 21.44 65 16 C64.34 16 63.68 16 63 16 C62.87109375 17.08539062 62.7421875 18.17078125 62.609375 19.2890625 C62.19493266 22.6060503 61.71752449 25.90801429 61.203125 29.2109375 C58.63002521 45.79328799 56.57891952 62.41175188 54.66308594 79.08154297 C54.55983505 79.9728038 54.45658417 80.86406464 54.35020447 81.78233337 C54.15551134 83.46561589 53.96313362 85.14916838 53.77345276 86.83302307 C53.37050448 90.31645971 52.8523897 93.59044121 52 97 C35.5 97 19 97 2 97 C2.04125 91.8025 2.0825 86.605 2.125 81.25 C2.16711811 69.09459873 1.71742591 57.2456407 0.24365234 45.17089844 C-0.95181698 34.51948241 -1.08832747 23.76913274 -1.125 13.0625 C-1.12967285 12.10811035 -1.1343457 11.1537207 -1.13916016 10.17041016 C-1.13706543 9.28015137 -1.1349707 8.38989258 -1.1328125 7.47265625 C-1.13168457 6.68125244 -1.13055664 5.88984863 -1.12939453 5.07446289 C-1 3 -1 3 0 0 Z " fill="#FCD5BB" transform="translate(1,0)"/>
<path d="M0 0 C2.64 0 5.28 0 8 0 C8 10.56 8 21.12 8 32 C7.67 32 7.34 32 7 32 C7 26.72 7 21.44 7 16 C6.34 16 5.68 16 5 16 C4.87109375 17.08539062 4.7421875 18.17078125 4.609375 19.2890625 C4.19493266 22.6060503 3.71752449 25.90801429 3.203125 29.2109375 C0.63002521 45.79328799 -1.42108048 62.41175188 -3.33691406 79.08154297 C-3.49179039 80.41843422 -3.49179039 80.41843422 -3.64979553 81.78233337 C-3.84448866 83.46561589 -4.03686638 85.14916838 -4.22654724 86.83302307 C-4.62708463 90.29561783 -5.10295941 93.63277224 -6 97 C-8.64 97 -11.28 97 -14 97 C-14.27195445 89.92918435 -14.2150072 81.4300144 -11 75 C-10.69128132 72.39166513 -10.43090542 69.79533088 -10.203125 67.1796875 C-10.05052341 65.52688542 -9.89734068 63.87413693 -9.74365234 62.22143555 C-9.66346863 61.34885101 -9.58328491 60.47626648 -9.50067139 59.57723999 C-8.16888347 45.22055326 -6.60171891 30.93457103 -4.375 16.6875 C-4.21892273 15.66471954 -4.21892273 15.66471954 -4.05969238 14.62127686 C-2.35320977 3.52981466 -2.35320977 3.52981466 0 0 Z " fill="#9D7968" transform="translate(59,0)"/>
<path d="M0 0 C1.98 0 3.96 0 6 0 C6.01458252 1.21880859 6.02916504 2.43761719 6.04418945 3.69335938 C6.10295228 8.29340358 6.18016645 12.89299728 6.26245117 17.49267578 C6.29533907 19.46883739 6.32347834 21.4450848 6.34643555 23.42138672 C6.49228712 35.65429981 7.35254959 47.04617238 10 59 C10.88648687 63.49883786 11.12871108 67.74693239 11.1328125 72.33203125 C11.13376923 73.00924728 11.13472595 73.68646332 11.13571167 74.38420105 C11.13638789 75.80357965 11.13457281 77.22296144 11.13037109 78.64233398 C11.12497284 80.82347428 11.13035619 83.00441256 11.13671875 85.18554688 C11.13605869 86.56770879 11.13477902 87.94987058 11.1328125 89.33203125 C11.13168457 90.58733643 11.13055664 91.8426416 11.12939453 93.13598633 C11 96 11 96 10 97 C7.32941149 97.14115161 4.67567762 97.04247107 2 97 C2.01047363 96.07477539 2.02094727 95.14955078 2.03173828 94.19628906 C2.19328854 77.73452178 2.24110589 61.53619176 0.24365234 45.17089844 C-0.95181698 34.51948241 -1.08832747 23.76913274 -1.125 13.0625 C-1.12967285 12.10811035 -1.1343457 11.1537207 -1.13916016 10.17041016 C-1.13706543 9.28015137 -1.1349707 8.38989258 -1.1328125 7.47265625 C-1.13168457 6.68125244 -1.13055664 5.88984863 -1.12939453 5.07446289 C-1 3 -1 3 0 0 Z " fill="#9B796A" transform="translate(1,0)"/>
<path d="M0 0 C0.99 0 1.98 0 3 0 C2.58994384 8.19033227 2.0946225 16.04043449 0 24 C-3.68494 17.51858379 -2.21999616 9.12417513 -1 2 C-0.67 1.34 -0.34 0.68 0 0 Z " fill="#9B8479" transform="translate(62,5)"/>
<path d="M0 0 C0.33 0 0.66 0 1 0 C0.47205656 11.15963203 -1.13513082 21.99844472 -3 33 C-3.33 33 -3.66 33 -4 33 C-4.69529617 7.93071034 -4.69529617 7.93071034 0 0 Z " fill="#988177" transform="translate(56,64)"/>
<path d="M0 0 C0.33 0 0.66 0 1 0 C1 10.23 1 20.46 1 31 C0.67 31 0.34 31 0 31 C0 29.02 0 27.04 0 25 C-0.99 25 -1.98 25 -3 25 C-3 22.03 -3 19.06 -3 16 C-2.34 16.33 -1.68 16.66 -1 17 C-0.67 11.39 -0.34 5.78 0 0 Z " fill="#B68C79" transform="translate(11,65)"/>
<path d="M0 0 C0.33 0 0.66 0 1 0 C0.98952637 0.59538574 0.97905273 1.19077148 0.96826172 1.80419922 C0.92676051 4.49442343 0.90069296 7.18458037 0.875 9.875 C0.85824219 10.81214844 0.84148438 11.74929687 0.82421875 12.71484375 C0.81777344 13.61074219 0.81132813 14.50664063 0.8046875 15.4296875 C0.79421387 16.25710449 0.78374023 17.08452148 0.77294922 17.93701172 C0.80697743 20.22398157 0.80697743 20.22398157 3 22 C1.02 22 -0.96 22 -3 22 C-3.27195445 14.92918435 -3.2150072 6.4300144 0 0 Z " fill="#B38D78" transform="translate(48,75)"/>
<path d="M0 0 C0.66 0 1.32 0 2 0 C2 5.94 2 11.88 2 18 C1.01 17.34 0.02 16.68 -1 16 C-1.328125 13.57421875 -1.328125 13.57421875 -1.25 10.6875 C-1.23453125 9.74261719 -1.2190625 8.79773438 -1.203125 7.82421875 C-1.00985142 5.13697257 -0.59292973 2.62514858 0 0 Z " fill="#9C715C" transform="translate(9,65)"/>
<path d="M0 0 C1.98310399 3.96620798 2.24051678 5.39142288 2.1953125 9.640625 C2.18886719 10.71054688 2.18242188 11.78046875 2.17578125 12.8828125 C2.15902344 13.99398438 2.14226562 15.10515625 2.125 16.25 C2.11597656 17.37664063 2.10695313 18.50328125 2.09765625 19.6640625 C2.07410658 22.44292365 2.0412168 25.2213539 2 28 C1.67 28 1.34 28 1 28 C1 22.72 1 17.44 1 12 C0.34 12 -0.32 12 -1 12 C-0.67 8.04 -0.34 4.08 0 0 Z " fill="#927665" transform="translate(65,4)"/>
<path d="M0 0 C0.99 0 1.98 0 3 0 C3 2.31 3 4.62 3 7 C1.68 6.67 0.36 6.34 -1 6 C-0.67 4.02 -0.34 2.04 0 0 Z " fill="#966E5D" transform="translate(8,90)"/>
<path d="M0 0 C0.66 0 1.32 0 2 0 C1.67 2.64 1.34 5.28 1 8 C-0.32 7.34 -1.64 6.68 -3 6 C-3 5.34 -3 4.68 -3 4 C-2.34 4 -1.68 4 -1 4 C-0.67 2.68 -0.34 1.36 0 0 Z " fill="#856E65" transform="translate(51,89)"/>
<path d="M0 0 C0.33 0 0.66 0 1 0 C0.67 4.62 0.34 9.24 0 14 C-0.33 14 -0.66 14 -1 14 C-1.22331199 12.41870971 -1.42804644 10.83478911 -1.625 9.25 C-1.74101563 8.36828125 -1.85703125 7.4865625 -1.9765625 6.578125 C-2.00207817 3.77140122 -1.44843844 2.36615134 0 0 Z " fill="#AA8774" transform="translate(56,64)"/>
</svg>
