<?xml version="1.0" encoding="UTF-8"?>
<svg version="1.1" xmlns="http://www.w3.org/2000/svg" width="57" height="119">
<path d="M0 0 C16.5 0 33 0 50 0 C49.29453451 7.05465493 48.85693941 10.4364685 46.6640625 16.51611328 C45.27869155 21.69801184 45.54845213 27.10669672 45.5 32.4375 C45.19200258 47.12653565 43.76643693 61.55061775 41.70336914 76.09057617 C40.90096739 81.93921001 40.6649707 87.79190688 40.4375 93.6875 C40.37272461 95.18700195 40.37272461 95.18700195 40.30664062 96.71679688 C40.00576582 104.16225425 40 111.53468877 40 119 C27.79 119 15.58 119 3 119 C3.66 116.69 4.32 114.38 5 112 C5.68085222 104.58148924 4.66037661 97.26417601 3.50390625 89.9453125 C3.18936232 87.84376359 2.87491229 85.74220062 2.56054688 83.640625 C2.06567113 80.39825168 1.56736151 77.1564408 1.06616211 73.91503906 C-2.02991714 53.76815568 -3.92061517 34.49572087 -1.5625 14.1875 C-1.046875 9.505625 -0.53125 4.82375 0 0 Z " fill="#FCD5BB" transform="translate(3,0)"/>
<path d="M0 0 C2.64 0 5.28 0 8 0 C7.91038941 1.48011981 7.80226028 2.95911751 7.6875 4.4375 C7.62949219 5.26121094 7.57148437 6.08492188 7.51171875 6.93359375 C7.07099836 9.57455179 6.43807427 11.53795323 5.48828125 14.0078125 C3.39481648 20.06321121 3.55769925 26.08930987 3.5 32.4375 C3.19200258 47.12653565 1.76643693 61.55061775 -0.29663086 76.09057617 C-1.09900409 81.93900213 -1.3369257 87.79199768 -1.5625 93.6875 C-1.6049585 94.74517578 -1.64741699 95.80285156 -1.69116211 96.89257812 C-1.97237288 104.26629791 -2.12971434 111.62069506 -2 119 C-4.97 119 -7.94 119 -11 119 C-11.41277905 87.473206 -11.41277905 87.473206 -9 75 C-8.34 75 -7.68 75 -7 75 C-7.01160156 74.14277344 -7.02320313 73.28554687 -7.03515625 72.40234375 C-7.04417969 71.25894531 -7.05320313 70.11554688 -7.0625 68.9375 C-7.07410156 67.81214844 -7.08570313 66.68679687 -7.09765625 65.52734375 C-7 62 -7 62 -6.50708008 58.82641602 C-5.94737797 54.60291524 -5.82923104 50.50332171 -5.7890625 46.25 C-5.76100757 44.57290668 -5.73234321 42.89582346 -5.703125 41.21875 C-5.66186269 38.6054702 -5.62492337 35.9923821 -5.59863281 33.37890625 C-5.57090455 30.83555508 -5.52505937 28.29302896 -5.4765625 25.75 C-5.47330963 24.97688477 -5.47005676 24.20376953 -5.46670532 23.40722656 C-5.35019137 18.21913309 -4.26005377 14.67043806 -2 10 C-1.24897484 7.19396822 -1.24897484 7.19396822 -0.8125 4.5625 C-0.65394531 3.69753906 -0.49539062 2.83257812 -0.33203125 1.94140625 C-0.22246094 1.30074219 -0.11289062 0.66007812 0 0 Z " fill="#A47C68" transform="translate(45,0)"/>
<path d="M0 0 C2.64 0 5.28 0 8 0 C7.9278125 1.02351563 7.855625 2.04703125 7.78125 3.1015625 C6.07353604 29.48634878 6.17702287 55.66791814 11.54052734 81.64208984 C13.87245074 93.60899533 16.15741441 107.30727197 12 119 C9.03 119 6.06 119 3 119 C3.33 118.071875 3.66 117.14375 4 116.1875 C6.41174638 107.66792686 4.86047156 98.53050128 3.50390625 89.9453125 C3.18936232 87.84376359 2.87491229 85.74220062 2.56054688 83.640625 C2.06567113 80.39825168 1.56736151 77.1564408 1.06616211 73.91503906 C-2.02795369 53.78093227 -3.92182888 34.47772837 -1.5625 14.1875 C-1.411946 12.78987062 -1.26285731 11.39208263 -1.11523438 9.99414062 C-0.75769217 6.66092461 -0.38603697 3.33001378 0 0 Z " fill="#A18071" transform="translate(3,0)"/>
<path d="M0 0 C2.64 0 5.28 0 8 0 C8.125 6.75 8.125 6.75 7 9 C6.34 9 5.68 9 5 9 C5.01047363 10.26070312 5.02094727 11.52140625 5.03173828 12.8203125 C5.06810111 17.5242221 5.09095953 22.22811942 5.10986328 26.93212891 C5.11988386 28.96307468 5.13350401 30.99400617 5.15087891 33.02490234 C5.17530117 35.95413758 5.18652279 38.88318106 5.1953125 41.8125 C5.20563507 42.71178223 5.21595764 43.61106445 5.22659302 44.53759766 C5.22755847 50.03578571 4.55077706 54.71984558 3 60 C2.34 60 1.68 60 1 60 C0.67 57.36 0.34 54.72 0 52 C-0.66 52 -1.32 52 -2 52 C-3.63068733 34.37678869 -2.02951229 17.50688265 0 0 Z " fill="#967060" transform="translate(3,0)"/>
<path d="M0 0 C1.98 0 3.96 0 6 0 C5.91038941 1.48011981 5.80226028 2.95911751 5.6875 4.4375 C5.62949219 5.26121094 5.57148437 6.08492188 5.51171875 6.93359375 C5.07264032 9.56471259 4.45040486 11.46718221 3.4921875 13.91796875 C1.24051115 20.40379767 1.50857308 27.07905934 1.4375 33.875 C1.40313325 36.47669035 1.36056841 39.07828934 1.30859375 41.6796875 C1.29626709 42.82163574 1.28394043 43.96358398 1.27124023 45.14013672 C1 48 1 48 -1 51 C-2.41634833 48.16730334 -2.3463005 45.52533562 -2.5625 42.375 C-2.64628906 41.18648437 -2.73007812 39.99796875 -2.81640625 38.7734375 C-2.87699219 37.85820313 -2.93757813 36.94296875 -3 36 C-3.99 36.495 -3.99 36.495 -5 37 C-5.08701039 33.39598519 -5.14039388 29.79223988 -5.1875 26.1875 C-5.21263672 25.16333984 -5.23777344 24.13917969 -5.26367188 23.08398438 C-5.27333984 22.10107422 -5.28300781 21.11816406 -5.29296875 20.10546875 C-5.3086792 19.19949951 -5.32438965 18.29353027 -5.34057617 17.36010742 C-4.93875073 14.57555794 -4.16311438 13.72400465 -2 12 C-1.34 12.33 -0.68 12.66 0 13 C0 8.71 0 4.42 0 0 Z " fill="#977F72" transform="translate(47,0)"/>
<path d="M0 0 C0.33 0.99 0.66 1.98 1 3 C1.66 3 2.32 3 3 3 C3 2.34 3 1.68 3 1 C3.99 1.33 4.98 1.66 6 2 C7.87342417 12.52128393 9.65557777 22.71868751 6 33 C3.03 33 0.06 33 -3 33 C-2.67 32.071875 -2.34 31.14375 -2 30.1875 C0.14492122 22.67266961 -0.85011524 14.61798652 -2 7 C-1.34 7 -0.68 7 0 7 C0 4.69 0 2.38 0 0 Z " fill="#A27B67" transform="translate(9,86)"/>
<path d="M0 0 C0.33 0 0.66 0 1 0 C1.04980916 4.41079226 1.08591133 8.82143112 1.10986328 13.23242188 C1.11985901 14.72984676 1.13346014 16.22725244 1.15087891 17.72460938 C1.17541288 19.88937143 1.18654744 22.05387323 1.1953125 24.21875 C1.20578613 25.51748047 1.21625977 26.81621094 1.22705078 28.15429688 C0.97739336 32.38290298 0.14353958 35.93232287 -1 40 C-1.66 40 -2.32 40 -3 40 C-3.1953125 37.94921875 -3.390625 35.8984375 -3.5859375 33.84765625 C-3.79089844 32.93306641 -3.79089844 32.93306641 -4 32 C-4.66 31.67 -5.32 31.34 -6 31 C-5.34 31 -4.68 31 -4 31 C-4 21.76 -4 12.52 -4 3 C-3.01 3 -2.02 3 -1 3 C-0.67 2.01 -0.34 1.02 0 0 Z " fill="#966D5B" transform="translate(7,20)"/>
<path d="M0 0 C0.66 0 1.32 0 2 0 C2 4.29 2 8.58 2 13 C1.01 13 0.02 13 -1 13 C-2.2263757 15.45275141 -2.11415314 17.0505781 -2.09765625 19.7890625 C-2.09443359 20.73007812 -2.09121094 21.67109375 -2.08789062 22.640625 C-2.07951172 23.62546875 -2.07113281 24.6103125 -2.0625 25.625 C-2.05798828 26.61757813 -2.05347656 27.61015625 -2.04882812 28.6328125 C-2.03702145 31.0886016 -2.020554 33.54427104 -2 36 C-1.34 35.34 -0.68 34.68 0 34 C0.0816082 36.37570543 0.14077222 38.74855841 0.1875 41.125 C0.22520508 42.12273438 0.22520508 42.12273438 0.26367188 43.140625 C0.33320714 47.86902292 -0.59721625 50.95121479 -3 55 C-3.66 55 -4.32 55 -5 55 C-5.07448116 49.71642089 -5.12875795 44.43315137 -5.16479492 39.14916992 C-5.17982716 37.35386833 -5.20025857 35.55860312 -5.22631836 33.76342773 C-5.26294786 31.17422474 -5.2797821 28.58550972 -5.29296875 25.99609375 C-5.30845261 25.20101913 -5.32393646 24.40594452 -5.33988953 23.58677673 C-5.34147089 18.28101288 -4.33399651 14.76350183 -2 10 C-1.24897484 7.19396822 -1.24897484 7.19396822 -0.8125 4.5625 C-0.65394531 3.69753906 -0.49539062 2.83257812 -0.33203125 1.94140625 C-0.22246094 1.30074219 -0.11289062 0.66007812 0 0 Z " fill="#B0856D" transform="translate(45,0)"/>
<path d="M0 0 C0.66 0 1.32 0 2 0 C1.99476318 1.13840332 1.98952637 2.27680664 1.98413086 3.44970703 C1.9658048 7.74006337 1.95446885 12.03041638 1.94506836 16.32080078 C1.94009042 18.16520777 1.93330566 20.00961093 1.92456055 21.85400391 C1.87483716 32.62350382 2.00189785 43.26730746 3 54 C2.67 53.34 2.34 52.68 2 52 C0.68 52 -0.64 52 -2 52 C-2.125 45.25 -2.125 45.25 -1 43 C-0.88273341 41.61182327 -0.82318594 40.21851286 -0.79467773 38.82568359 C-0.77473251 37.96494232 -0.75478729 37.10420105 -0.73423767 36.21737671 C-0.71752518 35.28712677 -0.70081268 34.35687683 -0.68359375 33.3984375 C-0.66281265 32.44683746 -0.64203156 31.49523743 -0.62062073 30.51480103 C-0.55511867 27.46827568 -0.4962372 24.42166257 -0.4375 21.375 C-0.39431541 19.31249084 -0.35070114 17.24999063 -0.30664062 15.1875 C-0.1994366 10.12509046 -0.09817098 5.06259245 0 0 Z " fill="#A58372" transform="translate(8,9)"/>
<path d="M0 0 C0.33 0.99 0.66 1.98 1 3 C1.66 3 2.32 3 3 3 C3 2.34 3 1.68 3 1 C3.99 1.33 4.98 1.66 6 2 C6.05411124 4.41696872 6.09372278 6.83271787 6.125 9.25 C6.15013672 10.27287109 6.15013672 10.27287109 6.17578125 11.31640625 C6.21213482 15.0608235 6.07944349 17.82352727 4 21 C3.67 21 3.34 21 3 21 C2.49242138 19.58603098 1.99425075 18.16868271 1.5 16.75 C1.2215625 15.96109375 0.943125 15.1721875 0.65625 14.359375 C0 12 0 12 0 8 C-0.66 7.67 -1.32 7.34 -2 7 C-1.34 7 -0.68 7 0 7 C0 4.69 0 2.38 0 0 Z " fill="#936E5C" transform="translate(9,86)"/>
<path d="M0 0 C0.99 0.66 1.98 1.32 3 2 C3.13925928 4.67317261 3.09457168 7.0407066 2.875 9.6875 C2.83890625 10.38294922 2.8028125 11.07839844 2.765625 11.79492188 C2.41319039 16.76146744 1.170996 20.5230542 -1 25 C-1.33 25 -1.66 25 -2 25 C-2.05800828 21.39590081 -2.09359869 17.79192149 -2.125 14.1875 C-2.14175781 13.16333984 -2.15851562 12.13917969 -2.17578125 11.08398438 C-2.18222656 10.10107422 -2.18867187 9.11816406 -2.1953125 8.10546875 C-2.20578613 7.19949951 -2.21625977 6.29353027 -2.22705078 5.36010742 C-2 3 -2 3 0 0 Z " fill="#A07460" transform="translate(44,12)"/>
<path d="M0 0 C0.33 0 0.66 0 1 0 C1 13.53 1 27.06 1 41 C0.34 41 -0.32 41 -1 41 C-2.10690932 27.07388404 -1.68440592 13.86502726 0 0 Z " fill="#A07D6E" transform="translate(2,10)"/>
<path d="M0 0 C1.98 0 3.96 0 6 0 C5.67 3.3 5.34 6.6 5 10 C2.525 9.01 2.525 9.01 0 8 C0 5.36 0 2.72 0 0 Z " fill="#99796A" transform="translate(47,0)"/>
<path d="M0 0 C2.64 0 5.28 0 8 0 C8 2.31 8 4.62 8 7 C7.67 5.68 7.34 4.36 7 3 C6.01 3 5.02 3 4 3 C4 4.98 4 6.96 4 9 C3.01 9.33 2.02 9.66 1 10 C-0.60725635 6.78548731 -0.05748185 3.56387464 0 0 Z " fill="#9D7D70" transform="translate(3,0)"/>
<path d="M0 0 C0.66 0.33 1.32 0.66 2 1 C2.21755666 6.4389165 2.10428384 10.87080814 0 16 C-0.33 16 -0.66 16 -1 16 C-1.84681133 10.91913204 -2.09038099 6.15171623 -2 1 C-1.34 0.67 -0.68 0.34 0 0 Z " fill="#927A6F" transform="translate(43,64)"/>
<path d="M0 0 C0.66 0 1.32 0 2 0 C2.33 4.62 2.66 9.24 3 14 C2.67 13.34 2.34 12.68 2 12 C0.68 12 -0.64 12 -2 12 C-2.17835515 7.45194365 -1.99785435 4.1205746 0 0 Z " fill="#B38874" transform="translate(8,49)"/>
<path d="M0 0 C-0.33 5.28 -0.66 10.56 -1 16 C-4.41569282 11.4457429 -4.41569282 11.4457429 -4.375 7.4375 C-4.38273437 6.67308594 -4.39046875 5.90867187 -4.3984375 5.12109375 C-3.96747013 2.82682629 -2.73630992 0 0 0 Z " fill="#A0836F" transform="translate(47,52)"/>
<path d="M0 0 C0.66 0 1.32 0 2 0 C2 4.29 2 8.58 2 13 C1.34 13 0.68 13 0 13 C0 12.34 0 11.68 0 11 C-0.66 10.67 -1.32 10.34 -2 10 C-1.34 6.7 -0.68 3.4 0 0 Z " fill="#B38C76" transform="translate(45,0)"/>
<path d="M0 0 C0.66 0 1.32 0 2 0 C1.67 2.64 1.34 5.28 1 8 C-0.32 7.34 -1.64 6.68 -3 6 C-3 5.34 -3 4.68 -3 4 C-2.34 3.67 -1.68 3.34 -1 3 C-0.67 2.01 -0.34 1.02 0 0 Z " fill="#846E65" transform="translate(50,2)"/>
</svg>
