<?xml version="1.0" encoding="UTF-8"?>
<svg version="1.1" xmlns="http://www.w3.org/2000/svg" width="263" height="64">
<path d="M0 0 C44.22 0 88.44 0 134 0 C134 21.12 134 42.24 134 64 C51.83 64 -30.34 64 -115 64 C-114.34 61.69 -113.68 59.38 -113 57 C-112.01 57 -111.02 57 -110 57 C-109.67 55.68 -109.34 54.36 -109 53 C-108.01 53 -107.02 53 -106 53 C-105.67 51.68 -105.34 50.36 -105 49 C-104.01 49 -103.02 49 -102 49 C-101.896875 48.360625 -101.79375 47.72125 -101.6875 47.0625 C-101.460625 46.381875 -101.23375 45.70125 -101 45 C-99.515 44.505 -99.515 44.505 -98 44 C-97.67 43.01 -97.34 42.02 -97 41 C-96.21625 40.9175 -95.4325 40.835 -94.625 40.75 C-93.75875 40.5025 -92.8925 40.255 -92 40 C-91.3162955 38.67532254 -90.65035814 37.34136367 -90 36 C-88.35636866 35.27840576 -86.68949614 34.60648579 -85 34 C-84.67 33.34 -84.34 32.68 -84 32 C-82.88625 31.690625 -81.7725 31.38125 -80.625 31.0625 C-77.04739448 30.01389149 -76.39698066 29.50593432 -74 27 C-72.33805547 26.64386903 -70.671549 26.30791692 -69 26 C-68.67 25.34 -68.34 24.68 -68 24 C-65.95756472 23.36614078 -63.90867481 22.98173496 -61.8125 22.5625 C-61.214375 22.376875 -60.61625 22.19125 -60 22 C-59.67 21.34 -59.34 20.68 -59 20 C-56.78515625 19.21875 -56.78515625 19.21875 -54.0625 18.5 C-50.11648443 17.50524763 -50.11648443 17.50524763 -47 15 C-45.329375 14.7834375 -45.329375 14.7834375 -43.625 14.5625 C-40.08998139 14.32070501 -40.08998139 14.32070501 -38.15625 12.53125 C-35.40411987 10.57683875 -33.20499701 10.35886326 -29.875 9.9375 C-25.43246906 9.53702065 -25.43246906 9.53702065 -22 7 C-18.00219942 5.85777126 -14.1350163 5.91892125 -10 6 C-9.67 5.01 -9.34 4.02 -9 3 C-6.93359375 2.26953125 -6.93359375 2.26953125 -4.4375 1.8125 C-3.61121094 1.65394531 -2.78492187 1.49539062 -1.93359375 1.33203125 C-1.29550781 1.22246094 -0.65742188 1.11289062 0 1 C0 0.67 0 0.34 0 0 Z " fill="#FDD6BD" transform="translate(129,0)"/>
<path d="M0 0 C14.52 0 29.04 0 44 0 C44 1.32 44 2.64 44 4 C41.36 4 38.72 4 36 4 C36 5.32 36 6.64 36 8 C33.03 8 30.06 8 27 8 C27 9.32 27 10.64 27 12 C23.04 12 19.08 12 15 12 C15 13.32 15 14.64 15 16 C12.36 16 9.72 16 7 16 C7 17.32 7 18.64 7 20 C2.71 20 -1.58 20 -6 20 C-6 21.32 -6 22.64 -6 24 C-11.28 24 -16.56 24 -22 24 C-22 25.32 -22 26.64 -22 28 C-24.64 28 -27.28 28 -30 28 C-30 29.65 -30 31.3 -30 33 C-33.96 33 -37.92 33 -42 33 C-42 34.32 -42 35.64 -42 37 C-47.61 37 -53.22 37 -59 37 C-59 38.32 -59 39.64 -59 41 C-61.64 41 -64.28 41 -67 41 C-67 42.32 -67 43.64 -67 45 C-69.97 45 -72.94 45 -76 45 C-76 46.32 -76 47.64 -76 49 C-77.32 49 -78.64 49 -80 49 C-80 50.32 -80 51.64 -80 53 C-81.32 53 -82.64 53 -84 53 C-84 54.32 -84 55.64 -84 57 C-85.32 57 -86.64 57 -88 57 C-88 58.32 -88 59.64 -88 61 C-89.32 61 -90.64 61 -92 61 C-92 61.99 -92 62.98 -92 64 C-99.59 64 -107.18 64 -115 64 C-114.34 61.69 -113.68 59.38 -113 57 C-112.01 57 -111.02 57 -110 57 C-109.67 55.68 -109.34 54.36 -109 53 C-108.01 53 -107.02 53 -106 53 C-105.67 51.68 -105.34 50.36 -105 49 C-104.01 49 -103.02 49 -102 49 C-101.896875 48.360625 -101.79375 47.72125 -101.6875 47.0625 C-101.460625 46.381875 -101.23375 45.70125 -101 45 C-99.515 44.505 -99.515 44.505 -98 44 C-97.67 43.01 -97.34 42.02 -97 41 C-96.21625 40.9175 -95.4325 40.835 -94.625 40.75 C-93.75875 40.5025 -92.8925 40.255 -92 40 C-91.3162955 38.67532254 -90.65035814 37.34136367 -90 36 C-88.35636866 35.27840576 -86.68949614 34.60648579 -85 34 C-84.67 33.34 -84.34 32.68 -84 32 C-82.88625 31.690625 -81.7725 31.38125 -80.625 31.0625 C-77.04739448 30.01389149 -76.39698066 29.50593432 -74 27 C-72.33805547 26.64386903 -70.671549 26.30791692 -69 26 C-68.67 25.34 -68.34 24.68 -68 24 C-65.95756472 23.36614078 -63.90867481 22.98173496 -61.8125 22.5625 C-61.214375 22.376875 -60.61625 22.19125 -60 22 C-59.67 21.34 -59.34 20.68 -59 20 C-56.78515625 19.21875 -56.78515625 19.21875 -54.0625 18.5 C-50.11648443 17.50524763 -50.11648443 17.50524763 -47 15 C-45.329375 14.7834375 -45.329375 14.7834375 -43.625 14.5625 C-40.08998139 14.32070501 -40.08998139 14.32070501 -38.15625 12.53125 C-35.40411987 10.57683875 -33.20499701 10.35886326 -29.875 9.9375 C-25.43246906 9.53702065 -25.43246906 9.53702065 -22 7 C-18.00219942 5.85777126 -14.1350163 5.91892125 -10 6 C-9.67 5.01 -9.34 4.02 -9 3 C-6.93359375 2.26953125 -6.93359375 2.26953125 -4.4375 1.8125 C-3.61121094 1.65394531 -2.78492187 1.49539062 -1.93359375 1.33203125 C-1.29550781 1.22246094 -0.65742188 1.11289062 0 1 C0 0.67 0 0.34 0 0 Z " fill="#8F6859" transform="translate(129,0)"/>
<path d="M0 0 C12.21 0 24.42 0 37 0 C37 1.32 37 2.64 37 4 C34.36 4 31.72 4 29 4 C29 5.32 29 6.64 29 8 C26.03 8 23.06 8 20 8 C20 9.32 20 10.64 20 12 C16.04 12 12.08 12 8 12 C8 13.32 8 14.64 8 16 C5.36 16 2.72 16 0 16 C0 17.32 0 18.64 0 20 C-4.29 20 -8.58 20 -13 20 C-13 21.32 -13 22.64 -13 24 C-18.28 24 -23.56 24 -29 24 C-29 25.32 -29 26.64 -29 28 C-33.29 28 -37.58 28 -42 28 C-42 29.32 -42 30.64 -42 32 C-46.29 32 -50.58 32 -55 32 C-54.67 29.69 -54.34 27.38 -54 25 C-52.68 24.67 -51.36 24.34 -50 24 C-50 23.01 -50 22.02 -50 21 C-50.66 20.67 -51.32 20.34 -52 20 C-51.34 20 -50.68 20 -50 20 C-50 18.68 -50 17.36 -50 16 C-49.39671875 15.96261719 -48.7934375 15.92523438 -48.171875 15.88671875 C-47.37265625 15.82097656 -46.5734375 15.75523438 -45.75 15.6875 C-44.96109375 15.62949219 -44.1721875 15.57148438 -43.359375 15.51171875 C-40.913446 15.16225195 -40.913446 15.16225195 -39.0625 13.46875 C-36.33341649 11.52531174 -34.5593795 11.69430787 -31.25 11.8125 C-30.26515625 11.83957031 -29.2803125 11.86664063 -28.265625 11.89453125 C-27.51796875 11.92933594 -26.7703125 11.96414063 -26 12 C-25.67 10.68 -25.34 9.36 -25 8 C-19.06 7.505 -19.06 7.505 -13 7 C-12.67 6.01 -12.34 5.02 -12 4 C-8.04 4 -4.08 4 0 4 C0 2.68 0 1.36 0 0 Z " fill="#936A57" transform="translate(136,0)"/>
<path d="M0 0 C0.66 0.99 1.32 1.98 2 3 C2.99 3.66 3.98 4.32 5 5 C4.34 5.99 3.68 6.98 3 8 C2.34 8 1.68 8 1 8 C1 9.32 1 10.64 1 12 C1.99 12 2.98 12 4 12 C4 13.32 4 14.64 4 16 C2.68 16 1.36 16 0 16 C0 17.32 0 18.64 0 20 C-1.32 20 -2.64 20 -4 20 C-4 21.32 -4 22.64 -4 24 C-5.32 24 -6.64 24 -8 24 C-8 25.32 -8 26.64 -8 28 C-9.32 28 -10.64 28 -12 28 C-12 28.99 -12 29.98 -12 31 C-18.6 31 -25.2 31 -32 31 C-32 30.34 -32 29.68 -32 29 C-31.236875 28.731875 -30.47375 28.46375 -29.6875 28.1875 C-26.10056511 26.60257528 -24.61598528 25.03597525 -22.625 21.6875 C-17.7791361 13.67318663 -17.7791361 13.67318663 -13.6875 12.125 C-12.8521875 12.063125 -12.8521875 12.063125 -12 12 C-12 10.68 -12 9.36 -12 8 C-10.68 8 -9.36 8 -8 8 C-8 6.68 -8 5.36 -8 4 C-6.68 4 -5.36 4 -4 4 C-4 5.32 -4 6.64 -4 8 C-2.68 8 -1.36 8 0 8 C0 5.36 0 2.72 0 0 Z " fill="#916A59" transform="translate(49,33)"/>
<path d="M0 0 C1.32 0 2.64 0 4 0 C4 2.97 4 5.94 4 9 C2.68 9 1.36 9 0 9 C0 7.68 0 6.36 0 5 C-1.32 5 -2.64 5 -4 5 C-4 6.32 -4 7.64 -4 9 C-5.32 9 -6.64 9 -8 9 C-8 10.32 -8 11.64 -8 13 C-8.928125 13.12375 -8.928125 13.12375 -9.875 13.25 C-12.14390805 13.78597843 -12.14390805 13.78597843 -13 15.8125 C-13.33 16.534375 -13.66 17.25625 -14 18 C-15.33333333 19.33333333 -16.66666667 20.66666667 -18 22 C-19.01187895 23.65948148 -20.0126546 25.32580562 -21 27 C-22.4375 28.8125 -22.4375 28.8125 -24 30 C-25.32 30 -26.64 30 -28 30 C-28 30.66 -28 31.32 -28 32 C-28.99 31.67 -29.98 31.34 -31 31 C-30.34 29.02 -29.68 27.04 -29 25 C-28.01 25 -27.02 25 -26 25 C-25.67 23.68 -25.34 22.36 -25 21 C-24.01 21 -23.02 21 -22 21 C-21.67 19.68 -21.34 18.36 -21 17 C-20.01 17 -19.02 17 -18 17 C-17.896875 16.360625 -17.79375 15.72125 -17.6875 15.0625 C-17.3471875 14.0415625 -17.3471875 14.0415625 -17 13 C-16.01 12.67 -15.02 12.34 -14 12 C-13.67 11.01 -13.34 10.02 -13 9 C-11.824375 8.87625 -11.824375 8.87625 -10.625 8.75 C-9.75875 8.5025 -8.8925 8.255 -8 8 C-7.3162955 6.67532254 -6.65035814 5.34136367 -6 4 C-4.35636866 3.27840576 -2.68949614 2.60648579 -1 2 C-0.67 1.34 -0.34 0.68 0 0 Z " fill="#8E736B" transform="translate(45,32)"/>
<path d="M0 0 C2.31 0 4.62 0 7 0 C7 1.32 7 2.64 7 4 C3.04 4 -0.92 4 -5 4 C-5.33 5.32 -5.66 6.64 -6 8 C-9.96 8 -13.92 8 -18 8 C-18 9.65 -18 11.3 -18 13 C-18.81984375 12.96519531 -19.6396875 12.93039062 -20.484375 12.89453125 C-22.10085937 12.85392578 -22.10085937 12.85392578 -23.75 12.8125 C-24.81734375 12.77769531 -25.8846875 12.74289062 -26.984375 12.70703125 C-30.39228579 13.03811067 -31.38059371 13.93882784 -34 16 C-36.359375 16.29296875 -36.359375 16.29296875 -38.75 16.1875 C-39.94882813 16.14689453 -39.94882813 16.14689453 -41.171875 16.10546875 C-41.77515625 16.07066406 -42.3784375 16.03585938 -43 16 C-43 17.32 -43 18.64 -43 20 C-45.64 20 -48.28 20 -51 20 C-51 18 -51 18 -49.4375 16.4375 C-46.34044441 14.61103132 -43.53765944 14.50537992 -40 14 C-39.39414063 13.51660156 -38.78828125 13.03320312 -38.1640625 12.53515625 C-35.4070974 10.57940303 -33.20974969 10.35946464 -29.875 9.9375 C-25.43246906 9.53702065 -25.43246906 9.53702065 -22 7 C-18.00219942 5.85777126 -14.1350163 5.91892125 -10 6 C-9.67 5.01 -9.34 4.02 -9 3 C-6.93359375 2.26953125 -6.93359375 2.26953125 -4.4375 1.8125 C-3.61121094 1.65394531 -2.78492188 1.49539062 -1.93359375 1.33203125 C-1.29550781 1.22246094 -0.65742188 1.11289062 0 1 C0 0.67 0 0.34 0 0 Z " fill="#94817B" transform="translate(129,0)"/>
<path d="M0 0 C1.65 0 3.3 0 5 0 C5 1.65 5 3.3 5 5 C1.04 5 -2.92 5 -7 5 C-7 6.32 -7 7.64 -7 9 C-12.61 9 -18.22 9 -24 9 C-24 10.32 -24 11.64 -24 13 C-25.32 13 -26.64 13 -28 13 C-28 11.68 -28 10.36 -28 9 C-25.47524538 7.73762269 -23.68799534 7.90143596 -20.875 7.9375 C-19.96492188 7.94652344 -19.05484375 7.95554687 -18.1171875 7.96484375 C-17.41851562 7.97644531 -16.71984375 7.98804688 -16 8 C-16 6.68 -16 5.36 -16 4 C-10.72 4 -5.44 4 0 4 C0 2.68 0 1.36 0 0 Z " fill="#C9A68F" transform="translate(94,28)"/>
<path d="M0 0 C1.32 0 2.64 0 4 0 C4 2.97 4 5.94 4 9 C2.68 9 1.36 9 0 9 C0 7.68 0 6.36 0 5 C-1.32 5 -2.64 5 -4 5 C-4 6.32 -4 7.64 -4 9 C-5.32 9 -6.64 9 -8 9 C-8 10.32 -8 11.64 -8 13 C-9.65 12.67 -11.3 12.34 -13 12 C-13 11.01 -13 10.02 -13 9 C-12.21625 8.9175 -11.4325 8.835 -10.625 8.75 C-9.75875 8.5025 -8.8925 8.255 -8 8 C-7.3162955 6.67532254 -6.65035814 5.34136367 -6 4 C-4.35636866 3.27840576 -2.68949614 2.60648579 -1 2 C-0.67 1.34 -0.34 0.68 0 0 Z " fill="#957B71" transform="translate(45,32)"/>
<path d="M0 0 C0 1.65 0 3.3 0 5 C-2.64 5 -5.28 5 -8 5 C-8 6.32 -8 7.64 -8 9 C-10.97 9 -13.94 9 -17 9 C-17 10.32 -17 11.64 -17 13 C-19.31 13 -21.62 13 -24 13 C-20.74440873 9.37234116 -18.83571296 7.6716268 -14 7 C-13.67 6.34 -13.34 5.68 -13 5 C-10.95756472 4.36614078 -8.90867481 3.98173496 -6.8125 3.5625 C-6.214375 3.376875 -5.61625 3.19125 -5 3 C-4.67 2.34 -4.34 1.68 -4 1 C-1 0 -1 0 0 0 Z " fill="#91837E" transform="translate(74,19)"/>
<path d="M0 0 C0.66 0.33 1.32 0.66 2 1 C2 1.99 2 2.98 2 4 C4.64 4 7.28 4 10 4 C10 3.01 10 2.02 10 1 C11.32 1 12.64 1 14 1 C14 2.32 14 3.64 14 5 C10.04 5 6.08 5 2 5 C2 6.32 2 7.64 2 9 C0.68 9 -0.64 9 -2 9 C-2 6.36 -2 3.72 -2 1 C-1.34 0.67 -0.68 0.34 0 0 Z " fill="#9F7862" transform="translate(142,7)"/>
<path d="M0 0 C1.32 0 2.64 0 4 0 C4 1.32 4 2.64 4 4 C1.03 4 -1.94 4 -5 4 C-5 5.32 -5 6.64 -5 8 C-7.64 8 -10.28 8 -13 8 C-13 6 -13 6 -11.4375 4.4375 C-8.34053536 2.61108496 -5.53719772 2.45852563 -2 2 C-1.34 1.34 -0.68 0.68 0 0 Z " fill="#9B8986" transform="translate(91,12)"/>
<path d="M0 0 C2.64 0 5.28 0 8 0 C6.68 0.33 5.36 0.66 4 1 C4 2.32 4 3.64 4 5 C0.04 5 -3.92 5 -8 5 C-8 6.32 -8 7.64 -8 9 C-9.32 9 -10.64 9 -12 9 C-12 7.68 -12 6.36 -12 5 C-9.47524538 3.73762269 -7.68799534 3.90143596 -4.875 3.9375 C-3.96492188 3.94652344 -3.05484375 3.95554688 -2.1171875 3.96484375 C-1.41851562 3.97644531 -0.71984375 3.98804688 0 4 C0 2.68 0 1.36 0 0 Z " fill="#B9927A" transform="translate(78,32)"/>
<path d="M0 0 C1.65 0 3.3 0 5 0 C4.625 1.9375 4.625 1.9375 4 4 C0.99686252 5.50156874 -1.79067522 5.09281204 -5.125 5.0625 C-6.40632813 5.05347656 -7.68765625 5.04445313 -9.0078125 5.03515625 C-10.48894531 5.01775391 -10.48894531 5.01775391 -12 5 C-12 5.99 -12 6.98 -12 8 C-13.32 8 -14.64 8 -16 8 C-16 6.68 -16 5.36 -16 4 C-10.72 4 -5.44 4 0 4 C0 2.68 0 1.36 0 0 Z " fill="#DDB79E" transform="translate(123,20)"/>
<path d="M0 0 C1.32 0 2.64 0 4 0 C4 1.32 4 2.64 4 4 C3.01 4 2.02 4 1 4 C1 5.32 1 6.64 1 8 C-0.65 8 -2.3 8 -4 8 C-4 6.68 -4 5.36 -4 4 C-3.01 4 -2.02 4 -1 4 C-0.67 2.68 -0.34 1.36 0 0 Z " fill="#94867F" transform="translate(20,53)"/>
<path d="M0 0 C2 2 2 2 2 5 C0.68 5 -0.64 5 -2 5 C-2 6.32 -2 7.64 -2 9 C-3.65 8.67 -5.3 8.34 -7 8 C-7 7.01 -7 6.02 -7 5 C-5.824375 4.87625 -5.824375 4.87625 -4.625 4.75 C-1.85250896 4.27193661 -1.85250896 4.27193661 -0.6875 1.9375 C-0.460625 1.298125 -0.23375 0.65875 0 0 Z " fill="#9D8C87" transform="translate(39,36)"/>
<path d="M0 0 C1.32 0 2.64 0 4 0 C4 1.32 4 2.64 4 4 C3.01 4.33 2.02 4.66 1 5 C0.67 5.99 0.34 6.98 0 8 C-1.32 8 -2.64 8 -4 8 C-4 6.68 -4 5.36 -4 4 C-2.68 4 -1.36 4 0 4 C0 2.68 0 1.36 0 0 Z " fill="#7E6358" transform="translate(41,37)"/>
<path d="M0 0 C2.97 0 5.94 0 9 0 C8.67 1.32 8.34 2.64 8 4 C5.36 4 2.72 4 0 4 C0 2.68 0 1.36 0 0 Z " fill="#7D6152" transform="translate(99,12)"/>
<path d="M0 0 C2.64 0 5.28 0 8 0 C8 1.32 8 2.64 8 4 C5.36 4 2.72 4 0 4 C0 2.68 0 1.36 0 0 Z " fill="#86604B" transform="translate(123,16)"/>
<path d="M0 0 C2.64 0 5.28 0 8 0 C8 1.32 8 2.64 8 4 C5.36 4 2.72 4 0 4 C0 2.68 0 1.36 0 0 Z " fill="#7E5E55" transform="translate(124,4)"/>
<path d="M0 0 C2.64 0 5.28 0 8 0 C8 1.32 8 2.64 8 4 C5.69 4 3.38 4 1 4 C0.67 2.68 0.34 1.36 0 0 Z " fill="#865D48" transform="translate(95,24)"/>
<path d="M0 0 C0.66 0 1.32 0 2 0 C2.33 1.32 2.66 2.64 3 4 C4.32 4 5.64 4 7 4 C7 5.32 7 6.64 7 8 C5.68 7.67 4.36 7.34 3 7 C3 6.34 3 5.68 3 5 C1.68 4.67 0.36 4.34 -1 4 C-0.67 2.68 -0.34 1.36 0 0 Z " fill="#89604E" transform="translate(42,45)"/>
<path d="M0 0 C1.32 0 2.64 0 4 0 C4 1.32 4 2.64 4 4 C1.36 4 -1.28 4 -4 4 C-4 5.32 -4 6.64 -4 8 C-5.65 8 -7.3 8 -9 8 C-7.68 7.67 -6.36 7.34 -5 7 C-5 5.68 -5 4.36 -5 3 C-3.35 3 -1.7 3 0 3 C0 2.01 0 1.02 0 0 Z " fill="#B38E75" transform="translate(169,0)"/>
<path d="M0 0 C0.99 0 1.98 0 3 0 C3 1.65 3 3.3 3 5 C0.36 5 -2.28 5 -5 5 C-5 4.34 -5 3.68 -5 3 C-3.68 3 -2.36 3 -1 3 C-0.67 2.01 -0.34 1.02 0 0 Z " fill="#988981" transform="translate(120,3)"/>
<path d="M0 0 C2.64 0 5.28 0 8 0 C8 0.99 8 1.98 8 3 C5.36 3 2.72 3 0 3 C0 2.01 0 1.02 0 0 Z " fill="#866049" transform="translate(144,8)"/>
<path d="M0 0 C2.475 0.495 2.475 0.495 5 1 C5 2.32 5 3.64 5 5 C3.35 5 1.7 5 0 5 C0 3.35 0 1.7 0 0 Z " fill="#A27960" transform="translate(57,40)"/>
<path d="M0 0 C-1.32 0.33 -2.64 0.66 -4 1 C-4 2.32 -4 3.64 -4 5 C-5.32 5 -6.64 5 -8 5 C-8 3.68 -8 2.36 -8 1 C-5.29120665 -0.35439668 -2.99066732 -0.06501451 0 0 Z " fill="#AD816C" transform="translate(74,36)"/>
<path d="M0 0 C0 1.32 0 2.64 0 4 C-2.64 4 -5.28 4 -8 4 C-4.5 0 -4.5 0 0 0 Z " fill="#A2938F" transform="translate(49,32)"/>
<path d="M0 0 C1.65 0 3.3 0 5 0 C5 1.32 5 2.64 5 4 C3.35 4 1.7 4 0 4 C0 2.68 0 1.36 0 0 Z " fill="#DCB89E" transform="translate(82,33)"/>
<path d="M0 0 C2.64 0.33 5.28 0.66 8 1 C7.01 1.495 7.01 1.495 6 2 C5.67 2.66 5.34 3.32 5 4 C3.35 4 1.7 4 0 4 C0 2.68 0 1.36 0 0 Z " fill="#836C69" transform="translate(74,19)"/>
<path d="M0 0 C1.32 0 2.64 0 4 0 C4 1.32 4 2.64 4 4 C2.35 4 0.7 4 -1 4 C-1 1 -1 1 0 0 Z " fill="#A39691" transform="translate(91,12)"/>
<path d="M0 0 C0.33 0.66 0.66 1.32 1 2 C-1.64 2.99 -4.28 3.98 -7 5 C-7 4.01 -7 3.02 -7 2 C-7.66 1.67 -8.32 1.34 -9 1 C-4.545 0.505 -4.545 0.505 0 0 Z " fill="#85766E" transform="translate(102,10)"/>
<path d="M0 0 C1.65 0 3.3 0 5 0 C4.34 1.32 3.68 2.64 3 4 C2.01 4 1.02 4 0 4 C0 2.68 0 1.36 0 0 Z " fill="#FFE0C5" transform="translate(66,41)"/>
<path d="M0 0 C0 1.65 0 3.3 0 5 C-1.32 5 -2.64 5 -4 5 C-4 3.68 -4 2.36 -4 1 C-1 0 -1 0 0 0 Z " fill="#9C9186" transform="translate(74,19)"/>
<path d="M0 0 C1.98 0 3.96 0 6 0 C5.01 0.495 5.01 0.495 4 1 C3.67 1.99 3.34 2.98 3 4 C2.01 4 1.02 4 0 4 C0 2.68 0 1.36 0 0 Z " fill="#845D54" transform="translate(87,16)"/>
<path d="M0 0 C1.65 0 3.3 0 5 0 C4.67 1.32 4.34 2.64 4 4 C2.68 4 1.36 4 0 4 C0 2.68 0 1.36 0 0 Z " fill="#FEE2CA" transform="translate(140,16)"/>
<path d="M0 0 C1.32 0 2.64 0 4 0 C4.33 0.99 4.66 1.98 5 3 C3.35 3.33 1.7 3.66 0 4 C0 2.68 0 1.36 0 0 Z " fill="#785B53" transform="translate(111,8)"/>
</svg>
