<?xml version="1.0" encoding="UTF-8"?>
<svg version="1.1" xmlns="http://www.w3.org/2000/svg" width="109" height="57">
<path d="M0 0 C0 18.81 0 37.62 0 57 C-31.68 57 -63.36 57 -96 57 C-90.21028689 25.15657792 -90.21028689 25.15657792 -79.08203125 16.41796875 C-75.25266551 13.8099767 -71.32538675 11.76045653 -67.07324219 9.91845703 C-65.5871335 9.26010318 -64.11506966 8.56968743 -62.65332031 7.85888672 C-41.69028477 -2.18672672 -23.02567415 -0.70247819 0 0 Z " fill="#FCD5BB" transform="translate(109,0)"/>
<path d="M0 0 C-6.47522912 7.08228185 -12.14132219 10.46770234 -21.875 10.95703125 C-22.926875 10.97830078 -22.926875 10.97830078 -24 11 C-24 11.66 -24 12.32 -24 13 C-26.10320063 13.50404808 -28.20759791 14.00310508 -30.3125 14.5 C-31.48425781 14.7784375 -32.65601563 15.056875 -33.86328125 15.34375 C-37 16 -37 16 -40 16 C-40.33 16.99 -40.66 17.98 -41 19 C-42.70703125 19.8515625 -42.70703125 19.8515625 -44.8125 20.625 C-48.5049116 22.31955318 -49.75905371 23.81845171 -51.3125 27.5625 C-51.57675781 28.32691406 -51.84101562 29.09132813 -52.11328125 29.87890625 C-53 32 -53 32 -54.46875 33.31347656 C-56.44687198 35.49218617 -56.77370772 37.23922798 -57.38671875 40.10546875 C-57.7105957 41.57983398 -57.7105957 41.57983398 -58.04101562 43.08398438 C-58.25435547 44.10814453 -58.46769531 45.13230469 -58.6875 46.1875 C-58.91244141 47.22326172 -59.13738281 48.25902344 -59.36914062 49.32617188 C-59.92273871 51.88214599 -60.46591729 54.43988957 -61 57 C-63.64 57 -66.28 57 -69 57 C-66.93234241 42.71156021 -64.04309467 25.81055118 -52.08203125 16.41796875 C-43.95794794 10.88505648 -34.70570682 7.57854455 -25.5625 4.125 C-24.00909912 3.51628052 -24.00909912 3.51628052 -22.42431641 2.89526367 C-14.78506369 0.09940519 -8.10357244 -0.48922879 0 0 Z " fill="#9A7868" transform="translate(82,0)"/>
<path d="M0 0 C-0.66 0.66 -1.32 1.32 -2 2 C-2.99 2 -3.98 2 -5 2 C-5.33 2.99 -5.66 3.98 -6 5 C-5.34 5.66 -4.68 6.32 -4 7 C-4.99 7 -5.98 7 -7 7 C-7.33 7.99 -7.66 8.98 -8 10 C-10.3125 10.6875 -10.3125 10.6875 -13 11 C-14.6875 9.625 -14.6875 9.625 -16 8 C-16.66 7.67 -17.32 7.34 -18 7 C-4.35827664 -2.17913832 -4.35827664 -2.17913832 0 0 Z " fill="#A17F72" transform="translate(49,9)"/>
<path d="M0 0 C0 0.99 0 1.98 0 3 C-1.72807318 3.33895656 -3.45751974 3.67091525 -5.1875 4 C-6.63189453 4.2784375 -6.63189453 4.2784375 -8.10546875 4.5625 C-10.7934206 4.96877612 -13.28771019 5.07933572 -16 5 C-15.375 3.046875 -15.375 3.046875 -14 1 C-11.25 0.390625 -11.25 0.390625 -8 0.25 C-6.9275 0.19328125 -5.855 0.1365625 -4.75 0.078125 C-3.16709116 0.033156 -1.58354748 0 0 0 Z " fill="#947263" transform="translate(58,10)"/>
<path d="M0 0 C-1.69672726 1.18348236 -3.40797692 2.34616049 -5.125 3.5 C-6.07632813 4.1496875 -7.02765625 4.799375 -8.0078125 5.46875 C-11.31017823 7.15873351 -13.34474108 7.30370104 -17 7 C-5.6 -1.86666667 -5.6 -1.86666667 0 0 Z " fill="#A58372" transform="translate(80,3)"/>
<path d="M0 0 C0.99 0.33 1.98 0.66 3 1 C2.01 3.97 1.02 6.94 0 10 C-0.99 9.67 -1.98 9.34 -3 9 C-2.67 6.69 -2.34 4.38 -2 2 C-1.34 2 -0.68 2 0 2 C0 1.34 0 0.68 0 0 Z " fill="#8C736A" transform="translate(24,25)"/>
<path d="M0 0 C0 0.66 0 1.32 0 2 C-0.639375 2.12375 -1.27875 2.2475 -1.9375 2.375 C-2.618125 2.58125 -3.29875 2.7875 -4 3 C-4.33 3.66 -4.66 4.32 -5 5 C-6.32 4.01 -7.64 3.02 -9 2 C-5.62902617 0.50178941 -3.79557881 0 0 0 Z " fill="#9E7E6F" transform="translate(73,0)"/>
</svg>
