<?xml version="1.0" encoding="UTF-8"?>
<svg version="1.1" xmlns="http://www.w3.org/2000/svg" width="143" height="188">
<path d="M0 0 C15.30332445 12.15750968 21.91852099 26.15055076 24.15625 45.359375 C24.6526132 50.23940894 25.141013 55.11767851 25.52734375 60.0078125 C26.88859375 60.100625 26.88859375 60.100625 28.27734375 60.1953125 C32.29903599 61.20073556 33.2890217 62.60887902 35.52734375 66.0078125 C38.3462933 71.64571159 37.1656999 81.99753333 35.46484375 87.9453125 C33.04176047 93.97458076 28.8477493 99.16084687 22.83984375 101.7578125 C20.23416602 103.0693563 19.60061616 103.8453713 18.375 106.5625 C17.71552748 108.64420843 17.08750503 110.7360935 16.48828125 112.8359375 C13.72143526 121.96877873 8.65132232 130.63372641 1.52734375 137.0078125 C0.86734375 137.0078125 0.20734375 137.0078125 -0.47265625 137.0078125 C-0.47896479 141.00922628 -0.41901809 145.00708953 -0.34765625 149.0078125 C-0.35023437 150.13316406 -0.3528125 151.25851563 -0.35546875 152.41796875 C-0.19856015 159.12581148 0.54149647 163.35499977 4.95263672 168.51953125 C6.66360754 170.22026345 6.66360754 170.22026345 9.52734375 172.0078125 C9.52734375 172.6678125 9.52734375 173.3278125 9.52734375 174.0078125 C-20.83265625 174.0078125 -51.19265625 174.0078125 -82.47265625 174.0078125 C-81.37564782 170.7167872 -80.59645767 170.04757962 -77.97265625 167.9453125 C-74.544455 165.21164871 -74.544455 165.21164871 -73.15625 161.15234375 C-72.59622822 155.84547065 -72.28028242 150.52799668 -72.09765625 145.1953125 C-72.04867187 143.95136719 -71.9996875 142.70742187 -71.94921875 141.42578125 C-72.6176712 137.06088649 -74.17134887 135.83545404 -77.47265625 133.0078125 C-83.56990298 126.16132783 -87.40696998 118.84419592 -90.45703125 110.2265625 C-92.50112865 104.52989762 -93.98398024 102.03218499 -99.47265625 99.0078125 C-101.17762162 97.38034556 -102.85162657 95.71889939 -104.47265625 94.0078125 C-105.13265625 93.3478125 -105.79265625 92.6878125 -106.47265625 92.0078125 C-106.69970703 89.02685547 -106.69970703 89.02685547 -106.66796875 85.25 C-106.66513885 84.58694855 -106.66230896 83.92389709 -106.65939331 83.24075317 C-106.6481906 81.12125667 -106.62308676 79.00218146 -106.59765625 76.8828125 C-106.58762653 75.44662068 -106.57850066 74.01042225 -106.5703125 72.57421875 C-106.54825125 69.05194622 -106.51372119 65.52992047 -106.47265625 62.0078125 C-103.25625971 60.26216139 -101.15252221 59.8033755 -97.47265625 60.0078125 C-97.446875 58.8940625 -97.42109375 57.7803125 -97.39453125 56.6328125 C-96.72223044 36.25692626 -92.40576541 17.83387411 -77.01416016 3.35351562 C-56.17827088 -14.83581312 -22.55272984 -15.66821231 0 0 Z " fill="#FBCDB1" transform="translate(106.47265625,9.9921875)"/>
<path d="M0 0 C15.30332445 12.15750968 21.91852099 26.15055076 24.15625 45.359375 C24.6526132 50.23940894 25.141013 55.11767851 25.52734375 60.0078125 C26.88859375 60.100625 26.88859375 60.100625 28.27734375 60.1953125 C32.29903599 61.20073556 33.2890217 62.60887902 35.52734375 66.0078125 C38.3462933 71.64571159 37.1656999 81.99753333 35.46484375 87.9453125 C33.04176047 93.97458076 28.8477493 99.16084687 22.83984375 101.7578125 C20.23416602 103.0693563 19.60061616 103.8453713 18.375 106.5625 C17.71552748 108.64420843 17.08750503 110.7360935 16.48828125 112.8359375 C13.72143526 121.96877873 8.65132232 130.63372641 1.52734375 137.0078125 C0.86734375 137.0078125 0.20734375 137.0078125 -0.47265625 137.0078125 C-0.47896479 141.00922628 -0.41901809 145.00708953 -0.34765625 149.0078125 C-0.35023437 150.13316406 -0.3528125 151.25851563 -0.35546875 152.41796875 C-0.19856015 159.12581148 0.54149647 163.35499977 4.95263672 168.51953125 C6.66360754 170.22026345 6.66360754 170.22026345 9.52734375 172.0078125 C9.52734375 172.6678125 9.52734375 173.3278125 9.52734375 174.0078125 C-20.83265625 174.0078125 -51.19265625 174.0078125 -82.47265625 174.0078125 C-81.37564782 170.7167872 -80.59645767 170.04757962 -77.97265625 167.9453125 C-74.544455 165.21164871 -74.544455 165.21164871 -73.15625 161.15234375 C-72.59622822 155.84547065 -72.28028242 150.52799668 -72.09765625 145.1953125 C-72.04867187 143.95136719 -71.9996875 142.70742187 -71.94921875 141.42578125 C-72.6176712 137.06088649 -74.17134887 135.83545404 -77.47265625 133.0078125 C-83.56990298 126.16132783 -87.40696998 118.84419592 -90.45703125 110.2265625 C-92.50112865 104.52989762 -93.98398024 102.03218499 -99.47265625 99.0078125 C-101.17762162 97.38034556 -102.85162657 95.71889939 -104.47265625 94.0078125 C-105.13265625 93.3478125 -105.79265625 92.6878125 -106.47265625 92.0078125 C-106.69970703 89.02685547 -106.69970703 89.02685547 -106.66796875 85.25 C-106.66513885 84.58694855 -106.66230896 83.92389709 -106.65939331 83.24075317 C-106.6481906 81.12125667 -106.62308676 79.00218146 -106.59765625 76.8828125 C-106.58762653 75.44662068 -106.57850066 74.01042225 -106.5703125 72.57421875 C-106.54825125 69.05194622 -106.51372119 65.52992047 -106.47265625 62.0078125 C-103.25625971 60.26216139 -101.15252221 59.8033755 -97.47265625 60.0078125 C-97.446875 58.8940625 -97.42109375 57.7803125 -97.39453125 56.6328125 C-96.72223044 36.25692626 -92.40576541 17.83387411 -77.01416016 3.35351562 C-56.17827088 -14.83581312 -22.55272984 -15.66821231 0 0 Z M-80.28515625 11.7578125 C-90.84141631 24.64863008 -92.68232743 39.59044713 -92.59765625 55.6328125 C-92.59282227 56.60283203 -92.58798828 57.57285156 -92.58300781 58.57226562 C-92.37300458 83.8902558 -90.47245819 113.52245105 -72.5078125 133.06640625 C-60.69593517 144.33416639 -47.9983819 149.66350934 -31.87109375 149.34765625 C-19.72514545 148.71923771 -7.14719925 140.5682682 0.9765625 131.8046875 C1.48832031 131.21171875 2.00007813 130.61875 2.52734375 130.0078125 C3.04941406 129.41484375 3.57148437 128.821875 4.109375 128.2109375 C19.71937775 109.08374426 19.61932703 78.09143284 19.90234375 54.6328125 C19.92844727 53.39740723 19.95455078 52.16200195 19.98144531 50.88916016 C20.01282575 34.11183433 14.51073174 19.42196996 2.9375 7.23046875 C-9.97064456 -4.67347656 -26.6982442 -6.54073302 -43.48730469 -6.08544922 C-57.79401101 -5.41339292 -70.52773723 1.44159856 -80.28515625 11.7578125 Z " fill="#7C6153" transform="translate(106.47265625,9.9921875)"/>
<path d="M0 0 C0.66 0 1.32 0 2 0 C2.01458252 0.56920166 2.02916504 1.13840332 2.04418945 1.72485352 C2.11929165 4.33803828 2.21574189 6.95003099 2.3125 9.5625 C2.33505859 10.45775391 2.35761719 11.35300781 2.38085938 12.27539062 C2.72346598 20.7782637 4.55545097 25.19431371 10 32 C-16.4 32 -42.8 32 -70 32 C-68.02 29.69 -66.04 27.38 -64 25 C-61.92914343 19.76230721 -61.60385937 14.62664345 -61.375 9.0625 C-61.33632813 8.28326172 -61.29765625 7.50402344 -61.2578125 6.70117188 C-61.16455873 4.80112621 -61.08124038 2.90059722 -61 1 C-60.47277344 1.26683594 -59.94554687 1.53367188 -59.40234375 1.80859375 C-56.47167309 3.26201578 -53.52252169 4.66974991 -50.5625 6.0625 C-49.45003906 6.58972656 -48.33757813 7.11695313 -47.19140625 7.66015625 C-37.28658031 11.81848587 -23.67861699 11.3009607 -13.51171875 8.0625 C-8.85748157 6.09367805 -3.61568555 3.61568555 0 0 Z " fill="#FACCB1" transform="translate(100,151)"/>
<path d="M0 0 C0.99 0.33 1.98 0.66 3 1 C2.5359375 2.0828125 2.5359375 2.0828125 2.0625 3.1875 C1.06216284 5.8354513 0.51638507 8.22443024 0 11 C-2.24024384 21.51191341 -6.87395118 30.72932474 -15 38 C-15.66 38 -16.32 38 -17 38 C-17.00630854 42.00141378 -16.94636184 45.99927703 -16.875 50 C-16.87757812 51.12535156 -16.88015625 52.25070313 -16.8828125 53.41015625 C-16.7259039 60.11799898 -15.98584728 64.34718727 -11.57470703 69.51171875 C-9.86373621 71.21245095 -9.86373621 71.21245095 -7 73 C-7 73.66 -7 74.32 -7 75 C-37.36 75 -67.72 75 -99 75 C-97.90299157 71.7089747 -97.12380142 71.03976712 -94.5 68.9375 C-91.07179875 66.20383621 -91.07179875 66.20383621 -89.68359375 62.14453125 C-89.12357197 56.83765815 -88.80762617 51.52018418 -88.625 46.1875 C-88.57601562 44.94355469 -88.52703125 43.69960937 -88.4765625 42.41796875 C-89.14501495 38.05307399 -90.69869262 36.82764154 -94 34 C-99.2964441 28.05272167 -103.5002075 21.61655526 -106 14 C-105.67 13.34 -105.34 12.68 -105 12 C-103.20703125 12.08984375 -103.20703125 12.08984375 -101 13 C-99.72302527 15.1937771 -98.69465118 17.25103466 -97.6875 19.5625 C-91.0028723 33.75210895 -79.65016856 42.46760247 -65 48 C-55.51374715 51.16208428 -43.56403098 49.84608152 -34.76953125 45.5390625 C-33.39861328 44.77722656 -33.39861328 44.77722656 -32 44 C-31.05511719 43.49210937 -30.11023438 42.98421875 -29.13671875 42.4609375 C-13.99277699 33.62173498 -6.15917491 19.42539297 -1.61328125 2.96875 C-1 1 -1 1 0 0 Z M-27.0625 44.8125 C-31.51890666 47.86010714 -35.80642129 49.61967985 -41 51 C-41.57878906 51.18433594 -42.15757813 51.36867188 -42.75390625 51.55859375 C-55.63673903 54.09035045 -67.95490255 51.75477706 -79.08984375 45.0859375 C-81.11076229 43.85532734 -81.11076229 43.85532734 -84 43 C-84.03738281 44.134375 -84.07476562 45.26875 -84.11328125 46.4375 C-84.58028902 58.00877231 -85.23933797 64.68720557 -93 74 C-66.6 74 -40.2 74 -13 74 C-14.65 72.02 -16.3 70.04 -18 68 C-20.45287173 62.74814581 -20.42984333 57.32520105 -20.625 51.625 C-20.66367188 50.69816406 -20.70234375 49.77132812 -20.7421875 48.81640625 C-20.83587591 46.5444623 -20.92159348 44.27251404 -21 42 C-23.76023882 42 -24.83865737 43.20050825 -27.0625 44.8125 Z " fill="#7D5D4B" transform="translate(123,109)"/>
<path d="M0 0 C2.34876413 3.52314619 2.55245643 5.81678554 3.0625 10 C3.14483887 10.66265869 3.22717773 11.32531738 3.31201172 12.00805664 C3.99960165 17.66059054 4.55156949 23.32381379 5 29 C6.36125 29.0928125 6.36125 29.0928125 7.75 29.1875 C11.77169224 30.19292306 12.76167795 31.60106652 15 35 C17.81894955 40.63789909 16.63835615 50.98972083 14.9375 56.9375 C12.49243705 63.02145946 8.2443312 68.14453134 2.25 70.875 C-2.01075751 73.66087991 -2.43195302 76.15515861 -3.58984375 80.953125 C-3.72519531 81.62859375 -3.86054687 82.3040625 -4 83 C-4.84062397 79.90226756 -5.08935201 77.21667249 -5 74 C-4.34 74 -3.68 74 -3 74 C-2.67 72.35 -2.34 70.7 -2 69 C-2.99 69 -3.98 69 -5 69 C-4.86722656 67.92363281 -4.73445313 66.84726563 -4.59765625 65.73828125 C-4.4191237 64.26303863 -4.24074686 62.78777716 -4.0625 61.3125 C-3.93198242 60.2596582 -3.93198242 60.2596582 -3.79882812 59.18554688 C-2.31590395 46.82784545 -1.86304384 34.61605935 -1.9375 22.1875 C-1.94253176 20.70507966 -1.94709166 19.22265764 -1.95117188 17.74023438 C-1.9620293 14.1601205 -1.97919865 10.58007157 -2 7 C-1.34 6.67 -0.68 6.34 0 6 C0 4.02 0 2.04 0 0 Z " fill="#80685C" transform="translate(127,41)"/>
<path d="M0 0 C0.33 0 0.66 0 1 0 C1.03963867 0.97533691 1.07927734 1.95067383 1.12011719 2.95556641 C1.8693464 20.8163669 2.77679928 38.25476904 6.57470703 55.77490234 C7.28573043 59.49491802 7.63557297 63.23174936 8 67 C4.30672803 65.30309126 3.16412323 64.39246858 1.5625 60.5625 C-0.30968445 56.29391946 -2.06949933 55.3583004 -6 53 C-7.70496537 51.37253306 -9.37897032 49.71108689 -11 48 C-11.66 47.34 -12.32 46.68 -13 46 C-13.22705078 43.01904297 -13.22705078 43.01904297 -13.1953125 39.2421875 C-13.1924826 38.57913605 -13.18965271 37.91608459 -13.18673706 37.23294067 C-13.17553435 35.11344417 -13.15043051 32.99436896 -13.125 30.875 C-13.11497028 29.43880818 -13.10584441 28.00260975 -13.09765625 26.56640625 C-13.075595 23.04413372 -13.04106494 19.52210797 -13 16 C-9.328125 13.9609375 -9.328125 13.9609375 -6.375 14.3125 C-4 15 -4 15 -2 16 C-2.02320313 15.09636719 -2.04640625 14.19273438 -2.0703125 13.26171875 C-2.09738281 11.49248047 -2.09738281 11.49248047 -2.125 9.6875 C-2.14820313 8.51574219 -2.17140625 7.34398437 -2.1953125 6.13671875 C-2 3 -2 3 0 0 Z " fill="#7D5C49" transform="translate(13,56)"/>
<path d="M0 0 C2.2890625 0.08984375 2.2890625 0.08984375 5 1 C6.3685306 3.22160144 7.37292922 5.18567236 8.375 7.5625 C11.23423676 13.81305402 14.57038046 20.78519023 21 24 C22.80981216 29.00584834 21.99646606 34.58973473 21.8125 39.8125 C21.79380859 40.88048828 21.77511719 41.94847656 21.75585938 43.04882812 C21.49008209 50.58851008 20.48682843 55.51317157 15 61 C41.07 61 67.14 61 94 61 C94 61.66 94 62.32 94 63 C65.29 63 36.58 63 7 63 C8.09700843 59.7089747 8.87619858 59.03976712 11.5 56.9375 C14.92820125 54.20383621 14.92820125 54.20383621 16.31640625 50.14453125 C16.87642803 44.83765815 17.19237383 39.52018418 17.375 34.1875 C17.42398438 32.94355469 17.47296875 31.69960937 17.5234375 30.41796875 C16.85498505 26.05307399 15.30130738 24.82764154 12 22 C6.94232758 16.32083394 0 7.98551706 0 0 Z " fill="#785F50" transform="translate(17,121)"/>
<path d="M0 0 C-0.98842896 -0.02356567 -0.98842896 -0.02356567 -1.99682617 -0.04760742 C-19.73091954 -0.53933588 -19.73091954 -0.53933588 -37 3 C-37 3.99 -37 4.98 -37 6 C-37.61746094 6.27972656 -38.23492187 6.55945312 -38.87109375 6.84765625 C-51.52969228 12.83977823 -61.11053325 21.04871147 -66.375 34.375 C-68.07862405 39.54538739 -68.82604461 44.7509518 -69.41015625 50.15234375 C-70 53 -70 53 -71.515625 54.95703125 C-73.60579582 57.83376635 -73.51182188 60.23643763 -73.6875 63.75 C-73.75324219 64.92046875 -73.81898437 66.0909375 -73.88671875 67.296875 C-73.94279297 68.63492188 -73.94279297 68.63492188 -74 70 C-74.66 70 -75.32 70 -76 70 C-75.55882173 48.47050023 -72.99731147 28.75198835 -57.05078125 12.765625 C-44.90197931 1.33608245 -15.86764354 -10.57842903 0 0 Z " fill="#7A6154" transform="translate(85,2)"/>
<path d="M0 0 C1.8132791 2.85272331 2.33018786 5.36826797 2.6328125 8.703125 C2.71660156 9.60160156 2.80039063 10.50007813 2.88671875 11.42578125 C2.96535156 12.35777344 3.04398438 13.28976563 3.125 14.25 C3.21136719 15.16652344 3.29773437 16.08304688 3.38671875 17.02734375 C3.8672801 22.37454228 4.08820467 27.63211568 4 33 C-1.12618534 30.90292418 -3.44834839 28.92732724 -6 24 C-8.59136995 16.72636934 -10.38289658 9.64258139 -8.125 2.0625 C-6.06092028 -1.72164616 -3.7774462 -1.22767001 0 0 Z " fill="#F4C9AE" transform="translate(10,75)"/>
<path d="M0 0 C2.16874252 0.50603992 3.99967627 0.99983813 6 2 C8.57501219 9.72503656 7.6906068 18.48712557 4.34765625 25.83203125 C2.20122041 29.28499325 -0.5230034 31.89324837 -4 34 C-4.66 34 -5.32 34 -6 34 C-5.70171225 29.99666447 -5.35686657 25.99852766 -5 22 C-4.93554688 21.25073242 -4.87109375 20.50146484 -4.8046875 19.72949219 C-4.59218078 17.31813127 -4.36041468 14.90922315 -4.125 12.5 C-4.05877441 11.72285645 -3.99254883 10.94571289 -3.92431641 10.14501953 C-3.49467315 5.94477571 -2.99700118 3.07888646 0 0 Z " fill="#F6CBAF" transform="translate(132,74)"/>
<path d="M0 0 C2.65223538 1.16035298 3.49465496 2.4109436 5 4.875 C5.3984375 7.53125 5.3984375 7.53125 5.375 10.375 C5.38273437 11.3134375 5.39046875 12.251875 5.3984375 13.21875 C4.94552484 16.23816774 4.00855276 17.62202018 2 19.875 C-1.375 19.625 -1.375 19.625 -5 18.875 C-6.92005094 16.07544185 -7.27293892 13.72408303 -7.25 10.375 C-7.25515625 9.6221875 -7.2603125 8.869375 -7.265625 8.09375 C-6.96429023 5.57671836 -6.35769582 4.01110808 -5 1.875 C-2 -0.125 -2 -0.125 0 0 Z " fill="#624638" transform="translate(97,72.125)"/>
<path d="M0 0 C3.27078876 0.5639291 4.86371562 1.45680431 7 4 C8.59327468 7.18654935 8.39200976 10.53171024 8 14 C6.84367254 16.36293002 5.85016245 18.14983755 4 20 C1.625 20.3125 1.625 20.3125 -1 20 C-3.93322548 16.9897686 -4.43175737 14.7029379 -4.4375 10.5625 C-4.3482088 6.63368732 -4.14284304 5.22765609 -2 1.8125 C-1.34 1.214375 -0.68 0.61625 0 0 Z " fill="#634638" transform="translate(42,72)"/>
<path d="M0 0 C0 0.66 0 1.32 0 2 C-0.804375 2.61875 -1.60875 3.2375 -2.4375 3.875 C-5.01388651 5.70203547 -5.01388651 5.70203547 -5.8125 7.75 C-5.9053125 8.86375 -5.9053125 8.86375 -6 10 C-6.103125 11.134375 -6.20625 12.26875 -6.3125 13.4375 C-6.20819593 20.37372055 -4.3070404 29.14783594 0.5625 34.3125 C2.91699021 36.28460499 2.91699021 36.28460499 6 36 C6.33 36.99 6.66 37.98 7 39 C6.34 39 5.68 39 5 39 C6.2684375 40.051875 6.2684375 40.051875 7.5625 41.125 C10 44 10 44 9.8125 47.3125 C9.4103125 48.6428125 9.4103125 48.6428125 9 50 C7 47 7 47 6.25 45.0625 C4.45506967 42.10086496 1.88799823 40.86870474 -1 39 C-2.70496537 37.37253306 -4.37897032 35.71108689 -6 34 C-6.66 33.34 -7.32 32.68 -8 32 C-8.22705078 29.01904297 -8.22705078 29.01904297 -8.1953125 25.2421875 C-8.1924826 24.57913605 -8.18965271 23.91608459 -8.18673706 23.23294067 C-8.17553435 21.11344417 -8.15043051 18.99436896 -8.125 16.875 C-8.11497028 15.43880818 -8.10584441 14.00260975 -8.09765625 12.56640625 C-8.075595 9.04413372 -8.04106494 5.52210797 -8 2 C-4.91190305 0.23537317 -3.76687864 0 0 0 Z " fill="#7F6354" transform="translate(8,70)"/>
<path d="M0 0 C0.33 0 0.66 0 1 0 C2.30601443 17.93196689 3.59337035 37.86875388 -3 55 C-3.66 55 -4.32 55 -5 55 C-5.20810035 47.70743994 -4.3947843 40.61393788 -3.5625 33.375 C-2.6008572 24.93646942 -1.77336648 16.52450263 -1.26147461 8.04541016 C-1.0250281 5.29150375 -0.60442273 2.69405218 0 0 Z " fill="#835D48" transform="translate(128,53)"/>
<path d="M0 0 C0 0.66 0 1.32 0 2 C-1.22009766 1.89171875 -1.22009766 1.89171875 -2.46484375 1.78125 C-20.82453817 0.2546321 -20.82453817 0.2546321 -38.97265625 2.62109375 C-41.80741837 3.15090478 -44.2360399 2.72735792 -47 2 C-34.16454447 -6.55697036 -14.02950446 -4.16423454 0 0 Z " fill="#775C4D" transform="translate(92,4)"/>
<path d="M0 0 C1.0209375 0.433125 1.0209375 0.433125 2.0625 0.875 C13.80847452 5.37345833 25.23868025 5.32368517 37 1 C38.32905754 0.65000722 39.66133851 0.31124635 41 0 C40.875 1.8125 40.875 1.8125 40 4 C31.66900617 9.35563889 20.08397151 9.07569645 10.59765625 7.3984375 C6.23707289 6.35189749 2.75387395 5.50258263 -1 3 C-0.67 2.01 -0.34 1.02 0 0 Z " fill="#7E5B45" transform="translate(50,123)"/>
<path d="M0 0 C-0.98842896 -0.02356567 -0.98842896 -0.02356567 -1.99682617 -0.04760742 C-19.73091954 -0.53933588 -19.73091954 -0.53933588 -37 3 C-37 3.99 -37 4.98 -37 6 C-37.67546875 6.32613281 -38.3509375 6.65226563 -39.046875 6.98828125 C-39.93890625 7.42527344 -40.8309375 7.86226562 -41.75 8.3125 C-42.63171875 8.74175781 -43.5134375 9.17101563 -44.421875 9.61328125 C-47.01767272 10.9154745 -47.01767272 10.9154745 -49.15625 12.6875 C-51 14 -51 14 -53.75 13.6875 C-54.4925 13.460625 -55.235 13.23375 -56 13 C-44.88282714 0.40053743 -15.34379555 -10.22919703 0 0 Z " fill="#826F63" transform="translate(85,2)"/>
<path d="M0 0 C0.99 0.33 1.98 0.66 3 1 C5.66222191 1.09116335 8.29770913 1.12603073 10.9597168 1.11352539 C11.76970123 1.11367142 12.57968567 1.11381744 13.41421509 1.1139679 C16.09257685 1.113271 18.77086913 1.10548903 21.44921875 1.09765625 C23.30581118 1.09579128 25.1624041 1.09436775 27.01899719 1.09336853 C31.90655881 1.0895496 36.79409074 1.07972461 41.68164062 1.06866455 C46.66861571 1.05843704 51.65559558 1.05386803 56.64257812 1.04882812 C66.42839847 1.03810181 76.21419676 1.02103284 86 1 C86 1.66 86 2.32 86 3 C57.29 3 28.58 3 -1 3 C-0.67 2.01 -0.34 1.02 0 0 Z " fill="#8C786B" transform="translate(25,181)"/>
<path d="M0 0 C6.27 0 12.54 0 19 0 C18.67 1.32 18.34 2.64 18 4 C13.12527044 6.55923302 8.23337548 6.23607345 3 5 C2.01 4.34 1.02 3.68 0 3 C0 2.01 0 1.02 0 0 Z " fill="#85634C" transform="translate(61,108)"/>
<path d="M0 0 C0.33 0 0.66 0 1 0 C0.99887207 0.56396484 0.99774414 1.12792969 0.99658203 1.70898438 C1.00881746 4.30715069 1.06662869 6.90247654 1.125 9.5 C1.12242188 10.386875 1.11984375 11.27375 1.1171875 12.1875 C1.31754604 18.99969034 3.16509915 23.16060157 8 28 C8.99 28.66 9.98 29.32 11 30 C11 30.66 11 31.32 11 32 C9.35 32 7.7 32 6 32 C6 31.34 6 30.68 6 30 C5.401875 29.7525 4.80375 29.505 4.1875 29.25 C1.59839262 27.77051007 0.54880019 26.54477084 -1 24 C-1.328125 21.40625 -1.328125 21.40625 -1.25 18.5 C-1.22421875 17.45328125 -1.1984375 16.4065625 -1.171875 15.328125 C-0.90734914 10.20594247 -0.50674808 5.10367711 0 0 Z " fill="#816E61" transform="translate(105,152)"/>
<path d="M0 0 C2.48279748 2.89002881 3.41425728 4.6789578 3.375 8.5 C3.38273438 9.2528125 3.39046875 10.005625 3.3984375 10.78125 C3 13 3 13 1.51953125 14.859375 C-0.57066886 17.80392426 -0.50883286 20.17665724 -0.6875 23.75 C-0.75324219 24.92046875 -0.81898437 26.0909375 -0.88671875 27.296875 C-0.92410156 28.18890625 -0.96148437 29.0809375 -1 30 C-1.66 30 -2.32 30 -3 30 C-2.24770642 8.99082569 -2.24770642 8.99082569 0 0 Z " fill="#80685C" transform="translate(12,42)"/>
<path d="M0 0 C0.99 0.66 1.98 1.32 3 2 C3 2.66 3 3.32 3 4 C1.38379104 4.92846047 -0.2334929 5.85508865 -1.85546875 6.7734375 C-3.36711628 7.63802279 -4.86892688 8.51991989 -6.36328125 9.4140625 C-7.15089844 9.87554687 -7.93851563 10.33703125 -8.75 10.8125 C-9.48734375 11.25207031 -10.2246875 11.69164062 -10.984375 12.14453125 C-13 13 -13 13 -16 12 C-14.60048147 7.8014444 -12.44825874 7.40804359 -8.5625 5.4375 C-3.94895208 3.17661783 -3.94895208 3.17661783 0 0 Z " fill="#805E48" transform="translate(100,147)"/>
<path d="M0 0 C2.475 0.495 2.475 0.495 5 1 C8.64018385 10.75049245 8.64018385 10.75049245 8 16 C7.34 16.66 6.68 17.32 6 18 C4.66666667 14.66666667 3.33333333 11.33333333 2 8 C1.43925781 6.69095703 1.43925781 6.69095703 0.8671875 5.35546875 C0 3 0 3 0 0 Z " fill="#7E6452" transform="translate(120,31)"/>
<path d="M0 0 C0.66 0 1.32 0 2 0 C2.02893932 3.62498334 2.04677792 7.24993713 2.0625 10.875 C2.07087891 11.90753906 2.07925781 12.94007812 2.08789062 14.00390625 C2.09111328 14.99003906 2.09433594 15.97617188 2.09765625 16.9921875 C2.10289307 17.90339355 2.10812988 18.81459961 2.11352539 19.75341797 C2 22 2 22 1 24 C-1.0625 24.625 -1.0625 24.625 -3 25 C-2.86722656 24.36835937 -2.73445312 23.73671875 -2.59765625 23.0859375 C-1.08297549 15.41302914 -0.43287604 7.80316013 0 0 Z " fill="#81614B" transform="translate(139,78)"/>
<path d="M0 0 C0.33 0 0.66 0 1 0 C1.33 8.25 1.66 16.5 2 25 C1.01 25.33 0.02 25.66 -1 26 C-2.81643696 17.52329419 -1.87230601 8.40951004 0 0 Z " fill="#7C5C47" transform="translate(128,53)"/>
<path d="M0 0 C2.08182246 3.1227337 2.25407348 3.82844911 2.1875 7.375 C2.18105469 8.12523437 2.17460937 8.87546875 2.16796875 9.6484375 C2 12 2 12 1.5234375 14.33203125 C0.87133878 17.65578818 0.65855102 20.9335772 0.4375 24.3125 C0.35371094 25.56675781 0.26992187 26.82101563 0.18359375 28.11328125 C0.12300781 29.06589844 0.06242187 30.01851562 0 31 C-0.33 31 -0.66 31 -1 31 C-1.33 23.08 -1.66 15.16 -2 7 C-1.34 6.67 -0.68 6.34 0 6 C0 4.02 0 2.04 0 0 Z " fill="#846554" transform="translate(127,41)"/>
<path d="M0 0 C1.32 0.99 2.64 1.98 4 3 C-0.43076923 8.78461538 -0.43076923 8.78461538 -3.3125 9.875 C-4.1478125 9.936875 -4.1478125 9.936875 -5 10 C-5 4.69520066 -3.4637943 3.81017373 0 0 Z " fill="#816759" transform="translate(33,173)"/>
<path d="M0 0 C0.99 0.33 1.98 0.66 3 1 C3.18451025 11.55808656 3.18451025 11.55808656 2 16 C1.67 16 1.34 16 1 16 C1 14.35 1 12.7 1 11 C0.34 11 -0.32 11 -1 11 C-1.125 3.375 -1.125 3.375 0 0 Z " fill="#8E6855" transform="translate(126,77)"/>
<path d="M0 0 C2.3125 0 2.3125 0 5 1 C6.38293093 3.55518097 7.21791649 6.20866129 8 9 C7.01 9.495 7.01 9.495 6 10 C5.67 10.99 5.34 11.98 5 13 C4.16209211 11.21046815 3.32980604 9.41830305 2.5 7.625 C1.80390625 6.12839844 1.80390625 6.12839844 1.09375 4.6015625 C0 2 0 2 0 0 Z " fill="#7D6457" transform="translate(17,121)"/>
<path d="M0 0 C0.8971875 0.309375 0.8971875 0.309375 1.8125 0.625 C0.8225 1.12 0.8225 1.12 -0.1875 1.625 C-0.1875 2.945 -0.1875 4.265 -0.1875 5.625 C-1.8375 5.955 -3.4875 6.285 -5.1875 6.625 C-5.5175 7.615 -5.8475 8.605 -6.1875 9.625 C-7.06241004 7.1752519 -7.31650603 5.99051707 -6.4375 3.5 C-4.67312853 0.85344279 -3.26916404 -0.56042812 0 0 Z " fill="#6D4E3D" transform="translate(97.1875,72.375)"/>
<path d="M0 0 C3.1414436 1.83250877 6.22602027 3.63698023 9 6 C9 6.66 9 7.32 9 8 C7.35 8 5.7 8 4 8 C4 7.34 4 6.68 4 6 C2.68 5.34 1.36 4.68 0 4 C0 2.68 0 1.36 0 0 Z " fill="#766358" transform="translate(107,176)"/>
<path d="M0 0 C1.0209375 0.433125 1.0209375 0.433125 2.0625 0.875 C5.32893093 2.12597355 8.62846123 3.07447955 12 4 C11.01 5.485 11.01 5.485 10 7 C2.375 5.25 2.375 5.25 -1 3 C-0.67 2.01 -0.34 1.02 0 0 Z " fill="#89644C" transform="translate(50,123)"/>
<path d="M0 0 C2.86001033 1.28207359 5.07039412 2.49151236 7 5 C7 6.32 7 7.64 7 9 C3.18315774 7.44499019 0.80804268 4.96404505 -2 2 C-1.34 1.34 -0.68 0.68 0 0 Z " fill="#775F52" transform="translate(107,12)"/>
<path d="M0 0 C0.99 0 1.98 0 3 0 C3 0.66 3 1.32 3 2 C3.66 2.33 4.32 2.66 5 3 C5.125 5.875 5.125 5.875 5 9 C4.34 9.66 3.68 10.32 3 11 C0 4.5 0 4.5 0 0 Z " fill="#7D5848" transform="translate(123,38)"/>
<path d="M0 0 C2.475 0.99 2.475 0.99 5 2 C0.5 6 0.5 6 -4 6 C-4.66 5.67 -5.32 5.34 -6 5 C-4.02 3.35 -2.04 1.7 0 0 Z " fill="#826759" transform="translate(35,9)"/>
<path d="M0 0 C4.71403788 0.47939368 8.66579301 0.96834048 13 3 C12.01 3.33 11.02 3.66 10 4 C10.33 4.99 10.66 5.98 11 7 C8.36 6.34 5.72 5.68 3 5 C4.32 4.67 5.64 4.34 7 4 C7 3.34 7 2.68 7 2 C4.69 1.67 2.38 1.34 0 1 C0 0.67 0 0.34 0 0 Z " fill="#8A6C61" transform="translate(85,2)"/>
<path d="M0 0 C0.66 1.32 1.32 2.64 2 4 C-0.8125 5.5625 -0.8125 5.5625 -4 7 C-4.99 6.67 -5.98 6.34 -7 6 C-6 3 -6 3 -2.9375 1.3125 C-1.968125 0.879375 -0.99875 0.44625 0 0 Z " fill="#87634E" transform="translate(91,153)"/>
<path d="M0 0 C1 2 2 4 3 6 C2.34 6 1.68 6 1 6 C-0.3640201 8.01676899 -1.50432746 10.12066651 -2.68359375 12.25 C-3.11800781 12.8275 -3.55242187 13.405 -4 14 C-4.99 14 -5.98 14 -7 14 C-6.38125 13.0409375 -6.38125 13.0409375 -5.75 12.0625 C-3.52393458 8.16688552 -1.76798019 4.11930409 0 0 Z " fill="#88604C" transform="translate(119,120)"/>
<path d="M0 0 C3.96 0.33 7.92 0.66 12 1 C12 1.33 12 1.66 12 2 C9.69 2.33 7.38 2.66 5 3 C5 3.66 5 4.32 5 5 C2.525 4.01 2.525 4.01 0 3 C0 2.01 0 1.02 0 0 Z " fill="#8B6852" transform="translate(61,108)"/>
<path d="M0 0 C2.875 0.625 2.875 0.625 6 2 C7.375 5.125 7.375 5.125 8 8 C3.79373966 6.49776416 2.26099979 3.71449966 0 0 Z " fill="#EBC4AB" transform="translate(30,137)"/>
<path d="M0 0 C1.875 0.3125 1.875 0.3125 4 1 C6 4 6 4 6 7 C6.66 7.33 7.32 7.66 8 8 C7.01 8 6.02 8 5 8 C0 2.65116279 0 2.65116279 0 0 Z " fill="#6E5B53" transform="translate(23,134)"/>
<path d="M0 0 C2.64 1.65 5.28 3.3 8 5 C7.34 5.66 6.68 6.32 6 7 C3.375 6.625 3.375 6.625 1 6 C0.67 4.02 0.34 2.04 0 0 Z " fill="#7C5F4E" transform="translate(5,102)"/>
<path d="M0 0 C2.35448165 2.55068845 2.98327924 3.71017358 3.1875 7.25 C3.125625 8.1575 3.06375 9.065 3 10 C2.34 8.68 1.68 7.36 1 6 C0.34 6 -0.32 6 -1 6 C-1.66 4.35 -2.32 2.7 -3 1 C-2.01 0.67 -1.02 0.34 0 0 Z " fill="#89644E" transform="translate(12,73)"/>
<path d="M0 0 C0.33 0.66 0.66 1.32 1 2 C1.66 2 2.32 2 3 2 C2.67 3.98 2.34 5.96 2 8 C0.68 8.33 -0.64 8.66 -2 9 C-1.34 6.03 -0.68 3.06 0 0 Z " fill="#766154" transform="translate(138,94)"/>
<path d="M0 0 C0 0.66 0 1.32 0 2 C-1.75 3.6875 -1.75 3.6875 -4 5 C-6.25 4.6875 -6.25 4.6875 -8 4 C-8 3.34 -8 2.68 -8 2 C-4.91190305 0.23537317 -3.76687864 0 0 0 Z " fill="#7F685F" transform="translate(8,70)"/>
<path d="M0 0 C0.33 0 0.66 0 1 0 C1.33 2.97 1.66 5.94 2 9 C1.01 9 0.02 9 -1 9 C-1.09765625 2.84765625 -1.09765625 2.84765625 -1 1 C-0.67 0.67 -0.34 0.34 0 0 Z " fill="#795540" transform="translate(13,78)"/>
<path d="M0 0 C0.33 0.99 0.66 1.98 1 3 C-1.97 5.475 -1.97 5.475 -5 8 C-4.1875 4.5625 -4.1875 4.5625 -3 1 C-2.01 0.67 -1.02 0.34 0 0 Z " fill="#735848" transform="translate(31,14)"/>
<path d="M0 0 C0.33 0.66 0.66 1.32 1 2 C0.06421005 4.35981813 -0.93347808 6.69631264 -2 9 C-2.99 9 -3.98 9 -5 9 C-4.3566152 7.686298 -3.71021785 6.37407102 -3.0625 5.0625 C-2.70285156 4.33160156 -2.34320312 3.60070312 -1.97265625 2.84765625 C-1 1 -1 1 0 0 Z " fill="#795E51" transform="translate(27,16)"/>
<path d="M0 0 C1.41377341 2.63904371 2.37240135 5.07120629 3 8 C1.68 7.34 0.36 6.68 -1 6 C-1.042721 4.33388095 -1.04063832 2.66617115 -1 1 C-0.67 0.67 -0.34 0.34 0 0 Z " fill="#715846" transform="translate(18,115)"/>
<path d="M0 0 C1.65 0 3.3 0 5 0 C5.33 0.99 5.66 1.98 6 3 C4.02 3 2.04 3 0 3 C0 2.01 0 1.02 0 0 Z " fill="#72543E" transform="translate(66,110)"/>
<path d="M0 0 C0.33 0.99 0.66 1.98 1 3 C0.34 3 -0.32 3 -1 3 C-1.33 3.99 -1.66 4.98 -2 6 C-3.32 5.34 -4.64 4.68 -6 4 C-6 3.34 -6 2.68 -6 2 C-4.02 2 -2.04 2 0 2 C0 1.34 0 0.68 0 0 Z " fill="#826559" transform="translate(14,106)"/>
<path d="M0 0 C2.97 0.33 5.94 0.66 9 1 C9 1.33 9 1.66 9 2 C4.545 2.495 4.545 2.495 0 3 C0 2.01 0 1.02 0 0 Z " fill="#725645" transform="translate(63,1)"/>
<path d="M0 0 C2.29013653 3.4352048 2.17842973 4.985331 2 9 C1.01 8.67 0.02 8.34 -1 8 C-1.33 7.01 -1.66 6.02 -2 5 C-1.34 4.67 -0.68 4.34 0 4 C0 2.68 0 1.36 0 0 Z " fill="#876857" transform="translate(2,93)"/>
<path d="M0 0 C0.66 0 1.32 0 2 0 C2 1.65 2 3.3 2 5 C2.66 5.33 3.32 5.66 4 6 C2.02 6.99 2.02 6.99 0 8 C0 5.36 0 2.72 0 0 Z " fill="#FCD0B8" transform="translate(128,91)"/>
<path d="M0 0 C3.37503669 1.1858237 5.64722731 2.27573689 8 5 C6.35 4.67 4.7 4.34 3 4 C3 3.34 3 2.68 3 2 C1.68 1.67 0.36 1.34 -1 1 C-0.67 0.67 -0.34 0.34 0 0 Z " fill="#7C6B60" transform="translate(98,6)"/>
</svg>
