<?xml version="1.0" encoding="UTF-8"?>
<svg version="1.1" xmlns="http://www.w3.org/2000/svg" width="60" height="60">
<path d="M0 0 C1.3488873 0.00025096 2.69778106 0.00580724 4.04663086 0.01586914 C5.3435083 0.0183667 6.64038574 0.02086426 7.9765625 0.0234375 C9.6380835 0.0325415 11.29960449 0.04164551 13.01147461 0.05102539 C18.27084961 0.07165039 23.53022461 0.09227539 28.94897461 0.11352539 C28.94897461 19.91352539 28.94897461 39.71352539 28.94897461 60.11352539 C28.61897461 60.11352539 28.28897461 60.11352539 27.94897461 60.11352539 C27.45397461 51.20352539 27.45397461 51.20352539 26.94897461 42.11352539 C24.96897461 48.05352539 22.98897461 53.99352539 20.94897461 60.11352539 C7.08897461 60.11352539 -6.77102539 60.11352539 -21.05102539 60.11352539 C-19.31871263 54.91658711 -17.58579371 49.83536169 -15.66040039 44.72680664 C-12.55688945 36.07815453 -10.44060178 27.2278833 -8.30102539 18.30102539 C-7.70572707 15.83681759 -7.10827766 13.37317754 -6.5067749 10.91047668 C-6.13668005 9.39343355 -5.77036352 7.87546249 -5.40826416 6.35649109 C-3.90046531 0.14513214 -3.90046531 0.14513214 0 0 Z " fill="#FCD5BB" transform="translate(31.051025390625,-0.113525390625)"/>
<path d="M0 0 C1.134375 0.020625 2.26875 0.04125 3.4375 0.0625 C3.1075 1.7125 2.7775 3.3625 2.4375 5.0625 C1.7775 5.0625 1.1175 5.0625 0.4375 5.0625 C0.38851563 5.76375 0.33953125 6.465 0.2890625 7.1875 C-0.17133942 13.02984159 -0.96653951 18.42343962 -2.5625 24.0625 C-3.2225 24.0625 -3.8825 24.0625 -4.5625 24.0625 C-4.52125 25.3 -4.48 26.5375 -4.4375 27.8125 C-4.41878808 33.67868748 -5.47331967 39.31512878 -6.5625 45.0625 C-8.0475 45.5575 -8.0475 45.5575 -9.5625 46.0625 C-10.5172877 47.99061046 -10.5172877 47.99061046 -11.125 50.3125 C-11.36992187 51.12074219 -11.61484375 51.92898437 -11.8671875 52.76171875 C-12.09664062 53.52097656 -12.32609375 54.28023437 -12.5625 55.0625 C-13.21146236 56.73613977 -13.86830437 58.40711042 -14.5625 60.0625 C-16.8725 60.0625 -19.1825 60.0625 -21.5625 60.0625 C-20.2520764 56.06225955 -18.94461797 52.07548028 -17.45874023 48.13647461 C-13.7848991 38.33833217 -11.24820929 28.41239983 -8.8125 18.25 C-8.21720168 15.7857922 -7.61975227 13.32215215 -7.01824951 10.85945129 C-6.64815466 9.34240816 -6.28183813 7.8244371 -5.91973877 6.3054657 C-4.40786763 0.07733101 -4.40786763 0.07733101 0 0 Z " fill="#997364" transform="translate(31.5625,-0.0625)"/>
<path d="M0 0 C0.66 0 1.32 0 2 0 C2 19.8 2 39.6 2 60 C1.67 60 1.34 60 1 60 C0.67 54.06 0.34 48.12 0 42 C-1.98 47.94 -3.96 53.88 -6 60 C-8.64 60 -11.28 60 -14 60 C-13.69147815 58.041036 -13.3780582 56.08284287 -13.0625 54.125 C-12.88847656 53.03445312 -12.71445312 51.94390625 -12.53515625 50.8203125 C-12 48 -12 48 -11 46 C-10.34 46 -9.68 46 -9 46 C-8.87625 44.7625 -8.7525 43.525 -8.625 42.25 C-8.24253695 39.1237803 -7.69450477 36.71120763 -6 34 C-5.34 34 -4.68 34 -4 34 C-3.95101562 33.25234375 -3.90203125 32.5046875 -3.8515625 31.734375 C-3.77679688 30.74953125 -3.70203125 29.7646875 -3.625 28.75 C-3.55539063 27.77546875 -3.48578125 26.8009375 -3.4140625 25.796875 C-3 23 -3 23 -2 21.109375 C-0.88004045 18.74696032 -0.69139632 17.05444267 -0.5859375 14.453125 C-0.54726563 13.60878906 -0.50859375 12.76445312 -0.46875 11.89453125 C-0.4378125 11.02183594 -0.406875 10.14914062 -0.375 9.25 C-0.33632813 8.36183594 -0.29765625 7.47367187 -0.2578125 6.55859375 C-0.16379127 4.3726002 -0.07813857 2.18660938 0 0 Z " fill="#AF9487" transform="translate(58,0)"/>
<path d="M0 0 C2 2 2 2 2.125 5.625 C2.08375 6.73875 2.0425 7.8525 2 9 C2.99 9 3.98 9 5 9 C5.33 8.34 5.66 7.68 6 7 C5.27595226 11.04704581 4.16553713 14.89070402 2.9375 18.8125 C2.57527344 19.97394531 2.21304688 21.13539062 1.83984375 22.33203125 C1.56269531 23.21246094 1.28554688 24.09289062 1 25 C-1.64 25 -4.28 25 -7 25 C-6.69147815 23.041036 -6.3780582 21.08284287 -6.0625 19.125 C-5.88847656 18.03445312 -5.71445312 16.94390625 -5.53515625 15.8203125 C-5 13 -5 13 -4 11 C-3.34 11 -2.68 11 -2 11 C-1.7834375 9.1128125 -1.7834375 9.1128125 -1.5625 7.1875 C-1.26251314 4.57332877 -0.84186703 2.52560108 0 0 Z " fill="#A37F6D" transform="translate(51,35)"/>
<path d="M0 0 C0.66 0 1.32 0 2 0 C2 9.57 2 19.14 2 29 C0.35 29 -1.3 29 -3 29 C-3.25047746 23.48949597 -3.25047746 23.48949597 -2.01806641 21.08105469 C-0.86704481 18.72822301 -0.6915684 17.05868731 -0.5859375 14.453125 C-0.54726563 13.60878906 -0.50859375 12.76445312 -0.46875 11.89453125 C-0.4378125 11.02183594 -0.406875 10.14914062 -0.375 9.25 C-0.33632813 8.36183594 -0.29765625 7.47367187 -0.2578125 6.55859375 C-0.16379127 4.3726002 -0.07813857 2.18660938 0 0 Z " fill="#9D745F" transform="translate(58,0)"/>
<path d="M0 0 C2 2 2 2 2.125 5.625 C2.08375 6.73875 2.0425 7.8525 2 9 C2.99 9 3.98 9 5 9 C5.33 8.34 5.66 7.68 6 7 C5.45276317 10.37462715 4.9451 12.08235 3 15 C2.01 14.34 1.02 13.68 0 13 C0 12.01 0 11.02 0 10 C-0.66 10 -1.32 10 -2 10 C-1.34 6.7 -0.68 3.4 0 0 Z " fill="#A48370" transform="translate(51,35)"/>
<path d="M0 0 C0.66 0 1.32 0 2 0 C2.33 0.99 2.66 1.98 3 3 C3.66 3.33 4.32 3.66 5 4 C4.25 8.75 4.25 8.75 2 11 C0.68 10.67 -0.64 10.34 -2 10 C-1.34 6.7 -0.68 3.4 0 0 Z " fill="#907160" transform="translate(49,45)"/>
<path d="M0 0 C0.99 0.33 1.98 0.66 3 1 C2.39301257 5.12751449 0.96189209 8.3321148 -1 12 C-2.45606519 7.47907032 -1.27032841 4.48351204 0 0 Z " fill="#A88272" transform="translate(24,13)"/>
<path d="M0 0 C2.31 0 4.62 0 7 0 C6.67 1.65 6.34 3.3 6 5 C5.34 5 4.68 5 4 5 C3.67 5.66 3.34 6.32 3 7 C2.690625 6.21625 2.38125 5.4325 2.0625 4.625 C1.07124962 2.07669872 1.07124962 2.07669872 0 0 Z " fill="#966D5C" transform="translate(28,0)"/>
<path d="M0 0 C2.08954032 4.17908064 2.16552619 4.80410573 1 9 C-0.32 9 -1.64 9 -3 9 C-2.01 6.03 -1.02 3.06 0 0 Z " fill="#A47F75" transform="translate(13,51)"/>
<path d="M0 0 C0.66 0.99 1.32 1.98 2 3 C1.25 6.125 1.25 6.125 0 9 C-0.99 9.495 -0.99 9.495 -2 10 C-1.34 6.7 -0.68 3.4 0 0 Z " fill="#B28474" transform="translate(19,33)"/>
</svg>
