<?xml version="1.0" encoding="UTF-8"?>
<svg version="1.1" xmlns="http://www.w3.org/2000/svg" width="100" height="96">
<path d="M0 0 C1.2065625 0.0309375 1.2065625 0.0309375 2.4375 0.0625 C4.74285794 4.93398274 5.45130144 10.02236675 6.34765625 15.2890625 C6.60620644 16.76601089 6.60620644 16.76601089 6.86997986 18.27279663 C7.41844766 21.41016367 7.95963675 24.54872781 8.5 27.6875 C9.04502244 30.83320906 9.59160012 33.97863234 10.14073181 37.12362671 C10.48172517 39.0785912 10.82015756 41.03400446 11.15577698 42.98989868 C11.38622963 44.31675186 11.38622963 44.31675186 11.62133789 45.67041016 C11.75520401 46.44808746 11.88907013 47.22576477 12.0269928 48.02700806 C12.4322543 50.25082499 12.4322543 50.25082499 13.4375 53.0625 C13.84742188 52.07507813 14.25734375 51.08765625 14.6796875 50.0703125 C15.22370174 48.77593379 15.76798669 47.48166884 16.3125 46.1875 C16.58191406 45.53652344 16.85132812 44.88554688 17.12890625 44.21484375 C18.32173286 41.39279055 19.25007989 39.24992011 21.4375 37.0625 C24.01814129 36.91752015 26.48693884 36.87572455 29.0625 36.9375 C29.76890625 36.94652344 30.4753125 36.95554688 31.203125 36.96484375 C32.94806098 36.98842397 34.69282295 37.02429539 36.4375 37.0625 C37.4275 39.0425 37.4275 39.0425 38.4375 41.0625 C37.7775 42.0525 37.1175 43.0425 36.4375 44.0625 C32.8075 44.3925 29.1775 44.7225 25.4375 45.0625 C21.8075 53.3125 18.1775 61.5625 14.4375 70.0625 C12.7875 70.0625 11.1375 70.0625 9.4375 70.0625 C7.53405222 67.20732833 7.0532399 65.93174555 6.47607422 62.68286133 C6.31605927 61.80217484 6.15604431 60.92148834 5.99118042 60.01411438 C5.82651276 59.06715195 5.66184509 58.12018951 5.4921875 57.14453125 C5.31744904 56.17215012 5.14271057 55.19976898 4.962677 54.19792175 C4.40600144 51.09142011 3.85914282 47.98328115 3.3125 44.875 C2.93684307 42.76876504 2.5605488 40.66264365 2.18359375 38.55664062 C1.2596221 33.39338938 0.34894134 28.22804079 -0.5625 23.0625 C-3.2025 33.6225 -5.8425 44.1825 -8.5625 55.0625 C-10.2125 55.0625 -11.8625 55.0625 -13.5625 55.0625 C-15.52081944 52.41612238 -17.00199251 49.94279841 -18.5625 47.0625 C-19.25729723 45.84456931 -19.95546074 44.62855531 -20.65625 43.4140625 C-22.64114005 39.9725369 -24.6055308 36.51997412 -26.5625 33.0625 C-28.5425 36.6925 -30.5225 40.3225 -32.5625 44.0625 C-35.02112401 44.11633848 -37.4785755 44.15609038 -39.9375 44.1875 C-40.63617188 44.20425781 -41.33484375 44.22101562 -42.0546875 44.23828125 C-43.89147486 44.25594267 -45.72851963 44.16553261 -47.5625 44.0625 C-48.2225 43.4025 -48.8825 42.7425 -49.5625 42.0625 C-49.1875 39.4375 -49.1875 39.4375 -48.5625 37.0625 C-47.7890625 37.16433594 -47.015625 37.26617187 -46.21875 37.37109375 C-42.51625075 37.52230968 -40.04731143 37.38842825 -36.5625 36.0625 C-32.77969239 31.81571165 -30.69202277 26.26730418 -28.5625 21.0625 C-26.9125 21.0625 -25.2625 21.0625 -23.5625 21.0625 C-20.2625 27.3325 -16.9625 33.6025 -13.5625 40.0625 C-11.69610394 34.46331182 -10.05437998 29.3401944 -8.7734375 23.65625 C-8.6246817 23.00547485 -8.4759259 22.35469971 -8.32266235 21.6842041 C-7.85670673 19.64457013 -7.39648255 17.60371352 -6.9375 15.5625 C-6.47104904 13.4928042 -6.00325466 11.42346267 -5.53091431 9.35510254 C-5.10732644 7.49992655 -4.68902015 5.64354697 -4.27099609 3.78710938 C-3.30718722 0.0806631 -3.30718722 0.0806631 0 0 Z " fill="#000000" transform="translate(53.5625,12.9375)"/>
</svg>
