<?xml version="1.0" encoding="UTF-8"?>
<svg version="1.1" xmlns="http://www.w3.org/2000/svg" width="72" height="72">
<path d="M0 0 C4 3 4 3 4.4699707 5.98681641 C4.45538818 7.17968262 4.44080566 8.37254883 4.42578125 9.6015625 C4.41321289 11.54289062 4.41321289 11.54289062 4.40039062 13.5234375 C4.37875854 14.53229004 4.37875854 14.53229004 4.35668945 15.56152344 C4.31250861 17.62459813 4.29524015 19.68651026 4.28320312 21.75 C4.16748564 31.83251436 4.16748564 31.83251436 3 33 C0.13530675 33.07330331 -2.69893674 33.09217831 -5.5625 33.0625 C-9.7390625 33.0315625 -9.7390625 33.0315625 -14 33 C-14 26.4 -14 19.8 -14 13 C-17.96 13 -21.92 13 -26 13 C-26 19.6 -26 26.2 -26 33 C-28.784375 33.020625 -31.56875 33.04125 -34.4375 33.0625 C-35.31591553 33.071604 -36.19433105 33.08070801 -37.09936523 33.09008789 C-39.06645974 33.09723091 -41.03353621 33.05031893 -43 33 C-45.77366777 30.22633223 -44.28500537 21.86060406 -44.3125 18.125 C-44.34150391 16.81917969 -44.37050781 15.51335938 -44.40039062 14.16796875 C-44.40876953 12.91886719 -44.41714844 11.66976562 -44.42578125 10.3828125 C-44.44036377 9.23184082 -44.45494629 8.08086914 -44.4699707 6.89501953 C-44 4 -44 4 -40 1 C-40 10.24 -40 19.48 -40 29 C-36.7 29 -33.4 29 -30 29 C-30 22.4 -30 15.8 -30 9 C-23.4 9 -16.8 9 -10 9 C-10 15.6 -10 22.2 -10 29 C-6.7 29 -3.4 29 0 29 C0 19.43 0 9.86 0 0 Z " fill="#000000" transform="translate(56,35)"/>
<path d="M0 0 C3.74360496 1.904859 6.40055299 4.60126465 9.33422852 7.57397461 C9.97083908 8.20675827 10.60744965 8.83954193 11.26335144 9.49150085 C12.60366785 10.82909984 13.9389643 12.1717454 15.26953125 13.51904297 C17.31094751 15.58190421 19.3728511 17.62253449 21.43774414 19.66186523 C22.73785706 20.96462076 24.03672895 22.26861624 25.33422852 23.57397461 C26.26221001 24.48981071 26.26221001 24.48981071 27.2089386 25.42414856 C28.05563362 26.28975655 28.05563362 26.28975655 28.91943359 27.17285156 C29.41953445 27.6761348 29.91963531 28.17941803 30.43489075 28.69795227 C31.50219727 30.27319336 31.50219727 30.27319336 31.50219727 34.27319336 C26.33287518 33.93470097 23.73848071 31.02985134 20.32641602 27.48803711 C19.75639359 26.91235489 19.18637115 26.33667267 18.59907532 25.74354553 C16.78632163 23.90845844 14.98799475 22.0599382 13.18969727 20.21069336 C11.96080649 18.96173377 10.73099863 17.71367582 9.50024414 16.46655273 C6.49016613 13.41244767 3.49294894 10.34622156 0.50219727 7.27319336 C-3.58773744 8.88169027 -6.24045791 11.82864768 -9.21655273 14.93725586 C-10.32435306 16.07033493 -11.43243446 17.20313926 -12.54077148 18.33569336 C-14.27600867 20.12067762 -16.00789886 21.90867834 -17.73461914 23.7019043 C-19.40736072 25.43494623 -21.09223548 27.15542718 -22.77905273 28.87475586 C-23.29270386 29.41532623 -23.80635498 29.95589661 -24.33557129 30.5128479 C-25.81225586 32.01000977 -25.81225586 32.01000977 -28.49780273 34.27319336 C-29.81780273 34.27319336 -31.13780273 34.27319336 -32.49780273 34.27319336 C-32.21047862 28.78426745 -28.91253153 26.07542456 -25.23217773 22.40600586 C-24.60176575 21.76702362 -23.97135376 21.12804138 -23.32183838 20.46969604 C-21.98863013 19.12502124 -20.6501751 17.78553092 -19.30688477 16.45092773 C-17.25134123 14.40172095 -15.22390175 12.32727126 -13.19702148 10.24975586 C-11.89786325 8.94605315 -10.5971335 7.6439142 -9.29467773 6.34350586 C-8.68928162 5.71969025 -8.0838855 5.09587463 -7.46014404 4.45315552 C-3.27480178 0.35817644 -3.27480178 0.35817644 0 0 Z " fill="#000000" transform="translate(36.497802734375,3.726806640625)"/>
</svg>
