<svg width="16" height="16" viewBox="0 0 16 16" fill="none" xmlns="http://www.w3.org/2000/svg">
<path d="M10.5129 13.0616C10.6788 13.0616 10.8201 13.0036 10.9369 12.8876C11.053 12.7722 11.1111 12.6321 11.1111 12.4672C11.1111 12.3018 11.053 12.1613 10.9369 12.0459C10.8207 11.9299 10.6794 11.8719 10.5129 11.8719C10.3464 11.8719 10.205 11.9299 10.0889 12.0459C9.97274 12.1619 9.91467 12.3023 9.91467 12.4672C9.91467 12.6321 9.97274 12.7722 10.0889 12.8876C10.205 13.0036 10.3464 13.0616 10.5129 13.0616ZM12.4444 13.0616C12.6104 13.0616 12.7517 13.0036 12.8684 12.8876C12.9846 12.7722 13.0427 12.6321 13.0427 12.4672C13.0427 12.3018 12.9846 12.1613 12.8684 12.0459C12.7523 11.9299 12.611 11.8719 12.4444 11.8719C12.2779 11.8719 12.1366 11.9299 12.0204 12.0459C11.9043 12.1619 11.8462 12.3023 11.8462 12.4672C11.8462 12.6321 11.9043 12.7722 12.0204 12.8876C12.1366 13.0036 12.2779 13.0616 12.4444 13.0616ZM14.376 13.0616C14.5419 13.0616 14.6833 13.0036 14.8 12.8876C14.9161 12.7722 14.9742 12.6321 14.9742 12.4672C14.9742 12.3018 14.9161 12.1613 14.8 12.0459C14.6838 11.9299 14.5425 11.8719 14.376 11.8719C14.2095 11.8719 14.0681 11.9299 13.952 12.0459C13.8358 12.1619 13.7778 12.3023 13.7778 12.4672C13.7778 12.6321 13.8358 12.7722 13.952 12.8876C14.0681 13.0036 14.2095 13.0616 14.376 13.0616ZM1.43644 14.1312C1.04119 14.1312 0.703111 13.9913 0.422222 13.7116C0.141333 13.432 0.000592592 13.0966 0 12.7057V1.42636C0 1.03422 0.140741 0.698609 0.422222 0.419519C0.703703 0.140428 1.04148 0.000588798 1.43556 0H12.7867C13.1813 0 13.5191 0.139839 13.8 0.419519C14.0809 0.699198 14.2216 1.03481 14.2222 1.42636V5.9448C14.2222 6.06963 14.1796 6.17443 14.0942 6.25922C14.0089 6.34401 13.9031 6.3864 13.7769 6.3864C13.6507 6.3864 13.5452 6.34401 13.4604 6.25922C13.3757 6.17443 13.3333 6.06963 13.3333 5.9448V1.42725C13.3333 1.29123 13.2764 1.16641 13.1627 1.05277C13.0489 0.939133 12.9233 0.882608 12.7858 0.883197H1.43644C1.29956 0.883197 1.17393 0.939722 1.05956 1.05277C0.945185 1.16582 0.888296 1.29065 0.888889 1.42725V12.7048C0.888889 12.8402 0.945778 12.9647 1.05956 13.0784C1.17333 13.192 1.29867 13.2485 1.43556 13.248H5.98311C6.10874 13.248 6.21422 13.2904 6.29955 13.3751C6.38489 13.4599 6.42755 13.565 6.42755 13.6904C6.42755 13.8159 6.38489 13.9207 6.29955 14.0049C6.21422 14.0891 6.10874 14.1312 5.98311 14.1312H1.43644ZM0.888889 12.3709V13.248V0.883197V6.45264V6.3864V12.3709ZM3.11111 10.3952C3.11111 10.5206 3.15378 10.6255 3.23911 10.7096C3.32444 10.7938 3.42993 10.8359 3.55555 10.8359H6.18667C6.31229 10.8359 6.41778 10.7936 6.50311 10.7088C6.58844 10.624 6.63081 10.5192 6.63022 10.3943C6.62963 10.2695 6.58726 10.1647 6.50311 10.0799C6.41896 9.99514 6.31318 9.95275 6.18578 9.95275H3.55555C3.42933 9.95275 3.32385 9.99514 3.23911 10.0799C3.15378 10.1647 3.11111 10.2698 3.11111 10.3952ZM3.11111 7.06558C3.11111 7.19158 3.15378 7.29668 3.23911 7.38088C3.32444 7.46508 3.42993 7.50718 3.55555 7.50718H9.31555C9.44178 7.50718 9.54755 7.46478 9.63289 7.38C9.71822 7.29521 9.76089 7.19011 9.76089 7.06469C9.76089 6.93928 9.71822 6.83447 9.63289 6.75028C9.54755 6.66608 9.44207 6.62398 9.31644 6.62398H3.55555C3.42933 6.62398 3.32385 6.66637 3.23911 6.75116C3.15437 6.83595 3.1117 6.94105 3.11111 7.06646M3.11111 3.73681C3.11111 3.86222 3.15378 3.96732 3.23911 4.05211C3.32444 4.1369 3.42993 4.1787 3.55555 4.17752H10.6667C10.7929 4.17752 10.8984 4.13513 10.9831 4.05034C11.0684 3.96556 11.1111 3.86046 11.1111 3.73504C11.1111 3.60963 11.0684 3.50482 10.9831 3.42062C10.8978 3.33642 10.7923 3.29462 10.6667 3.29521H3.55555C3.42933 3.29521 3.32385 3.3376 3.23911 3.42239C3.15437 3.50718 3.1117 3.61228 3.11111 3.73769M12.4444 16C11.4542 16 10.6142 15.657 9.92444 14.9711C9.23407 14.2857 8.88889 13.4511 8.88889 12.4672C8.88889 11.4833 9.23407 10.6484 9.92444 9.96246C10.6148 9.27651 11.4548 8.93383 12.4444 8.93442C13.4341 8.93501 14.2744 9.27769 14.9653 9.96246C15.6563 10.6472 16.0012 11.4822 16 12.4672C16 13.4505 15.6551 14.2851 14.9653 14.9711C14.2744 15.657 13.4341 16 12.4444 16Z" fill="#FFFFF2"/>
</svg>
