<svg width="12" height="10" viewBox="0 0 12 10" fill="none" xmlns="http://www.w3.org/2000/svg">
<path fill-rule="evenodd" clip-rule="evenodd" d="M5.71381 3.17051e-07C5.8274 -0.000123225 5.93809 0.0358607 6.02989 0.102755C6.12169 0.16965 6.18986 0.263993 6.22454 0.372158L8.57178 7.70746L9.49039 4.83734C9.52491 4.72916 9.59291 4.63474 9.68458 4.56772C9.77626 4.5007 9.88685 4.46455 10.0004 4.46447H10.8933C11.0354 4.46447 11.1717 4.52091 11.2721 4.62138C11.3726 4.72185 11.429 4.85812 11.429 5.00021C11.429 5.14229 11.3726 5.27856 11.2721 5.37903C11.1717 5.4795 11.0354 5.53594 10.8933 5.53594H10.3911L9.0818 9.62825C9.04708 9.73622 8.979 9.83039 8.88734 9.8972C8.79569 9.96401 8.6852 10 8.57178 10C8.45836 10 8.34787 9.96401 8.25622 9.8972C8.16456 9.83039 8.09648 9.73622 8.06176 9.62825L5.71809 2.30438L4.08231 7.48316C4.04856 7.58988 3.98224 7.68334 3.89266 7.75044C3.80307 7.81753 3.69472 7.85488 3.58282 7.85724C3.47092 7.85961 3.36109 7.82687 3.26876 7.76362C3.17642 7.70037 3.10621 7.60979 3.06798 7.50459L2.16509 5.02163L2.11509 5.17021C2.07957 5.27685 2.01142 5.36961 1.92027 5.43537C1.82912 5.50114 1.7196 5.53657 1.60721 5.53666H0.535736C0.39365 5.53666 0.257384 5.48021 0.156914 5.37974C0.0564435 5.27927 0 5.14301 0 5.00092C0 4.85883 0.0564435 4.72257 0.156914 4.6221C0.257384 4.52163 0.39365 4.46518 0.535736 4.46518H1.22148L1.63435 3.22442C1.66935 3.11874 1.73641 3.02658 1.8262 2.96077C1.91598 2.89495 2.02405 2.85874 2.13536 2.85717C2.24668 2.8556 2.35572 2.88874 2.44733 2.952C2.53894 3.01526 2.60857 3.10548 2.64654 3.21013L3.53586 5.65666L5.20378 0.375016C5.23793 0.266433 5.30578 0.171548 5.39748 0.104119C5.48918 0.0366899 5.59998 0.000221115 5.71381 3.17051e-07Z" fill="#FFFFF2"/>
</svg>
