<svg width="15" height="17" viewBox="0 0 15 17" fill="none" xmlns="http://www.w3.org/2000/svg">
<path d="M6 3.75C5.86739 3.75 5.74021 3.80268 5.64645 3.89645C5.55268 3.99021 5.5 4.11739 5.5 4.25C5.5 4.38261 5.55268 4.50979 5.64645 4.60355C5.74021 4.69732 5.86739 4.75 6 4.75H9C9.13261 4.75 9.25979 4.69732 9.35355 4.60355C9.44732 4.50979 9.5 4.38261 9.5 4.25C9.5 4.11739 9.44732 3.99021 9.35355 3.89645C9.25979 3.80268 9.13261 3.75 9 3.75H6ZM5 9.25C5 9.51522 4.89464 9.76957 4.70711 9.95711C4.51957 10.1446 4.26522 10.25 4 10.25C3.73478 10.25 3.48043 10.1446 3.29289 9.95711C3.10536 9.76957 3 9.51522 3 9.25C3 8.98478 3.10536 8.73043 3.29289 8.54289C3.48043 8.35536 3.73478 8.25 4 8.25C4.26522 8.25 4.51957 8.35536 4.70711 8.54289C4.89464 8.73043 5 8.98478 5 9.25ZM5 12.75C5 13.0152 4.89464 13.2696 4.70711 13.4571C4.51957 13.6446 4.26522 13.75 4 13.75C3.73478 13.75 3.48043 13.6446 3.29289 13.4571C3.10536 13.2696 3 13.0152 3 12.75C3 12.4848 3.10536 12.2304 3.29289 12.0429C3.48043 11.8554 3.73478 11.75 4 11.75C4.26522 11.75 4.51957 11.8554 4.70711 12.0429C4.89464 12.2304 5 12.4848 5 12.75ZM7.5 10.25C7.76522 10.25 8.01957 10.1446 8.20711 9.95711C8.39464 9.76957 8.5 9.51522 8.5 9.25C8.5 8.98478 8.39464 8.73043 8.20711 8.54289C8.01957 8.35536 7.76522 8.25 7.5 8.25C7.23478 8.25 6.98043 8.35536 6.79289 8.54289C6.60536 8.73043 6.5 8.98478 6.5 9.25C6.5 9.51522 6.60536 9.76957 6.79289 9.95711C6.98043 10.1446 7.23478 10.25 7.5 10.25ZM8.5 12.75C8.5 13.0152 8.39464 13.2696 8.20711 13.4571C8.01957 13.6446 7.76522 13.75 7.5 13.75C7.23478 13.75 6.98043 13.6446 6.79289 13.4571C6.60536 13.2696 6.5 13.0152 6.5 12.75C6.5 12.4848 6.60536 12.2304 6.79289 12.0429C6.98043 11.8554 7.23478 11.75 7.5 11.75C7.76522 11.75 8.01957 11.8554 8.20711 12.0429C8.39464 12.2304 8.5 12.4848 8.5 12.75ZM11 10.25C11.2652 10.25 11.5196 10.1446 11.7071 9.95711C11.8946 9.76957 12 9.51522 12 9.25C12 8.98478 11.8946 8.73043 11.7071 8.54289C11.5196 8.35536 11.2652 8.25 11 8.25C10.7348 8.25 10.4804 8.35536 10.2929 8.54289C10.1054 8.73043 10 8.98478 10 9.25C10 9.51522 10.1054 9.76957 10.2929 9.95711C10.4804 10.1446 10.7348 10.25 11 10.25Z" fill="#FFFFF2"/>
<path fill-rule="evenodd" clip-rule="evenodd" d="M3.5 0C3.63261 0 3.75979 0.0526785 3.85355 0.146447C3.94732 0.240215 4 0.367392 4 0.5V1.5H11V0.5C11 0.367392 11.0527 0.240215 11.1464 0.146447C11.2402 0.0526785 11.3674 0 11.5 0C11.6326 0 11.7598 0.0526785 11.8536 0.146447C11.9473 0.240215 12 0.367392 12 0.5V1.503C12.2447 1.505 12.4627 1.51367 12.654 1.529C13.019 1.559 13.339 1.622 13.635 1.772C14.1053 2.01189 14.4875 2.39451 14.727 2.865C14.878 3.161 14.941 3.481 14.971 3.845C15 4.2 15 4.637 15 5.179V12.821C15 13.363 15 13.801 14.971 14.154C14.941 14.519 14.878 14.839 14.727 15.135C14.4874 15.6051 14.1051 15.9874 13.635 16.227C13.339 16.378 13.019 16.441 12.655 16.471C12.3 16.5 11.863 16.5 11.322 16.5H3.679C3.137 16.5 2.699 16.5 2.346 16.471C1.981 16.441 1.661 16.378 1.365 16.227C0.894506 15.9875 0.511895 15.6053 0.272 15.135C0.122 14.839 0.0589998 14.519 0.0289998 14.155C-1.93715e-07 13.8 0 13.362 0 12.82V5.18C0 4.705 -1.86265e-08 4.312 0.02 3.983L0.0289998 3.847C0.0589998 3.482 0.122 3.162 0.272 2.866C0.511725 2.39535 0.894354 2.01272 1.365 1.773C1.661 1.623 1.981 1.56 2.345 1.53C2.53767 1.51467 2.756 1.506 3 1.504V0.5C3 0.367392 3.05268 0.240215 3.14645 0.146447C3.24021 0.0526785 3.36739 0 3.5 0ZM3 3V2.503C2.8088 2.50458 2.61771 2.51225 2.427 2.526C2.125 2.55 1.951 2.596 1.819 2.663C1.53651 2.80685 1.30685 3.03651 1.163 3.319C1.096 3.451 1.05 3.625 1.026 3.927C1 4.236 1 4.632 1 5.2V5.75H14V5.2C14 4.632 14 4.236 13.974 3.927C13.95 3.625 13.904 3.451 13.837 3.319C13.6931 3.03651 13.4635 2.80685 13.181 2.663C13.049 2.596 12.875 2.55 12.573 2.526C12.3823 2.51225 12.1912 2.50458 12 2.503V3C12 3.13261 11.9473 3.25979 11.8536 3.35355C11.7598 3.44732 11.6326 3.5 11.5 3.5C11.3674 3.5 11.2402 3.44732 11.1464 3.35355C11.0527 3.25979 11 3.13261 11 3V2.5H4V3C4 3.13261 3.94732 3.25979 3.85355 3.35355C3.75979 3.44732 3.63261 3.5 3.5 3.5C3.36739 3.5 3.24021 3.44732 3.14645 3.35355C3.05268 3.25979 3 3.13261 3 3ZM14 6.75H1V12.8C1 13.368 1 13.765 1.026 14.073C1.05 14.375 1.096 14.549 1.163 14.681C1.30685 14.9635 1.53651 15.1931 1.819 15.337C1.951 15.404 2.125 15.45 2.427 15.474C2.736 15.5 3.132 15.5 3.7 15.5H11.3C11.868 15.5 12.265 15.5 12.573 15.474C12.875 15.45 13.049 15.404 13.181 15.337C13.4635 15.1931 13.6931 14.9635 13.837 14.681C13.904 14.549 13.95 14.375 13.974 14.073C14 13.765 14 13.368 14 12.8V6.75Z" fill="#FFFFF2"/>
</svg>
