<svg width="16" height="14" viewBox="0 0 16 14" fill="none" xmlns="http://www.w3.org/2000/svg">
<path d="M11.7544 9.11139L15.3342 5.96084L15.4888 5.97239C15.6496 5.992 15.775 6.06166 15.865 6.18138C15.955 6.3011 16 6.42993 16 6.56785C16 6.64766 15.9856 6.72328 15.9567 6.79469C15.9278 6.8661 15.8749 6.92876 15.798 6.98267L12.9594 9.49261L13.8179 13.2995C13.8214 13.3191 13.8231 13.3412 13.8231 13.3657V13.4308C13.8231 13.5967 13.7698 13.7333 13.6633 13.8404C13.5561 13.9468 13.4246 14 13.2686 14C13.2198 14 13.1686 13.9972 13.115 13.9916C13.0614 13.986 13.0116 13.9632 12.9655 13.9233L12.8398 13.8446L11.7544 9.11139ZM9.7878 2.91846L8.7849 0.507239L8.8385 0.373865C8.88385 0.254845 8.95394 0.162778 9.04877 0.097667C9.14359 0.0325556 9.24495 0 9.35283 0C9.46071 0 9.56619 0.0325556 9.66926 0.097667C9.77234 0.162778 9.84689 0.252744 9.89293 0.367564L10.9927 3.03398L9.7878 2.91846ZM3.34574 11.9563L6.59254 9.96099L9.83933 11.9826L8.98898 8.20193L11.8493 5.68149L8.0871 5.34018L6.59254 1.76956L5.09798 5.31393L1.33582 5.65524L4.1961 8.20193L3.34574 11.9563ZM2.21607 12.2084L3.05302 8.57895L0.294788 6.13412C0.197213 6.04241 0.123687 5.94229 0.0742125 5.83377C0.0247375 5.72525 0 5.61673 0 5.50821C0 5.30798 0.0683715 5.12175 0.205115 4.94952C0.341858 4.77799 0.529794 4.68137 0.768923 4.65967L4.41049 4.33306L5.81743 0.91366C5.88683 0.74353 5.99437 0.616108 6.14005 0.531393C6.28573 0.446678 6.43484 0.40432 6.58739 0.40432C6.73993 0.40432 6.89042 0.446678 7.03885 0.531393C7.18727 0.616108 7.29687 0.74353 7.36765 0.91366L8.77562 4.33306L12.4162 4.65967C12.6553 4.68067 12.8432 4.77729 12.98 4.94952C13.1174 5.12035 13.1861 5.30588 13.1861 5.50611C13.1861 5.62023 13.161 5.7305 13.1109 5.83692C13.0614 5.94334 12.9879 6.04241 12.8903 6.13412L10.1331 8.57895L10.9762 12.2094C10.9886 12.2479 10.9948 12.3103 10.9948 12.3964C10.9948 12.6393 10.9123 12.8427 10.7474 13.0065C10.5811 13.1711 10.3877 13.2533 10.1671 13.2533C10.1259 13.2533 9.97711 13.2075 9.7208 13.1157L6.59254 11.1971L3.46531 13.1157C3.39247 13.155 3.31792 13.1875 3.24164 13.2134C3.16537 13.2393 3.09253 13.2526 3.02313 13.2533C2.773 13.2533 2.55792 13.1501 2.37789 12.9435C2.19786 12.737 2.14392 12.4919 2.21607 12.2084Z" fill="#FFFFF2"/>
</svg>
