<svg width="14" height="14" viewBox="0 0 14 14" fill="none" xmlns="http://www.w3.org/2000/svg">
<path fill-rule="evenodd" clip-rule="evenodd" d="M11.9169 2.08313C11.4247 1.59108 10.7572 1.31467 10.0612 1.31467C9.36526 1.31467 8.69779 1.59108 8.2056 2.08313L2.08138 8.20735C1.60316 8.70225 1.33845 9.36518 1.34427 10.0534C1.35009 10.7415 1.62596 11.3999 2.11248 11.8867C2.599 12.3734 3.25724 12.6496 3.94541 12.6557C4.63359 12.6619 5.29665 12.3975 5.79178 11.9195H5.79265L6.22747 11.482C6.35082 11.3621 6.51637 11.2953 6.68846 11.2962C6.86054 11.2971 7.02538 11.3656 7.14747 11.4869C7.26955 11.6081 7.33911 11.7725 7.34114 11.9446C7.34318 12.1167 7.27754 12.2827 7.15835 12.4068L6.72266 12.8451L6.72091 12.8469C5.98258 13.5852 4.98118 14 3.93702 14C2.89286 14 1.89146 13.5852 1.15313 12.8469C0.414792 12.1085 0 11.1071 0 10.063C0 9.01882 0.414792 8.01742 1.15313 7.27909L7.27734 1.15488C8.01521 0.416078 9.01634 0.000657072 10.0605 7.78796e-07C11.1047 -0.000655514 12.1063 0.413507 12.8451 1.15138C13.5839 1.88925 13.9993 2.89038 14 3.93454C14.0007 4.97871 13.5865 5.98036 12.8486 6.71916L9.82589 9.82764C9.61484 10.0502 9.36134 10.2283 9.08036 10.3513C8.79937 10.4743 8.4966 10.5397 8.1899 10.5438C7.8832 10.5479 7.57879 10.4905 7.29464 10.375C7.01048 10.2595 6.75235 10.0882 6.53546 9.87136C6.31857 9.65447 6.14732 9.39633 6.03183 9.11218C5.91634 8.82803 5.85893 8.52362 5.86301 8.21692C5.86708 7.91022 5.93255 7.60744 6.05556 7.32646C6.17856 7.04548 6.3566 6.79198 6.57918 6.58093L9.59754 3.56169C9.65804 3.49899 9.73042 3.44897 9.81046 3.41455C9.8905 3.38012 9.97659 3.36198 10.0637 3.36118C10.1508 3.36038 10.2373 3.37694 10.3179 3.4099C10.3986 3.44285 10.4718 3.49154 10.5335 3.55312C10.5951 3.6147 10.6439 3.68794 10.6769 3.76856C10.7099 3.84919 10.7266 3.93558 10.7259 4.02271C10.7252 4.10983 10.7071 4.19594 10.6727 4.27602C10.6384 4.35609 10.5884 4.42851 10.5258 4.48907L7.50743 7.50831C7.41581 7.59948 7.34304 7.7078 7.29327 7.82709C7.24351 7.94638 7.21773 8.07431 7.2174 8.20356C7.21708 8.33281 7.24221 8.46087 7.29138 8.58041C7.34054 8.69995 7.41277 8.80863 7.50393 8.90026C7.5951 8.99188 7.70342 9.06466 7.82271 9.11442C7.942 9.16418 8.06993 9.18996 8.19918 9.19029C8.32844 9.19061 8.45649 9.16548 8.57603 9.11631C8.69557 9.06715 8.80426 8.99492 8.89588 8.90376L11.9177 5.79528C12.4098 5.30308 12.6862 4.63561 12.6862 3.93964C12.6862 3.24368 12.4098 2.5762 11.9177 2.08401" fill="black"/>
</svg>
