<svg width="19" height="16" viewBox="0 0 19 16" fill="none" xmlns="http://www.w3.org/2000/svg">
<path d="M13.3 4.33058e-09C14.0269 -3.96049e-05 14.7264 0.271634 15.2553 0.759436C15.7843 1.24724 16.1026 1.91429 16.1453 2.62412L16.15 2.78766V4.6461C16.8769 4.64606 17.5764 4.91773 18.1053 5.40553C18.6343 5.89334 18.9526 6.56039 18.9953 7.27021L19 7.43376V11.1506C19 11.8617 18.7223 12.5459 18.2236 13.0632C17.7249 13.5806 17.0429 13.8919 16.3172 13.9336L16.15 13.9383V14.8359C16.15 15.7837 15.0641 16.3171 14.2937 15.7958L14.2025 15.7289L12.0061 13.9383H8.55C7.84986 13.9383 7.1742 13.6863 6.6519 13.2302L6.5189 13.1057L4.75 14.4029C3.99855 14.9539 2.9393 14.4726 2.8557 13.5861L2.85 13.4737V12.0799C2.12305 12.0799 1.42356 11.8082 0.894652 11.3204C0.365743 10.8326 0.0473979 10.1656 0.00475011 9.45574L4.42742e-09 9.2922V2.78766C-4.04906e-05 2.07661 0.277709 1.39242 0.776419 0.875082C1.27513 0.357743 1.9571 0.0463611 2.6828 0.00464621L2.85 4.33058e-09H13.3ZM16.15 6.50454H8.55C8.29804 6.50454 8.05641 6.60244 7.87825 6.7767C7.70009 6.95096 7.6 7.18731 7.6 7.43376V11.1506C7.6 11.3971 7.70009 11.6334 7.87825 11.8077C8.05641 11.982 8.29804 12.0799 8.55 12.0799H12.0061C12.4505 12.0801 12.8808 12.2326 13.2221 12.511L14.2557 13.3529C14.2866 13.0055 14.4495 12.6821 14.7122 12.4464C14.975 12.2107 15.3185 12.0799 15.675 12.0799H16.15C16.402 12.0799 16.6436 11.982 16.8218 11.8077C16.9999 11.6334 17.1 11.3971 17.1 11.1506V7.43376C17.1 7.18731 16.9999 6.95096 16.8218 6.7767C16.6436 6.60244 16.402 6.50454 16.15 6.50454ZM13.3 1.85844H2.85C2.59804 1.85844 2.35641 1.95634 2.17825 2.1306C2.00009 2.30486 1.9 2.54121 1.9 2.78766V9.2922C1.9 9.53864 2.00009 9.77499 2.17825 9.94925C2.35641 10.1235 2.59804 10.2214 2.85 10.2214H3.325C3.70293 10.2214 4.06539 10.3683 4.33263 10.6297C4.59987 10.8911 4.75 11.2456 4.75 11.6152V12.0799L5.7095 11.3764C5.70321 11.3013 5.70005 11.226 5.7 11.1506V7.43376C5.7 6.69442 6.00027 5.98537 6.53475 5.46258C7.06922 4.9398 7.79413 4.6461 8.55 4.6461H14.25V2.78766C14.25 2.54121 14.1499 2.30486 13.9718 2.1306C13.7936 1.95634 13.552 1.85844 13.3 1.85844Z" fill="black"/>
</svg>
