<svg width="14" height="18" viewBox="0 0 14 18" fill="none" xmlns="http://www.w3.org/2000/svg">
<path d="M3.5 14.5H10.5V13.5H3.5V14.5ZM3.5 10.5H10.5V9.5H3.5V10.5ZM1.616 18C1.15533 18 0.771 17.846 0.463 17.538C0.155 17.23 0.000666667 16.8457 0 16.385V1.615C0 1.155 0.154333 0.771 0.463 0.463C0.771667 0.155 1.156 0.000666667 1.616 0H9.5L14 4.5V16.385C14 16.845 13.846 17.2293 13.538 17.538C13.23 17.8467 12.8453 18.0007 12.384 18H1.616ZM9 5V1H1.616C1.462 1 1.32067 1.064 1.192 1.192C1.06333 1.32 0.999333 1.461 1 1.615V16.385C1 16.5383 1.064 16.6793 1.192 16.808C1.32 16.9367 1.461 17.0007 1.615 17H12.385C12.5383 17 12.6793 16.936 12.808 16.808C12.9367 16.68 13.0007 16.5387 13 16.384V5H9Z" fill="black"/>
</svg>
