<svg width="17" height="16" viewBox="0 0 17 16" fill="none" xmlns="http://www.w3.org/2000/svg">
<path fill-rule="evenodd" clip-rule="evenodd" d="M6.50709 0C5.56038 0 4.65244 0.376081 3.98301 1.04551C3.31358 1.71494 2.9375 2.62288 2.9375 3.56959C2.9375 4.5163 3.31358 5.42424 3.98301 6.09367C4.65244 6.7631 5.56038 7.13918 6.50709 7.13918C7.4538 7.13918 8.36174 6.7631 9.03117 6.09367C9.7006 5.42424 10.0767 4.5163 10.0767 3.56959C10.0767 2.62288 9.7006 1.71494 9.03117 1.04551C8.36174 0.376081 7.4538 0 6.50709 0ZM4.19736 3.56959C4.19736 2.95701 4.4407 2.36952 4.87386 1.93636C5.30702 1.5032 5.89451 1.25986 6.50709 1.25986C7.11967 1.25986 7.70716 1.5032 8.14032 1.93636C8.57348 2.36952 8.81682 2.95701 8.81682 3.56959C8.81682 4.18217 8.57348 4.76966 8.14032 5.20282C7.70716 5.63598 7.11967 5.87932 6.50709 5.87932C5.89451 5.87932 5.30702 5.63598 4.87386 5.20282C4.4407 4.76966 4.19736 4.18217 4.19736 3.56959Z" fill="#FFFFF2"/>
<path d="M1.25986 11.5491C1.25986 11.0479 1.45896 10.5672 1.81336 10.2128C2.16776 9.85837 2.64844 9.65927 3.14964 9.65927H3.43521C3.4576 9.65927 3.47944 9.66263 3.50072 9.66935L4.22807 9.90704C4.79921 10.0935 5.38714 10.2077 5.97843 10.2514C6.03896 10.2551 6.09877 10.2368 6.14691 10.1999C6.19504 10.163 6.22827 10.1101 6.24048 10.0507C6.30432 9.77574 6.38663 9.50921 6.48742 9.25108C6.49757 9.22439 6.50123 9.19567 6.49808 9.1673C6.49494 9.13892 6.48507 9.1117 6.46931 9.08789C6.45355 9.06409 6.43234 9.04438 6.40745 9.0304C6.38255 9.01642 6.35468 9.00857 6.32615 9.0075C5.74601 8.9894 5.17138 8.88901 4.61947 8.70934L3.89211 8.47165C3.74469 8.42436 3.59087 8.4 3.43605 8.39941H3.14964C2.3143 8.39941 1.51318 8.73125 0.922508 9.32192C0.331836 9.91259 0 10.7137 0 11.5491V12.5469C0 13.1801 0.458587 13.7194 1.08348 13.821C2.89515 14.1175 4.72614 14.2636 6.55713 14.2611C6.68479 14.2611 6.76458 14.1225 6.70831 14.0091C6.58394 13.7611 6.47729 13.5046 6.38915 13.2415C6.36663 13.1722 6.32321 13.1116 6.26486 13.068C6.20651 13.0243 6.13609 12.9999 6.06326 12.9979C4.46262 12.976 2.8658 12.8357 1.28589 12.5779C1.27876 12.5763 1.27236 12.5724 1.26766 12.5668C1.26296 12.5612 1.26022 12.5542 1.25986 12.5469V11.5491ZM12.5986 10.1212C12.5986 9.95415 12.5322 9.79392 12.4141 9.67579C12.2959 9.55766 12.1357 9.49129 11.9686 9.49129C11.8016 9.49129 11.6413 9.55766 11.5232 9.67579C11.4051 9.79392 11.3387 9.95415 11.3387 10.1212V11.6104C11.3387 11.8119 11.4353 12.0009 11.5982 12.1193L12.4381 12.7308C12.5051 12.7794 12.581 12.8144 12.6614 12.8337C12.7419 12.8531 12.8254 12.8563 12.9071 12.8434C12.9889 12.8304 13.0672 12.8015 13.1378 12.7583C13.2084 12.715 13.2697 12.6583 13.3184 12.5914C13.367 12.5244 13.402 12.4485 13.4213 12.3681C13.4406 12.2876 13.4439 12.2041 13.4309 12.1224C13.418 12.0407 13.3891 11.9623 13.3458 11.8917C13.3026 11.8211 13.2459 11.7598 13.1789 11.7112L12.5986 11.2895V10.1212Z" fill="#FFFFF2"/>
<path fill-rule="evenodd" clip-rule="evenodd" d="M11.971 15.9997C13.1962 15.9997 14.3712 15.513 15.2375 14.6467C16.1038 13.7804 16.5905 12.6054 16.5905 11.3802C16.5905 10.1551 16.1038 8.98007 15.2375 8.11375C14.3712 7.24743 13.1962 6.76074 11.971 6.76074C10.7459 6.76074 9.57089 7.24743 8.70457 8.11375C7.83825 8.98007 7.35156 10.1551 7.35156 11.3802C7.35156 12.6054 7.83825 13.7804 8.70457 14.6467C9.57089 15.513 10.7459 15.9997 11.971 15.9997ZM11.971 14.7398C12.8621 14.7398 13.7166 14.3859 14.3466 13.7558C14.9767 13.1258 15.3306 12.2712 15.3306 11.3802C15.3306 10.4892 14.9767 9.63466 14.3466 9.00461C13.7166 8.37456 12.8621 8.0206 11.971 8.0206C11.08 8.0206 10.2255 8.37456 9.59543 9.00461C8.96538 9.63466 8.61142 10.4892 8.61142 11.3802C8.61142 12.2712 8.96538 13.1258 9.59543 13.7558C10.2255 14.3859 11.08 14.7398 11.971 14.7398Z" fill="#FFFFF2"/>
</svg>
