<svg width="12" height="8" viewBox="0 0 12 8" fill="none" xmlns="http://www.w3.org/2000/svg">
<path d="M11.25 0H0.75C0.551088 0 0.360322 0.0702379 0.21967 0.195262C0.0790176 0.320286 0 0.489856 0 0.666667V7.33333C0 7.51014 0.0790176 7.67971 0.21967 7.80474C0.360322 7.92976 0.551088 8 0.75 8H11.25C11.4489 8 11.6397 7.92976 11.7803 7.80474C11.921 7.67971 12 7.51014 12 7.33333V0.666667C12 0.489856 11.921 0.320286 11.7803 0.195262C11.6397 0.0702379 11.4489 0 11.25 0ZM10.6725 7.33333H1.3725L3.9975 4.92L3.4575 4.45667L0.75 6.94667V1.17333L5.41125 5.29667C5.55177 5.42083 5.74186 5.49053 5.94 5.49053C6.13814 5.49053 6.32823 5.42083 6.46875 5.29667L11.25 1.07V6.90333L8.49 4.45L7.96125 4.92L10.6725 7.33333ZM1.24125 0.666667H10.6425L5.94 4.82333L1.24125 0.666667Z" fill="#FFFFF2"/>
</svg>
