<svg width="16" height="14" viewBox="0 0 16 14" fill="none" xmlns="http://www.w3.org/2000/svg">
<path d="M2.58824 0C1.90179 0 1.24346 0.270416 0.758077 0.751759C0.272688 1.2331 0 1.88594 0 2.56667V8.63333C0 9.31406 0.272688 9.9669 0.758077 10.4482C1.24346 10.9296 1.90179 11.2 2.58824 11.2H8.51765C8.58824 10.8547 8.73506 10.5373 8.94118 10.2667H2.58824C2.15141 10.2667 1.73247 10.0946 1.42359 9.78827C1.11471 9.48197 0.941176 9.06652 0.941176 8.63333V2.56667C0.941176 1.66507 1.67906 0.933333 2.58824 0.933333H12.4706C13.3798 0.933333 14.1176 1.66507 14.1176 2.56667V5.04093C14.4951 5.2584 14.8179 5.55893 15.0588 5.91827V2.56667C15.0588 1.88594 14.7861 1.2331 14.3007 0.751759C13.8154 0.270416 13.157 0 12.4706 0H2.58824ZM14.5882 7.46667C14.5882 7.96174 14.3899 8.43653 14.0369 8.7866C13.6839 9.13667 13.2051 9.33333 12.7059 9.33333C12.2067 9.33333 11.7279 9.13667 11.3749 8.7866C11.0218 8.43653 10.8235 7.96174 10.8235 7.46667C10.8235 6.9716 11.0218 6.4968 11.3749 6.14673C11.7279 5.79667 12.2067 5.6 12.7059 5.6C13.2051 5.6 13.6839 5.79667 14.0369 6.14673C14.3899 6.4968 14.5882 6.9716 14.5882 7.46667ZM16 11.6667C16 12.8287 15.0588 14 12.7059 14C10.3529 14 9.41177 12.8333 9.41177 11.6667C9.41177 11.2954 9.5605 10.9393 9.82526 10.6767C10.09 10.4142 10.4491 10.2667 10.8235 10.2667H14.5882C14.9627 10.2667 15.3217 10.4142 15.5865 10.6767C15.8513 10.9393 16 11.2954 16 11.6667Z" fill="#FFFFF2"/>
</svg>
