<svg width="16" height="16" viewBox="0 0 16 16" fill="none" xmlns="http://www.w3.org/2000/svg">
<path d="M4.46043 4.49501L6.90413 0.356329C6.98354 0.224077 7.07884 0.131625 7.19001 0.0789753C7.30119 0.0263252 7.41847 0 7.54186 0C7.66525 0 7.78254 0.0263252 7.89371 0.0789753C8.00489 0.131625 8.10018 0.224077 8.17959 0.356329L10.6233 4.49501C10.7033 4.62162 10.7433 4.7545 10.7433 4.89364C10.7433 5.03279 10.711 5.16097 10.6462 5.27818C10.5815 5.39538 10.4947 5.48784 10.386 5.55553C10.2772 5.62322 10.1496 5.65738 10.003 5.65801H5.08075C4.93353 5.65801 4.80464 5.62322 4.69408 5.55365C4.58351 5.48408 4.498 5.39225 4.43752 5.27818C4.37277 5.16535 4.3404 5.04 4.3404 4.9021C4.3404 4.76421 4.3801 4.62851 4.45951 4.49501M12.5814 16C11.6242 16 10.8151 15.6609 10.1542 14.9827C9.49322 14.3045 9.16275 13.4744 9.16275 12.4922C9.16275 11.51 9.49322 10.6798 10.1542 10.0016C10.8151 9.32346 11.6242 8.98437 12.5814 8.98437C13.5386 8.98437 14.3476 9.32346 15.0086 10.0016C15.6695 10.6798 16 11.51 16 12.4922C16 13.4744 15.6695 14.3045 15.0086 14.9827C14.3476 15.6609 13.5386 16 12.5814 16ZM0.000916209 14.7693V10.2094C0.000916209 9.99444 0.0714694 9.81486 0.212576 9.6707C0.354904 9.52654 0.530829 9.45446 0.74035 9.45446H5.18429C5.39442 9.45446 5.56973 9.52717 5.71023 9.67258C5.85072 9.81862 5.92097 9.99945 5.92097 10.2151V14.7749C5.92097 14.9899 5.84981 15.1695 5.70748 15.3137C5.56576 15.4578 5.38984 15.5299 5.1797 15.5299H0.735769C0.526247 15.5299 0.351239 15.4569 0.210743 15.3108C0.0702478 15.1654 0.000916209 14.9849 0.000916209 14.7693ZM12.5805 15.0598C13.2811 15.0598 13.8736 14.8116 14.358 14.3152C14.8424 13.8188 15.0843 13.2111 15.0837 12.4922C15.0831 11.7733 14.8412 11.1656 14.358 10.6692C13.8749 10.1728 13.2826 9.92455 12.5814 9.92455C11.8801 9.92455 11.2879 10.1728 10.8047 10.6692C10.3215 11.1656 10.0796 11.7733 10.079 12.4922C10.0784 13.2111 10.3203 13.8188 10.8047 14.3152C11.2891 14.8116 11.881 15.0598 12.5805 15.0598ZM0.916275 14.5897H5.0047V10.3946H0.916275V14.5897ZM5.36754 4.71783H9.71618L7.54186 1.14138L5.36754 4.71783Z" fill="#FFFFF2"/>
</svg>
