<svg width="16" height="16" viewBox="0 0 16 16" fill="none" xmlns="http://www.w3.org/2000/svg">
<path d="M15.9679 15.0218L13.1937 7.04327C12.9988 6.51836 12.5628 6.19387 12.0617 6.19387C11.5607 6.19387 11.1339 6.51836 10.9205 7.06235L8.15559 15.0218C8.12148 15.1109 8.10508 15.206 8.10735 15.3017C8.10962 15.3974 8.13052 15.4916 8.16882 15.5788C8.20711 15.666 8.26202 15.7445 8.3303 15.8095C8.39857 15.8745 8.47883 15.9248 8.56632 15.9573C8.65381 15.9899 8.74676 16.004 8.83967 15.999C8.93258 15.994 9.02357 15.9698 9.10724 15.928C9.19092 15.8861 9.26559 15.8275 9.32684 15.7554C9.38809 15.6834 9.43466 15.5994 9.46382 15.5085L10.0391 13.8575H14.0751L14.6504 15.5085C14.7524 15.8044 15.0215 15.9857 15.3091 15.9857C15.3834 15.9857 15.4669 15.9762 15.5411 15.9476C15.7145 15.8829 15.8559 15.7502 15.9342 15.5784C16.0125 15.4066 16.0213 15.2098 15.9586 15.0314L15.9679 15.0218ZM10.5494 12.4164L12.071 8.03581L13.5926 12.4164H10.5494ZM8.18342 4.02745C6.08654 7.43456 4.19377 9.496 1.89276 10.8703C1.81418 10.9173 1.72736 10.9479 1.63726 10.9604C1.54717 10.9729 1.45556 10.967 1.36768 10.9431C1.2798 10.9192 1.19736 10.8777 1.12507 10.821C1.05279 10.7643 0.992066 10.6935 0.946382 10.6126C0.899935 10.532 0.869555 10.4426 0.857015 10.3498C0.844475 10.257 0.850025 10.1625 0.873342 10.0719C0.896659 9.98129 0.937276 9.89636 0.992826 9.82207C1.04838 9.74777 1.11775 9.6856 1.1969 9.63916C3.14533 8.47482 4.74119 6.80467 6.53189 4.03699H0.695869C0.315461 4.03699 0 3.71251 0 3.32121C0 2.92992 0.315461 2.60544 0.695869 2.60544H4.17522V0.715779C4.17522 0.324487 4.49068 0 4.87109 0C5.25149 0 5.56696 0.324487 5.56696 0.715779V2.60544H9.0463C9.42671 2.60544 9.74217 2.92992 9.74217 3.32121C9.74217 3.71251 9.42671 4.03699 9.0463 4.03699H8.17415L8.18342 4.02745ZM8.22054 10.9657C8.09992 10.9657 7.9793 10.9371 7.86796 10.8703C7.26488 10.5076 6.68035 10.1068 6.13293 9.68688C5.98528 9.57297 5.88768 9.40341 5.86158 9.21548C5.83548 9.02755 5.88302 8.83665 5.99376 8.68479C6.10449 8.53292 6.26934 8.43252 6.45204 8.40567C6.63474 8.37882 6.82033 8.42773 6.96797 8.54163C7.469 8.93292 8.01642 9.29558 8.57311 9.62961C8.70491 9.70945 8.80756 9.83162 8.86526 9.97733C8.92296 10.123 8.93251 10.2842 8.89244 10.436C8.85237 10.5879 8.76491 10.722 8.64351 10.8177C8.52211 10.9134 8.37349 10.9654 8.22054 10.9657Z" fill="#FFFFF2"/>
</svg>
