<svg width="1074" height="286" viewBox="0 0 1074 286" fill="none" xmlns="http://www.w3.org/2000/svg">
<g filter="url(#filter0_d_2460_1905)">
<rect x="6" y="5" width="1062" height="274" rx="8" fill="#231F3A" shape-rendering="crispEdges"/>
<rect x="6.5" y="5.5" width="1061" height="273" rx="7.5" stroke="#E9ECEF" shape-rendering="crispEdges"/>
<path d="M7 18.8C7 14.3196 7 12.0794 7.87195 10.3681C8.63893 8.86278 9.86278 7.63893 11.3681 6.87195C13.0794 6 15.3196 6 19.8 6H199V278H19.8C15.3196 278 13.0794 278 11.3681 277.128C9.86278 276.361 8.63893 275.137 7.87195 273.632C7 271.921 7 269.68 7 265.2V18.8Z" fill="#120E2B"/>
<path d="M31.024 135.288C29.44 135.288 28.056 134.928 26.872 134.208C25.688 133.488 24.768 132.48 24.112 131.184C23.456 129.888 23.128 128.376 23.128 126.648C23.128 124.936 23.456 123.424 24.112 122.112C24.784 120.8 25.736 119.776 26.968 119.04C28.216 118.288 29.688 117.912 31.384 117.912C33.288 117.912 34.88 118.376 36.16 119.304C37.44 120.216 38.264 121.488 38.632 123.12H35.896C35.656 122.192 35.152 121.464 34.384 120.936C33.616 120.392 32.608 120.12 31.36 120.12C30.176 120.12 29.144 120.384 28.264 120.912C27.4 121.44 26.736 122.192 26.272 123.168C25.808 124.144 25.576 125.304 25.576 126.648C25.576 128.008 25.808 129.176 26.272 130.152C26.736 131.128 27.392 131.872 28.24 132.384C29.088 132.896 30.064 133.152 31.168 133.152C32.864 133.152 34.136 132.664 34.984 131.688C35.848 130.712 36.352 129.408 36.496 127.776H31.864V125.928H38.92V135H36.736L36.52 132.432C36.136 133.056 35.688 133.584 35.176 134.016C34.68 134.432 34.096 134.752 33.424 134.976C32.752 135.184 31.952 135.288 31.024 135.288ZM41.9601 135V122.904H44.1201L44.3361 125.184C44.6081 124.64 44.9601 124.184 45.3921 123.816C45.8241 123.432 46.3281 123.136 46.9041 122.928C47.4961 122.72 48.1681 122.616 48.9201 122.616V125.16H48.0561C47.5601 125.16 47.0881 125.224 46.6401 125.352C46.1921 125.464 45.7921 125.664 45.4401 125.952C45.1041 126.24 44.8401 126.632 44.6481 127.128C44.4561 127.624 44.3601 128.24 44.3601 128.976V135H41.9601ZM56.2926 135.288C55.1566 135.288 54.1326 135.024 53.2206 134.496C52.3246 133.968 51.6126 133.232 51.0846 132.288C50.5726 131.328 50.3166 130.224 50.3166 128.976C50.3166 127.696 50.5806 126.584 51.1086 125.64C51.6366 124.68 52.3566 123.936 53.2686 123.408C54.1806 122.88 55.2046 122.616 56.3406 122.616C57.4926 122.616 58.5166 122.88 59.4126 123.408C60.3086 123.936 61.0126 124.672 61.5246 125.616C62.0526 126.56 62.3166 127.672 62.3166 128.952C62.3166 130.232 62.0526 131.344 61.5246 132.288C61.0126 133.232 60.3006 133.968 59.3886 134.496C58.4766 135.024 57.4446 135.288 56.2926 135.288ZM56.2926 133.224C56.9486 133.224 57.5406 133.064 58.0686 132.744C58.6126 132.424 59.0446 131.952 59.3646 131.328C59.7006 130.688 59.8686 129.896 59.8686 128.952C59.8686 128.008 59.7086 127.224 59.3886 126.6C59.0686 125.96 58.6366 125.48 58.0926 125.16C57.5646 124.84 56.9806 124.68 56.3406 124.68C55.7006 124.68 55.1086 124.84 54.5646 125.16C54.0206 125.48 53.5806 125.96 53.2446 126.6C52.9246 127.224 52.7646 128.008 52.7646 128.952C52.7646 129.896 52.9246 130.688 53.2446 131.328C53.5806 131.952 54.0126 132.424 54.5406 132.744C55.0846 133.064 55.6686 133.224 56.2926 133.224ZM69.5798 135.288C68.6358 135.288 67.8118 135.096 67.1078 134.712C66.4198 134.328 65.8838 133.752 65.4998 132.984C65.1318 132.216 64.9478 131.248 64.9478 130.08V122.904H67.3478V129.816C67.3478 130.952 67.5958 131.808 68.0918 132.384C68.5878 132.96 69.2998 133.248 70.2278 133.248C70.8518 133.248 71.4118 133.096 71.9078 132.792C72.4198 132.488 72.8198 132.048 73.1078 131.472C73.3958 130.896 73.5398 130.192 73.5398 129.36V122.904H75.9398V135H73.8038L73.6358 132.936C73.2678 133.672 72.7318 134.248 72.0278 134.664C71.3238 135.08 70.5078 135.288 69.5798 135.288ZM79.2258 140.28V122.904H81.3858L81.6258 124.776C81.8818 124.408 82.2018 124.064 82.5858 123.744C82.9698 123.408 83.4258 123.136 83.9538 122.928C84.4978 122.72 85.1298 122.616 85.8498 122.616C87.0018 122.616 88.0098 122.896 88.8738 123.456C89.7538 124.016 90.4338 124.776 90.9138 125.736C91.4098 126.68 91.6578 127.76 91.6578 128.976C91.6578 130.192 91.4098 131.28 90.9138 132.24C90.4178 133.184 89.7298 133.928 88.8498 134.472C87.9858 135.016 86.9778 135.288 85.8258 135.288C84.8818 135.288 84.0498 135.104 83.3298 134.736C82.6098 134.352 82.0418 133.824 81.6258 133.152V140.28H79.2258ZM85.4418 133.2C86.1778 133.2 86.8258 133.024 87.3858 132.672C87.9618 132.32 88.4098 131.824 88.7298 131.184C89.0658 130.544 89.2338 129.8 89.2338 128.952C89.2338 128.104 89.0658 127.368 88.7298 126.744C88.4098 126.104 87.9618 125.608 87.3858 125.256C86.8258 124.888 86.1778 124.704 85.4418 124.704C84.6898 124.704 84.0258 124.888 83.4498 125.256C82.8898 125.608 82.4498 126.104 82.1298 126.744C81.8098 127.368 81.6498 128.104 81.6498 128.952C81.6498 129.8 81.8098 130.544 82.1298 131.184C82.4498 131.824 82.8898 132.32 83.4498 132.672C84.0258 133.024 84.6898 133.2 85.4418 133.2ZM94.6281 135V122.904H97.0281V135H94.6281ZM95.8521 120.624C95.3881 120.624 95.0041 120.48 94.7001 120.192C94.4121 119.904 94.2681 119.536 94.2681 119.088C94.2681 118.656 94.4121 118.304 94.7001 118.032C95.0041 117.744 95.3881 117.6 95.8521 117.6C96.3001 117.6 96.6761 117.744 96.9801 118.032C97.2841 118.304 97.4361 118.656 97.4361 119.088C97.4361 119.536 97.2841 119.904 96.9801 120.192C96.6761 120.48 96.3001 120.624 95.8521 120.624ZM100.46 135V122.904H102.62L102.764 124.968C103.148 124.248 103.692 123.68 104.396 123.264C105.1 122.832 105.908 122.616 106.82 122.616C107.78 122.616 108.604 122.808 109.292 123.192C109.98 123.576 110.516 124.16 110.9 124.944C111.284 125.712 111.476 126.68 111.476 127.848V135H109.076V128.088C109.076 126.968 108.828 126.12 108.332 125.544C107.836 124.968 107.116 124.68 106.172 124.68C105.548 124.68 104.988 124.832 104.492 125.136C103.996 125.424 103.596 125.856 103.292 126.432C103.004 127.008 102.86 127.712 102.86 128.544V135H100.46ZM119.466 140.568C118.362 140.568 117.386 140.424 116.538 140.136C115.69 139.864 115.034 139.44 114.57 138.864C114.106 138.288 113.874 137.584 113.874 136.752C113.874 136.32 113.97 135.88 114.162 135.432C114.354 135 114.666 134.584 115.098 134.184C115.53 133.784 116.114 133.424 116.85 133.104L118.194 134.184C117.378 134.488 116.826 134.848 116.538 135.264C116.266 135.696 116.13 136.112 116.13 136.512C116.13 136.992 116.274 137.392 116.562 137.712C116.85 138.032 117.242 138.272 117.738 138.432C118.25 138.592 118.826 138.672 119.466 138.672C120.09 138.672 120.634 138.584 121.098 138.408C121.562 138.232 121.922 137.984 122.178 137.664C122.434 137.344 122.562 136.968 122.562 136.536C122.562 136.024 122.37 135.592 121.986 135.24C121.602 134.904 120.866 134.704 119.778 134.64C118.866 134.576 118.09 134.488 117.45 134.376C116.826 134.264 116.29 134.128 115.842 133.968C115.41 133.808 115.042 133.632 114.738 133.44C114.45 133.248 114.202 133.048 113.994 132.84V132.288L116.394 129.816L118.338 130.488L115.722 132.912L116.226 131.832C116.402 131.944 116.57 132.056 116.73 132.168C116.89 132.264 117.106 132.352 117.378 132.432C117.65 132.512 118.018 132.584 118.482 132.648C118.946 132.712 119.554 132.776 120.306 132.84C121.394 132.92 122.266 133.112 122.922 133.416C123.594 133.72 124.082 134.128 124.386 134.64C124.69 135.152 124.842 135.76 124.842 136.464C124.842 137.152 124.65 137.808 124.266 138.432C123.898 139.056 123.314 139.568 122.514 139.968C121.73 140.368 120.714 140.568 119.466 140.568ZM119.466 131.28C118.442 131.28 117.57 131.088 116.85 130.704C116.146 130.32 115.602 129.8 115.218 129.144C114.85 128.488 114.666 127.76 114.666 126.96C114.666 126.144 114.85 125.416 115.218 124.776C115.602 124.12 116.154 123.6 116.874 123.216C117.594 122.816 118.458 122.616 119.466 122.616C120.474 122.616 121.33 122.816 122.034 123.216C122.754 123.6 123.298 124.12 123.666 124.776C124.05 125.416 124.242 126.144 124.242 126.96C124.242 127.76 124.05 128.488 123.666 129.144C123.298 129.8 122.754 130.32 122.034 130.704C121.33 131.088 120.474 131.28 119.466 131.28ZM119.466 129.36C120.25 129.36 120.874 129.16 121.338 128.76C121.802 128.344 122.034 127.744 122.034 126.96C122.034 126.176 121.802 125.584 121.338 125.184C120.874 124.768 120.25 124.56 119.466 124.56C118.682 124.56 118.05 124.768 117.57 125.184C117.09 125.584 116.85 126.176 116.85 126.96C116.85 127.744 117.09 128.344 117.57 128.76C118.05 129.16 118.682 129.36 119.466 129.36ZM121.434 124.8L120.858 122.904H125.826V124.56L121.434 124.8Z" fill="#FFFFF2"/>
<path d="M23.104 168V167.232C23.8827 166.613 24.6187 165.989 25.312 165.36C26.0053 164.731 26.6187 164.107 27.152 163.488C27.696 162.869 28.1227 162.267 28.432 161.68C28.7413 161.083 28.896 160.501 28.896 159.936C28.896 159.531 28.8213 159.147 28.672 158.784C28.5333 158.421 28.304 158.128 27.984 157.904C27.664 157.68 27.2213 157.568 26.656 157.568C26.1227 157.568 25.68 157.685 25.328 157.92C24.976 158.155 24.7147 158.464 24.544 158.848C24.3733 159.221 24.288 159.632 24.288 160.08H23.2C23.2 159.365 23.3493 158.752 23.648 158.24C23.9467 157.717 24.352 157.317 24.864 157.04C25.3867 156.752 25.9893 156.608 26.672 156.608C27.3013 156.608 27.8667 156.725 28.368 156.96C28.8693 157.195 29.2693 157.557 29.568 158.048C29.8667 158.539 30.016 159.163 30.016 159.92C30.016 160.453 29.8987 160.992 29.664 161.536C29.44 162.069 29.1413 162.592 28.768 163.104C28.3947 163.616 27.9787 164.112 27.52 164.592C27.0613 165.072 26.592 165.52 26.112 165.936C25.6427 166.352 25.2 166.725 24.784 167.056H30.432V168H23.104ZM36.5185 168.192C35.5372 168.192 34.6998 167.952 34.0065 167.472C33.3132 166.981 32.7798 166.304 32.4065 165.44C32.0332 164.565 31.8465 163.552 31.8465 162.4C31.8465 161.248 32.0332 160.24 32.4065 159.376C32.7798 158.501 33.3132 157.824 34.0065 157.344C34.6998 156.853 35.5318 156.608 36.5025 156.608C37.4732 156.608 38.3052 156.853 38.9985 157.344C39.6918 157.824 40.2198 158.501 40.5825 159.376C40.9558 160.24 41.1425 161.248 41.1425 162.4C41.1425 163.552 40.9558 164.565 40.5825 165.44C40.2198 166.304 39.6918 166.981 38.9985 167.472C38.3052 167.952 37.4785 168.192 36.5185 168.192ZM36.5025 167.216C37.1745 167.216 37.7718 167.024 38.2945 166.64C38.8278 166.256 39.2438 165.707 39.5425 164.992C39.8412 164.267 39.9905 163.403 39.9905 162.4C39.9905 161.397 39.8412 160.539 39.5425 159.824C39.2438 159.109 38.8278 158.56 38.2945 158.176C37.7718 157.792 37.1745 157.6 36.5025 157.6C35.8412 157.6 35.2438 157.792 34.7105 158.176C34.1772 158.56 33.7558 159.109 33.4465 159.824C33.1478 160.539 32.9985 161.397 32.9985 162.4C32.9985 163.403 33.1478 164.267 33.4465 164.992C33.7558 165.707 34.1772 166.256 34.7105 166.64C35.2438 167.024 35.8412 167.216 36.5025 167.216ZM42.8384 168V167.232C43.617 166.613 44.353 165.989 45.0464 165.36C45.7397 164.731 46.353 164.107 46.8864 163.488C47.4304 162.869 47.857 162.267 48.1664 161.68C48.4757 161.083 48.6304 160.501 48.6304 159.936C48.6304 159.531 48.5557 159.147 48.4064 158.784C48.2677 158.421 48.0384 158.128 47.7184 157.904C47.3984 157.68 46.9557 157.568 46.3904 157.568C45.857 157.568 45.4144 157.685 45.0624 157.92C44.7104 158.155 44.449 158.464 44.2784 158.848C44.1077 159.221 44.0224 159.632 44.0224 160.08H42.9344C42.9344 159.365 43.0837 158.752 43.3824 158.24C43.681 157.717 44.0864 157.317 44.5984 157.04C45.121 156.752 45.7237 156.608 46.4064 156.608C47.0357 156.608 47.601 156.725 48.1024 156.96C48.6037 157.195 49.0037 157.557 49.3024 158.048C49.601 158.539 49.7504 159.163 49.7504 159.92C49.7504 160.453 49.633 160.992 49.3984 161.536C49.1744 162.069 48.8757 162.592 48.5024 163.104C48.129 163.616 47.713 164.112 47.2544 164.592C46.7957 165.072 46.3264 165.52 45.8464 165.936C45.377 166.352 44.9344 166.725 44.5184 167.056H50.1664V168H42.8384ZM55.9444 168.192C55.1977 168.192 54.547 168.059 53.9924 167.792C53.4377 167.515 52.995 167.141 52.6644 166.672C52.3444 166.192 52.1364 165.659 52.0404 165.072H53.1444C53.283 165.723 53.5977 166.245 54.0884 166.64C54.579 167.035 55.203 167.232 55.9604 167.232C56.5364 167.232 57.027 167.099 57.4324 166.832C57.8377 166.565 58.147 166.208 58.3604 165.76C58.5737 165.301 58.6804 164.8 58.6804 164.256C58.6804 163.68 58.5684 163.168 58.3444 162.72C58.131 162.272 57.8217 161.925 57.4164 161.68C57.0217 161.435 56.5577 161.312 56.0244 161.312C55.363 161.312 54.803 161.451 54.3444 161.728C53.8964 162.005 53.555 162.373 53.3204 162.832H52.2484L53.1764 156.8H59.0004V157.776H54.0564L53.4004 161.472C53.667 161.141 54.0297 160.875 54.4884 160.672C54.9577 160.459 55.4964 160.352 56.1044 160.352C56.6377 160.352 57.1284 160.448 57.5764 160.64C58.0244 160.832 58.4084 161.104 58.7284 161.456C59.059 161.797 59.315 162.208 59.4964 162.688C59.6777 163.157 59.7684 163.675 59.7684 164.24C59.7684 164.763 59.683 165.264 59.5124 165.744C59.3524 166.224 59.107 166.645 58.7764 167.008C58.4564 167.371 58.0564 167.659 57.5764 167.872C57.107 168.085 56.563 168.192 55.9444 168.192Z" fill="white" fill-opacity="0.8"/>
<circle cx="1046" cy="23" r="2" fill="#A5A5A3"/>
<circle cx="1046" cy="31" r="2" fill="#A5A5A3"/>
<circle cx="1046" cy="39" r="2" fill="#A5A5A3"/>
<rect x="225.5" y="62.5" width="223" height="39" rx="3.5" fill="white" fill-opacity="0.08" stroke="#C0C0C0"/>
<path d="M233.448 90L237.56 78.8H239.304L243.416 90H241.704L238.424 80.72L235.128 90H233.448ZM235.304 87.232L235.752 85.952H241.016L241.464 87.232H235.304ZM244.932 90V78.48H246.532V90H244.932ZM248.729 90V78.48H250.329V90H248.729Z" fill="white"/>
<path d="M436.529 79L438 80.4873L429.983 88.588C429.854 88.7185 429.701 88.8222 429.533 88.8929C429.365 88.9636 429.184 89 429.002 89C428.82 89 428.639 88.9636 428.471 88.8929C428.303 88.8222 428.15 88.7185 428.022 88.588L420 80.4873L421.471 79.0014L429 86.6045L436.529 79Z" fill="#FFFFF2"/>
<path d="M259.288 45V33.8H260.888V45H259.288ZM252.168 45V33.8H253.768V45H252.168ZM253.496 39.944V38.632H259.64V39.944H253.496ZM266.831 45.192C266.073 45.192 265.391 45.016 264.783 44.664C264.185 44.312 263.711 43.8213 263.359 43.192C263.017 42.552 262.847 41.816 262.847 40.984C262.847 40.1307 263.023 39.3893 263.375 38.76C263.727 38.12 264.207 37.624 264.815 37.272C265.423 36.92 266.105 36.744 266.863 36.744C267.631 36.744 268.313 36.92 268.911 37.272C269.508 37.624 269.977 38.1147 270.319 38.744C270.671 39.3733 270.847 40.1147 270.847 40.968C270.847 41.8213 270.671 42.5627 270.319 43.192C269.977 43.8213 269.503 44.312 268.895 44.664C268.287 45.016 267.599 45.192 266.831 45.192ZM266.831 43.816C267.268 43.816 267.663 43.7093 268.015 43.496C268.377 43.2827 268.665 42.968 268.879 42.552C269.103 42.1253 269.215 41.5973 269.215 40.968C269.215 40.3387 269.108 39.816 268.895 39.4C268.681 38.9733 268.393 38.6533 268.031 38.44C267.679 38.2267 267.289 38.12 266.863 38.12C266.436 38.12 266.041 38.2267 265.679 38.44C265.316 38.6533 265.023 38.9733 264.799 39.4C264.585 39.816 264.479 40.3387 264.479 40.968C264.479 41.5973 264.585 42.1253 264.799 42.552C265.023 42.968 265.311 43.2827 265.663 43.496C266.025 43.7093 266.415 43.816 266.831 43.816ZM275.689 45.192C275.059 45.192 274.51 45.064 274.041 44.808C273.582 44.552 273.225 44.168 272.969 43.656C272.723 43.144 272.601 42.4987 272.601 41.72V36.936H274.201V41.544C274.201 42.3013 274.366 42.872 274.697 43.256C275.027 43.64 275.502 43.832 276.121 43.832C276.537 43.832 276.91 43.7307 277.241 43.528C277.582 43.3253 277.849 43.032 278.041 42.648C278.233 42.264 278.329 41.7947 278.329 41.24V36.936H279.929V45H278.505L278.393 43.624C278.147 44.1147 277.79 44.4987 277.321 44.776C276.851 45.0533 276.307 45.192 275.689 45.192ZM285.239 45.192C284.557 45.192 283.959 45.08 283.447 44.856C282.935 44.632 282.53 44.3173 282.231 43.912C281.933 43.5067 281.751 43.032 281.687 42.488H283.319C283.373 42.744 283.474 42.9787 283.623 43.192C283.783 43.4053 283.997 43.576 284.263 43.704C284.541 43.832 284.866 43.896 285.239 43.896C285.591 43.896 285.879 43.848 286.103 43.752C286.338 43.6453 286.509 43.5067 286.615 43.336C286.722 43.1547 286.775 42.9627 286.775 42.76C286.775 42.4613 286.701 42.2373 286.551 42.088C286.413 41.928 286.199 41.8053 285.911 41.72C285.634 41.624 285.298 41.5387 284.903 41.464C284.53 41.4 284.167 41.3147 283.815 41.208C283.474 41.0907 283.165 40.9467 282.887 40.776C282.621 40.6053 282.407 40.392 282.247 40.136C282.087 39.8693 282.007 39.544 282.007 39.16C282.007 38.7013 282.13 38.2907 282.375 37.928C282.621 37.5547 282.967 37.2667 283.415 37.064C283.874 36.8507 284.413 36.744 285.031 36.744C285.927 36.744 286.647 36.9573 287.191 37.384C287.735 37.8107 288.055 38.4133 288.151 39.192H286.599C286.557 38.8293 286.397 38.552 286.119 38.36C285.842 38.1573 285.474 38.056 285.015 38.056C284.557 38.056 284.205 38.1467 283.959 38.328C283.714 38.5093 283.591 38.7493 283.591 39.048C283.591 39.24 283.661 39.4107 283.799 39.56C283.938 39.7093 284.141 39.8373 284.407 39.944C284.685 40.04 285.021 40.1307 285.415 40.216C285.981 40.3227 286.487 40.456 286.935 40.616C287.383 40.776 287.741 41.0107 288.007 41.32C288.274 41.6293 288.407 42.072 288.407 42.648C288.418 43.1493 288.29 43.592 288.023 43.976C287.767 44.36 287.399 44.6587 286.919 44.872C286.45 45.0853 285.89 45.192 285.239 45.192ZM293.939 45.192C293.171 45.192 292.488 45.016 291.891 44.664C291.294 44.312 290.824 43.8213 290.483 43.192C290.152 42.5627 289.987 41.832 289.987 41C289.987 40.1467 290.152 39.4053 290.483 38.776C290.824 38.136 291.294 37.64 291.891 37.288C292.488 36.9253 293.182 36.744 293.971 36.744C294.76 36.744 295.438 36.92 296.003 37.272C296.568 37.624 297.006 38.0933 297.315 38.68C297.624 39.256 297.779 39.896 297.779 40.6C297.779 40.7067 297.774 40.824 297.763 40.952C297.763 41.0693 297.758 41.2027 297.747 41.352H291.155V40.216H296.179C296.147 39.544 295.923 39.0213 295.507 38.648C295.091 38.264 294.574 38.072 293.955 38.072C293.518 38.072 293.118 38.1733 292.755 38.376C292.392 38.568 292.099 38.856 291.875 39.24C291.662 39.6133 291.555 40.088 291.555 40.664V41.112C291.555 41.7093 291.662 42.216 291.875 42.632C292.099 43.0373 292.392 43.3467 292.755 43.56C293.118 43.7627 293.512 43.864 293.939 43.864C294.451 43.864 294.872 43.752 295.203 43.528C295.534 43.304 295.779 43 295.939 42.616H297.539C297.4 43.1067 297.166 43.5493 296.835 43.944C296.504 44.328 296.094 44.632 295.603 44.856C295.123 45.08 294.568 45.192 293.939 45.192Z" fill="#FFFFF2"/>
<path d="M240.884 38.6454L233.356 31.1454C233.262 31.0523 233.135 31 233.003 31C232.87 31 232.743 31.0523 232.649 31.1454L225.121 38.6454C225.038 38.741 224.995 38.8641 225 38.9899C225.005 39.1158 225.058 39.2351 225.147 39.3242C225.236 39.4132 225.356 39.4654 225.482 39.4703C225.609 39.4751 225.732 39.4323 225.828 39.3504L233 32.2054L240.172 39.3554C240.268 39.4373 240.391 39.4801 240.518 39.4753C240.644 39.4704 240.764 39.4182 240.853 39.3292C240.942 39.2401 240.995 39.1208 241 38.9949C241.005 38.8691 240.962 38.746 240.879 38.6504L240.884 38.6454Z" fill="#FFFFF2"/>
<path d="M238.018 46.0009H235.508V41.0009H230.49V46.0009H227.98V39.0009L226.977 40.0009V46.0009C226.977 46.2661 227.082 46.5204 227.271 46.708C227.459 46.8955 227.714 47.0009 227.98 47.0009H231.493V42.0009H234.505V47.0009H238.018C238.284 47.0009 238.539 46.8955 238.727 46.708C238.916 46.5204 239.021 46.2661 239.021 46.0009V39.8809L238.018 38.8809V46.0009Z" fill="#FFFFF2"/>
<rect x="225.5" y="179.5" width="223" height="39" rx="3.5" fill="white" fill-opacity="0.08" stroke="#C0C0C0"/>
<path d="M233.448 207L237.56 195.8H239.304L243.416 207H241.704L238.424 197.72L235.128 207H233.448ZM235.304 204.232L235.752 202.952H241.016L241.464 204.232H235.304ZM244.932 207V195.48H246.532V207H244.932ZM248.729 207V195.48H250.329V207H248.729Z" fill="white"/>
<path d="M436.529 196L438 197.487L429.983 205.588C429.854 205.719 429.701 205.822 429.533 205.893C429.365 205.964 429.184 206 429.002 206C428.82 206 428.639 205.964 428.471 205.893C428.303 205.822 428.15 205.719 428.022 205.588L420 197.487L421.471 196.001L429 203.604L436.529 196Z" fill="#FFFFF2"/>
<path d="M252.168 162V150.8H259.128V152.112H253.768V155.744H258.248V157.024H253.768V162H252.168ZM264.065 162.192C263.308 162.192 262.625 162.016 262.017 161.664C261.42 161.312 260.945 160.821 260.593 160.192C260.252 159.552 260.081 158.816 260.081 157.984C260.081 157.131 260.257 156.389 260.609 155.76C260.961 155.12 261.441 154.624 262.049 154.272C262.657 153.92 263.34 153.744 264.097 153.744C264.865 153.744 265.548 153.92 266.145 154.272C266.742 154.624 267.212 155.115 267.553 155.744C267.905 156.373 268.081 157.115 268.081 157.968C268.081 158.821 267.905 159.563 267.553 160.192C267.212 160.821 266.737 161.312 266.129 161.664C265.521 162.016 264.833 162.192 264.065 162.192ZM264.065 160.816C264.502 160.816 264.897 160.709 265.249 160.496C265.612 160.283 265.9 159.968 266.113 159.552C266.337 159.125 266.449 158.597 266.449 157.968C266.449 157.339 266.342 156.816 266.129 156.4C265.916 155.973 265.628 155.653 265.265 155.44C264.913 155.227 264.524 155.12 264.097 155.12C263.67 155.12 263.276 155.227 262.913 155.44C262.55 155.653 262.257 155.973 262.033 156.4C261.82 156.816 261.713 157.339 261.713 157.968C261.713 158.597 261.82 159.125 262.033 159.552C262.257 159.968 262.545 160.283 262.897 160.496C263.26 160.709 263.649 160.816 264.065 160.816ZM269.963 162V153.936H271.403L271.547 155.456C271.728 155.093 271.963 154.789 272.251 154.544C272.539 154.288 272.875 154.091 273.259 153.952C273.654 153.813 274.102 153.744 274.603 153.744V155.44H274.027C273.696 155.44 273.382 155.483 273.083 155.568C272.784 155.643 272.518 155.776 272.283 155.968C272.059 156.16 271.883 156.421 271.755 156.752C271.627 157.083 271.563 157.493 271.563 157.984V162H269.963ZM276.072 162V153.936H277.512L277.624 155.072C277.88 154.656 278.222 154.331 278.648 154.096C279.075 153.861 279.555 153.744 280.088 153.744C280.494 153.744 280.862 153.803 281.192 153.92C281.523 154.027 281.816 154.192 282.072 154.416C282.328 154.64 282.536 154.917 282.696 155.248C282.984 154.779 283.368 154.411 283.848 154.144C284.339 153.877 284.856 153.744 285.4 153.744C286.051 153.744 286.611 153.877 287.08 154.144C287.55 154.4 287.907 154.789 288.152 155.312C288.398 155.824 288.52 156.464 288.52 157.232V162H286.936V157.392C286.936 156.645 286.782 156.08 286.472 155.696C286.174 155.312 285.731 155.12 285.144 155.12C284.75 155.12 284.398 155.221 284.088 155.424C283.779 155.627 283.534 155.92 283.352 156.304C283.182 156.688 283.096 157.157 283.096 157.712V162H281.496V157.392C281.496 156.645 281.342 156.08 281.032 155.696C280.734 155.312 280.291 155.12 279.704 155.12C279.331 155.12 278.99 155.221 278.68 155.424C278.371 155.627 278.126 155.92 277.944 156.304C277.763 156.688 277.672 157.157 277.672 157.712V162H276.072Z" fill="#FFFFF2"/>
<path d="M231.667 155.889C231.667 156.152 231.615 156.412 231.514 156.654C231.414 156.897 231.267 157.117 231.081 157.303C230.895 157.489 230.675 157.636 230.432 157.737C230.189 157.837 229.929 157.889 229.667 157.889C229.404 157.889 229.144 157.837 228.901 157.737C228.659 157.636 228.438 157.489 228.252 157.303C228.067 157.117 227.919 156.897 227.819 156.654C227.718 156.412 227.667 156.152 227.667 155.889C227.667 155.358 227.877 154.85 228.252 154.475C228.628 154.1 229.136 153.889 229.667 153.889C230.197 153.889 230.706 154.1 231.081 154.475C231.456 154.85 231.667 155.358 231.667 155.889ZM230.556 155.889C230.556 155.653 230.462 155.427 230.295 155.26C230.129 155.094 229.902 155 229.667 155C229.431 155 229.205 155.094 229.038 155.26C228.871 155.427 228.778 155.653 228.778 155.889C228.778 156.125 228.871 156.351 229.038 156.517C229.205 156.684 229.431 156.778 229.667 156.778C229.902 156.778 230.129 156.684 230.295 156.517C230.462 156.351 230.556 156.125 230.556 155.889ZM229.667 162.778C230.197 162.778 230.706 162.567 231.081 162.192C231.456 161.817 231.667 161.308 231.667 160.778C231.667 160.247 231.456 159.739 231.081 159.364C230.706 158.988 230.197 158.778 229.667 158.778C229.136 158.778 228.628 158.988 228.252 159.364C227.877 159.739 227.667 160.247 227.667 160.778C227.667 161.308 227.877 161.817 228.252 162.192C228.628 162.567 229.136 162.778 229.667 162.778ZM229.667 161.667C229.431 161.667 229.205 161.573 229.038 161.406C228.871 161.24 228.778 161.014 228.778 160.778C228.778 160.542 228.871 160.316 229.038 160.149C229.205 159.983 229.431 159.889 229.667 159.889C229.902 159.889 230.129 159.983 230.295 160.149C230.462 160.316 230.556 160.542 230.556 160.778C230.556 161.014 230.462 161.24 230.295 161.406C230.129 161.573 229.902 161.667 229.667 161.667ZM228.222 151.667C228.075 151.667 227.934 151.725 227.829 151.829C227.725 151.934 227.667 152.075 227.667 152.222C227.667 152.37 227.725 152.511 227.829 152.615C227.934 152.719 228.075 152.778 228.222 152.778H237.778C237.925 152.778 238.066 152.719 238.171 152.615C238.275 152.511 238.333 152.37 238.333 152.222C238.333 152.075 238.275 151.934 238.171 151.829C238.066 151.725 237.925 151.667 237.778 151.667H228.222ZM232.556 156C232.556 155.693 232.804 155.444 233.111 155.444H237.778C237.925 155.444 238.066 155.503 238.171 155.607C238.275 155.711 238.333 155.853 238.333 156C238.333 156.147 238.275 156.289 238.171 156.393C238.066 156.497 237.925 156.556 237.778 156.556H233.111C232.804 156.556 232.556 156.307 232.556 156ZM233.111 160.111C232.964 160.111 232.822 160.17 232.718 160.274C232.614 160.378 232.556 160.519 232.556 160.667C232.556 160.814 232.614 160.955 232.718 161.06C232.822 161.164 232.964 161.222 233.111 161.222H237.778C237.925 161.222 238.066 161.164 238.171 161.06C238.275 160.955 238.333 160.814 238.333 160.667C238.333 160.519 238.275 160.378 238.171 160.274C238.066 160.17 237.925 160.111 237.778 160.111H233.111ZM227.778 149C227.041 149 226.335 149.293 225.814 149.814C225.293 150.335 225 151.041 225 151.778V162.222C225 162.959 225.293 163.665 225.814 164.186C226.335 164.707 227.041 165 227.778 165H238.222C238.959 165 239.665 164.707 240.186 164.186C240.707 163.665 241 162.959 241 162.222V151.778C241 151.041 240.707 150.335 240.186 149.814C239.665 149.293 238.959 149 238.222 149H227.778ZM226.111 151.778C226.111 151.336 226.287 150.912 226.599 150.599C226.912 150.287 227.336 150.111 227.778 150.111H238.222C238.664 150.111 239.088 150.287 239.401 150.599C239.713 150.912 239.889 151.336 239.889 151.778V162.222C239.889 162.664 239.713 163.088 239.401 163.401C239.088 163.713 238.664 163.889 238.222 163.889H227.778C227.336 163.889 226.912 163.713 226.599 163.401C226.287 163.088 226.111 162.664 226.111 162.222V151.778Z" fill="#FFFFF2"/>
<rect x="507.5" y="62.5" width="223" height="39" rx="3.5" fill="white" fill-opacity="0.08" stroke="#C0C0C0"/>
<path d="M515.448 90L519.56 78.8H521.304L525.416 90H523.704L520.424 80.72L517.128 90H515.448ZM517.304 87.232L517.752 85.952H523.016L523.464 87.232H517.304ZM526.932 90V78.48H528.532V90H526.932ZM530.729 90V78.48H532.329V90H530.729Z" fill="white"/>
<path d="M718.529 79L720 80.4873L711.983 88.588C711.854 88.7185 711.701 88.8222 711.533 88.8929C711.365 88.9636 711.184 89 711.002 89C710.82 89 710.639 88.9636 710.471 88.8929C710.303 88.8222 710.15 88.7185 710.022 88.588L702 80.4873L703.471 79.0014L711 86.6045L718.529 79Z" fill="#FFFFF2"/>
<path d="M534.168 45V33.8H535.768V38.664L540.248 33.8H542.248L538.088 38.248L542.328 45H540.376L536.952 39.496L535.768 40.76V45H534.168ZM546.861 45.192C546.093 45.192 545.41 45.016 544.813 44.664C544.216 44.312 543.746 43.8213 543.405 43.192C543.074 42.5627 542.909 41.832 542.909 41C542.909 40.1467 543.074 39.4053 543.405 38.776C543.746 38.136 544.216 37.64 544.813 37.288C545.41 36.9253 546.104 36.744 546.893 36.744C547.682 36.744 548.36 36.92 548.925 37.272C549.49 37.624 549.928 38.0933 550.237 38.68C550.546 39.256 550.701 39.896 550.701 40.6C550.701 40.7067 550.696 40.824 550.685 40.952C550.685 41.0693 550.68 41.2027 550.669 41.352H544.077V40.216H549.101C549.069 39.544 548.845 39.0213 548.429 38.648C548.013 38.264 547.496 38.072 546.877 38.072C546.44 38.072 546.04 38.1733 545.677 38.376C545.314 38.568 545.021 38.856 544.797 39.24C544.584 39.6133 544.477 40.088 544.477 40.664V41.112C544.477 41.7093 544.584 42.216 544.797 42.632C545.021 43.0373 545.314 43.3467 545.677 43.56C546.04 43.7627 546.434 43.864 546.861 43.864C547.373 43.864 547.794 43.752 548.125 43.528C548.456 43.304 548.701 43 548.861 42.616H550.461C550.322 43.1067 550.088 43.5493 549.757 43.944C549.426 44.328 549.016 44.632 548.525 44.856C548.045 45.08 547.49 45.192 546.861 45.192ZM553.063 48.52L555.031 44.104H554.567L551.383 36.936H553.111L555.639 42.792L558.183 36.936H559.863L554.743 48.52H553.063ZM569.113 45.192C568.292 45.192 567.572 45.048 566.953 44.76C566.335 44.4613 565.855 44.0453 565.513 43.512C565.172 42.9787 565.001 42.3547 565.001 41.64H566.681C566.692 42.0453 566.788 42.4187 566.969 42.76C567.161 43.0907 567.433 43.3573 567.785 43.56C568.148 43.752 568.591 43.848 569.113 43.848C569.561 43.848 569.945 43.7733 570.265 43.624C570.596 43.4747 570.847 43.272 571.017 43.016C571.188 42.7493 571.273 42.4453 571.273 42.104C571.273 41.7093 571.183 41.384 571.001 41.128C570.82 40.872 570.575 40.664 570.265 40.504C569.967 40.3333 569.615 40.184 569.209 40.056C568.815 39.928 568.399 39.7893 567.961 39.64C567.076 39.352 566.415 38.9787 565.977 38.52C565.551 38.0613 565.337 37.464 565.337 36.728C565.337 36.0987 565.487 35.5547 565.785 35.096C566.084 34.6267 566.5 34.264 567.033 34.008C567.577 33.7413 568.217 33.608 568.953 33.608C569.679 33.608 570.313 33.7413 570.857 34.008C571.401 34.2747 571.828 34.6427 572.137 35.112C572.447 35.5813 572.601 36.1307 572.601 36.76H570.905C570.905 36.472 570.831 36.1893 570.681 35.912C570.532 35.6347 570.308 35.4107 570.009 35.24C569.711 35.0587 569.343 34.968 568.905 34.968C568.543 34.9573 568.217 35.016 567.929 35.144C567.641 35.272 567.417 35.4587 567.257 35.704C567.097 35.9493 567.017 36.2427 567.017 36.584C567.017 36.9253 567.087 37.2027 567.225 37.416C567.375 37.6187 567.588 37.7947 567.865 37.944C568.143 38.0933 568.463 38.232 568.825 38.36C569.199 38.4773 569.609 38.6107 570.057 38.76C570.612 38.9413 571.103 39.1653 571.529 39.432C571.967 39.688 572.308 40.024 572.553 40.44C572.809 40.8453 572.937 41.368 572.937 42.008C572.937 42.5627 572.793 43.08 572.505 43.56C572.217 44.04 571.791 44.4347 571.225 44.744C570.66 45.0427 569.956 45.192 569.113 45.192ZM578.088 45C577.576 45 577.133 44.92 576.76 44.76C576.387 44.6 576.099 44.3333 575.896 43.96C575.693 43.5867 575.592 43.08 575.592 42.44V38.296H574.2V36.936H575.592L575.784 34.92H577.192V36.936H579.48V38.296H577.192V42.456C577.192 42.9147 577.288 43.2293 577.48 43.4C577.672 43.56 578.003 43.64 578.472 43.64H579.4V45H578.088ZM583.916 45.192C583.255 45.192 582.706 45.08 582.268 44.856C581.831 44.632 581.506 44.3333 581.292 43.96C581.079 43.576 580.972 43.1653 580.972 42.728C580.972 42.1947 581.111 41.7413 581.388 41.368C581.666 40.984 582.06 40.6907 582.572 40.488C583.084 40.2853 583.698 40.184 584.412 40.184H586.508C586.508 39.7147 586.439 39.3253 586.3 39.016C586.162 38.7067 585.954 38.4773 585.676 38.328C585.41 38.168 585.068 38.088 584.652 38.088C584.172 38.088 583.762 38.2053 583.42 38.44C583.079 38.664 582.866 39 582.78 39.448H581.18C581.244 38.8827 581.436 38.4027 581.756 38.008C582.087 37.6027 582.508 37.2933 583.02 37.08C583.532 36.856 584.076 36.744 584.652 36.744C585.41 36.744 586.044 36.8773 586.556 37.144C587.068 37.4107 587.452 37.7893 587.708 38.28C587.975 38.76 588.108 39.336 588.108 40.008V45H586.716L586.588 43.64C586.471 43.8533 586.332 44.056 586.172 44.248C586.012 44.44 585.82 44.6053 585.596 44.744C585.383 44.8827 585.132 44.9893 584.844 45.064C584.567 45.1493 584.258 45.192 583.916 45.192ZM584.22 43.896C584.562 43.896 584.871 43.8267 585.148 43.688C585.426 43.5493 585.66 43.3627 585.852 43.128C586.055 42.8827 586.204 42.6107 586.3 42.312C586.407 42.0027 586.466 41.688 586.476 41.368V41.32H584.572C584.114 41.32 583.74 41.3787 583.452 41.496C583.175 41.6027 582.972 41.752 582.844 41.944C582.716 42.136 582.652 42.36 582.652 42.616C582.652 42.8827 582.711 43.112 582.828 43.304C582.956 43.4853 583.138 43.6293 583.372 43.736C583.607 43.8427 583.89 43.896 584.22 43.896ZM593.431 48.712C592.695 48.712 592.044 48.616 591.479 48.424C590.913 48.2427 590.476 47.96 590.167 47.576C589.857 47.192 589.703 46.7227 589.703 46.168C589.703 45.88 589.767 45.5867 589.895 45.288C590.023 45 590.231 44.7227 590.519 44.456C590.807 44.1893 591.196 43.9493 591.687 43.736L592.583 44.456C592.039 44.6587 591.671 44.8987 591.479 45.176C591.297 45.464 591.207 45.7413 591.207 46.008C591.207 46.328 591.303 46.5947 591.495 46.808C591.687 47.0213 591.948 47.1813 592.279 47.288C592.62 47.3947 593.004 47.448 593.431 47.448C593.847 47.448 594.209 47.3893 594.519 47.272C594.828 47.1547 595.068 46.9893 595.239 46.776C595.409 46.5627 595.495 46.312 595.495 46.024C595.495 45.6827 595.367 45.3947 595.111 45.16C594.855 44.936 594.364 44.8027 593.639 44.76C593.031 44.7173 592.513 44.6587 592.087 44.584C591.671 44.5093 591.313 44.4187 591.015 44.312C590.727 44.2053 590.481 44.088 590.279 43.96C590.087 43.832 589.921 43.6987 589.783 43.56V43.192L591.383 41.544L592.679 41.992L590.935 43.608L591.271 42.888C591.388 42.9627 591.5 43.0373 591.607 43.112C591.713 43.176 591.857 43.2347 592.039 43.288C592.22 43.3413 592.465 43.3893 592.775 43.432C593.084 43.4747 593.489 43.5173 593.991 43.56C594.716 43.6133 595.297 43.7413 595.735 43.944C596.183 44.1467 596.508 44.4187 596.711 44.76C596.913 45.1013 597.015 45.5067 597.015 45.976C597.015 46.4347 596.887 46.872 596.631 47.288C596.385 47.704 595.996 48.0453 595.463 48.312C594.94 48.5787 594.263 48.712 593.431 48.712ZM593.431 42.52C592.748 42.52 592.167 42.392 591.687 42.136C591.217 41.88 590.855 41.5333 590.599 41.096C590.353 40.6587 590.231 40.1733 590.231 39.64C590.231 39.096 590.353 38.6107 590.599 38.184C590.855 37.7467 591.223 37.4 591.703 37.144C592.183 36.8773 592.759 36.744 593.431 36.744C594.103 36.744 594.673 36.8773 595.143 37.144C595.623 37.4 595.985 37.7467 596.231 38.184C596.487 38.6107 596.615 39.096 596.615 39.64C596.615 40.1733 596.487 40.6587 596.231 41.096C595.985 41.5333 595.623 41.88 595.143 42.136C594.673 42.392 594.103 42.52 593.431 42.52ZM593.431 41.24C593.953 41.24 594.369 41.1067 594.679 40.84C594.988 40.5627 595.143 40.1627 595.143 39.64C595.143 39.1173 594.988 38.7227 594.679 38.456C594.369 38.1787 593.953 38.04 593.431 38.04C592.908 38.04 592.487 38.1787 592.167 38.456C591.847 38.7227 591.687 39.1173 591.687 39.64C591.687 40.1627 591.847 40.5627 592.167 40.84C592.487 41.1067 592.908 41.24 593.431 41.24ZM594.743 38.2L594.359 36.936H597.671V38.04L594.743 38.2ZM602.611 45.192C601.843 45.192 601.16 45.016 600.563 44.664C599.966 44.312 599.496 43.8213 599.155 43.192C598.824 42.5627 598.659 41.832 598.659 41C598.659 40.1467 598.824 39.4053 599.155 38.776C599.496 38.136 599.966 37.64 600.563 37.288C601.16 36.9253 601.854 36.744 602.643 36.744C603.432 36.744 604.11 36.92 604.675 37.272C605.24 37.624 605.678 38.0933 605.987 38.68C606.296 39.256 606.451 39.896 606.451 40.6C606.451 40.7067 606.446 40.824 606.435 40.952C606.435 41.0693 606.43 41.2027 606.419 41.352H599.827V40.216H604.851C604.819 39.544 604.595 39.0213 604.179 38.648C603.763 38.264 603.246 38.072 602.627 38.072C602.19 38.072 601.79 38.1733 601.427 38.376C601.064 38.568 600.771 38.856 600.547 39.24C600.334 39.6133 600.227 40.088 600.227 40.664V41.112C600.227 41.7093 600.334 42.216 600.547 42.632C600.771 43.0373 601.064 43.3467 601.427 43.56C601.79 43.7627 602.184 43.864 602.611 43.864C603.123 43.864 603.544 43.752 603.875 43.528C604.206 43.304 604.451 43 604.611 42.616H606.211C606.072 43.1067 605.838 43.5493 605.507 43.944C605.176 44.328 604.766 44.632 604.275 44.856C603.795 45.08 603.24 45.192 602.611 45.192Z" fill="#FFFFF2"/>
<path d="M515.601 36.7992C515.601 36.6401 515.538 36.4875 515.426 36.375C515.313 36.2624 515.16 36.1992 515.001 36.1992C514.842 36.1992 514.689 36.2624 514.577 36.375C514.464 36.4875 514.401 36.6401 514.401 36.7992V38.96L512.529 37.88C512.392 37.8069 512.232 37.79 512.082 37.8328C511.933 37.8756 511.806 37.9748 511.728 38.1094C511.65 38.2441 511.627 38.4037 511.665 38.5546C511.703 38.7056 511.797 38.836 511.929 38.9184L513.801 39.9992L511.929 41.0792C511.861 41.1186 511.801 41.1711 511.753 41.2336C511.705 41.2961 511.67 41.3675 511.649 41.4437C511.629 41.5198 511.624 41.5992 511.634 41.6774C511.644 41.7556 511.67 41.8309 511.709 41.8992C511.749 41.9675 511.801 42.0274 511.864 42.0754C511.926 42.1234 511.998 42.1586 512.074 42.179C512.15 42.1995 512.229 42.2047 512.307 42.1944C512.386 42.1842 512.461 42.1586 512.529 42.1192L514.401 41.0392V43.1992C514.401 43.3583 514.464 43.511 514.577 43.6235C514.689 43.736 514.842 43.7992 515.001 43.7992C515.16 43.7992 515.313 43.736 515.426 43.6235C515.538 43.511 515.601 43.3583 515.601 43.1992V41.0384L517.473 42.1184C517.611 42.1915 517.771 42.2085 517.92 42.1657C518.07 42.1229 518.197 42.0237 518.275 41.889C518.353 41.7543 518.375 41.5947 518.337 41.4438C518.3 41.2929 518.205 41.1624 518.073 41.08L516.201 39.9992L518.073 38.9192C518.211 38.8397 518.312 38.7086 518.353 38.5548C518.394 38.401 518.373 38.2371 518.293 38.0992C518.214 37.9613 518.083 37.8606 517.929 37.8194C517.775 37.7781 517.611 37.7997 517.473 37.8792L515.601 38.96V36.7992Z" fill="#FFFFF2"/>
<path d="M507 33.4C507 32.6272 507.627 32 508.4 32H521.6C522.373 32 523 32.6272 523 33.4V46.6C523 46.9713 522.852 47.3274 522.59 47.5899C522.327 47.8525 521.971 48 521.6 48H508.4C508.029 48 507.673 47.8525 507.41 47.5899C507.147 47.3274 507 46.9713 507 46.6V33.4ZM508.4 33.2C508.347 33.2 508.296 33.2211 508.259 33.2586C508.221 33.2961 508.2 33.347 508.2 33.4V46.6C508.2 46.7104 508.29 46.8 508.4 46.8H521.6C521.653 46.8 521.704 46.7789 521.741 46.7414C521.779 46.7039 521.8 46.653 521.8 46.6V33.4C521.8 33.347 521.779 33.2961 521.741 33.2586C521.704 33.2211 521.653 33.2 521.6 33.2H508.4Z" fill="#FFFFF2"/>
<rect x="507.5" y="179.5" width="223" height="39" rx="3.5" fill="white" fill-opacity="0.08" stroke="#C0C0C0"/>
<path d="M515.448 207L519.56 195.8H521.304L525.416 207H523.704L520.424 197.72L517.128 207H515.448ZM517.304 204.232L517.752 202.952H523.016L523.464 204.232H517.304ZM526.932 207V195.48H528.532V207H526.932ZM530.729 207V195.48H532.329V207H530.729Z" fill="white"/>
<path d="M718.529 196L720 197.487L711.983 205.588C711.854 205.719 711.701 205.822 711.533 205.893C711.365 205.964 711.184 206 711.002 206C710.82 206 710.639 205.964 710.471 205.893C710.303 205.822 710.15 205.719 710.022 205.588L702 197.487L703.471 196.001L711 203.604L718.529 196Z" fill="#FFFFF2"/>
<path d="M533.832 162.192C533.011 162.192 532.291 162.048 531.672 161.76C531.053 161.461 530.573 161.045 530.232 160.512C529.891 159.979 529.72 159.355 529.72 158.64H531.4C531.411 159.045 531.507 159.419 531.688 159.76C531.88 160.091 532.152 160.357 532.504 160.56C532.867 160.752 533.309 160.848 533.832 160.848C534.28 160.848 534.664 160.773 534.984 160.624C535.315 160.475 535.565 160.272 535.736 160.016C535.907 159.749 535.992 159.445 535.992 159.104C535.992 158.709 535.901 158.384 535.72 158.128C535.539 157.872 535.293 157.664 534.984 157.504C534.685 157.333 534.333 157.184 533.928 157.056C533.533 156.928 533.117 156.789 532.68 156.64C531.795 156.352 531.133 155.979 530.696 155.52C530.269 155.061 530.056 154.464 530.056 153.728C530.056 153.099 530.205 152.555 530.504 152.096C530.803 151.627 531.219 151.264 531.752 151.008C532.296 150.741 532.936 150.608 533.672 150.608C534.397 150.608 535.032 150.741 535.576 151.008C536.12 151.275 536.547 151.643 536.856 152.112C537.165 152.581 537.32 153.131 537.32 153.76H535.624C535.624 153.472 535.549 153.189 535.4 152.912C535.251 152.635 535.027 152.411 534.728 152.24C534.429 152.059 534.061 151.968 533.624 151.968C533.261 151.957 532.936 152.016 532.648 152.144C532.36 152.272 532.136 152.459 531.976 152.704C531.816 152.949 531.736 153.243 531.736 153.584C531.736 153.925 531.805 154.203 531.944 154.416C532.093 154.619 532.307 154.795 532.584 154.944C532.861 155.093 533.181 155.232 533.544 155.36C533.917 155.477 534.328 155.611 534.776 155.76C535.331 155.941 535.821 156.165 536.248 156.432C536.685 156.688 537.027 157.024 537.272 157.44C537.528 157.845 537.656 158.368 537.656 159.008C537.656 159.563 537.512 160.08 537.224 160.56C536.936 161.04 536.509 161.435 535.944 161.744C535.379 162.043 534.675 162.192 533.832 162.192ZM542.439 162.192C541.809 162.192 541.26 162.064 540.791 161.808C540.332 161.552 539.975 161.168 539.719 160.656C539.473 160.144 539.351 159.499 539.351 158.72V153.936H540.951V158.544C540.951 159.301 541.116 159.872 541.447 160.256C541.777 160.64 542.252 160.832 542.871 160.832C543.287 160.832 543.66 160.731 543.991 160.528C544.332 160.325 544.599 160.032 544.791 159.648C544.983 159.264 545.079 158.795 545.079 158.24V153.936H546.679V162H545.255L545.143 160.624C544.897 161.115 544.54 161.499 544.071 161.776C543.601 162.053 543.057 162.192 542.439 162.192ZM553.269 162.192C552.832 162.192 552.432 162.128 552.069 162C551.717 161.883 551.408 161.717 551.141 161.504C550.875 161.291 550.651 161.045 550.469 160.768L550.309 162H548.869V150.48H550.469V155.2C550.725 154.795 551.083 154.453 551.541 154.176C552.011 153.888 552.587 153.744 553.269 153.744C554.037 153.744 554.715 153.931 555.301 154.304C555.888 154.667 556.341 155.168 556.661 155.808C556.992 156.437 557.157 157.163 557.157 157.984C557.157 158.784 556.992 159.504 556.661 160.144C556.341 160.784 555.888 161.285 555.301 161.648C554.715 162.011 554.037 162.192 553.269 162.192ZM553.013 160.8C553.504 160.8 553.936 160.683 554.309 160.448C554.693 160.213 554.992 159.883 555.205 159.456C555.429 159.029 555.541 158.533 555.541 157.968C555.541 157.403 555.429 156.912 555.205 156.496C554.992 156.069 554.693 155.739 554.309 155.504C553.936 155.259 553.504 155.136 553.013 155.136C552.512 155.136 552.069 155.259 551.685 155.504C551.312 155.739 551.019 156.069 550.805 156.496C550.592 156.912 550.485 157.403 550.485 157.968C550.485 158.533 550.592 159.029 550.805 159.456C551.019 159.883 551.312 160.213 551.685 160.448C552.069 160.683 552.512 160.8 553.013 160.8ZM557.489 165.52V164.16H558.13C558.514 164.16 558.786 164.08 558.946 163.92C559.106 163.76 559.186 163.493 559.186 163.12V153.936H560.786V163.152C560.786 163.707 560.69 164.16 560.498 164.512C560.316 164.864 560.044 165.12 559.682 165.28C559.319 165.44 558.882 165.52 558.37 165.52H557.489ZM560.002 152.416C559.692 152.416 559.436 152.32 559.234 152.128C559.042 151.936 558.946 151.691 558.946 151.392C558.946 151.104 559.042 150.869 559.234 150.688C559.436 150.496 559.692 150.4 560.002 150.4C560.3 150.4 560.546 150.496 560.738 150.688C560.94 150.869 561.042 151.104 561.042 151.392C561.042 151.691 560.94 151.936 560.738 152.128C560.546 152.32 560.3 152.416 560.002 152.416ZM566.705 162.192C565.937 162.192 565.254 162.016 564.657 161.664C564.059 161.312 563.59 160.821 563.249 160.192C562.918 159.563 562.753 158.832 562.753 158C562.753 157.147 562.918 156.405 563.249 155.776C563.59 155.136 564.059 154.64 564.657 154.288C565.254 153.925 565.947 153.744 566.737 153.744C567.526 153.744 568.203 153.92 568.769 154.272C569.334 154.624 569.771 155.093 570.081 155.68C570.39 156.256 570.545 156.896 570.545 157.6C570.545 157.707 570.539 157.824 570.529 157.952C570.529 158.069 570.523 158.203 570.513 158.352H563.921V157.216H568.945C568.913 156.544 568.689 156.021 568.273 155.648C567.857 155.264 567.339 155.072 566.721 155.072C566.283 155.072 565.883 155.173 565.521 155.376C565.158 155.568 564.865 155.856 564.641 156.24C564.427 156.613 564.321 157.088 564.321 157.664V158.112C564.321 158.709 564.427 159.216 564.641 159.632C564.865 160.037 565.158 160.347 565.521 160.56C565.883 160.763 566.278 160.864 566.705 160.864C567.217 160.864 567.638 160.752 567.969 160.528C568.299 160.304 568.545 160 568.705 159.616H570.305C570.166 160.107 569.931 160.549 569.601 160.944C569.27 161.328 568.859 161.632 568.369 161.856C567.889 162.08 567.334 162.192 566.705 162.192ZM576.05 162.192C575.272 162.192 574.578 162.016 573.97 161.664C573.362 161.301 572.882 160.805 572.53 160.176C572.189 159.547 572.018 158.816 572.018 157.984C572.018 157.141 572.189 156.405 572.53 155.776C572.882 155.136 573.362 154.64 573.97 154.288C574.578 153.925 575.272 153.744 576.05 153.744C577.032 153.744 577.853 154 578.514 154.512C579.176 155.024 579.597 155.717 579.778 156.592H578.114C578.008 156.123 577.762 155.76 577.378 155.504C577.005 155.248 576.557 155.12 576.034 155.12C575.608 155.12 575.213 155.232 574.85 155.456C574.488 155.669 574.194 155.989 573.97 156.416C573.757 156.832 573.65 157.349 573.65 157.968C573.65 158.427 573.714 158.837 573.842 159.2C573.97 159.552 574.141 159.851 574.354 160.096C574.578 160.341 574.834 160.528 575.122 160.656C575.41 160.773 575.714 160.832 576.034 160.832C576.386 160.832 576.701 160.779 576.978 160.672C577.266 160.555 577.506 160.384 577.698 160.16C577.901 159.936 578.04 159.669 578.114 159.36H579.778C579.597 160.213 579.176 160.901 578.514 161.424C577.853 161.936 577.032 162.192 576.05 162.192ZM584.807 162C584.295 162 583.852 161.92 583.479 161.76C583.105 161.6 582.817 161.333 582.615 160.96C582.412 160.587 582.311 160.08 582.311 159.44V155.296H580.919V153.936H582.311L582.503 151.92H583.911V153.936H586.199V155.296H583.911V159.456C583.911 159.915 584.007 160.229 584.199 160.4C584.391 160.56 584.721 160.64 585.191 160.64H586.119V162H584.807Z" fill="#FFFFF2"/>
<path d="M508.385 165C507.99 165 507.661 164.863 507.397 164.589C507.133 164.316 507.001 163.974 507 163.564V150.436C507 150.027 507.132 149.685 507.397 149.412C507.661 149.138 507.991 149.001 508.385 149H517.616C518.01 149 518.339 149.137 518.604 149.412C518.869 149.686 519.001 150.028 519 150.436V163.564C519 163.973 518.868 164.315 518.604 164.589C518.34 164.864 518.01 165.001 517.615 165H508.385ZM508.385 164.111H517.616C517.747 164.111 517.868 164.054 517.978 163.94C518.089 163.827 518.143 163.701 518.143 163.564V150.436C518.143 150.3 518.088 150.174 517.978 150.06C517.869 149.945 517.747 149.888 517.615 149.889H516.429V155.325L514.714 154.265L513 155.325V149.889H508.385C508.253 149.889 508.132 149.946 508.022 150.06C507.911 150.173 507.857 150.299 507.857 150.436V163.564C507.857 163.701 507.912 163.826 508.022 163.94C508.131 164.055 508.252 164.112 508.384 164.111" fill="#FFFFF2"/>
<rect x="789.5" y="62.5" width="223" height="39" rx="3.5" fill="white" fill-opacity="0.08" stroke="#C0C0C0"/>
<path d="M797.448 90L801.56 78.8H803.304L807.416 90H805.704L802.424 80.72L799.128 90H797.448ZM799.304 87.232L799.752 85.952H805.016L805.464 87.232H799.304ZM808.932 90V78.48H810.532V90H808.932ZM812.729 90V78.48H814.329V90H812.729Z" fill="white"/>
<path d="M1000.53 79L1002 80.4873L993.983 88.588C993.854 88.7185 993.701 88.8222 993.533 88.8929C993.365 88.9636 993.184 89 993.002 89C992.82 89 992.639 88.9636 992.471 88.8929C992.303 88.8222 992.15 88.7185 992.022 88.588L984 80.4873L985.471 79.0014L993 86.6045L1000.53 79Z" fill="#FFFFF2"/>
<path d="M816.984 45V40.84L813.288 33.8H815.096L817.992 39.688H817.592L820.472 33.8H822.264L818.584 40.84V45H816.984ZM825.877 45.192C825.109 45.192 824.426 45.016 823.829 44.664C823.231 44.312 822.762 43.8213 822.421 43.192C822.09 42.5627 821.925 41.832 821.925 41C821.925 40.1467 822.09 39.4053 822.421 38.776C822.762 38.136 823.231 37.64 823.829 37.288C824.426 36.9253 825.119 36.744 825.909 36.744C826.698 36.744 827.375 36.92 827.941 37.272C828.506 37.624 828.943 38.0933 829.253 38.68C829.562 39.256 829.717 39.896 829.717 40.6C829.717 40.7067 829.711 40.824 829.701 40.952C829.701 41.0693 829.695 41.2027 829.685 41.352H823.093V40.216H828.117C828.085 39.544 827.861 39.0213 827.445 38.648C827.029 38.264 826.511 38.072 825.893 38.072C825.455 38.072 825.055 38.1733 824.693 38.376C824.33 38.568 824.037 38.856 823.813 39.24C823.599 39.6133 823.493 40.088 823.493 40.664V41.112C823.493 41.7093 823.599 42.216 823.813 42.632C824.037 43.0373 824.33 43.3467 824.693 43.56C825.055 43.7627 825.45 43.864 825.877 43.864C826.389 43.864 826.81 43.752 827.141 43.528C827.471 43.304 827.717 43 827.877 42.616H829.477C829.338 43.1067 829.103 43.5493 828.773 43.944C828.442 44.328 828.031 44.632 827.541 44.856C827.061 45.08 826.506 45.192 825.877 45.192ZM834.166 45.192C833.505 45.192 832.956 45.08 832.518 44.856C832.081 44.632 831.756 44.3333 831.542 43.96C831.329 43.576 831.222 43.1653 831.222 42.728C831.222 42.1947 831.361 41.7413 831.638 41.368C831.916 40.984 832.31 40.6907 832.822 40.488C833.334 40.2853 833.948 40.184 834.662 40.184H836.758C836.758 39.7147 836.689 39.3253 836.55 39.016C836.412 38.7067 836.204 38.4773 835.926 38.328C835.66 38.168 835.318 38.088 834.902 38.088C834.422 38.088 834.012 38.2053 833.67 38.44C833.329 38.664 833.116 39 833.03 39.448H831.43C831.494 38.8827 831.686 38.4027 832.006 38.008C832.337 37.6027 832.758 37.2933 833.27 37.08C833.782 36.856 834.326 36.744 834.902 36.744C835.66 36.744 836.294 36.8773 836.806 37.144C837.318 37.4107 837.702 37.7893 837.958 38.28C838.225 38.76 838.358 39.336 838.358 40.008V45H836.966L836.838 43.64C836.721 43.8533 836.582 44.056 836.422 44.248C836.262 44.44 836.07 44.6053 835.846 44.744C835.633 44.8827 835.382 44.9893 835.094 45.064C834.817 45.1493 834.508 45.192 834.166 45.192ZM834.47 43.896C834.812 43.896 835.121 43.8267 835.398 43.688C835.676 43.5493 835.91 43.3627 836.102 43.128C836.305 42.8827 836.454 42.6107 836.55 42.312C836.657 42.0027 836.716 41.688 836.726 41.368V41.32H834.822C834.364 41.32 833.99 41.3787 833.702 41.496C833.425 41.6027 833.222 41.752 833.094 41.944C832.966 42.136 832.902 42.36 832.902 42.616C832.902 42.8827 832.961 43.112 833.078 43.304C833.206 43.4853 833.388 43.6293 833.622 43.736C833.857 43.8427 834.14 43.896 834.47 43.896ZM840.401 45V36.936H841.841L841.985 38.456C842.166 38.0933 842.401 37.7893 842.689 37.544C842.977 37.288 843.313 37.0907 843.697 36.952C844.091 36.8133 844.539 36.744 845.041 36.744V38.44H844.465C844.134 38.44 843.819 38.4827 843.521 38.568C843.222 38.6427 842.955 38.776 842.721 38.968C842.497 39.16 842.321 39.4213 842.193 39.752C842.065 40.0827 842.001 40.4933 842.001 40.984V45H840.401ZM855.532 45.192C854.476 45.192 853.553 44.952 852.764 44.472C851.974 43.992 851.361 43.32 850.924 42.456C850.486 41.592 850.268 40.584 850.268 39.432C850.268 38.2907 850.486 37.2827 850.924 36.408C851.372 35.5333 852.006 34.8507 852.828 34.36C853.66 33.8587 854.641 33.608 855.772 33.608C857.041 33.608 858.102 33.9173 858.956 34.536C859.809 35.144 860.358 35.992 860.604 37.08H858.78C858.62 36.4613 858.284 35.976 857.772 35.624C857.26 35.2613 856.588 35.08 855.756 35.08C854.966 35.08 854.278 35.256 853.692 35.608C853.116 35.96 852.673 36.4613 852.364 37.112C852.054 37.7627 851.9 38.536 851.9 39.432C851.9 40.3387 852.054 41.1173 852.364 41.768C852.673 42.4187 853.11 42.9147 853.676 43.256C854.241 43.5973 854.892 43.768 855.628 43.768C856.758 43.768 857.606 43.4427 858.172 42.792C858.748 42.1413 859.084 41.272 859.18 40.184H856.092V38.952H860.796V45H859.34L859.196 43.288C858.94 43.704 858.641 44.056 858.3 44.344C857.969 44.6213 857.58 44.8347 857.132 44.984C856.684 45.1227 856.15 45.192 855.532 45.192ZM862.822 45V36.936H864.262L864.406 38.456C864.588 38.0933 864.822 37.7893 865.11 37.544C865.398 37.288 865.734 37.0907 866.118 36.952C866.513 36.8133 866.961 36.744 867.462 36.744V38.44H866.886C866.556 38.44 866.241 38.4827 865.942 38.568C865.644 38.6427 865.377 38.776 865.142 38.968C864.918 39.16 864.742 39.4213 864.614 39.752C864.486 40.0827 864.422 40.4933 864.422 40.984V45H862.822ZM872.377 45.192C871.62 45.192 870.937 45.016 870.329 44.664C869.732 44.312 869.257 43.8213 868.905 43.192C868.564 42.552 868.393 41.816 868.393 40.984C868.393 40.1307 868.569 39.3893 868.921 38.76C869.273 38.12 869.753 37.624 870.361 37.272C870.969 36.92 871.652 36.744 872.409 36.744C873.177 36.744 873.86 36.92 874.457 37.272C875.055 37.624 875.524 38.1147 875.865 38.744C876.217 39.3733 876.393 40.1147 876.393 40.968C876.393 41.8213 876.217 42.5627 875.865 43.192C875.524 43.8213 875.049 44.312 874.441 44.664C873.833 45.016 873.145 45.192 872.377 45.192ZM872.377 43.816C872.815 43.816 873.209 43.7093 873.561 43.496C873.924 43.2827 874.212 42.968 874.425 42.552C874.649 42.1253 874.761 41.5973 874.761 40.968C874.761 40.3387 874.655 39.816 874.441 39.4C874.228 38.9733 873.94 38.6533 873.577 38.44C873.225 38.2267 872.836 38.12 872.409 38.12C871.983 38.12 871.588 38.2267 871.225 38.44C870.863 38.6533 870.569 38.9733 870.345 39.4C870.132 39.816 870.025 40.3387 870.025 40.968C870.025 41.5973 870.132 42.1253 870.345 42.552C870.569 42.968 870.857 43.2827 871.209 43.496C871.572 43.7093 871.961 43.816 872.377 43.816ZM881.236 45.192C880.606 45.192 880.057 45.064 879.588 44.808C879.129 44.552 878.772 44.168 878.516 43.656C878.27 43.144 878.148 42.4987 878.148 41.72V36.936H879.748V41.544C879.748 42.3013 879.913 42.872 880.244 43.256C880.574 43.64 881.049 43.832 881.668 43.832C882.084 43.832 882.457 43.7307 882.788 43.528C883.129 43.3253 883.396 43.032 883.588 42.648C883.78 42.264 883.876 41.7947 883.876 41.24V36.936H885.476V45H884.052L883.94 43.624C883.694 44.1147 883.337 44.4987 882.868 44.776C882.398 45.0533 881.854 45.192 881.236 45.192ZM887.666 48.52V36.936H889.106L889.266 38.184C889.437 37.9387 889.65 37.7093 889.906 37.496C890.162 37.272 890.466 37.0907 890.818 36.952C891.181 36.8133 891.602 36.744 892.082 36.744C892.85 36.744 893.522 36.9307 894.098 37.304C894.685 37.6773 895.138 38.184 895.458 38.824C895.789 39.4533 895.954 40.1733 895.954 40.984C895.954 41.7947 895.789 42.52 895.458 43.16C895.127 43.7893 894.669 44.2853 894.082 44.648C893.506 45.0107 892.834 45.192 892.066 45.192C891.437 45.192 890.882 45.0693 890.402 44.824C889.922 44.568 889.543 44.216 889.266 43.768V48.52H887.666ZM891.81 43.8C892.301 43.8 892.733 43.6827 893.106 43.448C893.49 43.2133 893.789 42.8827 894.002 42.456C894.226 42.0293 894.338 41.5333 894.338 40.968C894.338 40.4027 894.226 39.912 894.002 39.496C893.789 39.0693 893.49 38.7387 893.106 38.504C892.733 38.2587 892.301 38.136 891.81 38.136C891.309 38.136 890.866 38.2587 890.482 38.504C890.109 38.7387 889.815 39.0693 889.602 39.496C889.389 39.912 889.282 40.4027 889.282 40.968C889.282 41.5333 889.389 42.0293 889.602 42.456C889.815 42.8827 890.109 43.2133 890.482 43.448C890.866 43.6827 891.309 43.8 891.81 43.8Z" fill="#FFFFF2"/>
<path d="M802.825 36.1716L798.742 32.1717C798.69 32.1156 798.627 32.0712 798.557 32.0416C798.486 32.012 798.41 31.9979 798.333 32.0003H792.5C792.191 32.0012 791.895 32.1219 791.676 32.336C791.457 32.5501 791.334 32.8403 791.333 33.1431V38.8573H790.167C789.857 38.8573 789.56 38.9777 789.342 39.192C789.123 39.4063 789 39.697 789 40.0001V43.4286C789 43.7317 789.123 44.0224 789.342 44.2368C789.56 44.4511 789.857 44.5715 790.167 44.5715H791.333V46.8572C791.334 47.16 791.457 47.4501 791.676 47.6643C791.895 47.8784 792.191 47.9991 792.5 48H801.833C802.142 47.9991 802.438 47.8784 802.657 47.6643C802.876 47.4501 802.999 47.16 803 46.8572V36.5716C803.002 36.4965 802.987 36.4219 802.957 36.3528C802.927 36.2838 802.882 36.222 802.825 36.1716ZM798.333 33.3717L801.6 36.5716H798.333V33.3717ZM790.167 40.0001H795.765L797.75 41.7144L795.771 43.4286H790.167V40.0001ZM801.833 46.8572H792.5V44.5715H795.772C796.053 44.5712 796.326 44.4712 796.538 44.2898L798.512 42.5807C798.638 42.4737 798.74 42.3413 798.81 42.1925C798.88 42.0438 798.916 41.882 798.917 41.7183C798.917 41.5545 798.882 41.3925 798.813 41.2433C798.744 41.0941 798.643 40.9611 798.518 40.8533L796.532 39.1339C796.321 38.9557 796.051 38.8576 795.772 38.8573H792.5V33.1431H797.167V36.5716C797.167 36.8744 797.291 37.1646 797.509 37.3787C797.728 37.5929 798.024 37.7136 798.333 37.7145H801.833V46.8572Z" fill="#FFFFF2"/>
<rect x="789.5" y="179.5" width="223" height="39" rx="3.5" fill="white" fill-opacity="0.08" stroke="#C0C0C0"/>
<path d="M797.448 207L801.56 195.8H803.304L807.416 207H805.704L802.424 197.72L799.128 207H797.448ZM799.304 204.232L799.752 202.952H805.016L805.464 204.232H799.304ZM808.932 207V195.48H810.532V207H808.932ZM812.729 207V195.48H814.329V207H812.729Z" fill="white"/>
<path d="M1000.53 196L1002 197.487L993.983 205.588C993.854 205.719 993.701 205.822 993.533 205.893C993.365 205.964 993.184 206 993.002 206C992.82 206 992.639 205.964 992.471 205.893C992.303 205.822 992.15 205.719 992.022 205.588L984 197.487L985.471 196.001L993 203.604L1000.53 196Z" fill="#FFFFF2"/>
<path d="M821.08 162.192C819.981 162.192 819.032 161.952 818.232 161.472C817.443 160.981 816.829 160.304 816.392 159.44C815.965 158.565 815.752 157.552 815.752 156.4C815.752 155.259 815.965 154.251 816.392 153.376C816.829 152.501 817.443 151.824 818.232 151.344C819.032 150.853 819.981 150.608 821.08 150.608C822.392 150.608 823.453 150.923 824.264 151.552C825.085 152.181 825.608 153.067 825.832 154.208H824.072C823.912 153.547 823.581 153.019 823.08 152.624C822.589 152.229 821.923 152.032 821.08 152.032C820.323 152.032 819.667 152.208 819.112 152.56C818.557 152.912 818.131 153.413 817.832 154.064C817.533 154.715 817.384 155.493 817.384 156.4C817.384 157.307 817.533 158.091 817.832 158.752C818.131 159.403 818.557 159.904 819.112 160.256C819.667 160.597 820.323 160.768 821.08 160.768C821.923 160.768 822.589 160.581 823.08 160.208C823.581 159.824 823.912 159.307 824.072 158.656H825.832C825.608 159.765 825.085 160.635 824.264 161.264C823.453 161.883 822.392 162.192 821.08 162.192ZM827.666 162V150.48H829.266V162H827.666ZM834.135 162.192C833.474 162.192 832.924 162.08 832.487 161.856C832.05 161.632 831.724 161.333 831.511 160.96C831.298 160.576 831.191 160.165 831.191 159.728C831.191 159.195 831.33 158.741 831.607 158.368C831.884 157.984 832.279 157.691 832.791 157.488C833.303 157.285 833.916 157.184 834.631 157.184H836.727C836.727 156.715 836.658 156.325 836.519 156.016C836.38 155.707 836.172 155.477 835.895 155.328C835.628 155.168 835.287 155.088 834.871 155.088C834.391 155.088 833.98 155.205 833.639 155.44C833.298 155.664 833.084 156 832.999 156.448H831.399C831.463 155.883 831.655 155.403 831.975 155.008C832.306 154.603 832.727 154.293 833.239 154.08C833.751 153.856 834.295 153.744 834.871 153.744C835.628 153.744 836.263 153.877 836.775 154.144C837.287 154.411 837.671 154.789 837.927 155.28C838.194 155.76 838.327 156.336 838.327 157.008V162H836.935L836.807 160.64C836.69 160.853 836.551 161.056 836.391 161.248C836.231 161.44 836.039 161.605 835.815 161.744C835.602 161.883 835.351 161.989 835.063 162.064C834.786 162.149 834.476 162.192 834.135 162.192ZM834.439 160.896C834.78 160.896 835.09 160.827 835.367 160.688C835.644 160.549 835.879 160.363 836.071 160.128C836.274 159.883 836.423 159.611 836.519 159.312C836.626 159.003 836.684 158.688 836.695 158.368V158.32H834.791C834.332 158.32 833.959 158.379 833.671 158.496C833.394 158.603 833.191 158.752 833.063 158.944C832.935 159.136 832.871 159.36 832.871 159.616C832.871 159.883 832.93 160.112 833.047 160.304C833.175 160.485 833.356 160.629 833.591 160.736C833.826 160.843 834.108 160.896 834.439 160.896ZM843.489 162.192C842.807 162.192 842.209 162.08 841.697 161.856C841.185 161.632 840.78 161.317 840.481 160.912C840.183 160.507 840.001 160.032 839.937 159.488H841.569C841.623 159.744 841.724 159.979 841.873 160.192C842.033 160.405 842.247 160.576 842.513 160.704C842.791 160.832 843.116 160.896 843.489 160.896C843.841 160.896 844.129 160.848 844.353 160.752C844.588 160.645 844.759 160.507 844.865 160.336C844.972 160.155 845.025 159.963 845.025 159.76C845.025 159.461 844.951 159.237 844.801 159.088C844.663 158.928 844.449 158.805 844.161 158.72C843.884 158.624 843.548 158.539 843.153 158.464C842.78 158.4 842.417 158.315 842.065 158.208C841.724 158.091 841.415 157.947 841.137 157.776C840.871 157.605 840.657 157.392 840.497 157.136C840.337 156.869 840.257 156.544 840.257 156.16C840.257 155.701 840.38 155.291 840.625 154.928C840.871 154.555 841.217 154.267 841.665 154.064C842.124 153.851 842.663 153.744 843.281 153.744C844.177 153.744 844.897 153.957 845.441 154.384C845.985 154.811 846.305 155.413 846.401 156.192H844.849C844.807 155.829 844.647 155.552 844.369 155.36C844.092 155.157 843.724 155.056 843.265 155.056C842.807 155.056 842.455 155.147 842.209 155.328C841.964 155.509 841.841 155.749 841.841 156.048C841.841 156.24 841.911 156.411 842.049 156.56C842.188 156.709 842.391 156.837 842.657 156.944C842.935 157.04 843.271 157.131 843.665 157.216C844.231 157.323 844.737 157.456 845.185 157.616C845.633 157.776 845.991 158.011 846.257 158.32C846.524 158.629 846.657 159.072 846.657 159.648C846.668 160.149 846.54 160.592 846.273 160.976C846.017 161.36 845.649 161.659 845.169 161.872C844.7 162.085 844.14 162.192 843.489 162.192ZM851.661 162.192C850.978 162.192 850.381 162.08 849.869 161.856C849.357 161.632 848.952 161.317 848.653 160.912C848.354 160.507 848.173 160.032 848.109 159.488H849.741C849.794 159.744 849.896 159.979 850.045 160.192C850.205 160.405 850.418 160.576 850.685 160.704C850.962 160.832 851.288 160.896 851.661 160.896C852.013 160.896 852.301 160.848 852.525 160.752C852.76 160.645 852.93 160.507 853.037 160.336C853.144 160.155 853.197 159.963 853.197 159.76C853.197 159.461 853.122 159.237 852.973 159.088C852.834 158.928 852.621 158.805 852.333 158.72C852.056 158.624 851.72 158.539 851.325 158.464C850.952 158.4 850.589 158.315 850.237 158.208C849.896 158.091 849.586 157.947 849.309 157.776C849.042 157.605 848.829 157.392 848.669 157.136C848.509 156.869 848.429 156.544 848.429 156.16C848.429 155.701 848.552 155.291 848.797 154.928C849.042 154.555 849.389 154.267 849.837 154.064C850.296 153.851 850.834 153.744 851.453 153.744C852.349 153.744 853.069 153.957 853.613 154.384C854.157 154.811 854.477 155.413 854.573 156.192H853.021C852.978 155.829 852.818 155.552 852.541 155.36C852.264 155.157 851.896 155.056 851.437 155.056C850.978 155.056 850.626 155.147 850.381 155.328C850.136 155.509 850.013 155.749 850.013 156.048C850.013 156.24 850.082 156.411 850.221 156.56C850.36 156.709 850.562 156.837 850.829 156.944C851.106 157.04 851.442 157.131 851.837 157.216C852.402 157.323 852.909 157.456 853.357 157.616C853.805 157.776 854.162 158.011 854.429 158.32C854.696 158.629 854.829 159.072 854.829 159.648C854.84 160.149 854.712 160.592 854.445 160.976C854.189 161.36 853.821 161.659 853.341 161.872C852.872 162.085 852.312 162.192 851.661 162.192Z" fill="#FFFFF2"/>
<path d="M800.754 159.111L804.334 155.961L804.489 155.972C804.65 155.992 804.775 156.062 804.865 156.181C804.955 156.301 805 156.43 805 156.568C805 156.648 804.986 156.723 804.957 156.795C804.928 156.866 804.875 156.929 804.798 156.983L801.959 159.493L802.818 163.3C802.821 163.319 802.823 163.341 802.823 163.366V163.431C802.823 163.597 802.77 163.733 802.663 163.84C802.556 163.947 802.425 164 802.269 164C802.22 164 802.169 163.997 802.115 163.992C802.061 163.986 802.012 163.963 801.966 163.923L801.84 163.845L800.754 159.111ZM798.788 152.918L797.785 150.507L797.838 150.374C797.884 150.255 797.954 150.163 798.049 150.098C798.144 150.033 798.245 150 798.353 150C798.461 150 798.566 150.033 798.669 150.098C798.772 150.163 798.847 150.253 798.893 150.368L799.993 153.034L798.788 152.918ZM792.346 161.956L795.593 159.961L798.839 161.983L797.989 158.202L800.849 155.681L797.087 155.34L795.593 151.77L794.098 155.314L790.336 155.655L793.196 158.202L792.346 161.956ZM791.216 162.208L792.053 158.579L789.295 156.134C789.197 156.042 789.124 155.942 789.074 155.834C789.025 155.725 789 155.617 789 155.508C789 155.308 789.068 155.122 789.205 154.95C789.342 154.778 789.53 154.681 789.769 154.66L793.41 154.333L794.817 150.914C794.887 150.744 794.994 150.616 795.14 150.531C795.286 150.447 795.435 150.404 795.587 150.404C795.74 150.404 795.89 150.447 796.039 150.531C796.187 150.616 796.297 150.744 796.368 150.914L797.776 154.333L801.416 154.66C801.655 154.681 801.843 154.777 801.98 154.95C802.117 155.12 802.186 155.306 802.186 155.506C802.186 155.62 802.161 155.731 802.111 155.837C802.061 155.943 801.988 156.042 801.89 156.134L799.133 158.579L799.976 162.209C799.989 162.248 799.995 162.31 799.995 162.396C799.995 162.639 799.912 162.843 799.747 163.007C799.581 163.171 799.388 163.253 799.167 163.253C799.126 163.253 798.977 163.207 798.721 163.116L795.593 161.197L792.465 163.116C792.392 163.155 792.318 163.188 792.242 163.213C792.165 163.239 792.093 163.253 792.023 163.253C791.773 163.253 791.558 163.15 791.378 162.944C791.198 162.737 791.144 162.492 791.216 162.208Z" fill="#FFFFF2"/>
</g>
<defs>
<filter id="filter0_d_2460_1905" x="-38" y="-39" width="1150" height="362" filterUnits="userSpaceOnUse" color-interpolation-filters="sRGB">
<feFlood flood-opacity="0" result="BackgroundImageFix"/>
<feColorMatrix in="SourceAlpha" type="matrix" values="0 0 0 0 0 0 0 0 0 0 0 0 0 0 0 0 0 0 127 0" result="hardAlpha"/>
<feOffset dy="1"/>
<feGaussianBlur stdDeviation="3"/>
<feComposite in2="hardAlpha" operator="out"/>
<feColorMatrix type="matrix" values="0 0 0 0 0.752941 0 0 0 0 0.752941 0 0 0 0 0.752941 0 0 0 0.22 0"/>
<feBlend mode="normal" in2="BackgroundImageFix" result="effect1_dropShadow_2460_1905"/>
<feBlend mode="normal" in="SourceGraphic" in2="effect1_dropShadow_2460_1905" result="shape"/>
</filter>
</defs>
</svg>
