<svg width="18" height="20" viewBox="0 0 18 20" fill="none" xmlns="http://www.w3.org/2000/svg">
<path d="M7.3 7.5295C5.1454 6.3622 2.872 4.3435 1 1M8.7544 3.1771C6.922 1.9756 4.6873 2.4778 3.7621 4.2994C2.8369 6.121 3.5722 8.5717 5.4037 9.7741C7.0615 10.8622 10.6903 11.9872 13.6 8.8705C10.873 7.7095 10.585 4.3795 8.7544 3.1771Z" stroke="#FFFFF2" stroke-width="1.5" stroke-linecap="round" stroke-linejoin="round"/>
<path d="M1.9 9.09961C1.324 9.52261 1 10.0041 1 10.5144C1 12.2181 4.627 13.5996 9.1 13.5996C13.573 13.5996 17.2 12.2181 17.2 10.5144C17.2 10.0041 16.876 9.52351 16.3 9.09961" stroke="#FFFFF2" stroke-width="1.5" stroke-linecap="round" stroke-linejoin="round"/>
<path d="M17.2 10.9004C17.2 14.1197 14.9446 16.9439 12.5155 18.5342C12.016 18.8618 11.422 19.0004 10.8253 19.0004H7.3747C6.778 19.0004 6.184 18.8618 5.6845 18.5342C3.2554 16.9439 1 14.1197 1 10.9004" stroke="#FFFFF2" stroke-width="1.5" stroke-linecap="round" stroke-linejoin="round"/>
</svg>