<svg width="10" height="10" viewBox="0 0 10 10" fill="none" xmlns="http://www.w3.org/2000/svg">
<path d="M9.92771 4.77837L5.2227 0.0908727C5.16393 0.0326693 5.08443 0 5.00157 0C4.9187 0 4.8392 0.0326693 4.78043 0.0908727L0.0754235 4.77837C0.0240365 4.83815 -0.00281528 4.91505 0.000233927 4.9937C0.00328314 5.07235 0.0360088 5.14696 0.0918712 5.20261C0.147734 5.25827 0.222618 5.29087 0.301561 5.29391C0.380504 5.29695 0.457689 5.27019 0.517694 5.219L5 0.753373L9.48231 5.22212C9.54231 5.27332 9.6195 5.30007 9.69844 5.29703C9.77738 5.29399 9.85227 5.26139 9.90813 5.20574C9.96399 5.15008 9.99672 5.07548 9.99977 4.99683C10.0028 4.91818 9.97596 4.84128 9.92458 4.7815L9.92771 4.77837Z" fill="#231F3A"/>
<path d="M8.13506 9.37578H6.56672V6.25078H3.43005V9.37578H1.86171V5.00078L1.23438 5.62578V9.37578C1.23438 9.54154 1.30047 9.70051 1.41812 9.81772C1.53577 9.93493 1.69533 10.0008 1.86171 10.0008H4.05738V6.87578H5.93938V10.0008H8.13506C8.30143 10.0008 8.461 9.93493 8.57865 9.81772C8.6963 9.70051 8.76239 9.54154 8.76239 9.37578V5.55078L8.13506 4.92578V9.37578Z" fill="#231F3A"/>
</svg>
