<svg width="16" height="16" viewBox="0 0 16 16" fill="none" xmlns="http://www.w3.org/2000/svg">
<path d="M8.60124 4.79922C8.60124 4.64009 8.53803 4.48748 8.4255 4.37495C8.31298 4.26243 8.16037 4.19922 8.00124 4.19922C7.84211 4.19922 7.6895 4.26243 7.57698 4.37495C7.46445 4.48748 7.40124 4.64009 7.40124 4.79922V6.96002L5.52924 5.88002C5.39196 5.80691 5.23165 5.78997 5.08212 5.83277C4.93259 5.87557 4.80552 5.97476 4.72771 6.10943C4.6499 6.2441 4.62742 6.40372 4.66502 6.55464C4.70261 6.70557 4.79734 6.83599 4.92924 6.91842L6.80124 7.99922L4.92924 9.07922C4.86095 9.11862 4.80109 9.17108 4.75308 9.23361C4.70507 9.29614 4.66984 9.36751 4.64941 9.44366C4.62898 9.5198 4.62375 9.59922 4.63402 9.67739C4.64428 9.75555 4.66984 9.83093 4.70924 9.89922C4.74864 9.96751 4.8011 10.0274 4.86363 10.0754C4.92616 10.1234 4.99753 10.1586 5.07368 10.179C5.14982 10.1995 5.22924 10.2047 5.30741 10.1944C5.38557 10.1842 5.46095 10.1586 5.52924 10.1192L7.40124 9.03922V11.1992C7.40124 11.3583 7.46445 11.511 7.57698 11.6235C7.6895 11.736 7.84211 11.7992 8.00124 11.7992C8.16037 11.7992 8.31298 11.736 8.4255 11.6235C8.53803 11.511 8.60124 11.3583 8.60124 11.1992V9.03842L10.4732 10.1184C10.6105 10.1915 10.7708 10.2085 10.9204 10.1657C11.0699 10.1229 11.197 10.0237 11.2748 9.88901C11.3526 9.75434 11.3751 9.59472 11.3375 9.44379C11.2999 9.29287 11.2051 9.16245 11.0732 9.08002L9.20124 7.99922L11.0732 6.91922C11.2112 6.83965 11.3118 6.70856 11.3531 6.55478C11.3943 6.401 11.3728 6.23713 11.2932 6.09922C11.2137 5.96131 11.0826 5.86065 10.9288 5.81939C10.775 5.77813 10.6112 5.79965 10.4732 5.87922L8.60124 6.96002V4.79922Z" fill="#FFFFF2"/>
<path d="M0 1.4C0 0.6272 0.6272 0 1.4 0H14.6C15.3728 0 16 0.6272 16 1.4V14.6C16 14.9713 15.8525 15.3274 15.5899 15.5899C15.3274 15.8525 14.9713 16 14.6 16H1.4C1.0287 16 0.672602 15.8525 0.410051 15.5899C0.1475 15.3274 0 14.9713 0 14.6V1.4ZM1.4 1.2C1.34696 1.2 1.29609 1.22107 1.25858 1.25858C1.22107 1.29609 1.2 1.34696 1.2 1.4V14.6C1.2 14.7104 1.2896 14.8 1.4 14.8H14.6C14.653 14.8 14.7039 14.7789 14.7414 14.7414C14.7789 14.7039 14.8 14.653 14.8 14.6V1.4C14.8 1.34696 14.7789 1.29609 14.7414 1.25858C14.7039 1.22107 14.653 1.2 14.6 1.2H1.4Z" fill="#FFFFF2"/>
</svg>
