<svg width="16" height="19" viewBox="0 0 16 19" fill="none" xmlns="http://www.w3.org/2000/svg">
<path d="M8.52268 17.6325C8.37036 17.7419 8.18754 17.8007 8 17.8007C7.81246 17.8007 7.62964 17.7419 7.47732 17.6325C2.97012 14.4199 -1.81335 7.81167 3.02239 3.03659C4.34995 1.73068 6.13779 0.999182 8 1C9.86672 1 11.6578 1.73269 12.9776 3.03566C17.8134 7.81073 13.0299 14.418 8.52268 17.6325Z" stroke="#FFFFF2" stroke-width="1.40004" stroke-linecap="round" stroke-linejoin="round"/>
<path d="M7.99953 9.40141C8.49462 9.40141 8.96943 9.20474 9.3195 8.85466C9.66958 8.50458 9.86626 8.02978 9.86626 7.53469C9.86626 7.0396 9.66958 6.5648 9.3195 6.21472C8.96943 5.86464 8.49462 5.66797 7.99953 5.66797C7.50445 5.66797 7.02964 5.86464 6.67956 6.21472C6.32948 6.5648 6.13281 7.0396 6.13281 7.53469C6.13281 8.02978 6.32948 8.50458 6.67956 8.85466C7.02964 9.20474 7.50445 9.40141 7.99953 9.40141Z" stroke="#FFFFF2" stroke-width="1.40004" stroke-linecap="round" stroke-linejoin="round"/>
</svg>
