<svg width="14" height="18" viewBox="0 0 14 18" fill="none" xmlns="http://www.w3.org/2000/svg">
<path d="M4.73438 8.99949C4.73438 9.61189 4.97765 10.1992 5.41068 10.6322C5.84372 11.0653 6.43103 11.3085 7.04343 11.3085C7.65583 11.3085 8.24315 11.0653 8.67618 10.6322C9.10922 10.1992 9.35249 9.61189 9.35249 8.99949C9.35249 8.38709 9.10922 7.79977 8.67618 7.36674C8.24315 6.93371 7.65583 6.69043 7.04343 6.69043C6.43103 6.69043 5.84372 6.93371 5.41068 7.36674C4.97765 7.79977 4.73438 8.38709 4.73438 8.99949Z" stroke="#FFFFF2" stroke-width="1.2" stroke-linecap="round" stroke-linejoin="round"/>
<path d="M7.03908 3.08881C6.80178 3.08881 6.56495 3.10302 6.3286 3.13144C6.31213 2.36022 6.56317 1.60709 7.03908 1C5.97336 1.35524 1 4.13322 1 9C1.01874 10.5841 1.66509 12.0962 2.79725 13.2043C3.9294 14.3125 5.4549 14.9264 7.03908 14.9112C7.27638 14.9112 7.5132 14.897 7.74956 14.8686C7.76603 15.6398 7.51498 16.3929 7.03908 17C8.1048 16.6519 13.0782 13.8739 13.0782 9.0071C13.0613 7.42173 12.4158 5.90789 11.2834 4.79818C10.151 3.68847 8.62447 3.07366 7.03908 3.08881Z" stroke="#FFFFF2" stroke-width="1.2" stroke-linecap="round" stroke-linejoin="round"/>
</svg>
