<svg width="12" height="16" viewBox="0 0 12 16" fill="none" xmlns="http://www.w3.org/2000/svg">
<path fill-rule="evenodd" clip-rule="evenodd" d="M8.96067 1H3.04067C2.74067 1 2.59067 1.227 2.61267 1.42C2.72667 2.413 2.94067 3.553 3.29867 4.282C3.77567 5.255 4.92667 6.348 5.79567 7.071C5.85229 7.12092 5.92519 7.14846 6.00067 7.14846C6.07616 7.14846 6.14905 7.12092 6.20567 7.071C7.07567 6.348 8.22567 5.255 8.70267 4.281C9.06067 3.553 9.27467 2.413 9.38967 1.42C9.41167 1.227 9.26067 1 8.96167 1M3.04067 0C2.19667 0 1.52167 0.696 1.61867 1.534C1.73467 2.539 1.96167 3.828 2.40067 4.722C2.98167 5.906 4.28867 7.118 5.15667 7.84C5.65067 8.25 6.35067 8.25 6.84467 7.84C7.71267 7.118 9.01967 5.906 9.60067 4.722C10.0397 3.828 10.2667 2.539 10.3827 1.534C10.4797 0.696 9.80467 0 8.96067 0H3.04067Z" fill="#FFFFF2"/>
<path fill-rule="evenodd" clip-rule="evenodd" d="M3.04 15H8.96C9.26 15 9.41 14.773 9.388 14.58C9.274 13.587 9.06 12.447 8.702 11.719C8.225 10.745 7.074 9.652 6.205 8.929C6.14838 8.87908 6.07549 8.85154 6 8.85154C5.92451 8.85154 5.85162 8.87908 5.795 8.929C4.925 9.652 3.775 10.745 3.298 11.719C2.94 12.447 2.726 13.587 2.611 14.581C2.589 14.773 2.741 15 3.04 15ZM8.959 16C9.803 16 10.478 15.304 10.381 14.466C10.265 13.46 10.038 12.172 9.599 11.278C9.018 10.094 7.711 8.882 6.843 8.16C6.60679 7.96101 6.30786 7.85188 5.999 7.85188C5.69014 7.85188 5.39121 7.96101 5.155 8.16C4.287 8.882 2.98 10.094 2.399 11.278C1.96 12.172 1.733 13.46 1.617 14.466C1.521 15.304 2.196 16 3.04 16H8.959ZM0 0.5C0 0.367392 0.0526785 0.240215 0.146447 0.146447C0.240215 0.0526785 0.367392 0 0.5 0H11.5C11.6326 0 11.7598 0.0526785 11.8536 0.146447C11.9473 0.240215 12 0.367392 12 0.5C12 0.632608 11.9473 0.759785 11.8536 0.853553C11.7598 0.947321 11.6326 1 11.5 1H0.5C0.367392 1 0.240215 0.947321 0.146447 0.853553C0.0526785 0.759785 0 0.632608 0 0.5Z" fill="#FFFFF2"/>
<path fill-rule="evenodd" clip-rule="evenodd" d="M0 15.5C0 15.3674 0.0526785 15.2402 0.146447 15.1464C0.240215 15.0527 0.367392 15 0.5 15H11.5C11.6326 15 11.7598 15.0527 11.8536 15.1464C11.9473 15.2402 12 15.3674 12 15.5C12 15.6326 11.9473 15.7598 11.8536 15.8536C11.7598 15.9473 11.6326 16 11.5 16H0.5C0.367392 16 0.240215 15.9473 0.146447 15.8536C0.0526785 15.7598 0 15.6326 0 15.5Z" fill="#FFFFF2"/>
</svg>
