<svg width="18" height="18" viewBox="0 0 18 18" fill="none" xmlns="http://www.w3.org/2000/svg">
<path d="M6.77778 9H11.2222M9 6.77778V11.2222M9 17C10.5822 17 12.129 16.5308 13.4446 15.6518C14.7602 14.7727 15.7855 13.5233 16.391 12.0615C16.9965 10.5997 17.155 8.99113 16.8463 7.43928C16.5376 5.88743 15.7757 4.46197 14.6568 3.34315C13.538 2.22433 12.1126 1.4624 10.5607 1.15372C9.00887 0.84504 7.40034 1.00347 5.93853 1.60897C4.47672 2.21447 3.22729 3.23985 2.34824 4.55544C1.46919 5.87103 1 7.41775 1 9C1 10.28 1.30044 11.4889 1.83556 12.5618C2.23822 13.3716 1.67822 14.464 1.46489 15.2613C1.41763 15.4377 1.41762 15.6234 1.46487 15.7997C1.51211 15.9761 1.60495 16.1369 1.73404 16.266C1.86314 16.395 2.02394 16.4879 2.20029 16.5351C2.37664 16.5824 2.56232 16.5824 2.73867 16.5351C3.536 16.3218 4.62844 15.7618 5.43822 16.1653C6.54508 16.7149 7.76421 17.0006 9 17Z" stroke="#FFFFF2" stroke-width="1.5" stroke-linecap="round" stroke-linejoin="round"/>
</svg>
