<svg width="16" height="13" viewBox="0 0 16 13" fill="none" xmlns="http://www.w3.org/2000/svg">
<path d="M1.71429 1.14286C1.56273 1.14286 1.41739 1.20306 1.31022 1.31022C1.20306 1.41739 1.14286 1.56273 1.14286 1.71429V10.8571C1.14286 11.0087 1.20306 11.154 1.31022 11.2612C1.41739 11.3684 1.56273 11.4286 1.71429 11.4286H14.2857C14.4373 11.4286 14.5826 11.3684 14.6898 11.2612C14.7969 11.154 14.8571 11.0087 14.8571 10.8571V1.71429C14.8571 1.56273 14.7969 1.41739 14.6898 1.31022C14.5826 1.20306 14.4373 1.14286 14.2857 1.14286H1.71429ZM1.71429 0H14.2857C14.7404 0 15.1764 0.180612 15.4979 0.502103C15.8194 0.823594 16 1.25963 16 1.71429V10.8571C16 11.3118 15.8194 11.7478 15.4979 12.0693C15.1764 12.3908 14.7404 12.5714 14.2857 12.5714H1.71429C1.25963 12.5714 0.823594 12.3908 0.502103 12.0693C0.180612 11.7478 0 11.3118 0 10.8571V1.71429C0 1.25963 0.180612 0.823594 0.502103 0.502103C0.823594 0.180612 1.25963 0 1.71429 0Z" fill="#FFFFF2"/>
<path d="M11.4297 2.85742C11.7328 2.85742 12.0235 2.97783 12.2378 3.19216C12.4521 3.40648 12.5725 3.69717 12.5725 4.00028C12.5725 4.30338 12.4521 4.59407 12.2378 4.8084C12.0235 5.02273 11.7328 5.14314 11.4297 5.14314C11.1266 5.14314 10.8359 5.02273 10.6216 4.8084C10.4072 4.59407 10.2868 4.30338 10.2868 4.00028C10.2868 3.69717 10.4072 3.40648 10.6216 3.19216C10.8359 2.97783 11.1266 2.85742 11.4297 2.85742ZM4.00112 5.14314H8.57255C8.9535 5.14314 9.14397 5.33361 9.14397 5.71456C9.14397 6.09552 8.9535 6.28599 8.57255 6.28599H4.00112C3.62016 6.28599 3.42969 6.09552 3.42969 5.71456C3.42969 5.33361 3.62016 5.14314 4.00112 5.14314ZM4.00112 7.42885H8.57255C8.9535 7.42885 9.14397 7.61933 9.14397 8.00028C9.14397 8.38123 8.9535 8.57171 8.57255 8.57171H4.00112C3.62016 8.57171 3.42969 8.38123 3.42969 8.00028C3.42969 7.61933 3.62016 7.42885 4.00112 7.42885Z" fill="#FFFFF2"/>
</svg>
