<svg width="18" height="16" viewBox="0 0 18 16" fill="none" xmlns="http://www.w3.org/2000/svg">
<path d="M13.0011 4V1H5.00113V4H4.00113V0H14.0011V4H13.0011ZM14.6161 7.5C14.8995 7.5 15.1371 7.404 15.3291 7.212C15.5211 7.02 15.6168 6.78267 15.6161 6.5C15.6155 6.21733 15.5198 5.97967 15.3291 5.787C15.1385 5.59433 14.9008 5.49833 14.6161 5.499C14.3315 5.49967 14.0941 5.59567 13.9041 5.787C13.7141 5.97833 13.6181 6.216 13.6161 6.5C13.6141 6.784 13.7101 7.02133 13.9041 7.212C14.0981 7.40267 14.3348 7.49867 14.6161 7.5ZM13.0011 14.384V9.846H5.00113V14.384H13.0011ZM14.0011 15.384H4.00113V11.384H0.578125V6C0.578125 5.43333 0.770458 4.95833 1.15512 4.575C1.53979 4.19167 2.01413 3.99967 2.57813 3.999H15.4241C15.9908 3.999 16.4658 4.191 16.8491 4.575C17.2325 4.959 17.4241 5.43367 17.4241 5.999V11.384H14.0011V15.384ZM16.4241 10.384V6C16.4241 5.71667 16.3285 5.479 16.1371 5.287C15.9458 5.095 15.7081 4.999 15.4241 4.999H2.57813C2.29479 4.999 2.05746 5.095 1.86612 5.287C1.67479 5.479 1.57879 5.71667 1.57813 6V10.384H4.00113V8.846H14.0011V10.384H16.4241Z" fill="#FFFFF2"/>
</svg>
