<svg width="16" height="9" viewBox="0 0 16 9" fill="none" xmlns="http://www.w3.org/2000/svg">
<path d="M8 0L7.84005 0.0469264L1.45232 2.11564L0 2.57849L0.845736 2.84029V7.16246C0.540658 7.33386 0.334717 7.64654 0.334717 8.01207C0.334717 8.27409 0.442396 8.52537 0.634065 8.71064C0.825734 8.89592 1.08569 9 1.35675 9C1.62782 9 1.88778 8.89592 2.07944 8.71064C2.27111 8.52537 2.37879 8.27409 2.37879 8.01207C2.37879 7.64654 2.17285 7.33386 1.86777 7.16246V3.18112L2.88981 3.50467V6.03622C2.88981 6.44127 3.14532 6.77717 3.44887 7.00933C3.75241 7.24001 4.12954 7.40302 4.58231 7.54923C5.48885 7.84067 6.68361 8.01207 8 8.01207C9.31638 8.01207 10.5111 7.84116 11.4177 7.54874C11.8705 7.40302 12.2476 7.24001 12.5511 7.00884C12.8547 6.77717 13.1102 6.44127 13.1102 6.03622V3.50467L14.5477 3.04133L16 2.57849L14.5472 2.11515L8.15944 0.0469264L8 0ZM8 1.03485L12.7908 2.57849L8 4.12212L3.2092 2.57849L8 1.03485ZM3.91185 3.84451L7.84056 5.11004L8 5.15648L8.15995 5.10955L12.0882 3.84402V6.03622C12.0882 6.04116 12.0902 6.09846 11.9282 6.22146C11.7667 6.34495 11.477 6.50055 11.0978 6.62305C10.3405 6.86658 9.22389 7.02415 8 7.02415C6.77611 7.02415 5.65953 6.86707 4.90169 6.62256C4.52354 6.50055 4.23328 6.34446 4.0718 6.22146C3.90929 6.09797 3.91185 6.04116 3.91185 6.03622V3.84451Z" fill="#FFFFF2"/>
</svg>
