<svg width="16" height="14" viewBox="0 0 16 14" fill="none" xmlns="http://www.w3.org/2000/svg">
<path d="M0 0V6.94278L0.172923 7.1333L3.69231 10.6138V14H7.38462V10.3478C7.38708 10.3143 7.47446 8.42739 5.88431 7.41817C5.88 7.41574 5.88923 7.40174 5.88431 7.39991C5.88 7.39687 5.87015 7.40174 5.86585 7.39991C5.13662 6.92878 4.38462 6.54409 3.86585 6.14417C3.34154 5.74243 3.07692 5.40948 3.07692 4.86957H1.84615C1.84615 5.85383 2.42769 6.6007 3.096 7.11443C3.76431 7.62817 4.54092 8.00617 5.192 8.42678H5.21169C6.19692 9.03791 6.15385 10.329 6.15385 10.329V12.7826H4.92308V10.1007L4.75015 9.91017L1.23077 6.42965V0H0ZM14.7692 0V6.42965L11.2498 9.91017L11.0769 10.1007V12.7826H9.84615V10.3095C9.84615 10.3095 9.80308 9.0373 10.7883 8.42678H10.808C11.4572 8.00617 12.2357 7.62696 12.904 7.11383C13.5723 6.6013 14.1538 5.85383 14.1538 4.86957H12.9231C12.9231 5.40948 12.6585 5.74243 12.1348 6.14417C11.6154 6.54348 10.8634 6.92817 10.1348 7.3993C10.1298 7.40174 10.12 7.39687 10.1151 7.3993V7.41878C8.53846 8.41704 8.61354 10.2839 8.61539 10.3478V14H12.3077V10.6138L15.8271 7.1333L16 6.94278V0H14.7692Z" fill="#FFFFF2"/>
</svg>
