<svg width="12" height="16" viewBox="0 0 12 16" fill="none" xmlns="http://www.w3.org/2000/svg">
<path d="M0 14V2C0 1.46957 0.210714 0.960859 0.585786 0.585786C0.960859 0.210714 1.46957 0 2 0H10C10.5304 0 11.0391 0.210714 11.4142 0.585786C11.7893 0.960859 12 1.46957 12 2V13C12 13.2652 11.8946 13.5196 11.7071 13.7071C11.5196 13.8946 11.2652 14 11 14H1C1 14.2652 1.10536 14.5196 1.29289 14.7071C1.48043 14.8946 1.73478 15 2 15H11.5C11.6326 15 11.7598 15.0527 11.8536 15.1464C11.9473 15.2402 12 15.3674 12 15.5C12 15.6326 11.9473 15.7598 11.8536 15.8536C11.7598 15.9473 11.6326 16 11.5 16H2C1.46957 16 0.960859 15.7893 0.585786 15.4142C0.210714 15.0391 0 14.5304 0 14ZM11 2C11 1.73478 10.8946 1.48043 10.7071 1.29289C10.5196 1.10536 10.2652 1 10 1H2C1.73478 1 1.48043 1.10536 1.29289 1.29289C1.10536 1.48043 1 1.73478 1 2V13H11V2ZM6.454 3.29C6.41386 3.20355 6.34984 3.13037 6.2695 3.07909C6.18915 3.02781 6.09582 3.00057 6.0005 3.00057C5.90518 3.00057 5.81185 3.02781 5.7315 3.07909C5.65116 3.13037 5.58714 3.20355 5.547 3.29L4.725 5.06L2.788 5.294C2.69331 5.30544 2.60388 5.34373 2.53024 5.40434C2.4566 5.46495 2.40183 5.54536 2.3724 5.63608C2.34297 5.7268 2.34009 5.82405 2.36412 5.91635C2.38814 6.00864 2.43807 6.09215 2.508 6.157L3.937 7.485L3.56 9.4C3.54165 9.49356 3.55044 9.59041 3.58532 9.67914C3.6202 9.76787 3.67972 9.84478 3.75687 9.90079C3.83401 9.95681 3.92556 9.98961 4.02073 9.99532C4.1159 10.001 4.21071 9.9794 4.294 9.933L6 8.985L7.706 9.933C7.78926 9.97911 7.88395 10.0005 7.97895 9.99464C8.07395 9.9888 8.1653 9.95595 8.24228 9.89998C8.31925 9.84401 8.37865 9.76723 8.4135 9.67866C8.44835 9.59009 8.4572 9.49342 8.439 9.4L8.064 7.485L9.494 6.157C9.56396 6.09208 9.61387 6.0085 9.63785 5.91612C9.66183 5.82375 9.65887 5.72644 9.62932 5.63569C9.59978 5.54494 9.54487 5.46455 9.4711 5.404C9.39733 5.34345 9.30777 5.30528 9.213 5.294L7.276 5.059L6.454 3.29ZM5.514 5.733L6 4.687L6.486 5.733C6.52177 5.81016 6.57664 5.87692 6.64541 5.92697C6.71418 5.97701 6.79458 6.00869 6.879 6.019L8.024 6.157L7.179 6.942C7.11663 7.00001 7.07012 7.07299 7.04386 7.15402C7.01761 7.23505 7.0125 7.32144 7.029 7.405L7.251 8.536L6.243 7.976C6.16868 7.93467 6.08504 7.91298 6 7.91298C5.91496 7.91298 5.83132 7.93467 5.757 7.976L4.75 8.536L4.971 7.405C4.9875 7.32144 4.98239 7.23505 4.95614 7.15402C4.92988 7.07299 4.88337 7.00001 4.821 6.942L3.977 6.157L5.12 6.02C5.2046 6.00985 5.28521 5.97825 5.35416 5.92819C5.42312 5.87814 5.47814 5.81129 5.514 5.734" fill="#FFFFF2"/>
</svg>
