<svg width="16" height="14" viewBox="0 0 16 14" fill="none" xmlns="http://www.w3.org/2000/svg">
<path d="M0.571429 0C0.419876 0 0.274531 0.0614583 0.167368 0.170854C0.0602039 0.280251 0 0.428624 0 0.583333C0 0.738043 0.0602039 0.886416 0.167368 0.995812C0.274531 1.10521 0.419876 1.16667 0.571429 1.16667H15.4286C15.5801 1.16667 15.7255 1.10521 15.8326 0.995812C15.9398 0.886416 16 0.738043 16 0.583333C16 0.428624 15.9398 0.280251 15.8326 0.170854C15.7255 0.0614583 15.5801 0 15.4286 0H0.571429ZM1.14286 4.375C1.14286 3.248 2.03886 2.33333 3.14286 2.33333H4.85714C5.96114 2.33333 6.85714 3.248 6.85714 4.375V11.9583C6.85714 12.4998 6.64643 13.0191 6.27136 13.402C5.89628 13.7849 5.38758 14 4.85714 14H3.14286C2.61242 14 2.10372 13.7849 1.72864 13.402C1.35357 13.0191 1.14286 12.4998 1.14286 11.9583V4.375ZM3.14286 3.5C2.91553 3.5 2.69751 3.59219 2.53677 3.75628C2.37602 3.92038 2.28571 4.14294 2.28571 4.375V11.9583C2.28571 12.4413 2.66971 12.8333 3.14286 12.8333H4.85714C5.08447 12.8333 5.30249 12.7411 5.46323 12.5771C5.62398 12.413 5.71429 12.1904 5.71429 11.9583V4.375C5.71429 4.14294 5.62398 3.92038 5.46323 3.75628C5.30249 3.59219 5.08447 3.5 4.85714 3.5H3.14286ZM9.14286 4.375C9.14286 3.248 10.0389 2.33333 11.1429 2.33333H12.8571C13.9611 2.33333 14.8571 3.248 14.8571 4.375V9.625C14.8571 10.1665 14.6464 10.6858 14.2714 11.0687C13.8963 11.4516 13.3876 11.6667 12.8571 11.6667H11.1429C10.6124 11.6667 10.1037 11.4516 9.72864 11.0687C9.35357 10.6858 9.14286 10.1665 9.14286 9.625V4.375ZM11.1429 3.5C10.9155 3.5 10.6975 3.59219 10.5368 3.75628C10.376 3.92038 10.2857 4.14294 10.2857 4.375V9.625C10.2857 10.108 10.6697 10.5 11.1429 10.5H12.8571C13.0845 10.5 13.3025 10.4078 13.4632 10.2437C13.624 10.0796 13.7143 9.85706 13.7143 9.625V4.375C13.7143 4.14294 13.624 3.92038 13.4632 3.75628C13.3025 3.59219 13.0845 3.5 12.8571 3.5H11.1429Z" fill="#FFFFF2"/>
</svg>
