<svg width="15" height="16" viewBox="0 0 15 16" fill="none" xmlns="http://www.w3.org/2000/svg">
<path d="M3.00018 6.28571H10.2006V7.42857H3.00018V6.28571ZM3.00018 10.2857H7.80047V9.14286H3.00018V10.2857ZM3.00018 13.1429H6.00036V12H3.00018V13.1429ZM1.20007 2.85714H3.00018V4.57143H10.2006V2.85714H12.0007V6.28571H13.2008V2.85714C13.2008 2.55404 13.0744 2.26335 12.8493 2.04902C12.6242 1.83469 12.319 1.71429 12.0007 1.71429H10.2006V1.14286C10.2006 0.839753 10.0742 0.549062 9.84912 0.334735C9.62406 0.120408 9.31882 0 9.00054 0H4.20025C3.88197 0 3.57673 0.120408 3.35167 0.334735C3.12662 0.549062 3.00018 0.839753 3.00018 1.14286V1.71429H1.20007C0.881793 1.71429 0.57655 1.83469 0.351493 2.04902C0.126436 2.26335 0 2.55404 0 2.85714V14.8571C0 15.1602 0.126436 15.4509 0.351493 15.6653C0.57655 15.8796 0.881793 16 1.20007 16H4.20025V14.8571H1.20007V2.85714ZM4.20025 1.14286H9.00054V3.42857H4.20025V1.14286ZM14.9469 15.392L11.1781 8.78286C11.1408 8.71866 11.0862 8.66514 11.0199 8.62787C10.9536 8.5906 10.878 8.57094 10.801 8.57094C10.7239 8.57094 10.6483 8.5906 10.582 8.62787C10.5157 8.66514 10.4611 8.71866 10.4238 8.78286L6.6538 15.3914C6.61793 15.454 6.59975 15.5244 6.60104 15.5957C6.60233 15.6669 6.62305 15.7367 6.66116 15.798C6.69928 15.8594 6.75348 15.9103 6.81846 15.9457C6.88344 15.9811 6.95696 15.9998 7.03182 16H14.5683C14.6432 16 14.7167 15.9814 14.7818 15.9461C14.8469 15.9108 14.9012 15.86 14.9394 15.7987C14.9777 15.7374 14.9985 15.6677 14.9999 15.5964C15.0013 15.5251 14.9827 15.4546 14.9469 15.392ZM10.3506 10.8571H11.2507V13.1429H10.3506V10.8571ZM10.8007 14.8571C10.7203 14.8596 10.6402 14.8466 10.5653 14.819C10.4903 14.7914 10.4219 14.7497 10.3642 14.6964C10.3064 14.6431 10.2605 14.5793 10.2291 14.5088C10.1978 14.4383 10.1816 14.3626 10.1816 14.286C10.1816 14.2094 10.1978 14.1337 10.2291 14.0632C10.2605 13.9927 10.3064 13.9289 10.3642 13.8756C10.4219 13.8223 10.4903 13.7806 10.5653 13.753C10.6402 13.7254 10.7203 13.7124 10.8007 13.7149C10.9564 13.7196 11.1042 13.7818 11.2126 13.8884C11.3211 13.995 11.3817 14.1376 11.3817 14.286C11.3817 14.4344 11.3211 14.577 11.2126 14.6836C11.1042 14.7902 10.9564 14.8525 10.8007 14.8571Z" fill="#FFFFF2"/>
</svg>
