<svg width="15" height="18" viewBox="0 0 15 18" fill="none" xmlns="http://www.w3.org/2000/svg">
<path d="M6.6875 8.2H4.25M9.125 5H4.25M1 14.3168V5.8432C1 3.56 1 2.4192 1.71419 1.7096C2.42756 1 3.57725 1 5.875 1H9.125C11.4228 1 12.5724 1 13.2858 1.7096C14 2.4184 14 3.56 14 5.8432V14.3168C14 15.5256 14 16.1304 13.6246 16.3688C13.0112 16.7576 12.063 15.9416 11.5861 15.6456C11.192 15.4008 10.9954 15.2792 10.776 15.272C10.5404 15.264 10.3397 15.3816 9.91394 15.6456L8.36125 16.6096C7.942 16.8696 7.73319 17 7.5 17C7.26681 17 7.058 16.8696 6.63875 16.6096L5.08687 15.6456C4.692 15.4008 4.49537 15.2792 4.27681 15.272C4.04037 15.264 3.83969 15.3816 3.41394 15.6456C2.937 15.9416 1.98881 16.7576 1.37456 16.3688C1 16.1304 1 15.5264 1 14.3168Z" stroke="#FFFFF2" stroke-width="1.5" stroke-linecap="round" stroke-linejoin="round"/>
</svg>
