<svg width="14" height="18" viewBox="0 0 14 18" fill="none" xmlns="http://www.w3.org/2000/svg">
<path d="M3.64831 0.594284L3.35169 0.296722L3.64831 0L3.94494 0.296722L3.64831 0.594284ZM4.06727 13.2029C4.06727 13.3143 4.02313 13.4212 3.94456 13.5C3.86599 13.5789 3.75943 13.6231 3.64831 13.6231C3.5372 13.6231 3.43063 13.5789 3.35206 13.5C3.27349 13.4212 3.22935 13.3143 3.22935 13.2029H4.06727ZM0 3.65901L3.35169 0.296722L3.94494 0.891846L0.593249 4.25413L0 3.65901ZM3.94494 0.296722L7.29662 3.65901L6.70338 4.25413L3.35169 0.891846L3.94494 0.296722ZM4.06727 0.594284V13.2029H3.22935V0.594284H4.06727ZM10.3517 17.4057L10.0551 17.7033L10.3517 18L10.6483 17.7033L10.3517 17.4057ZM10.7706 4.79714C10.7706 4.68567 10.7265 4.57877 10.6479 4.49996C10.5694 4.42114 10.4628 4.37686 10.3517 4.37686C10.2406 4.37686 10.134 4.42114 10.0554 4.49996C9.97687 4.57877 9.93273 4.68567 9.93273 4.79714H10.7706ZM6.70338 14.341L10.0551 17.7033L10.6483 17.1082L7.29662 13.7459L6.70338 14.341ZM10.6483 17.7033L14 14.341L13.4068 13.7459L10.0551 17.1082L10.6483 17.7033ZM10.7706 17.4057V4.79714H9.93273V17.4057H10.7706Z" fill="#FFFFF2"/>
</svg>
