<svg width="13" height="16" viewBox="0 0 13 16" fill="none" xmlns="http://www.w3.org/2000/svg">
<path d="M11.05 8.32C11.5672 8.32 12.0632 8.52228 12.4289 8.88235C12.7946 9.24242 13 9.73078 13 10.24V10.88C13 13.4029 10.582 16 6.5 16C2.418 16 0 13.4029 0 10.88V10.24C0 9.73078 0.205446 9.24242 0.571142 8.88235C0.936838 8.52228 1.43283 8.32 1.95 8.32H11.05ZM11.05 9.6H1.95C1.77761 9.6 1.61228 9.66743 1.49038 9.78745C1.36848 9.90747 1.3 10.0703 1.3 10.24V10.88C1.3 12.7206 3.1616 14.72 6.5 14.72C9.8384 14.72 11.7 12.7206 11.7 10.88V10.24C11.7 10.0703 11.6315 9.90747 11.5096 9.78745C11.3877 9.66743 11.2224 9.6 11.05 9.6ZM6.5 0C7.44815 0 8.35746 0.370856 9.02791 1.03098C9.69835 1.69111 10.075 2.58644 10.075 3.52C10.075 4.45356 9.69835 5.34889 9.02791 6.00902C8.35746 6.66914 7.44815 7.04 6.5 7.04C5.55185 7.04 4.64254 6.66914 3.97209 6.00902C3.30165 5.34889 2.925 4.45356 2.925 3.52C2.925 2.58644 3.30165 1.69111 3.97209 1.03098C4.64254 0.370856 5.55185 0 6.5 0ZM6.5 1.28C5.89663 1.28 5.31798 1.516 4.89133 1.93608C4.46469 2.35616 4.225 2.92592 4.225 3.52C4.225 4.11408 4.46469 4.68384 4.89133 5.10392C5.31798 5.524 5.89663 5.76 6.5 5.76C7.10337 5.76 7.68202 5.524 8.10867 5.10392C8.53531 4.68384 8.775 4.11408 8.775 3.52C8.775 2.92592 8.53531 2.35616 8.10867 1.93608C7.68202 1.516 7.10337 1.28 6.5 1.28Z" fill="#FFFFF2"/>
</svg>
