<svg width="19" height="16" viewBox="0 0 19 16" fill="none" xmlns="http://www.w3.org/2000/svg">
<path d="M11.2 1C14.4054 1 16.0084 1 17.0038 2.05825C17.9991 3.1165 18 4.81905 18 8.225C18 11.6309 18 13.3335 17.0038 14.3917C16.0076 15.45 14.4054 15.45 11.2 15.45H7.8C4.59465 15.45 2.99155 15.45 1.9962 14.3917C1.00085 13.3335 1 11.6309 1 8.225C1 4.81905 1 3.1165 1.9962 2.05825C2.9924 1 4.59465 1 7.8 1H11.2Z" stroke="#FFFFF2" stroke-width="0.9" stroke-linecap="round" stroke-linejoin="round"/>
<path d="M3.55078 11.2C4.91843 9.38355 8.10168 9.2841 9.50078 11.2M12.0508 6.1H15.4508M12.0508 9.5H13.7508M8.01243 6.7375C8.01243 7.13201 7.85571 7.51036 7.57675 7.78932C7.29779 8.06828 6.91944 8.225 6.52493 8.225C6.13042 8.225 5.75207 8.06828 5.47311 7.78932C5.19415 7.51036 5.03743 7.13201 5.03743 6.7375C5.03743 6.34299 5.19415 5.96464 5.47311 5.68568C5.75207 5.40672 6.13042 5.25 6.52493 5.25C6.91944 5.25 7.29779 5.40672 7.57675 5.68568C7.85571 5.96464 8.01243 6.34299 8.01243 6.7375Z" stroke="#FFFFF2" stroke-width="0.9" stroke-linecap="round" stroke-linejoin="round"/>
</svg>
