<svg width="16" height="16" viewBox="0 0 16 16" fill="none" xmlns="http://www.w3.org/2000/svg">
<path d="M7.77685 16H7.76196C6.68192 15.9702 5.63913 15.7242 4.66338 15.2769C4.59678 15.2467 4.5368 15.2036 4.48688 15.1501C4.43696 15.0966 4.39808 15.0337 4.37248 14.9652C4.34687 14.8966 4.33504 14.8237 4.33767 14.7505C4.3403 14.6774 4.35733 14.6055 4.38778 14.5389C4.51441 14.2556 4.84959 14.1364 5.12519 14.2631C5.96687 14.6507 6.86069 14.852 7.79175 14.8818C8.09714 14.8893 8.34294 15.1502 8.33549 15.4558C8.32804 15.7615 8.08224 16 7.77685 16ZM10.6967 15.4931C10.4732 15.4931 10.2647 15.3589 10.1753 15.1353C10.0635 14.8445 10.2051 14.524 10.4956 14.4122C11.3596 14.0767 12.1342 13.5773 12.7971 12.9287C13.0206 12.7126 13.3707 12.72 13.5867 12.9436C13.8027 13.1673 13.7952 13.5176 13.5718 13.7338C12.8051 14.4818 11.8956 15.0674 10.8978 15.4558C10.8307 15.4856 10.7637 15.4931 10.6967 15.4931ZM2.50331 13.5847C2.35434 13.5847 2.20537 13.5251 2.09365 13.4058C1.36369 12.6082 0.812503 11.6913 0.447527 10.6775C0.420145 10.6079 0.406977 10.5336 0.408801 10.4589C0.410625 10.3841 0.427404 10.3105 0.458145 10.2424C0.488887 10.1743 0.532968 10.113 0.587779 10.0622C0.642591 10.0114 0.707021 9.97218 0.777259 9.94676C0.847497 9.92133 0.922116 9.91026 0.996704 9.9142C1.07129 9.91813 1.14433 9.937 1.21151 9.96968C1.27868 10.0024 1.33863 10.0482 1.38779 10.1045C1.43696 10.1607 1.47436 10.2263 1.49777 10.2973C1.80858 11.1665 2.28973 11.9649 2.91298 12.6455C3.12154 12.8691 3.10664 13.2269 2.87574 13.4356C2.77146 13.5326 2.62994 13.5847 2.49587 13.5847H2.50331ZM14.8529 11.4453C14.761 11.4451 14.6705 11.4222 14.5895 11.3785C14.5085 11.3349 14.4395 11.272 14.3887 11.1953C14.3378 11.1186 14.3067 11.0305 14.298 10.9389C14.2894 10.8473 14.3034 10.7549 14.339 10.67C14.6965 9.8202 14.8827 8.9182 14.8827 7.98639C14.8827 7.68075 15.136 7.4273 15.4414 7.4273C15.7468 7.4273 16 7.68075 16 7.98639C16 9.06729 15.7914 10.1184 15.3669 11.1098C15.2775 11.326 15.0689 11.4527 14.8529 11.4527V11.4453ZM0.559254 8.12057H0.52946C0.381649 8.11171 0.243271 8.04495 0.14429 7.93472C0.0453091 7.8245 -0.00630753 7.67969 0.000616559 7.53166C0.0602046 6.45075 0.335799 5.41458 0.812503 4.45294C0.946576 4.17713 1.28176 4.06531 1.55735 4.19949C1.83295 4.33367 1.94468 4.66912 1.8106 4.94494C1.40253 5.77083 1.16683 6.67125 1.11789 7.5913C1.103 7.88948 0.857194 8.12057 0.559254 8.12057ZM15.1434 6.45076C14.9051 6.45076 14.6816 6.29421 14.6071 6.04821C14.3455 5.16335 13.9099 4.33968 13.326 3.62549C13.2334 3.50934 13.1901 3.36143 13.2054 3.21362C13.2207 3.06581 13.2934 2.92995 13.4079 2.83531C13.524 2.74262 13.6718 2.69927 13.8195 2.71461C13.9671 2.72995 14.1029 2.80274 14.1975 2.91731C14.8827 3.75222 15.3818 4.69894 15.6797 5.73512C15.7047 5.81847 15.7097 5.90652 15.6945 5.99218C15.6792 6.07784 15.6441 6.15872 15.5919 6.22833C15.5398 6.29793 15.472 6.35432 15.3941 6.39295C15.3162 6.43158 15.2304 6.45138 15.1434 6.45076ZM3.12154 2.90986C2.96512 2.90986 2.8087 2.84277 2.69697 2.71604C2.64889 2.66031 2.61228 2.59563 2.58924 2.5257C2.56621 2.45577 2.5572 2.38198 2.56274 2.30856C2.56827 2.23514 2.58824 2.16353 2.62151 2.09786C2.65477 2.03219 2.70067 1.97373 2.75656 1.92586C3.56845 1.21768 4.50696 0.688408 5.52741 0.360409C5.8179 0.2635 6.13818 0.4275 6.22757 0.718226C6.3244 1.00895 6.16053 1.3295 5.87004 1.42641C4.99111 1.70968 4.18668 2.1644 3.48652 2.77567C3.38224 2.86513 3.24816 2.90986 3.12154 2.90986ZM11.4713 1.95568C11.3802 1.95553 11.2905 1.93246 11.2106 1.88859C10.3913 1.45622 9.51235 1.19532 8.58874 1.11332C8.44174 1.10005 8.30595 1.0291 8.21105 0.915963C8.11615 0.802826 8.06984 0.656697 8.08224 0.509499C8.11204 0.203864 8.38018 -0.0272264 8.68557 0.00259172C9.75815 0.092046 10.786 0.397682 11.7395 0.897135C12.0151 1.03877 12.1119 1.38168 11.9704 1.65004C11.8735 1.8364 11.6799 1.94822 11.4788 1.94822L11.4713 1.95568Z" fill="#FFFFF2"/>
</svg>
