<svg width="16" height="16" viewBox="0 0 16 16" fill="none" xmlns="http://www.w3.org/2000/svg">
<path d="M15.5791 2.5916L8.19454 0.0328316C8.06822 -0.0109439 7.93164 -0.0109439 7.80532 0.0328316L0.420766 2.5916C0.298232 2.63406 0.191658 2.71552 0.11614 2.82445C0.0406225 2.93337 -9.5709e-06 3.06424 1.69103e-09 3.1985V9.59542C1.69103e-09 9.76508 0.0648344 9.92778 0.18024 10.0478C0.295646 10.1677 0.452171 10.2351 0.615379 10.2351C0.778588 10.2351 0.935112 10.1677 1.05052 10.0478C1.16592 9.92778 1.23076 9.76508 1.23076 9.59542V4.08608L3.81458 4.98084C3.12809 6.13373 2.90979 7.52269 3.20762 8.84275C3.50544 10.1628 4.29503 11.306 5.40303 12.0214C4.01843 12.586 2.82151 13.6071 1.94614 15.0032C1.90061 15.0735 1.86899 15.1526 1.85311 15.2357C1.83723 15.3189 1.83741 15.4045 1.85363 15.4876C1.86986 15.5707 1.90181 15.6496 1.94763 15.7197C1.99344 15.7898 2.05221 15.8498 2.12052 15.8961C2.18883 15.9424 2.26531 15.9742 2.34552 15.9895C2.42574 16.0048 2.50808 16.0034 2.58776 15.9853C2.66744 15.9673 2.74288 15.9329 2.80968 15.8843C2.87649 15.8357 2.93333 15.7737 2.9769 15.7021C4.13612 13.8534 5.96687 12.7939 7.99993 12.7939C10.033 12.7939 11.8637 13.8534 13.023 15.7021C13.1132 15.8415 13.2526 15.9384 13.4111 15.9719C13.5696 16.0053 13.7343 15.9726 13.8697 15.8808C14.0051 15.789 14.1004 15.6454 14.1348 15.4812C14.1692 15.317 14.1401 15.1453 14.0537 15.0032C13.1783 13.6071 11.9768 12.586 10.5968 12.0214C11.7038 11.3061 12.4926 10.1636 12.7904 8.84449C13.0882 7.5254 12.8706 6.13739 12.1853 4.98484L15.5791 3.80941C15.7017 3.76697 15.8083 3.68552 15.8838 3.57659C15.9593 3.46766 16 3.33679 16 3.2025C16 3.06822 15.9593 2.93734 15.8838 2.82841C15.8083 2.71949 15.7017 2.63803 15.5791 2.5956V2.5916ZM11.6922 7.67635C11.6924 8.28314 11.5541 8.88132 11.2888 9.42183C11.0235 9.96233 10.6387 10.4297 10.166 10.7857C9.69328 11.1417 9.1461 11.3761 8.56935 11.4697C7.99261 11.5632 7.40273 11.5133 6.84813 11.3241C6.29353 11.1348 5.79001 10.8115 5.37887 10.3807C4.96773 9.94999 4.6607 9.42405 4.48297 8.84607C4.30524 8.26809 4.26186 7.65454 4.35641 7.05576C4.45096 6.45698 4.68073 5.89004 5.02688 5.40144L7.80532 6.36098C7.93164 6.40476 8.06822 6.40476 8.19454 6.36098L10.973 5.40144C11.4405 6.06035 11.6925 6.85763 11.6922 7.67635ZM7.99993 5.0832L2.56152 3.1985L7.99993 1.31381L13.4383 3.1985L7.99993 5.0832Z" fill="#FFFFF2"/>
</svg>
