<svg width="12" height="16" viewBox="0 0 12 16" fill="none" xmlns="http://www.w3.org/2000/svg">
<path d="M1.38514 16C0.990286 16 0.660857 15.8631 0.396857 15.5893C0.132857 15.3156 0.000571429 14.9739 0 14.5644V1.43556C0 1.02667 0.132286 0.685333 0.396857 0.411556C0.661428 0.137778 0.990857 0.000592593 1.38514 0H10.6157C11.01 0 11.3394 0.137185 11.604 0.411556C11.8686 0.685926 12.0006 1.02756 12 1.43644V14.5644C12 14.9733 11.868 15.315 11.604 15.5893C11.34 15.8637 11.0103 16.0006 10.6149 16H1.38514ZM1.38514 15.1111H10.6157C10.7471 15.1111 10.868 15.0542 10.9783 14.9404C11.0886 14.8267 11.1434 14.701 11.1429 14.5636V1.43644C11.1429 1.29956 11.088 1.17393 10.9783 1.05956C10.8686 0.945185 10.7474 0.888296 10.6149 0.888889H9.42857V6.32533L7.71428 5.26489L6 6.32533V0.888889H1.38514C1.25314 0.888889 1.132 0.945778 1.02171 1.05956C0.911428 1.17333 0.856571 1.29867 0.857143 1.43556V14.5644C0.857143 14.7007 0.912 14.8261 1.02171 14.9404C1.13143 15.0548 1.25229 15.1117 1.38429 15.1111" fill="#FFFFF2"/>
</svg>
