<svg width="14" height="16" viewBox="0 0 14 16" fill="none" xmlns="http://www.w3.org/2000/svg">
<path d="M7 16L4.74513 13.7805H1.41313C1.01063 13.7805 0.674335 13.6478 0.404252 13.3826C0.134168 13.1173 -0.000581447 12.786 1.88578e-06 12.3887V1.39183C1.88578e-06 0.995066 0.135043 0.664047 0.405127 0.398773C0.67521 0.133498 1.0115 0.000574187 1.414 0H12.5869C12.9894 0 13.3257 0.132924 13.5957 0.398773C13.8658 0.664621 14.0006 0.99564 14 1.39183V12.3895C14 12.7857 13.8652 13.1167 13.5957 13.3826C13.3262 13.6484 12.9897 13.7811 12.586 13.7805H9.25487L7 16ZM0.875002 12.2603C1.6625 11.4995 2.57775 10.9001 3.62075 10.462C4.66375 10.0239 5.79017 9.80481 7 9.80481C8.20983 9.80481 9.33654 10.0239 10.3801 10.462C11.4237 10.9001 12.3387 11.4995 13.125 12.2603V1.39097C13.125 1.2589 13.069 1.13746 12.957 1.02665C12.845 0.915828 12.7213 0.860706 12.586 0.86128H1.414C1.27925 0.86128 1.15558 0.916402 1.043 1.02665C0.930418 1.13689 0.874418 1.25833 0.875002 1.39097V12.2603ZM7 7.81784C7.73383 7.81784 8.35479 7.56778 8.86287 7.06766C9.37096 6.56755 9.625 5.95633 9.625 5.234C9.625 4.51167 9.37096 3.90045 8.86287 3.40033C8.35479 2.90022 7.73383 2.65016 7 2.65016C6.26617 2.65016 5.64521 2.90022 5.13713 3.40033C4.62904 3.90045 4.375 4.51167 4.375 5.234C4.375 5.95633 4.62904 6.56755 5.13713 7.06766C5.64521 7.56778 6.26617 7.81784 7 7.81784ZM1.64938 12.9192H12.3506V12.7702C11.5812 12.0582 10.7432 11.5297 9.83675 11.1846C8.93025 10.8395 7.98467 10.667 7 10.667C6.0375 10.667 5.10038 10.8366 4.18863 11.176C3.27688 11.5153 2.43017 12.0358 1.6485 12.7375L1.64938 12.9192ZM7 6.95656C6.52342 6.95656 6.11246 6.78689 5.76713 6.44754C5.42238 6.10762 5.25 5.70311 5.25 5.234C5.25 4.76489 5.42238 4.36037 5.76713 4.02046C6.11246 3.68111 6.52342 3.51144 7 3.51144C7.47658 3.51144 7.88754 3.68111 8.23287 4.02046C8.57763 4.36037 8.75 4.76489 8.75 5.234C8.75 5.70311 8.57763 6.10762 8.23287 6.44754C7.88813 6.78746 7.47717 6.95713 7 6.95656Z" fill="#FFFFF2"/>
</svg>
