<svg width="14" height="16" viewBox="0 0 14 16" fill="none" xmlns="http://www.w3.org/2000/svg">
<path d="M13.8248 4.17162L9.74153 0.171689C9.6904 0.115612 9.62734 0.0712001 9.55679 0.0415819C9.48624 0.0119636 9.40992 -0.00214058 9.33321 0.000262826H3.49995C3.19082 0.00116723 2.89462 0.121864 2.67603 0.335992C2.45744 0.55012 2.33422 0.84028 2.3333 1.1431V6.85729H1.16665C0.857236 6.85729 0.560494 6.9777 0.341704 7.19202C0.122915 7.40635 0 7.69703 0 8.00013V11.4286C0 11.7317 0.122915 12.0224 0.341704 12.2368C0.560494 12.4511 0.857236 12.5715 1.16665 12.5715H2.3333V14.8572C2.33422 15.16 2.45744 15.4501 2.67603 15.6643C2.89462 15.8784 3.19082 15.9991 3.49995 16H12.8332C13.1423 15.9991 13.4385 15.8784 13.6571 15.6643C13.8757 15.4501 13.9989 15.16 13.9998 14.8572V4.57162C14.0019 4.49652 13.9873 4.42188 13.9571 4.35282C13.9269 4.28377 13.8817 4.22195 13.8248 4.17162ZM9.33321 1.37167L12.5998 4.57162H9.33321V1.37167ZM1.16665 8.00013H6.76482L8.74988 9.71439L6.77066 11.4286H1.16665V8.00013ZM12.8332 14.8572H3.49995V12.5715H6.77182C7.05347 12.5712 7.32551 12.4712 7.53773 12.2898L9.5117 10.5807C9.63829 10.4737 9.73995 10.3413 9.80981 10.1925C9.87967 10.0438 9.91611 9.88203 9.91667 9.71826C9.91722 9.5545 9.88187 9.39252 9.81301 9.24329C9.74416 9.09406 9.64339 8.96105 9.51754 8.85326L7.5319 7.13386C7.3206 6.95575 7.05117 6.85764 6.77241 6.85729H3.49995V1.1431H8.16656V4.57162C8.16748 4.87444 8.29069 5.1646 8.50928 5.37873C8.72787 5.59285 9.02408 5.71355 9.33321 5.71445H12.8332V14.8572Z" fill="#FFFFF2"/>
</svg>
