<?xml version="1.0" encoding="UTF-8"?>
<svg version="1.1" xmlns="http://www.w3.org/2000/svg" width="96" height="96">
<path d="M0 0 C7.61356684 4.44542143 12.23053269 10.49028471 14.5625 19 C15.09025627 22.40686445 15.33396674 25.81169831 15.5625 29.25 C16.50385102 40.57476791 17.7351719 50.15683854 24.2578125 59.74609375 C25.67956072 62.20222766 26.24427745 64.18903417 26.5625 67 C24.88914004 68.67335996 22.84862091 68.11962895 20.61502075 68.12442017 C19.9079599 68.12082489 19.20089905 68.11722961 18.47241211 68.11352539 C17.73099472 68.11367142 16.98957733 68.11381744 16.22569275 68.1139679 C13.76371379 68.11326865 11.30180957 68.10547574 8.83984375 68.09765625 C7.13733461 68.09579211 5.43482493 68.09436819 3.73231506 68.09336853 C-0.75743073 68.08954302 -5.24714438 68.07971247 -9.73687744 68.06866455 C-14.31481491 68.05845113 -18.89275756 68.05387106 -23.47070312 68.04882812 C-32.45964957 68.03809022 -41.44857212 68.02101341 -50.4375 68 C-51.57177734 63.25 -51.57177734 63.25 -50.36328125 61 C-49.83089844 60.34 -49.29851563 59.68 -48.75 59 C-41.88051546 49.22971224 -40.88427888 38.57080164 -40.29589844 26.9543457 C-39.75699217 18.37726749 -37.2045544 10.93704313 -31.2421875 4.57421875 C-22.46977357 -3.07790855 -10.69438778 -4.78561645 0 0 Z M-28 11.32421875 C-33.11066507 17.2820321 -33.48768596 24.86532372 -33.75 32.375 C-34.27372562 42.97491153 -36.66724588 52.45949176 -41.4375 62 C-22.6275 62 -3.8175 62 15.5625 62 C14.5725 59.03 13.5825 56.06 12.5625 53 C10.47938405 46.29663971 9.37056221 39.88731734 9.0625 32.875 C8.63703671 23.82404162 7.62094478 16.1613954 1.1640625 9.40234375 C-8.11911982 1.27389874 -19.53896377 3.43116875 -28 11.32421875 Z " fill="#000000" transform="translate(60.4375,7)"/>
<path d="M0 0 C3.14285406 0.29931943 3.48964015 1.11464015 5.625 3.25 C7.76303054 3.17393164 7.76303054 3.17393164 9.625 2.25 C9.955 1.59 10.285 0.93 10.625 0.25 C12.275 0.25 13.925 0.25 15.625 0.25 C16.4375 2.4375 16.4375 2.4375 16.625 5.25 C14.8125 8.0625 14.8125 8.0625 11.625 10.25 C6.7237723 11.18051131 2.90332397 10.94029494 -1.5 8.5625 C-3.375 6.25 -3.375 6.25 -3.75 3.5625 C-3.24472368 0.44662939 -3.15165739 0.33175341 0 0 Z " fill="#000000" transform="translate(41.375,80.75)"/>
</svg>
