<?xml version="1.0" encoding="UTF-8"?>
<svg version="1.1" xmlns="http://www.w3.org/2000/svg" width="96" height="96">
<path d="M0 0 C2.98478755 0.15306603 4.53828804 0.60197244 6.8125 2.5625 C8.50413158 6.03479639 8.82255649 9.26514893 8 13 C5.5625 15.9375 5.5625 15.9375 3 18 C2.67 18.33 2.34 18.66 2 19 C2.33007432 24.61126336 3.70800172 27.6460668 7 32 C7.86882813 31.86980469 8.73765625 31.73960938 9.6328125 31.60546875 C20.22913872 30.33722836 20.22913872 30.33722836 23.6875 32.9375 C26.52317432 36.69285248 27.01223377 39.44107892 28 44 C30.67643957 44.89214652 32.25384378 45.13540211 35 45.125 C36.0209375 45.12886719 36.0209375 45.12886719 37.0625 45.1328125 C39.21874781 45.06631126 39.21874781 45.06631126 42 44 C42.84179 42.02893873 42.84179 42.02893873 43.375 39.6875 C44.36291902 36.48949409 44.98932414 35.01215862 47.25 32.4375 C52.52123575 29.68208131 57.28960387 31.04826731 63 32 C66.465 27.05 66.465 27.05 70 22 C71.65 22.33 73.3 22.66 75 23 C74.69298422 28.98680761 71.81592387 33.53170507 68 38 C64.5851783 40.4338902 61.82074527 40.06747231 57.75 39.625 C56.67234375 39.51414063 55.5946875 39.40328125 54.484375 39.2890625 C53.25460938 39.14597656 53.25460938 39.14597656 52 39 C51.608125 40.216875 51.21625 41.43375 50.8125 42.6875 C49.4717413 46.8509086 47.47640312 49.32938568 44 52 C40.9759455 52.69153739 38.08928929 52.65527898 35 52.5625 C34.2059375 52.57345703 33.411875 52.58441406 32.59375 52.59570312 C28.69264125 52.54693927 26.46746599 52.27552631 23.05078125 50.26171875 C20.9123458 47.90332994 20.03732427 46.29147633 19.1875 43.25 C18.95417969 42.45078125 18.72085937 41.6515625 18.48046875 40.828125 C18.24263672 39.92320313 18.24263672 39.92320313 18 39 C17.20335938 39.11859375 16.40671875 39.2371875 15.5859375 39.359375 C7.06813187 40.3956044 7.06813187 40.3956044 2.625 38.75 C-2.15213639 33.74538093 -5.49993197 28.05041496 -6.625 21.1875 C-5.86871494 17.33044619 -4.46131543 15.04044848 -2 12 C-1.34 11.67 -0.68 11.34 0 11 C-0.47441915 8.56013011 -0.94166361 6.1856158 -1.6875 3.8125 C-1.790625 3.214375 -1.89375 2.61625 -2 2 C-1.34 1.34 -0.68 0.68 0 0 Z " fill="#000000" transform="translate(13,39)"/>
<path d="M0 0 C0.7940625 -0.01095703 1.588125 -0.02191406 2.40625 -0.03320312 C6.30735875 0.01556073 8.53253401 0.28697369 11.94921875 2.30078125 C14.0876542 4.65917006 14.96267573 6.27102367 15.8125 9.3125 C16.16248047 10.51132812 16.16248047 10.51132812 16.51953125 11.734375 C16.67808594 12.33765625 16.83664063 12.9409375 17 13.5625 C17.79664063 13.44390625 18.59328125 13.3253125 19.4140625 13.203125 C27.93186813 12.1668956 27.93186813 12.1668956 32.375 13.8125 C37.15213639 18.81711907 40.49993197 24.51208504 41.625 31.375 C40.86871494 35.23205381 39.46131543 37.52205152 37 40.5625 C36.01 41.0575 36.01 41.0575 35 41.5625 C35.47441915 44.00236989 35.94166361 46.3768842 36.6875 48.75 C36.790625 49.348125 36.89375 49.94625 37 50.5625 C36.01 51.5525 36.01 51.5525 35 52.5625 C32.01521245 52.40943397 30.46171196 51.96052756 28.1875 50 C26.49586842 46.52770361 26.17744351 43.29735107 27 39.5625 C29.4375 36.625 29.4375 36.625 32 34.5625 C32.33 34.2325 32.66 33.9025 33 33.5625 C32.66992568 27.95123664 31.29199828 24.9164332 28 20.5625 C27.13117188 20.69269531 26.26234375 20.82289062 25.3671875 20.95703125 C14.77086128 22.22527164 14.77086128 22.22527164 11.3125 19.625 C8.47682568 15.86964752 7.98776623 13.12142108 7 8.5625 C4.32356043 7.67035348 2.74615622 7.42709789 0 7.4375 C-0.680625 7.43492188 -1.36125 7.43234375 -2.0625 7.4296875 C-4.21874781 7.49618874 -4.21874781 7.49618874 -7 8.5625 C-7.84179 10.53356127 -7.84179 10.53356127 -8.375 12.875 C-9.36291902 16.07300591 -9.98932414 17.55034138 -12.25 20.125 C-17.52123575 22.88041869 -22.28960387 21.51423269 -28 20.5625 C-30.31 23.8625 -32.62 27.1625 -35 30.5625 C-36.65 30.2325 -38.3 29.9025 -40 29.5625 C-39.69298422 23.57569239 -36.81592387 19.03079493 -33 14.5625 C-29.5851783 12.1286098 -26.82074527 12.49502769 -22.75 12.9375 C-21.67234375 13.04835938 -20.5946875 13.15921875 -19.484375 13.2734375 C-18.66453125 13.36882813 -17.8446875 13.46421875 -17 13.5625 C-16.608125 12.345625 -16.21625 11.12875 -15.8125 9.875 C-13.1168578 1.50432159 -8.05179445 -0.24181526 0 0 Z " fill="#000000" transform="translate(48,4.4375)"/>
<path d="M0 0 C4.3067174 1.68523725 7.94501184 4.79699953 10 9 C10.76353678 13.85951913 10.67422206 18.27698808 8.875 22.875 C2.84386282 29.71028881 2.84386282 29.71028881 -1.66015625 30.41796875 C-8.95051481 30.62402195 -12.38738202 29.32232709 -17.8125 24.5 C-20.73295265 20.82409903 -20.58507581 17.09200065 -20.3515625 12.55078125 C-19.65081506 7.46646927 -16.93477625 4.12189617 -12.94140625 0.94921875 C-8.85292947 -1.04977493 -4.40437771 -0.60703521 0 0 Z M-11 9 C-13.06196218 11.2140989 -13.06196218 11.2140989 -14 14 C-13.23960803 17.80195984 -12.23036592 20.72677954 -9 23 C-5.82304865 24.17045576 -4.51116739 24.21907174 -1.375 22.875 C1.34712589 20.72595325 2.72105706 19.23497332 4 16 C3.23960803 12.19804016 2.23036592 9.27322046 -1 7 C-5.32893596 5.40512886 -7.43071803 6.18214581 -11 9 Z " fill="#000000" transform="translate(53,33)"/>
</svg>
