<?xml version="1.0" encoding="UTF-8"?>
<svg version="1.1" xmlns="http://www.w3.org/2000/svg" width="96" height="96">
<path d="M0 0 C1.05445313 -0.01417969 2.10890625 -0.02835937 3.1953125 -0.04296875 C5.875 0.1875 5.875 0.1875 7.875 2.1875 C8 5.375 8 5.375 6.875 9.1875 C4.97570779 11.14614509 2.94065651 12.79777204 0.81640625 14.5078125 C-3.3874659 18.14496546 -4.62829244 22.68698415 -5.125 28.109375 C-5.125 34.38092267 -3.01907239 39.2920947 0.875 44.1875 C5.3395933 48.6520933 10.88726841 50.95053802 17.17578125 51.32421875 C22.99639137 50.9723684 27.41174377 48.90195386 31.875 45.1875 C32.76042274 44.12955937 33.61704547 43.04658348 34.4375 41.9375 C36.875 39.1875 36.875 39.1875 40.5625 38.1875 C41.655625 38.1875 42.74875 38.1875 43.875 38.1875 C46.48099988 40.79349988 46.2027682 41.9928743 46.25 45.625 C46.03657192 56.77661736 41.38317796 66.23823748 33.875 74.34765625 C23.48284514 84.27587563 12.35634426 86.66803644 -1.5390625 86.48046875 C-8.51054394 86.19822834 -14.35234363 84.03593758 -20.125 80.1875 C-20.3125 77.5625 -20.3125 77.5625 -20.125 75.1875 C-17.65977726 74.30024444 -16.45139286 74.07695696 -13.93359375 74.9296875 C-12.75990234 75.49042969 -12.75990234 75.49042969 -11.5625 76.0625 C-1.75712332 80.18276809 6.91784517 79.68816866 16.875 76.1875 C26.10465552 72.38367619 31.87495523 65.89888774 36.24609375 57.046875 C37.08860259 54.88312176 37.08860259 54.88312176 36.875 51.1875 C36.194375 51.785625 35.51375 52.38375 34.8125 53 C26.75137795 59.00296323 18.57971831 59.17621017 8.875 58.1875 C1.02120782 56.05678574 -4.59562824 50.81942078 -9.125 44.1875 C-12.97758053 36.66918464 -13.01465904 29.40471437 -12.125 21.1875 C-10.89446117 17.50499861 -9.28552236 14.40209539 -7.125 11.1875 C-6.465 10.1975 -5.805 9.2075 -5.125 8.1875 C-16.74639827 12.23593792 -23.79246007 17.51013407 -30.125 28.1875 C-34.03776343 36.54658552 -33.80271653 46.4963972 -31.125 55.1875 C-30.2896875 56.8271875 -30.2896875 56.8271875 -29.4375 58.5 C-27.91647199 61.61448593 -28.07683473 62.94771643 -29.125 66.1875 C-30.61 66.6825 -30.61 66.6825 -32.125 67.1875 C-37.92383586 61.85159642 -39.97973532 55.64231304 -40.515625 47.8515625 C-41.03971062 33.84189529 -37.82213851 22.50101093 -28.125 12.02734375 C-20.23860567 4.4930206 -10.92791094 0.06712476 0 0 Z " fill="#000000" transform="translate(45.125,4.8125)"/>
</svg>
