<?xml version="1.0" encoding="UTF-8"?>
<svg version="1.1" xmlns="http://www.w3.org/2000/svg" width="96" height="96">
<path d="M0 0 C7.15656833 3.22267829 13.28768173 8.74217343 16.33203125 16.05859375 C18.51552698 24.52886945 18.26767405 33.29441271 13.828125 40.9375 C9.35967217 46.91612438 4.44522147 51.31230943 -2.859375 53.1953125 C-11.82257226 54.20420319 -19.49735056 53.69772523 -26.859375 48.1953125 C-32.81129407 42.74439671 -36.50005551 37.94044338 -37.125 29.6875 C-37.11984375 28.49382813 -37.1146875 27.30015625 -37.109375 26.0703125 C-37.11453125 24.87148438 -37.1196875 23.67265625 -37.125 22.4375 C-36.8770954 19.41160563 -36.44957172 17.73205489 -34.859375 15.1953125 C-33.209375 15.1953125 -31.559375 15.1953125 -29.859375 15.1953125 C-29.018293 18.27927985 -28.86175072 20.20742868 -29.484375 23.3828125 C-30.073466 29.37190429 -28.93899759 34.48881803 -25.2265625 39.3203125 C-20.44104431 43.97020872 -15.54575425 46.11438809 -8.859375 46.1953125 C-3.10504849 45.57601279 1.07304691 43.78460546 5.140625 39.6328125 C9.19531048 34.37709459 10.5682292 29.16846817 9.859375 22.58203125 C8.53547171 16.84221369 6.09242824 13.15139429 1.44921875 9.5390625 C-5.12519966 5.71232826 -11.60068429 6.02873721 -18.859375 7.1953125 C-19.519375 6.8653125 -20.179375 6.5353125 -20.859375 6.1953125 C-20.859375 4.5453125 -20.859375 2.8953125 -20.859375 1.1953125 C-14.86282106 -2.48237698 -6.55889902 -1.84581038 0 0 Z " fill="#000000" transform="translate(57.859375,21.8046875)"/>
<path d="M0 0 C1.67542976 0.28604898 3.34385343 0.61781233 5 1 C5 3.64 5 6.28 5 9 C3.34385343 9.38218767 1.67542976 9.71395102 0 10 C-1 9 -1 9 -1.1328125 7.1875 C-1.13023438 6.465625 -1.12765625 5.74375 -1.125 5 C-1.12757812 4.278125 -1.13015625 3.55625 -1.1328125 2.8125 C-1 1 -1 1 0 0 Z " fill="#000000" transform="translate(46,81)"/>
<path d="M0 0 C2.05078125 0.03255208 4.1015625 0.06510417 6.15234375 0.09765625 C6.53453142 1.75380282 6.86629477 3.42222649 7.15234375 5.09765625 C6.15234375 6.09765625 6.15234375 6.09765625 4.3046875 6.1953125 C2.25390625 6.16276042 0.203125 6.13020833 -1.84765625 6.09765625 C-2.22984392 4.44150968 -2.56160727 2.77308601 -2.84765625 1.09765625 C-1.84765625 0.09765625 -1.84765625 0.09765625 0 0 Z " fill="#000000" transform="translate(83.84765625,44.90234375)"/>
<path d="M0 0 C2.05078125 0.03255208 4.1015625 0.06510417 6.15234375 0.09765625 C6.53453142 1.75380282 6.86629477 3.42222649 7.15234375 5.09765625 C6.15234375 6.09765625 6.15234375 6.09765625 4.3046875 6.1953125 C2.25390625 6.16276042 0.203125 6.13020833 -1.84765625 6.09765625 C-2.22984392 4.44150968 -2.56160727 2.77308601 -2.84765625 1.09765625 C-1.84765625 0.09765625 -1.84765625 0.09765625 0 0 Z " fill="#000000" transform="translate(7.84765625,44.90234375)"/>
<path d="M0 0 C1.67542976 0.28604898 3.34385343 0.61781233 5 1 C5 3.64 5 6.28 5 9 C3.34385343 9.38218767 1.67542976 9.71395102 0 10 C-1 9 -1 9 -1.1328125 7.1875 C-1.13023438 6.465625 -1.12765625 5.74375 -1.125 5 C-1.12757812 4.278125 -1.13015625 3.55625 -1.1328125 2.8125 C-1 1 -1 1 0 0 Z " fill="#000000" transform="translate(46,5)"/>
<path d="M0 0 C2.40585935 0.32078125 3.83996928 0.88411569 5.8125 2.3125 C7 4 7 4 6.6875 6.1875 C6.3471875 7.0846875 6.3471875 7.0846875 6 8 C4.25 8.75 4.25 8.75 2 9 C-0.3125 7.3125 -0.3125 7.3125 -2 5 C-1.80984746 2.78155374 -1.58477845 1.58477845 0 0 Z " fill="#000000" transform="translate(73,71)"/>
<path d="M0 0 C1.75 0.75 1.75 0.75 2.5 2.5 C2.75 4.75 2.75 4.75 1.0625 7.0625 C-1.25 8.75 -1.25 8.75 -3.5 8.5 C-5.25 7.75 -5.25 7.75 -6 6 C-6.25 3.75 -6.25 3.75 -4.5625 1.4375 C-2.25 -0.25 -2.25 -0.25 0 0 Z " fill="#000000" transform="translate(22.25,71.25)"/>
<path d="M0 0 C1.75 0.75 1.75 0.75 2.5 2.5 C2.75 4.75 2.75 4.75 1.0625 7.0625 C-1.25 8.75 -1.25 8.75 -3.5 8.5 C-5.25 7.75 -5.25 7.75 -6 6 C-6.25 3.75 -6.25 3.75 -4.5625 1.4375 C-2.25 -0.25 -2.25 -0.25 0 0 Z " fill="#000000" transform="translate(77.25,16.25)"/>
<path d="M0 0 C2.40585935 0.32078125 3.83996928 0.88411569 5.8125 2.3125 C7 4 7 4 6.6875 6.1875 C6.3471875 7.0846875 6.3471875 7.0846875 6 8 C4.25 8.75 4.25 8.75 2 9 C-0.3125 7.3125 -0.3125 7.3125 -2 5 C-1.80984746 2.78155374 -1.58477845 1.58477845 0 0 Z " fill="#000000" transform="translate(18,16)"/>
</svg>
