<?xml version="1.0" encoding="UTF-8"?>
<svg version="1.1" xmlns="http://www.w3.org/2000/svg" width="96" height="96">
<path d="M0 0 C3 0.125 3 0.125 4 1.125 C4 3.435 4 5.745 4 8.125 C11.92 8.125 19.84 8.125 28 8.125 C28 5.815 28 3.505 28 1.125 C29 0.125 29 0.125 32 0 C35 0.125 35 0.125 36 1.125 C36.04092937 3.45797433 36.04241723 5.79205225 36 8.125 C36.87011719 8.03798828 36.87011719 8.03798828 37.7578125 7.94921875 C42.10879376 7.69792445 45.04980246 7.63044546 48.5 10.5 C52.25862224 14.44655336 52.14818793 17.07070377 52.1328125 22.28515625 C52.13376923 22.99022812 52.13472595 23.69529999 52.13571167 24.42173767 C52.13639229 25.91210011 52.13454621 27.40246552 52.13037109 28.89282227 C52.12501318 31.18187058 52.13032409 33.47072337 52.13671875 35.75976562 C52.1360581 37.2057296 52.13477722 38.65169346 52.1328125 40.09765625 C52.13483673 40.78618179 52.13686096 41.47470734 52.13894653 42.18409729 C52.11495764 47.01004236 52.11495764 47.01004236 51 48.125 C48 48.25 48 48.25 45 48.125 C44.67 47.795 44.34 47.465 44 47.125 C44 44.815 44 42.505 44 40.125 C25.52 40.125 7.04 40.125 -12 40.125 C-11.814375 46.9621875 -11.814375 46.9621875 -11.625 53.9375 C-11.59100098 55.37198486 -11.55700195 56.80646973 -11.52197266 58.28442383 C-11.4863623 59.41388428 -11.45075195 60.54334473 -11.4140625 61.70703125 C-11.3826416 62.86436768 -11.3512207 64.0217041 -11.31884766 65.21411133 C-11.20528967 68.31627028 -11.20528967 68.31627028 -9 71.125 C-6.30564962 71.61915612 -6.30564962 71.61915612 -3.15234375 71.6015625 C-1.99025391 71.6325 -0.82816406 71.6634375 0.36914062 71.6953125 C1.58794922 71.71335937 2.80675781 71.73140625 4.0625 71.75 C6.47013794 71.80076727 8.87770149 71.85524628 11.28515625 71.9140625 C12.89209351 71.94040771 12.89209351 71.94040771 14.53149414 71.96728516 C17 72.125 17 72.125 18 73.125 C18.125 76.125 18.125 76.125 18 79.125 C15.38080566 81.74419434 8.17875618 80.44297013 4.43676758 80.47509766 C3.02937208 80.49159626 1.62205827 80.51880612 0.21508789 80.55712891 C-12.97462258 80.91448942 -12.97462258 80.91448942 -16.89453125 77.7265625 C-19.86224221 74.05959497 -20.1335657 72.3165005 -20.19287109 67.66894531 C-20.20893402 66.52725891 -20.22499695 65.38557251 -20.24154663 64.20928955 C-20.28593888 58.9806902 -20.32750897 53.7521786 -20.35009766 48.5234375 C-20.36342128 45.76463546 -20.39124243 43.00657589 -20.43212891 40.24804688 C-20.49101723 36.2747604 -20.50876985 32.30183293 -20.5234375 28.328125 C-20.54610687 27.09668762 -20.56877625 25.86525024 -20.59213257 24.59649658 C-20.56856521 15.05146537 -20.56856521 15.05146537 -17.59228516 11.36230469 C-14.19964284 8.43424157 -12.74149146 8.00012155 -8.375 8.0625 C-7.14910156 8.07603516 -7.14910156 8.07603516 -5.8984375 8.08984375 C-4.95871094 8.10724609 -4.95871094 8.10724609 -4 8.125 C-4.020625 6.990625 -4.04125 5.85625 -4.0625 4.6875 C-3.98317484 0.16596562 -3.98317484 0.16596562 0 0 Z M-12 19.125 C-12 23.415 -12 27.705 -12 32.125 C6.48 32.125 24.96 32.125 44 32.125 C45.2 20.89166667 45.2 20.89166667 41 16.125 C38.37374861 15.79074265 38.37374861 15.79074265 36 16.125 C35.67 18.435 35.34 20.745 35 23.125 C33.02 23.125 31.04 23.125 29 23.125 C28.505 19.66 28.505 19.66 28 16.125 C20.08 16.125 12.16 16.125 4 16.125 C3.67 18.435 3.34 20.745 3 23.125 C1.02 23.125 -0.96 23.125 -3 23.125 C-3.33 20.815 -3.66 18.505 -4 16.125 C-8.3 15.725 -8.3 15.725 -12 19.125 Z " fill="#000000" transform="translate(32,7.875)"/>
<path d="M0 0 C2.7421875 0.3671875 2.7421875 0.3671875 3.7421875 1.3671875 C4.0853441 4.76961192 4.17495895 6.70512361 2.27685547 9.60888672 C1.60283691 10.28967285 0.92881836 10.97045898 0.234375 11.671875 C-0.50554687 12.41953125 -1.24546875 13.1671875 -2.0078125 13.9375 C-2.7915625 14.69804688 -3.5753125 15.45859375 -4.3828125 16.2421875 C-5.14335938 17.0259375 -5.90390625 17.8096875 -6.6875 18.6171875 C-7.43515625 19.35710937 -8.1828125 20.09703125 -8.953125 20.859375 C-9.9743042 21.87040283 -9.9743042 21.87040283 -11.01611328 22.90185547 C-13.94964105 24.81941522 -15.81673885 24.75895839 -19.2578125 24.3671875 C-21.8125 22.609375 -21.8125 22.609375 -24.1328125 20.2421875 C-24.91398437 19.47648437 -25.69515625 18.71078125 -26.5 17.921875 C-28.63679807 14.81639514 -28.68706315 13.0629309 -28.2578125 9.3671875 C-27.2578125 8.3671875 -27.2578125 8.3671875 -24.4453125 8.0546875 C-21.2578125 8.3671875 -21.2578125 8.3671875 -18.8828125 10.3671875 C-18.3465625 11.0271875 -17.8103125 11.6871875 -17.2578125 12.3671875 C-12.32140887 10.38807637 -9.38180986 6.34766106 -5.890625 2.484375 C-3.2578125 0.3671875 -3.2578125 0.3671875 0 0 Z " fill="#000000" transform="translate(84.2578125,63.6328125)"/>
</svg>
