<?xml version="1.0" encoding="UTF-8"?>
<svg version="1.1" xmlns="http://www.w3.org/2000/svg" width="96" height="96">
<path d="M0 0 C12.89488342 -0.68874748 12.89488342 -0.68874748 16.75 1.875 C19.37906446 4.35800533 19.95042947 5.12632314 20.15390015 8.71247864 C20.16676056 9.8654393 20.17962097 11.01839996 20.19287109 12.20629883 C20.20893402 13.51137894 20.22499695 14.81645905 20.24154663 16.16108704 C20.25303344 17.59306183 20.26364209 19.02504389 20.2734375 20.45703125 C20.27876118 21.17710546 20.28408485 21.89717968 20.28956985 22.63907433 C20.31629677 26.45085969 20.33567256 30.26261236 20.35009766 34.07446289 C20.36673983 38.00901814 20.41151369 41.94273481 20.4624691 45.87697315 C20.49614872 48.90448452 20.50767574 51.93179704 20.51332474 54.95947838 C20.52003597 56.40956718 20.53525509 57.85964296 20.55921555 59.30954933 C20.5908741 61.34130823 20.58790166 63.37351682 20.58349609 65.40551758 C20.59562637 67.13853874 20.59562637 67.13853874 20.60800171 68.90657043 C19.81543481 72.93904247 18.11334387 74.41368302 15 77 C12.70955346 78.14522327 11.37666166 78.14396526 8.82910156 78.17700195 C7.53700775 78.19625481 7.53700775 78.19625481 6.21881104 78.21589661 C5.28550964 78.22328354 4.35220825 78.23067047 3.390625 78.23828125 C2.43105896 78.246353 1.47149292 78.25442474 0.48284912 78.26274109 C-1.55145457 78.27658741 -3.58578155 78.2873071 -5.62011719 78.29516602 C-8.72375896 78.31235467 -11.82632891 78.35623314 -14.9296875 78.40039062 C-16.90624217 78.41051966 -18.88280589 78.4190351 -20.859375 78.42578125 C-22.2471817 78.45204338 -22.2471817 78.45204338 -23.6630249 78.47883606 C-29.4140054 78.45958572 -32.60350791 77.79853734 -37 74 C-38.39556397 71.20887207 -38.14268812 68.90050683 -38.16113281 65.77783203 C-38.17074036 64.46952423 -38.1803479 63.16121643 -38.19024658 61.81326294 C-38.1950943 60.37811456 -38.19937319 58.94296416 -38.203125 57.5078125 C-38.20887638 56.04051715 -38.21463411 54.57322182 -38.22039795 53.10592651 C-38.23090861 50.0274826 -38.23675081 46.94906481 -38.24023438 43.87060547 C-38.24571864 39.92721757 -38.26974457 35.98417505 -38.29820633 32.04089546 C-38.31683661 29.00913487 -38.32203851 25.97745738 -38.32357025 22.94564438 C-38.32659656 21.49198392 -38.33462443 20.03832491 -38.34775543 18.58472061 C-38.36482174 16.55020227 -38.36109002 14.51554165 -38.35644531 12.48095703 C-38.36009094 11.32338898 -38.36373657 10.16582092 -38.36749268 8.97317505 C-37.96449558 5.71275386 -37.31253755 4.30130907 -35 2 C-34.34 2 -33.68 2 -33 2 C-32.99191315 2.82019119 -32.98382629 3.64038239 -32.97549438 4.48542786 C-32.89759091 12.21061078 -32.81031331 19.93560366 -32.71247292 27.66055775 C-32.6625023 31.63214937 -32.61617245 35.60371429 -32.578125 39.57543945 C-32.54128167 43.40754936 -32.49492457 47.23943633 -32.44193649 51.07135582 C-32.42338742 52.53415712 -32.40828133 53.99700621 -32.39665604 55.45987892 C-32.37980201 57.50709545 -32.35077023 59.55380083 -32.31884766 61.60083008 C-32.30552399 62.76665115 -32.29220032 63.93247223 -32.2784729 65.13362122 C-32.20813726 68.19874257 -32.20813726 68.19874257 -30 71 C-28.02744865 71.43636428 -28.02744865 71.43636428 -25.73388672 71.34057617 C-24.41274368 71.34023628 -24.41274368 71.34023628 -23.06491089 71.33988953 C-22.11278717 71.32440567 -21.16066345 71.30892181 -20.1796875 71.29296875 C-19.20589142 71.28872391 -18.23209534 71.28447906 -17.22879028 71.28010559 C-14.11058195 71.26327786 -10.99301383 71.22561811 -7.875 71.1875 C-5.76433223 71.17245846 -3.65365436 71.15876914 -1.54296875 71.14648438 C3.63824023 71.11336109 8.81907439 71.06312151 14 71 C14.04632389 63.09841497 14.0818694 55.19688661 14.10362434 47.29519939 C14.1140652 43.62619419 14.1282298 39.95728184 14.15087891 36.28833008 C14.17259669 32.74812214 14.18456636 29.20800356 14.18975449 25.66773415 C14.19525273 23.65856095 14.21086735 21.64942374 14.22659302 19.64030457 C14.22674408 18.41926529 14.22689514 17.19822601 14.22705078 15.94018555 C14.23371262 14.32469063 14.23371262 14.32469063 14.24050903 12.67655945 C14.19466402 9.77415373 14.19466402 9.77415373 12 7 C9.11404054 6.41518879 9.11404054 6.41518879 5.875 6.3125 C4.77929688 6.24675781 3.68359375 6.18101563 2.5546875 6.11328125 C1.29011719 6.05720703 1.29011719 6.05720703 0 6 C0 4.02 0 2.04 0 0 Z " fill="#000000" transform="translate(57,9)"/>
<path d="M0 0 C8.25 0 16.5 0 25 0 C25 11.22 25 22.44 25 34 C21 35 21 35 18.640625 33.78515625 C17.85171875 33.21667969 17.0628125 32.64820313 16.25 32.0625 C15.45078125 31.49660156 14.6515625 30.93070313 13.828125 30.34765625 C13.22484375 29.90292969 12.6215625 29.45820312 12 29 C9.36 30.98 6.72 32.96 4 35 C2.68 34.34 1.36 33.68 0 33 C0 22.11 0 11.22 0 0 Z M6 6 C6 12.6 6 19.2 6 26 C7.65 25.01 9.3 24.02 11 23 C14.64046431 23.26637544 16.65344028 24.32672014 20 26 C20 19.4 20 12.8 20 6 C15.38 6 10.76 6 6 6 Z " fill="#000000" transform="translate(28,9)"/>
</svg>
