<?xml version="1.0" encoding="UTF-8"?>
<svg version="1.1" xmlns="http://www.w3.org/2000/svg" width="96" height="96">
<path d="M0 0 C9.97488544 6.66792072 16.33376439 15.58324198 19.13671875 27.3046875 C19.41026275 30.39887371 19.34084835 33.19171112 19.13671875 36.3046875 C17.15671875 36.3046875 15.17671875 36.3046875 13.13671875 36.3046875 C12.91757813 35.41007812 12.6984375 34.51546875 12.47265625 33.59375 C9.75264233 23.2223148 6.60986909 13.77716292 -2.66796875 7.55078125 C-11.78514525 2.37572911 -20.50613558 0.14212296 -30.86328125 2.3671875 C-40.41306159 5.09218909 -47.89325108 9.54870958 -52.86328125 18.3046875 C-57.82866076 28.04385631 -58.94317181 36.79667014 -55.93359375 47.34375 C-52.52816714 56.76460172 -47.4634931 63.13070027 -38.41015625 67.484375 C-33.3344004 69.61743804 -28.23184747 71.11167278 -22.86328125 72.3046875 C-22.86328125 74.2846875 -22.86328125 76.2646875 -22.86328125 78.3046875 C-34.0333858 79.03715337 -42.5475689 75.36092913 -51.3515625 68.56640625 C-59.36137893 61.35383438 -64.49416673 51.77869396 -65.2421875 40.9921875 C-65.80583735 26.784324 -62.56021131 16.07347166 -52.86328125 5.3046875 C-38.07456548 -7.91441333 -17.03642383 -10.0870504 0 0 Z " fill="#000000" transform="translate(70.86328125,11.6953125)"/>
<path d="M0 0 C6.50545711 4.38016833 10.76087395 9.73342668 12.9609375 17.3203125 C13.23524171 19.77106327 13.17137299 21.84769552 12.9609375 24.3203125 C10.9809375 24.3203125 9.0009375 24.3203125 6.9609375 24.3203125 C6.77917969 23.71703125 6.59742188 23.11375 6.41015625 22.4921875 C5.06592121 18.21820943 3.88044695 14.79591899 0.9609375 11.3203125 C0.9609375 10.6603125 0.9609375 10.0003125 0.9609375 9.3203125 C-6.40555919 5.48569778 -12.58149168 3.63440896 -20.8125 5.484375 C-23.27375536 6.40842526 -24.96746255 7.72473977 -27.0390625 9.3203125 C-27.6990625 9.3203125 -28.3590625 9.3203125 -29.0390625 9.3203125 C-32.87367722 16.68680919 -34.72496604 22.86274168 -32.875 31.09375 C-31.95094974 33.55500536 -30.63463523 35.24871255 -29.0390625 37.3203125 C-29.0390625 37.9803125 -29.0390625 38.6403125 -29.0390625 39.3203125 C-26.04631533 40.93179175 -23.1194707 41.96084726 -19.8515625 42.8828125 C-15.14722577 44.21214923 -15.14722577 44.21214923 -14.0390625 45.3203125 C-13.99825467 47.31989614 -13.99651894 49.32076504 -14.0390625 51.3203125 C-21.02116496 51.91453399 -26.42619315 50.06013091 -32.02734375 45.8125 C-37.52238308 40.75282781 -40.57995219 35.40497435 -41.41796875 27.94921875 C-41.73486713 18.45248977 -40.28851112 11.60342563 -33.8515625 4.5078125 C-24.65144523 -3.83828545 -11.20149969 -5.95470058 0 0 Z " fill="#000000" transform="translate(62.0390625,23.6796875)"/>
<path d="M0 0 C9.9 0 19.8 0 30 0 C30.103125 3.980625 30.20625 7.96125 30.3125 12.0625 C30.38078003 13.92467163 30.38078003 13.92467163 30.45043945 15.82446289 C30.53960711 22.94809556 29.98892474 26.7895041 25 32 C21.61265331 34.66288526 18.30827291 35.97274431 14 36.0625 C7.67298476 33.8216821 3.08562507 31.10095155 0 25 C-0.34057617 22.13745117 -0.34057617 22.13745117 -0.29296875 19.04296875 C-0.28547607 18.04031982 -0.2779834 17.0376709 -0.27026367 16.00463867 C-0.24295166 14.74498291 -0.21563965 13.48532715 -0.1875 12.1875 C-0.125625 8.165625 -0.06375 4.14375 0 0 Z M6 6 C5.938125 8.18625 5.87625 10.3725 5.8125 12.625 C5.77769531 13.85476562 5.74289063 15.08453125 5.70703125 16.3515625 C6.10914202 21.359182 7.49747657 24.70052027 11.3125 28 C14.02916469 29.27895691 14.02916469 29.27895691 17.125 28.375 C19.77295844 27.10858509 21.28845232 26.34211787 23 24 C24.28302185 20.2915396 24.09851286 16.63938886 24.0625 12.75 C24.041875 10.5225 24.02125 8.295 24 6 C18.06 6 12.12 6 6 6 Z " fill="#000000" transform="translate(60,54)"/>
<path d="M0 0 C2.93835112 1.30788882 3.85011181 2.4091091 6 5 C6.875 8.8125 6.875 8.8125 7 12 C4.3125 12.3125 4.3125 12.3125 1 12 C-1.875 9.5 -1.875 9.5 -4 7 C-7.66867595 8.06891168 -7.66867595 8.06891168 -10.125 10.8125 C-10.22919234 13.3114377 -10.22919234 13.3114377 -7.5625 15.375 C-5 18 -5 18 -4.6875 21.3125 C-4.8421875 22.6428125 -4.8421875 22.6428125 -5 24 C-9.38334042 23.8281043 -11.51975534 23.39850089 -14.9375 20.5625 C-17.49066595 17.04235425 -17.70565603 13.67109204 -17.5 9.41015625 C-16.68318836 5.4728689 -14.92240049 3.71365759 -12 1 C-8.26299831 -0.86850084 -4.06934775 -0.54216425 0 0 Z " fill="#000000" transform="translate(53,36)"/>
</svg>
