<?xml version="1.0" encoding="UTF-8"?>
<svg version="1.1" xmlns="http://www.w3.org/2000/svg" width="96" height="96">
<path d="M0 0 C1.31653564 0.01135986 1.31653564 0.01135986 2.65966797 0.02294922 C9.45144448 0.1952272 15.06562583 1.23369297 21.125 4.4375 C21.98222656 4.87320312 22.83945313 5.30890625 23.72265625 5.7578125 C36.08766834 12.58374678 43.23004062 22.68856753 47.52075195 36.01293945 C48.54203578 40.11086661 48.61362209 44.10669413 48.5625 48.3125 C48.55492676 49.19019043 48.54735352 50.06788086 48.53955078 50.97216797 C48.36731227 57.76238823 47.33144983 63.38087254 44.125 69.4375 C43.66609375 70.32953125 43.2071875 71.2215625 42.734375 72.140625 C39.84636169 77.33904896 36.96419093 80.98093505 32.125 84.4375 C30.475 83.7775 28.825 83.1175 27.125 82.4375 C26.68751892 79.44804596 26.51479858 77.29297846 28.3203125 74.76171875 C29.38711698 73.59573898 30.45763249 72.43314698 31.53125 71.2734375 C37.81107181 64.03932904 39.52045391 54.34764751 39.0625 45 C37.64468869 33.8168142 32.58657366 24.82166832 24.125 17.4375 C14.99036817 10.92434535 5.07131213 8.43709504 -6.0546875 9.84765625 C-17.21663375 12.18207991 -26.11577692 17.762739 -32.7578125 27.078125 C-38.35968489 36.54988991 -40.16841068 46.64059909 -37.875 57.4375 C-35.7097483 64.34032242 -33.03978778 69.69291912 -28.03515625 74.90234375 C-26.875 76.4375 -26.875 76.4375 -26.5 79.875 C-26.62375 80.720625 -26.7475 81.56625 -26.875 82.4375 C-29.35 83.4275 -29.35 83.4275 -31.875 84.4375 C-40.59920185 77.98159063 -45.27647282 68.88324205 -47.875 58.4375 C-48.28674315 55.13254386 -48.35295012 51.89032458 -48.3125 48.5625 C-48.30492676 47.68480957 -48.29735352 46.80711914 -48.28955078 45.90283203 C-48.1172728 39.11105552 -47.07880703 33.49687417 -43.875 27.4375 C-43.43929687 26.58027344 -43.00359375 25.72304688 -42.5546875 24.83984375 C-35.72875322 12.47483166 -25.62393247 5.33245938 -12.29956055 1.04174805 C-8.20163339 0.02046422 -4.20580587 -0.05112209 0 0 Z " fill="#000000" transform="translate(47.875,3.5625)"/>
<path d="M0 0 C1 1 1 1 1.0625 4.0625 C1.041875 5.031875 1.02125 6.00125 1 7 C-1.95341958 8.29212107 -4.64255399 9.13693774 -7.8125 9.8125 C-13.7399289 11.25794107 -18.29358485 14.11396221 -22.375 18.625 C-25.46017994 25.03268142 -27.04126964 32.08742741 -24.91796875 39.02734375 C-23.41723539 42.25232395 -21.32739463 45.0279043 -19.14453125 47.82421875 C-18 50 -18 50 -18.26171875 52.70703125 C-19 55 -19 55 -20 56 C-23.01939189 56.36353882 -24.46240151 56.41252456 -26.9140625 54.53125 C-34.1182346 45.97835162 -35.74998952 38.97236925 -35.34375 27.84765625 C-34.49045178 18.29653412 -29.35900333 11.59010285 -22.203125 5.4609375 C-15.2572623 0.20543962 -8.57699096 -0.62829746 0 0 Z " fill="#000000" transform="translate(51,20)"/>
<path d="M0 0 C3 0.125 3 0.125 4 1.125 C4.0991657 2.74757544 4.13079777 4.37439831 4.1328125 6 C4.13474609 7.47726563 4.13474609 7.47726563 4.13671875 8.984375 C4.13285156 10.02078125 4.12898438 11.0571875 4.125 12.125 C4.12886719 13.16140625 4.13273437 14.1978125 4.13671875 15.265625 C4.13542969 16.25046875 4.13414063 17.2353125 4.1328125 18.25 C4.13168457 19.16007812 4.13055664 20.07015625 4.12939453 21.0078125 C4 23.125 4 23.125 3 24.125 C0 24.25 0 24.25 -3 24.125 C-4.65394117 22.47105883 -4.12999683 20.52184587 -4.1328125 18.25 C-4.13410156 17.26515625 -4.13539062 16.2803125 -4.13671875 15.265625 C-4.13285156 14.22921875 -4.12898438 13.1928125 -4.125 12.125 C-4.13080078 10.57039063 -4.13080078 10.57039063 -4.13671875 8.984375 C-4.13542969 7.99953125 -4.13414063 7.0146875 -4.1328125 6 C-4.13168457 5.08992188 -4.13055664 4.17984375 -4.12939453 3.2421875 C-3.92382302 -0.12142795 -3.43749228 0.14322884 0 0 Z " fill="#000000" transform="translate(48,31.875)"/>
</svg>
