<?xml version="1.0" encoding="UTF-8"?>
<svg version="1.1" xmlns="http://www.w3.org/2000/svg" width="96" height="96">
<path d="M0 0 C2.38549805 0.16577148 2.38549805 0.16577148 5 1 C6.54223633 2.87915039 6.54223633 2.87915039 7.83203125 5.34765625 C8.55966675 6.7102356 8.55966675 6.7102356 9.30200195 8.1003418 C9.80046631 9.077854 10.29893066 10.05536621 10.8125 11.0625 C11.33223389 12.0522583 11.85196777 13.0420166 12.38745117 14.06176758 C13.43977595 16.07429606 14.48384992 18.09116083 15.51953125 20.11230469 C16.85831606 22.72364155 18.22109299 25.32042924 19.59375 27.9140625 C20.33506839 29.33763949 21.07477301 30.76205856 21.8125 32.1875 C22.15579346 32.83920166 22.49908691 33.49090332 22.8527832 34.16235352 C23.64710831 35.73767684 24.33421778 37.36619157 25 39 C24.67 39.99 24.34 40.98 24 42 C21.4375 43.1875 21.4375 43.1875 19 44 C17.03976739 40.24791471 15.0826782 36.49421171 13.12841797 32.73901367 C12.46390419 31.46317955 11.79855073 30.18778239 11.13232422 28.9128418 C10.17191172 27.07456346 9.21458317 25.23470714 8.2578125 23.39453125 C7.6817627 22.28956299 7.10571289 21.18459473 6.51220703 20.04614258 C5.19769556 17.39823176 4.04739302 14.76233052 3 12 C0.50925525 14.25034272 -0.88460588 16.42673699 -2.34765625 19.4375 C-2.78279541 20.32268311 -3.21793457 21.20786621 -3.66625977 22.11987305 C-4.12701904 23.07031494 -4.58777832 24.02075684 -5.0625 25 C-6.05046736 27.00730658 -7.04008038 29.01380395 -8.03125 31.01953125 C-8.52882813 32.02709473 -9.02640625 33.0346582 -9.5390625 34.07275391 C-11.65365705 38.30971726 -13.84628546 42.50298644 -16.0625 46.6875 C-16.46331787 47.44458252 -16.86413574 48.20166504 -17.27709961 48.98168945 C-18.09152616 50.5180571 -18.90655164 52.05410739 -19.72216797 53.58984375 C-22.03388942 57.95004897 -24.32802818 62.31951279 -26.625 66.6875 C-28.06875 69.430625 -29.5125 72.17375 -31 75 C-18.13 75 -5.26 75 8 75 C8 76.98 8 78.96 8 81 C1.3247966 81.02526945 -5.35039457 81.04283268 -12.02563477 81.05493164 C-14.29842591 81.05997325 -16.5712138 81.06680637 -18.84399414 81.07543945 C-22.10303551 81.08751261 -25.36203417 81.09322987 -28.62109375 81.09765625 C-29.64400009 81.10281754 -30.66690643 81.10797882 -31.72080994 81.11329651 C-32.66170975 81.11337204 -33.60260956 81.11344757 -34.57202148 81.11352539 C-35.40475082 81.115746 -36.23748016 81.11796661 -37.09544373 81.12025452 C-39 81 -39 81 -40 80 C-39.74324581 73.37751256 -36.94252597 68.48326976 -33.8125 62.75 C-32.71406404 60.69442688 -31.61644128 58.63841905 -30.51953125 56.58203125 C-29.94283691 55.50775879 -29.36614258 54.43348633 -28.77197266 53.32666016 C-26.39109374 48.85685357 -24.07435266 44.35519846 -21.75732422 39.85205078 C-16.6711533 29.96941859 -11.50544408 20.13503888 -6.1875 10.375 C-5.67767578 9.43841553 -5.16785156 8.50183105 -4.64257812 7.53686523 C-1.13081881 1.13081881 -1.13081881 1.13081881 0 0 Z " fill="#000000" transform="translate(46,9)"/>
<path d="M0 0 C1.98 0 3.96 0 6 0 C6.33 2.64 6.66 5.28 7 8 C8.11375 7.34 9.2275 6.68 10.375 6 C13.75 4 13.75 4 16 4 C17.4606285 6.64738916 18 7.89448334 18 11 C13.77777778 14 13.77777778 14 11 14 C11 14.66 11 15.32 11 16 C11.78375 16.309375 12.5675 16.61875 13.375 16.9375 C16 18 16 18 18 19 C17.125 23.75 17.125 23.75 16 26 C12.9168649 24.80100302 9.93720508 23.52299523 7 22 C6.67 24.64 6.34 27.28 6 30 C4.02 30 2.04 30 0 30 C-0.33 27.36 -0.66 24.72 -1 22 C-4.96 23.98 -4.96 23.98 -9 26 C-12 22.375 -12 22.375 -12 19 C-7.77777778 16 -7.77777778 16 -5 16 C-5 15.34 -5 14.68 -5 14 C-5.78375 13.690625 -6.5675 13.38125 -7.375 13.0625 C-10 12 -10 12 -12 11 C-11.125 6.25 -11.125 6.25 -10 4 C-6.9168649 5.19899698 -3.93720508 6.47700477 -1 8 C-0.67 5.36 -0.34 2.72 0 0 Z " fill="#000000" transform="translate(75,60)"/>
<path d="M0 0 C1.98 0 3.96 0 6 0 C6 8.91 6 17.82 6 27 C4.02 27 2.04 27 0 27 C0 18.09 0 9.18 0 0 Z " fill="#000000" transform="translate(45,36)"/>
<path d="M0 0 C3 0.25 3 0.25 5 2.25 C5.25 4.75 5.25 4.75 5 7.25 C3 9.25 3 9.25 0 9.5 C-3 9.25 -3 9.25 -5 7.25 C-5.25 4.75 -5.25 4.75 -5 2.25 C-3 0.25 -3 0.25 0 0 Z " fill="#000000" transform="translate(48,68.75)"/>
</svg>
