<?xml version="1.0" encoding="UTF-8"?>
<svg version="1.1" xmlns="http://www.w3.org/2000/svg" width="96" height="96">
<path d="M0 0 C1.76268219 -0.02882263 1.76268219 -0.02882263 3.56097412 -0.05822754 C5.46100189 -0.07097717 5.46100189 -0.07097717 7.39941406 -0.08398438 C8.70654358 -0.09538452 10.0136731 -0.10678467 11.3604126 -0.11853027 C14.1276606 -0.13951376 16.89479307 -0.15122193 19.66210938 -0.15820312 C23.19080271 -0.16914921 26.71794322 -0.21716136 30.24615097 -0.27414703 C33.6305393 -0.32059589 37.01472383 -0.3243119 40.39941406 -0.33398438 C41.65800232 -0.35867798 42.91659058 -0.38337158 44.21331787 -0.40881348 C51.02140709 -0.37440878 55.42846108 0.16957385 60.70367432 4.64221191 C63.47158757 7.8243353 64.41091116 10.50046625 64.48730469 14.68847656 C64.50651978 15.54326599 64.52573486 16.39805542 64.54553223 17.27874756 C64.55403198 18.19545227 64.56253174 19.11215698 64.57128906 20.05664062 C64.58268921 21.00863342 64.59408936 21.96062622 64.60583496 22.94146729 C64.62471184 24.95539929 64.63779378 26.96939274 64.64550781 28.98339844 C64.66488555 32.04798705 64.72692569 35.10987104 64.79003906 38.17382812 C64.80310413 40.13474977 64.81360311 42.09569052 64.82128906 44.05664062 C64.84598267 44.96524841 64.87067627 45.8738562 64.89611816 46.80999756 C64.8551296 52.73339554 63.56308302 56.11997654 59.84509277 60.737854 C57.30817325 63.13035179 55.18988913 64.26223724 51.70166016 64.46655273 C50.33388428 64.40866577 50.33388428 64.40866577 48.93847656 64.34960938 C34.97163236 64.10449989 26.1190429 65.5862179 14.80957031 73.95117188 C11.53016435 76.32396391 9.28285091 76.96586899 5.16503906 76.32226562 C4.16503906 75.32226562 4.16503906 75.32226562 4.06738281 72.81835938 C4.07898438 71.80902344 4.09058594 70.7996875 4.10253906 69.75976562 C4.1115625 68.74785156 4.12058594 67.7359375 4.12988281 66.69335938 C4.14148438 65.91089844 4.15308594 65.1284375 4.16503906 64.32226562 C3.22144531 64.42667969 3.22144531 64.42667969 2.25878906 64.53320312 C-4.00706227 64.92953709 -7.36669133 63.98094342 -12.24121094 60.02539062 C-15.12893211 56.93949251 -16.08085917 54.14263244 -16.15722656 49.95605469 C-16.17644165 49.10126526 -16.19565674 48.24647583 -16.2154541 47.36578369 C-16.22820374 45.99072662 -16.22820374 45.99072662 -16.24121094 44.58789062 C-16.25261108 43.63589783 -16.26401123 42.68390503 -16.27575684 41.70306396 C-16.29463371 39.68913196 -16.30771565 37.67513851 -16.31542969 35.66113281 C-16.33480742 32.5965442 -16.39684756 29.53466021 -16.45996094 26.47070312 C-16.473026 24.50978148 -16.48352499 22.54884073 -16.49121094 20.58789062 C-16.51590454 19.67928284 -16.54059814 18.77067505 -16.56604004 17.83453369 C-16.52505147 11.91113571 -15.2330049 8.52455471 -11.51501465 3.90667725 C-7.91030718 0.50717854 -4.8779573 0.0644928 0 0 Z M-5.83496094 11.32226562 C-8.4661636 14.79859131 -8.14113603 18.7882422 -8.13574219 22.97460938 C-8.14002731 23.71175674 -8.14431244 24.44890411 -8.14872742 25.20838928 C-8.1544584 26.7641599 -8.15498006 28.31995731 -8.15063477 29.87573242 C-8.14747613 32.24835195 -8.17094274 34.61972212 -8.19628906 36.9921875 C-8.19856243 38.50715989 -8.19926538 40.02213562 -8.19824219 41.53710938 C-8.20745193 42.24246323 -8.21666168 42.94781708 -8.22615051 43.67454529 C-8.18516023 48.06666936 -7.49972932 50.81357889 -4.83496094 54.32226562 C-1.63195704 56.59222056 1.56204806 56.6959836 5.41503906 56.94726562 C6.49269531 57.02203125 7.57035156 57.09679687 8.68066406 57.17382812 C9.50050781 57.2228125 10.32035156 57.27179688 11.16503906 57.32226562 C11.49503906 59.63226563 11.82503906 61.94226563 12.16503906 64.32226562 C13.77044566 63.53311642 15.37431922 62.74084798 16.97753906 61.94726562 C17.87085937 61.50640625 18.76417969 61.06554687 19.68457031 60.61132812 C22.31060288 59.30359658 22.31060288 59.30359658 25.16503906 57.32226562 C27.62939453 57.05102539 27.62939453 57.05102539 30.53222656 57.01367188 C31.5828125 56.98853516 32.63339844 56.96339844 33.71582031 56.9375 C35.9240969 56.90246859 38.13243637 56.87119146 40.34082031 56.84375 C41.39398438 56.81732422 42.44714844 56.79089844 43.53222656 56.76367188 C44.49241699 56.75021729 45.45260742 56.7367627 46.44189453 56.72290039 C50.35312481 56.14747194 53.05082356 54.79435899 55.45874023 51.61303711 C56.47568779 48.31472432 56.47022516 45.08869309 56.46582031 41.66992188 C56.472248 40.56420082 56.472248 40.56420082 56.47880554 39.43614197 C56.48453652 37.88037135 56.48505818 36.32457394 56.48071289 34.76879883 C56.47755426 32.3961793 56.50102086 30.02480913 56.52636719 27.65234375 C56.52864055 26.13737136 56.5293435 24.62239563 56.52832031 23.10742188 C56.53753006 22.40206802 56.54673981 21.69671417 56.55622864 20.96998596 C56.51531116 16.58566287 55.93978588 13.75746101 53.16503906 10.32226562 C50.11116256 8.42558156 47.76667537 8.06661865 44.20043945 8.04760742 C43.21584244 8.03807541 42.23124542 8.0285434 41.21681213 8.01872253 C40.15945358 8.01963394 39.10209503 8.02054535 38.01269531 8.02148438 C36.92041122 8.01719925 35.82812714 8.01291412 34.70274353 8.00849915 C32.39371432 8.0027585 30.08466703 8.00225362 27.77563477 8.0065918 C24.24431481 8.00975062 20.7138335 7.98629235 17.18261719 7.9609375 C14.93847762 7.95866437 12.6943358 7.95796107 10.45019531 7.95898438 C9.39486099 7.94977463 8.33952667 7.94056488 7.25221252 7.93107605 C0.15723397 7.86362114 0.15723397 7.86362114 -5.83496094 11.32226562 Z " fill="#000000" transform="translate(23.8349609375,11.677734375)"/>
<path d="M0 0 C3 0.125 3 0.125 4 1.125 C4.0983721 2.45543625 4.13078592 3.79093344 4.1328125 5.125 C4.13474609 6.3315625 4.13474609 6.3315625 4.13671875 7.5625 C4.13285156 8.408125 4.12898438 9.25375 4.125 10.125 C4.12886719 10.970625 4.13273437 11.81625 4.13671875 12.6875 C4.13542969 13.491875 4.13414063 14.29625 4.1328125 15.125 C4.13168457 15.8675 4.13055664 16.61 4.12939453 17.375 C4 19.125 4 19.125 3 20.125 C0 20.25 0 20.25 -3 20.125 C-4.5220959 18.6029041 -4.12959521 17.24289918 -4.1328125 15.125 C-4.13410156 14.320625 -4.13539062 13.51625 -4.13671875 12.6875 C-4.13285156 11.841875 -4.12898438 10.99625 -4.125 10.125 C-4.12886719 9.279375 -4.13273437 8.43375 -4.13671875 7.5625 C-4.13542969 6.758125 -4.13414063 5.95375 -4.1328125 5.125 C-4.13168457 4.3825 -4.13055664 3.64 -4.12939453 2.875 C-3.90144909 -0.20785461 -3.13017918 0.13042413 0 0 Z " fill="#000000" transform="translate(48,27.875)"/>
<path d="M0 0 C3 0.125 3 0.125 4 1.125 C4.125 4.125 4.125 4.125 4 7.125 C3 8.125 3 8.125 0 8.25 C-3 8.125 -3 8.125 -4 7.125 C-4.125 4.125 -4.125 4.125 -4 1.125 C-3 0.125 -3 0.125 0 0 Z " fill="#000000" transform="translate(48,51.875)"/>
</svg>
