<?xml version="1.0" encoding="UTF-8"?>
<svg version="1.1" xmlns="http://www.w3.org/2000/svg" width="96" height="96">
<path d="M0 0 C2.58110626 2.58110626 2.38658571 3.77409627 2.5 7.375 C2.33974759 16.91001826 -2.32685823 24.74214052 -8.60546875 31.6953125 C-10.88610848 33.82902026 -12.67313919 34.94057076 -15.75 35.5 C-21.63947815 34.59392644 -25.24029827 30.20974551 -28.75 25.625 C-33.55099806 18.35220096 -35.56279726 10.74391526 -34 2 C-31.5 -0.5625 -31.5 -0.5625 -28 -2 C-27.37351562 -2.29261719 -26.74703125 -2.58523437 -26.1015625 -2.88671875 C-16.43457557 -7.10886126 -9.07583269 -4.60773044 0 0 Z M-21.75 5.5 C-23.35875 6.2425 -23.35875 6.2425 -25 7 C-24.75416774 13.76038704 -22.85357706 19.08958949 -18 24 C-16.68 24 -15.36 24 -14 24 C-12.23266761 22.0967626 -12.23266761 22.0967626 -10.8125 19.625 C-10.30332031 18.81289062 -9.79414062 18.00078125 -9.26953125 17.1640625 C-7.11334679 13.48859729 -6.9068756 11.2837222 -7 7 C-8.0725 6.505 -9.145 6.01 -10.25 5.5 C-10.85328125 5.2215625 -11.4565625 4.943125 -12.078125 4.65625 C-15.68458194 3.4247769 -18.4312294 3.96825972 -21.75 5.5 Z " fill="#000000" transform="translate(86,53)"/>
<path d="M0 0 C4.58944252 2.59067597 8.07973488 5.95843049 9.58984375 11.1171875 C10.43895989 16.98821911 10.4991943 22.35248537 7.52734375 27.6171875 C4.02449419 32.28765359 0.50237103 34.69595422 -5.24609375 35.52734375 C-11.27485226 35.82346665 -15.88471772 35.3237664 -20.78515625 31.6484375 C-25.50423874 27.20160977 -26.66198643 23.50460631 -26.97265625 17.1796875 C-26.75311095 11.33246435 -25.4377323 7.39134984 -21.41015625 3.1171875 C-15.27205905 -1.89350409 -7.4975257 -2.74625739 0 0 Z M-15.41015625 10.1171875 C-18.05276252 13.75077112 -18.52955703 15.33444906 -17.84765625 19.8046875 C-16.36453749 23.222309 -15.67038352 24.44049919 -12.41015625 26.1171875 C-9.0737011 27.34640782 -7.6884649 27.21181244 -4.28515625 26.0546875 C-0.77994339 23.69247883 0.34796094 22.15330665 1.58984375 18.1171875 C1.01323877 14.33722155 0.45577683 12.01298034 -2.22265625 9.2421875 C-7.45946185 6.54897319 -10.44985052 6.77437277 -15.41015625 10.1171875 Z " fill="#000000" transform="translate(56.41015625,4.8828125)"/>
<path d="M0 0 C1 1 1 1 1.0625 4.0625 C1.041875 5.031875 1.02125 6.00125 1 7 C-2.9180102 8.41483702 -6.81720466 9.40848484 -10.875 10.3125 C-19.36568135 12.42466207 -26.31631749 16.39452181 -31 24 C-32.28395491 27.27486474 -33.15452093 30.59008771 -34 34 C-34.65629516 36.00342734 -35.31760646 38.00531118 -36 40 C-37.99954746 40.04254356 -40.00041636 40.04080783 -42 40 C-43.67198326 38.32801674 -43.25132096 36.35832392 -43.3125 34.0625 C-43.15691013 24.02695309 -39.28932586 17.36215613 -32.42578125 10.1953125 C-28.90473859 7.00879724 -25.34921558 4.8672025 -21 3 C-20.29230469 2.68289062 -19.58460937 2.36578125 -18.85546875 2.0390625 C-12.70199541 -0.37797748 -6.55172739 -0.5530679 0 0 Z " fill="#000000" transform="translate(47,46)"/>
</svg>
