<?xml version="1.0" encoding="UTF-8"?>
<svg version="1.1" xmlns="http://www.w3.org/2000/svg" width="101" height="104">
<path d="M0 0 C1.794375 -0.00773437 1.794375 -0.00773437 3.625 -0.015625 C7.03322518 0.25261494 9.11044684 0.42712764 12 2.25 C13.23857995 4.6280735 14.18108163 6.7488812 15.0625 9.25 C16.64744488 14.05093221 16.64744488 14.05093221 19.96484375 17.70703125 C23.69106982 18.70116834 27.351401 17.71366847 31 16.6875 C34.16802899 15.99449366 36.76593209 15.9095718 40 16.25 C44.8823048 19.99688508 48.27700784 24.76357116 49.52734375 30.79296875 C49.88680403 35.26415018 49.74233425 38.14133994 47.203125 41.93359375 C45.75071085 43.62550172 44.28735598 45.30808742 42.8125 46.98046875 C40.74598145 49.26581949 40.74598145 49.26581949 40 52.8125 C41.10588171 56.61396839 42.26486116 57.74044028 45 60.5 C48.21575696 63.87025062 49.64955856 65.98638284 49.875 70.6875 C49.35380572 77.54989134 46.08252194 83.40839661 41.05078125 88.046875 C38.6443399 89.45865393 37.646498 89.48020774 34.9375 89 C34.26589844 88.89171875 33.59429687 88.7834375 32.90234375 88.671875 C31 88.25 31 88.25 28 87.25 C26.045138 87.0184012 26.045138 87.0184012 24 87 C23.319375 86.97421875 22.63875 86.9484375 21.9375 86.921875 C19.32324737 87.36461133 18.58896661 88.13888006 17 90.25 C15.85237744 92.90282444 15.85237744 92.90282444 14.9375 95.8125 C13.20833333 101.04166667 13.20833333 101.04166667 11 103.25 C7.37461122 103.72898442 3.7159522 103.6203783 0.0625 103.625 C-0.95263672 103.64949219 -1.96777344 103.67398438 -3.01367188 103.69921875 C-3.98755859 103.70308594 -4.96144531 103.70695312 -5.96484375 103.7109375 C-7.30470337 103.72326416 -7.30470337 103.72326416 -8.67163086 103.73583984 C-11 103.25 -11 103.25 -12.76782227 101.38525391 C-14.16450023 98.96493581 -14.70808191 97.02322186 -15 94.25 C-14.67 93.59 -14.34 92.93 -14 92.25 C-12.1875 92.4375 -12.1875 92.4375 -10 93.25 C-9.4121875 94.50296875 -9.4121875 94.50296875 -8.8125 95.78125 C-8.214375 96.5959375 -7.61625 97.410625 -7 98.25 C-3.57639262 98.85624398 -3.57639262 98.85624398 0.1875 98.5625 C1.45980469 98.51738281 2.73210938 98.47226563 4.04296875 98.42578125 C5.01878906 98.36777344 5.99460938 98.30976562 7 98.25 C7.29132812 97.44175781 7.58265625 96.63351563 7.8828125 95.80078125 C12.16656324 84.63339332 12.16656324 84.63339332 18 81.25 C23.25566992 80.10608152 27.22982292 80.44757689 32.4375 81.6875 C33.67371094 81.97496094 34.90992187 82.26242188 36.18359375 82.55859375 C37.11300781 82.78675781 38.04242188 83.01492187 39 83.25 C39.29519531 82.4765625 39.59039062 81.703125 39.89453125 80.90625 C41 78.25 41 78.25 42.6875 75.75 C44.21636909 73.36931692 44.21636909 73.36931692 43.8359375 70.8828125 C42.81013614 67.65201755 41.26073203 66.07525177 38.9375 63.625 C35.0531881 58.95266791 33.98778963 55.76612922 34.47265625 49.7265625 C35.53116677 44.75548346 38.10544869 42.04515672 41.8125 38.75 C44.2843962 36.44998885 44.2843962 36.44998885 44.125 33.4375 C42.66056088 29.28825584 40.48424506 25.86178064 38 22.25 C37.05640625 22.4665625 37.05640625 22.4665625 36.09375 22.6875 C22.58694326 25.616687 22.58694326 25.616687 16.6875 22.5 C11.08339072 17.80818758 9.90779155 13.15438845 8 6.25 C2.72 6.25 -2.56 6.25 -8 6.25 C-8.391875 7.77625 -8.78375 9.3025 -9.1875 10.875 C-10.88168611 16.5169594 -13.04579273 20.08358133 -17.875 23.625 C-24.475201 25.56623559 -31.43872124 23.57886658 -38 22.25 C-39.03877263 23.8006316 -40.05542555 25.36609681 -41.0625 26.9375 C-41.63097656 27.80761719 -42.19945312 28.67773438 -42.78515625 29.57421875 C-44.23801778 32.77425138 -44.2128876 33.9841295 -43 37.25 C-41.43992962 39.4647705 -41.43992962 39.4647705 -39.5 41.4375 C-35.34766471 45.88764622 -34.25 48.79671457 -34.25 54.94140625 C-35.26839104 59.43399588 -37.42563246 62.35996779 -40.25 65.9375 C-40.74016602 66.56172852 -41.23033203 67.18595703 -41.73535156 67.82910156 C-43.203125 69.57421875 -43.203125 69.57421875 -46 72.25 C-47.32 72.25 -48.64 72.25 -50 72.25 C-50.33 71.26 -50.66 70.27 -51 69.25 C-48.58833586 65.00547111 -45.63686342 61.67601115 -42.171875 58.25390625 C-40.33368082 55.11059421 -40.55822329 52.81878752 -41 49.25 C-42.87817955 46.25161509 -42.87817955 46.25161509 -45.4375 43.625 C-50.9190022 37.63738101 -50.9190022 37.63738101 -51 33.25 C-49.92578125 30.3125 -49.92578125 30.3125 -48.3125 27.25 C-47.79300781 26.239375 -47.27351563 25.22875 -46.73828125 24.1875 C-45.00940349 21.26589084 -43.3316848 18.72068908 -41 16.25 C-36.49922818 15.73351799 -33.71552911 16.04027595 -29.375 17.3125 C-25.69743677 18.33404534 -23.63867708 18.32506368 -20 17.25 C-16.04726413 14.20943394 -15.09161124 9.49686828 -13.4765625 4.96484375 C-12 2.25 -12 2.25 -9.7734375 0.89453125 C-6.44283413 0.12051779 -3.41986539 -0.0147408 0 0 Z " fill="#000000" transform="translate(52,0.75)"/>
<path d="M0 0 C0.91458984 -0.00773437 1.82917969 -0.01546875 2.77148438 -0.0234375 C4.08149414 -0.01957031 4.08149414 -0.01957031 5.41796875 -0.015625 C6.21356201 -0.01336914 7.00915527 -0.01111328 7.82885742 -0.00878906 C9.8125 0.25 9.8125 0.25 11.8125 2.25 C12.25 4.55859375 12.25 4.55859375 11.8125 7.25 C9.625 9.78515625 9.625 9.78515625 6.8125 12.3125 C4.02266033 14.74360251 4.02266033 14.74360251 1.8125 17.25 C1.8125 18.57 1.8125 19.89 1.8125 21.25 C4.10078049 21.67511524 4.10078049 21.67511524 6.8125 21.25 C9.56890211 18.79938625 11.88064965 16.10987329 14.3125 13.33984375 C16.8125 11.25 16.8125 11.25 19.5 11.25390625 C21.8125 12.25 21.8125 12.25 23.8125 15.25 C24.10138599 18.70814663 23.80980497 22.16283088 23.625 25.625 C23.59341797 26.57117188 23.56183594 27.51734375 23.52929688 28.4921875 C23.08057833 37.75269774 23.08057833 37.75269774 19.8125 41.25 C15.06751867 44.33527139 11.00837284 45.57451096 5.38882446 45.64334106 C-1.48192445 45.75480718 -6.4735633 46.63462077 -11.57855225 51.42559814 C-14.34870116 54.32273164 -16.98398034 57.30663387 -19.5625 60.375 C-30.07747205 72.70610699 -30.07747205 72.70610699 -35.53564453 74.11303711 C-40.15316966 74.18007354 -43.23170595 73.76612879 -47.3125 71.5625 C-50.25149817 67.93773559 -51.16145716 65.63027027 -51.25 60.9375 C-49.24546704 53.98059148 -43.41183591 49.38033421 -38.1640625 44.62109375 C-27.8741286 36.15657724 -27.8741286 36.15657724 -21.734375 24.859375 C-21.47352899 21.01549792 -21.47352899 21.01549792 -21.8984375 17.51171875 C-22.36208222 12.28005195 -21.19446649 8.47468898 -17.875 4.4375 C-12.21160672 -0.17223872 -7.02627719 -0.06018225 0 0 Z M-14.9375 9.0625 C-16.92583189 12.5420808 -17.21776452 15.54324981 -17.046875 19.53393555 C-16.8355502 26.61567499 -17.42018527 31.2212554 -22.24804688 36.61795044 C-25.13236787 39.54431708 -28.13279435 42.31589553 -31.1875 45.0625 C-32.4303323 46.22635796 -33.66994929 47.39365936 -34.90625 48.56445312 C-36.638542 50.2037859 -38.3738925 51.83649432 -40.13574219 53.44404602 C-44.1706461 57.05686492 -44.1706461 57.05686492 -45.5 62.125 C-45.42926443 65.3003077 -45.42926443 65.3003077 -43.5625 67.6875 C-41.27642926 69.47026166 -41.27642926 69.47026166 -38.4375 69.4375 C-29.0652061 66.013008 -21.62867084 55.73574264 -14.81445312 48.75 C-14.00298828 47.92757812 -13.19152344 47.10515625 -12.35546875 46.2578125 C-11.62610107 45.51160645 -10.8967334 44.76540039 -10.14526367 43.99658203 C-5.98555513 40.28557631 -0.53286248 40.98115708 4.74414062 40.90820312 C9.8112178 40.70438243 12.76972042 39.54984918 16.8125 36.25 C18.40662284 33.06175432 17.91424735 29.62103338 17.875 26.125 C17.87048828 25.37089844 17.86597656 24.61679687 17.86132812 23.83984375 C17.84953499 21.97652873 17.83159942 20.11325445 17.8125 18.25 C17.36519531 18.64832031 16.91789062 19.04664063 16.45703125 19.45703125 C7.48785369 27.31701415 7.48785369 27.31701415 2.6875 27.125 C-1.65558511 25.80319149 -1.65558511 25.80319149 -3.1875 23.25 C-3.8125 20.0625 -3.8125 20.0625 -3.1875 16.25 C-1.58836138 13.9803892 0.15184189 12.0366853 2.0859375 10.046875 C3.9984757 8.16225871 3.9984757 8.16225871 5.8125 5.25 C3.58360504 5.19571027 1.35432529 5.15707662 -0.875 5.125 C-2.11636719 5.10179687 -3.35773437 5.07859375 -4.63671875 5.0546875 C-8.94970419 5.29192542 -11.90235913 5.91896125 -14.9375 9.0625 Z " fill="#000000" transform="translate(52.1875,30.75)"/>
</svg>
