<?xml version="1.0" encoding="UTF-8"?>
<svg version="1.1" xmlns="http://www.w3.org/2000/svg" width="96" height="96">
<path d="M0 0 C0.93164474 -0.00960754 1.86328949 -0.01921509 2.82316589 -0.02911377 C3.82422867 -0.03336365 4.82529144 -0.03761353 5.85668945 -0.04199219 C6.89509476 -0.04769226 7.93350006 -0.05339233 9.00337219 -0.05926514 C11.20145654 -0.06870751 13.399555 -0.07524609 15.59765625 -0.07910156 C18.94011566 -0.08878073 22.2819531 -0.11980102 25.62426758 -0.15136719 C27.7642379 -0.15790038 29.90421261 -0.16314961 32.04418945 -0.16699219 C33.03513107 -0.17933899 34.02607269 -0.19168579 35.04704285 -0.20440674 C42.45412031 -0.18094332 48.6947944 1.00852703 55.0949707 4.84863281 C60.12113096 10.16200222 62.38307999 16.63953989 62.44360352 23.87866211 C62.45321106 24.81030685 62.4628186 25.7419516 62.47271729 26.701828 C62.47696716 27.70289078 62.48121704 28.70395355 62.4855957 29.73535156 C62.49129578 30.77375687 62.49699585 31.81216217 62.50286865 32.8820343 C62.51231103 35.08011865 62.51884961 37.27821711 62.52270508 39.47631836 C62.53238425 42.81877777 62.56340454 46.16061521 62.5949707 49.50292969 C62.60150389 51.64290001 62.60675312 53.78287472 62.6105957 55.92285156 C62.6229425 56.91379318 62.63528931 57.9047348 62.64801025 58.92570496 C62.62454684 66.33278242 61.43507649 72.57345651 57.5949707 78.97363281 C52.28160129 83.99979306 45.80406362 86.2617421 38.56494141 86.32226562 C37.16747429 86.33667694 37.16747429 86.33667694 35.74177551 86.35137939 C34.24018135 86.35775421 34.24018135 86.35775421 32.70825195 86.36425781 C31.66984665 86.36995789 30.63144135 86.37565796 29.56156921 86.38153076 C27.36348486 86.39097314 25.16538641 86.39751172 22.96728516 86.40136719 C19.62482574 86.41104636 16.28298831 86.44206665 12.94067383 86.47363281 C10.8007035 86.480166 8.6607288 86.48541523 6.52075195 86.48925781 C5.52981033 86.50160461 4.53886871 86.51395142 3.51789856 86.52667236 C-3.8891789 86.50320895 -10.12985299 85.3137386 -16.5300293 81.47363281 C-21.55618955 76.1602634 -23.81813859 69.68272573 -23.87866211 62.44360352 C-23.88826965 61.51195877 -23.8978772 60.58031403 -23.90777588 59.62043762 C-23.91202576 58.61937485 -23.91627563 57.61831207 -23.9206543 56.58691406 C-23.92920441 55.02930611 -23.92920441 55.02930611 -23.93792725 53.44023132 C-23.94736962 51.24214697 -23.9539082 49.04404852 -23.95776367 46.84594727 C-23.96744284 43.50348785 -23.99846313 40.16165042 -24.0300293 36.81933594 C-24.03656249 34.67936561 -24.04181172 32.53939091 -24.0456543 30.39941406 C-24.0580011 29.40847244 -24.0703479 28.41753082 -24.08306885 27.39656067 C-24.05960543 19.98948321 -22.87013508 13.74880912 -19.0300293 7.34863281 C-13.71665989 2.32247256 -7.23912222 0.06052352 0 0 Z M-13.7175293 12.16113281 C-22.26464093 26.01334822 -18.32136058 51.32764452 -16.5456543 66.84863281 C-15.28117708 71.90654167 -13.22824258 75.22899057 -8.7800293 77.97363281 C6.37086922 83.36202768 30.83799253 82.02225236 46.2824707 78.16113281 C50.43557423 75.79420542 53.11161684 73.98859249 54.7590332 69.35644531 C58.30629855 54.47910857 60.11700109 26.3986284 52.38793945 12.83691406 C49.09194023 8.64812099 45.79171838 7.55010434 40.7121582 6.76269531 C12.14783114 3.59672095 12.14783114 3.59672095 -13.7175293 12.16113281 Z " fill="#000000" transform="translate(28.717529296875,4.8388671875)"/>
<path d="M0 0 C1.65 0.33 3.3 0.66 5 1 C5 18.16 5 35.32 5 53 C2.525 53.495 2.525 53.495 0 54 C-1.65408456 52.34591544 -1.12742355 50.40446108 -1.12939453 48.12890625 C-1.13254669 47.09113037 -1.13569885 46.05335449 -1.13894653 44.98413086 C-1.1369223 43.85499268 -1.13489807 42.72585449 -1.1328125 41.5625 C-1.13424759 39.83688843 -1.13424759 39.83688843 -1.13571167 38.07641602 C-1.13639369 35.63850856 -1.1345379 33.2005993 -1.13037109 30.76269531 C-1.12502317 27.01623482 -1.13031539 23.26989423 -1.13671875 19.5234375 C-1.13605797 17.16145807 -1.13477682 14.79947871 -1.1328125 12.4375 C-1.13483673 11.30836182 -1.13686096 10.17922363 -1.13894653 9.01586914 C-1.13579437 7.97809326 -1.13264221 6.94031738 -1.12939453 5.87109375 C-1.12859894 4.95255615 -1.12780334 4.03401855 -1.12698364 3.08764648 C-1 1 -1 1 0 0 Z " fill="#000000" transform="translate(46,21)"/>
<path d="M0 0 C1.65 0.33 3.3 0.66 5 1 C5 14.2 5 27.4 5 41 C2.525 41.495 2.525 41.495 0 42 C-1.89623202 40.10376798 -1.12897626 37.33629641 -1.13894653 34.8137207 C-1.1369223 33.94706787 -1.13489807 33.08041504 -1.1328125 32.1875 C-1.13376923 31.30344482 -1.13472595 30.41938965 -1.13571167 29.50854492 C-1.13639351 27.63557871 -1.13453893 25.76261014 -1.13037109 23.88964844 C-1.12502289 21.01231612 -1.13031593 18.13513992 -1.13671875 15.2578125 C-1.13605797 13.44270799 -1.13477681 11.62760357 -1.1328125 9.8125 C-1.13483673 8.94584717 -1.13686096 8.07919434 -1.13894653 7.1862793 C-1.11495009 1.11495009 -1.11495009 1.11495009 0 0 Z " fill="#000000" transform="translate(26,33)"/>
<path d="M0 0 C1.65 0.33 3.3 0.66 5 1 C5 8.92 5 16.84 5 25 C3.35 25.33 1.7 25.66 0 26 C-1.71567792 24.28432208 -1.13015825 22.02627265 -1.1328125 19.6875 C-1.13410156 18.61242187 -1.13539062 17.53734375 -1.13671875 16.4296875 C-1.13091797 14.73199219 -1.13091797 14.73199219 -1.125 13 C-1.12886719 11.86820313 -1.13273437 10.73640625 -1.13671875 9.5703125 C-1.13542969 8.49523437 -1.13414063 7.42015625 -1.1328125 6.3125 C-1.13168457 5.31863281 -1.13055664 4.32476562 -1.12939453 3.30078125 C-1 1 -1 1 0 0 Z " fill="#000000" transform="translate(66,49)"/>
</svg>
