<svg width="16" height="16" viewBox="0 0 16 16" fill="none" xmlns="http://www.w3.org/2000/svg">
<path d="M5.66667 1.38889V14.6111M14.6111 6.05556H1.38889M1 5.97778C1 4.23556 1 3.36444 1.33911 2.69867C1.63738 2.1133 2.1133 1.63738 2.69867 1.33911C3.36444 1 4.23556 1 5.97778 1H10.0222C11.7644 1 12.6356 1 13.3013 1.33911C13.8867 1.63738 14.3626 2.1133 14.6609 2.69867C15 3.36444 15 4.23556 15 5.97778V10.0222C15 11.7644 15 12.6356 14.6609 13.3013C14.3626 13.8867 13.8867 14.3626 13.3013 14.6609C12.6356 15 11.7644 15 10.0222 15H5.97778C4.23556 15 3.36444 15 2.69867 14.6609C2.1133 14.3626 1.63738 13.8867 1.33911 13.3013C1 12.6356 1 11.7644 1 10.0222V5.97778Z" stroke="#FFFFF2" stroke-linecap="round" stroke-linejoin="round"/>
</svg>
