<?xml version="1.0" encoding="UTF-8"?>
<svg version="1.1" xmlns="http://www.w3.org/2000/svg" width="96" height="96">
<path d="M0 0 C1.21551544 -0.00428513 2.43103088 -0.00857025 3.68338013 -0.01298523 C6.25033954 -0.01871914 8.8173152 -0.01923573 11.38427734 -0.01489258 C15.29943749 -0.01173558 19.2138396 -0.03519469 23.12890625 -0.06054688 C25.62760322 -0.06282033 28.12630221 -0.06352315 30.625 -0.0625 C31.78981903 -0.07170975 32.95463806 -0.08091949 34.15475464 -0.09040833 C47.61035942 -0.01429793 47.61035942 -0.01429793 52.96115112 4.61112976 C58.3088903 10.52147603 58.75450091 16.80175474 58.74609375 24.35546875 C58.75037888 25.21584747 58.754664 26.0762262 58.75907898 26.962677 C58.76480183 28.77637862 58.76533767 30.59010317 58.76098633 32.40380859 C58.7578303 35.16023448 58.7812971 37.91558185 58.80664062 40.671875 C58.80891442 42.44140491 58.80961674 44.21093768 58.80859375 45.98046875 C58.8178035 46.79530731 58.82701324 47.61014587 58.83650208 48.44967651 C58.78986475 54.29627082 58.09913496 60.20309443 54.13496399 64.83029175 C47.23313661 71.01231556 39.62762735 70.60837505 30.890625 70.6015625 C29.67510956 70.60584763 28.45959412 70.61013275 27.20724487 70.61454773 C24.64028546 70.62028164 22.0733098 70.62079823 19.50634766 70.61645508 C15.59118751 70.61329808 11.6767854 70.63675719 7.76171875 70.66210938 C5.26302178 70.66438283 2.76432279 70.66508565 0.265625 70.6640625 C-0.89919403 70.67327225 -2.06401306 70.68248199 -3.26412964 70.69197083 C-16.71973442 70.61586043 -16.71973442 70.61586043 -22.07052612 65.99043274 C-27.4182653 60.08008647 -27.86387591 53.79980776 -27.85546875 46.24609375 C-27.85975388 45.38571503 -27.864039 44.5253363 -27.86845398 43.6388855 C-27.87417683 41.82518388 -27.87471267 40.01145933 -27.87036133 38.19775391 C-27.8672053 35.44132802 -27.8906721 32.68598065 -27.91601562 29.9296875 C-27.91828942 28.16015759 -27.91899174 26.39062482 -27.91796875 24.62109375 C-27.9271785 23.80625519 -27.93638824 22.99141663 -27.94587708 22.15188599 C-27.89923975 16.30529168 -27.20850996 10.39846807 -23.24433899 5.77127075 C-16.34251161 -0.41075306 -8.73700235 -0.00681255 0 0 Z M-18.5546875 11.30078125 C-24.65716637 21.42875495 -22.97713413 43.9893569 -20.5546875 55.30078125 C-18.44270788 59.45191361 -16.81773521 61.54864547 -12.5546875 63.30078125 C-4.14741325 64.86687874 4.67077614 64.45535417 13.19726562 64.43115234 C15.44147494 64.42579042 17.68548421 64.43112999 19.9296875 64.4375 C35.72009392 65.34114909 35.72009392 65.34114909 49.4453125 59.30078125 C55.54779137 49.17280755 53.86775913 26.6122056 51.4453125 15.30078125 C49.33333288 11.14964889 47.70836021 9.05291703 43.4453125 7.30078125 C35.03803825 5.73468376 26.21984886 6.14620833 17.69335938 6.17041016 C15.44915006 6.17577208 13.20514079 6.17043251 10.9609375 6.1640625 C-4.82946892 5.26041341 -4.82946892 5.26041341 -18.5546875 11.30078125 Z " fill="#000000" transform="translate(32.5546875,12.69921875)"/>
<path d="M0 0 C0.71051514 0.00088623 1.42103027 0.00177246 2.15307617 0.00268555 C8.75028896 0.15177938 12.70373157 1.60103919 17.85546875 5.703125 C20.13298777 8.56171192 19.7108222 11.4704457 19.61328125 14.9921875 C19.1875 17.375 19.1875 17.375 16.875 19.9375 C11.38464176 22.87420324 6.45986246 22.59353336 0.375 22.625 C-0.61048828 22.645625 -1.59597656 22.66625 -2.61132812 22.6875 C-8.10945589 22.71703997 -12.08236814 22.51318732 -16.8125 19.375 C-19.27307182 16.91442818 -19.18997115 15.96778095 -19.3125 12.5625 C-19.22648591 7.97728719 -19.22648591 7.97728719 -17.64453125 5.67578125 C-12.28438631 1.08727672 -6.86042034 -0.01523647 0 0 Z M-10.8125 9.375 C-12.08835112 11.39824001 -12.08835112 11.39824001 -12.8125 13.375 C-8.92211535 17.26538465 -2.07393003 16.3468037 3.1875 16.375 C6.34945233 15.95706505 9.11667104 15.27507056 12.1875 14.375 C12.1875 13.055 12.1875 11.735 12.1875 10.375 C5.91527465 4.91209405 -3.87846703 5.3142661 -10.8125 9.375 Z " fill="#000000" transform="translate(35.8125,48.625)"/>
<path d="M0 0 C2.93423195 1.79646854 4.47205355 2.9441071 6 6 C6.53118252 10.91996928 6.75105553 14.77327597 4.125 19.0625 C0.38214851 22.47509989 -2.60769925 22.32843064 -7.515625 22.29296875 C-10.97198834 21.88537873 -12.68663869 20.53723498 -15 18 C-16.84862688 14.30274625 -16.47587094 10.03538558 -16 6 C-11.95766104 -0.60248696 -7.2842127 -0.85898735 0 0 Z M-7.125 6.75 C-9.31976074 7.93604785 -9.31976074 7.93604785 -10 11 C-9.33333333 13.16666667 -9.33333333 13.16666667 -8 15 C-5.14069472 16.29417988 -5.14069472 16.29417988 -2.875 15.25 C-0.68023926 14.06395215 -0.68023926 14.06395215 0 11 C-0.66666667 8.83333333 -0.66666667 8.83333333 -2 7 C-4.85930528 5.70582012 -4.85930528 5.70582012 -7.125 6.75 Z " fill="#000000" transform="translate(41,25)"/>
<path d="M0 0 C1.00023193 0.00523682 2.00046387 0.01047363 3.03100586 0.01586914 C4.1105957 0.0190918 5.19018555 0.02231445 6.30249023 0.02563477 C8.00695312 0.03820313 8.00695312 0.03820313 9.74584961 0.05102539 C11.45611328 0.05779297 11.45611328 0.05779297 13.20092773 0.06469727 C16.02845312 0.07652792 18.85587601 0.09301129 21.68334961 0.11352539 C22.06553728 1.76967196 22.39730063 3.43809563 22.68334961 5.11352539 C21.68334961 6.11352539 21.68334961 6.11352539 19.36669922 6.22705078 C18.36646729 6.22181396 17.36623535 6.21657715 16.33569336 6.21118164 C15.25610352 6.20795898 14.17651367 6.20473633 13.06420898 6.20141602 C11.92790039 6.19303711 10.7915918 6.1846582 9.62084961 6.17602539 C8.48067383 6.17151367 7.34049805 6.16700195 6.16577148 6.16235352 C3.3382461 6.15052287 0.51082321 6.13403949 -2.31665039 6.11352539 C-2.69883806 4.45737882 -3.03060141 2.78895515 -3.31665039 1.11352539 C-2.31665039 0.11352539 -2.31665039 0.11352539 0 0 Z " fill="#000000" transform="translate(56.316650390625,32.886474609375)"/>
<path d="M0 0 C0.83265381 0.00523682 1.66530762 0.01047363 2.52319336 0.01586914 C3.42231445 0.0190918 4.32143555 0.02231445 5.24780273 0.02563477 C6.66609375 0.03820313 6.66609375 0.03820313 8.11303711 0.05102539 C9.06243164 0.05553711 10.01182617 0.06004883 10.98999023 0.06469727 C13.34356776 0.07652429 15.69702188 0.09300514 18.05053711 0.11352539 C18.43272478 1.76967196 18.76448813 3.43809563 19.05053711 5.11352539 C18.05053711 6.11352539 18.05053711 6.11352539 16.10107422 6.22705078 C15.26842041 6.22181396 14.4357666 6.21657715 13.57788086 6.21118164 C12.67875977 6.20795898 11.77963867 6.20473633 10.85327148 6.20141602 C9.90774414 6.19303711 8.9622168 6.1846582 7.98803711 6.17602539 C7.03864258 6.17151367 6.08924805 6.16700195 5.11108398 6.16235352 C2.75750646 6.15052649 0.40405234 6.13404564 -1.94946289 6.11352539 C-2.33165056 4.45737882 -2.66341391 2.78895515 -2.94946289 1.11352539 C-1.94946289 0.11352539 -1.94946289 0.11352539 0 0 Z " fill="#000000" transform="translate(59.949462890625,44.886474609375)"/>
<path d="M0 0 C1.48831242 0.00667405 2.97660807 0.01863442 4.46484375 0.03515625 C5.22345703 0.03966797 5.98207031 0.04417969 6.76367188 0.04882812 C8.64326246 0.06064945 10.52281274 0.07858547 12.40234375 0.09765625 C12.78453142 1.75380282 13.11629477 3.42222649 13.40234375 5.09765625 C12.40234375 6.09765625 12.40234375 6.09765625 8.8046875 6.1953125 C7.31637508 6.18863845 5.82807943 6.17667808 4.33984375 6.16015625 C3.58123047 6.15564453 2.82261719 6.15113281 2.04101562 6.14648438 C0.16142504 6.13466305 -1.71812524 6.11672703 -3.59765625 6.09765625 C-3.97984392 4.44150968 -4.31160727 2.77308601 -4.59765625 1.09765625 C-3.59765625 0.09765625 -3.59765625 0.09765625 0 0 Z " fill="#000000" transform="translate(65.59765625,56.90234375)"/>
</svg>
