<svg width="14" height="12" viewBox="0 0 14 12" fill="none" xmlns="http://www.w3.org/2000/svg">
<path d="M10.2851 7.80977L13.4174 5.10929L13.5527 5.1192C13.6934 5.136 13.8031 5.19571 13.8819 5.29833C13.9606 5.40095 14 5.51136 14 5.62959C14 5.698 13.9874 5.76281 13.9621 5.82402C13.9369 5.88523 13.8906 5.93894 13.8232 5.98515L11.3394 8.13652L12.0907 11.3996C12.0937 11.4164 12.0952 11.4353 12.0952 11.4563V11.5121C12.0952 11.6543 12.0486 11.7714 11.9554 11.8632C11.8616 11.9544 11.7465 12 11.61 12C11.5673 12 11.5225 11.9976 11.4756 11.9928C11.4287 11.988 11.3851 11.9685 11.3448 11.9343L11.2348 11.8668L10.2851 7.80977ZM8.56432 2.50154L7.68679 0.434776L7.73369 0.320456C7.77337 0.218438 7.8347 0.139524 7.91767 0.0837146C8.00064 0.0279048 8.08933 0 8.18373 0C8.27812 0 8.37042 0.0279048 8.46061 0.0837146C8.55079 0.139524 8.61603 0.216638 8.65632 0.315055L9.61863 2.60056L8.56432 2.50154ZM2.92753 10.2483L5.76847 8.538L8.60942 10.2708L7.86536 7.03023L10.3681 4.86985L7.07621 4.5773L5.76847 1.51677L4.46074 4.5548L1.16885 4.84735L3.67158 7.03023L2.92753 10.2483ZM1.93906 10.4643L2.67139 7.35339L0.25794 5.25782C0.172561 5.17921 0.108227 5.09339 0.0649359 5.00038C0.0216453 4.90736 0 4.81434 0 4.72133C0 4.5497 0.0598251 4.39007 0.179476 4.24244C0.299126 4.09542 0.46357 4.0126 0.672808 3.994L3.85918 3.71405L5.09025 0.783137C5.15098 0.637311 5.24508 0.528093 5.37254 0.45548C5.50001 0.382867 5.63048 0.34656 5.76396 0.34656C5.89744 0.34656 6.02912 0.382867 6.15899 0.45548C6.28886 0.528093 6.38476 0.637311 6.44669 0.783137L7.67867 3.71405L10.8641 3.994C11.0734 4.012 11.2378 4.09482 11.3575 4.24244C11.4777 4.38887 11.5378 4.5479 11.5378 4.71953C11.5378 4.81734 11.5159 4.91186 11.472 5.00308C11.4287 5.09429 11.3644 5.17921 11.279 5.25782L8.86646 7.35339L9.6042 10.4652C9.61502 10.4982 9.62043 10.5516 9.62043 10.6255C9.62043 10.8337 9.54828 11.008 9.40398 11.1485C9.25848 11.2895 9.08922 11.36 8.89622 11.36C8.86014 11.36 8.72997 11.3207 8.5057 11.2421L5.76847 9.59748L3.03215 11.2421C2.96841 11.2757 2.90318 11.3036 2.83644 11.3258C2.7697 11.348 2.70596 11.3594 2.64524 11.36C2.42638 11.36 2.23818 11.2715 2.08065 11.0944C1.92312 10.9174 1.87593 10.7074 1.93906 10.4643Z" fill="#FFFFF2"/>
</svg>
