<svg width="10" height="13" viewBox="0 0 10 13" fill="none" xmlns="http://www.w3.org/2000/svg">
<path d="M1.15429 13C0.825238 13 0.550714 12.8888 0.330714 12.6663C0.110714 12.4439 0.00047619 12.1663 0 11.8336V1.16639C0 0.834166 0.110238 0.556833 0.330714 0.334389C0.55119 0.111944 0.825714 0.000481481 1.15429 0H8.84643C9.175 0 9.44952 0.111463 9.67 0.334389C9.89048 0.557315 10.0005 0.834889 10 1.16711V11.8336C10 12.1658 9.89 12.4434 9.67 12.6663C9.45 12.8893 9.17524 13.0005 8.84571 13H1.15429ZM1.15429 12.2778H8.84643C8.95595 12.2778 9.05667 12.2316 9.14857 12.1391C9.24048 12.0467 9.28619 11.9446 9.28571 11.8329V1.16711C9.28571 1.05589 9.24 0.953815 9.14857 0.860889C9.05714 0.767963 8.95619 0.721741 8.84571 0.722222H7.85714V5.13933L6.42857 4.27772L5 5.13933V0.722222H1.15429C1.04429 0.722222 0.943333 0.768444 0.851428 0.860889C0.759524 0.953333 0.713809 1.05517 0.714286 1.16639V11.8336C0.714286 11.9444 0.76 12.0462 0.851428 12.1391C0.942857 12.232 1.04357 12.2783 1.15357 12.2778" fill="#FFFFF2"/>
</svg>
