<?xml version="1.0" encoding="UTF-8"?>
<svg version="1.1" xmlns="http://www.w3.org/2000/svg" width="96" height="96">
<path d="M0 0 C2.70315545 1.35157773 4.49869874 0.91120656 7.5 0.625 C9.10101563 0.47611328 9.10101563 0.47611328 10.734375 0.32421875 C11.81203125 0.21722656 12.8896875 0.11023438 14 0 C14.99515625 -0.09667969 15.9903125 -0.19335938 17.015625 -0.29296875 C19.34443419 -0.5225228 21.67245862 -0.75797689 24 -1 C23.85669423 1.0001827 23.71021706 3.00013825 23.5625 5 C23.47742188 6.19367187 23.39234375 7.38734375 23.3046875 8.6171875 C23.07165636 11.20443062 22.70671238 13.59251511 22.1875 16.125 C21.95863141 20.85495096 23.20059343 24.05807714 24.9921875 28.38671875 C29.53090566 40.1557205 27.59667038 54.52707459 22.78125 65.87109375 C16.95751202 77.53474677 7.72384477 85.47593998 -4.25 90.3125 C-15.12741008 93.69873313 -29.1144148 93.95339621 -39.6171875 89.26171875 C-40.79667969 88.63716797 -40.79667969 88.63716797 -42 88 C-42.86882813 87.55269531 -43.73765625 87.10539062 -44.6328125 86.64453125 C-56.24699311 80.17872622 -63.89037418 70.43689635 -67.9375 57.6875 C-71.09813155 43.9585067 -69.08083402 30.71310411 -62.0625 18.5625 C-48.88581753 -1.70931919 -22.46295712 -11.29954813 0 0 Z M-49.97265625 18.06640625 C-58.23111456 27.86784616 -60.28803283 38.48615017 -59.26171875 50.984375 C-57.97924123 60.86136604 -52.26562174 68.5186041 -45 75 C-35.28998396 82.24493457 -26.00296345 84.09749319 -14 83 C-3.10380565 80.77001905 5.33538831 75.29370947 11.71875 66.1796875 C17.34979809 56.60003861 19.56576445 46.05558814 17.43359375 35.0859375 C16.3480061 30.95956768 15.1356834 27.27621263 13.25 23.4375 C11.54234587 18.74145114 12.1895097 14.85317685 13 10 C11.89205078 10.19529297 11.89205078 10.19529297 10.76171875 10.39453125 C3.4539839 11.38808605 -1.11047709 10.69709703 -7.625 7.2265625 C-22.36142762 -0.38402677 -39.47214355 7.06685929 -49.97265625 18.06640625 Z " fill="#000000" transform="translate(69,4)"/>
<path d="M0 0 C0.99 0.33 1.98 0.66 3 1 C3 1.66 3 2.32 3 3 C3.53625 3.268125 4.0725 3.53625 4.625 3.8125 C6.35905434 4.67952717 8.06435702 5.60474831 9.75 6.5625 C16.24134699 9.43367271 21.25947104 9.53619479 27.8125 7.1015625 C31.37931309 5.30541734 34.18218921 2.79968982 37 0 C40.32759923 1.55194754 42.48580485 3.30621949 45 6 C39.78547177 13.23305528 32.78209299 17.27494602 24 19 C14.38596009 20.01010551 6.20566772 17.52395909 -1.30859375 11.5 C-2.93746223 10.05546075 -4.48186222 8.55992139 -6 7 C-4.61990379 3.66476748 -3.15049348 1.81392049 0 0 Z " fill="#000000" transform="translate(28,62)"/>
</svg>
