<?xml version="1.0" encoding="UTF-8"?>
<svg version="1.1" xmlns="http://www.w3.org/2000/svg" width="96" height="96">
<path d="M0 0 C2.99168396 -0.3742218 2.99168396 -0.3742218 6.88061523 -0.37231445 C7.94184097 -0.37779045 7.94184097 -0.37779045 9.02450562 -0.38337708 C11.36944386 -0.39150066 13.71369487 -0.37785682 16.05859375 -0.36328125 C17.68522644 -0.3627628 19.31185976 -0.36327992 20.93849182 -0.36479187 C24.35077241 -0.36470206 27.76281716 -0.3542565 31.17504883 -0.33618164 C35.55119213 -0.31351206 39.9269901 -0.31294617 44.30317593 -0.31969929 C47.66346816 -0.32303973 51.02368154 -0.31640748 54.38395882 -0.30657005 C55.99751434 -0.3027177 57.61107864 -0.30156999 59.22463799 -0.3031559 C61.47992553 -0.30352642 63.73476929 -0.29090988 65.98999023 -0.2746582 C67.27413315 -0.27005081 68.55827606 -0.26544342 69.8813324 -0.26069641 C73 0 73 0 76 2 C76.3742218 4.53611755 76.3742218 4.53611755 76.37231445 7.77905273 C76.38165764 9.59620033 76.38165764 9.59620033 76.39118958 11.45005798 C76.38197983 12.76462479 76.37277008 14.07919159 76.36328125 15.43359375 C76.36276272 16.79118347 76.36328015 18.14877394 76.36479187 19.50636292 C76.36470209 22.35372099 76.354262 25.20079629 76.33618164 28.0480957 C76.31351552 31.69784921 76.31294571 35.34718859 76.31969929 38.99699306 C76.32304149 41.80141377 76.31640414 44.6057401 76.30657005 47.4101429 C76.30084755 49.41041916 76.30215413 51.41071152 76.30354309 53.41099548 C76.29401108 54.62557938 76.28447906 55.84016327 76.2746582 57.09155273 C76.26774712 58.69799904 76.26774712 58.69799904 76.26069641 60.3368988 C76 63 76 63 74 66 C69.77511838 66.63108064 65.51789823 66.55739339 61.25146484 66.5559082 C59.13844378 66.56245833 57.03015449 66.61686864 54.91796875 66.67382812 C53.57293272 66.68263316 52.22787439 66.6885854 50.8828125 66.69140625 C49.65965332 66.70373291 48.43649414 66.71605957 47.17626953 66.72875977 C44 66 44 66 41.74560547 63.10131836 C41.16955566 62.0778833 40.59350586 61.05444824 40 60 C35.78083567 56.53090932 32.47820753 55.09285098 27 55 C22.11019313 55.87528385 18.26612549 57.21111503 15 61.0625 C13.05513863 63.77829846 13.05513863 63.77829846 12 66 C10.22950311 66.05410687 8.45853151 66.09284119 6.6875 66.125 C5.70136719 66.14820312 4.71523437 66.17140625 3.69921875 66.1953125 C1 66 1 66 -2 64 C-2.3742218 61.46388245 -2.3742218 61.46388245 -2.37231445 58.22094727 C-2.37854324 57.00951553 -2.38477203 55.7980838 -2.39118958 54.54994202 C-2.38197983 53.23537521 -2.37277008 51.92080841 -2.36328125 50.56640625 C-2.36276272 49.20881653 -2.36328015 47.85122606 -2.36479187 46.49363708 C-2.36470209 43.64627901 -2.354262 40.79920371 -2.33618164 37.9519043 C-2.31351552 34.30215079 -2.31294571 30.65281141 -2.31969929 27.00300694 C-2.32304149 24.19858623 -2.31640414 21.3942599 -2.30657005 18.5898571 C-2.30084755 16.58958084 -2.30215413 14.58928848 -2.30354309 12.58900452 C-2.29401108 11.37442062 -2.28447906 10.15983673 -2.2746582 8.90844727 C-2.27005081 7.83748306 -2.26544342 6.76651886 -2.26069641 5.6631012 C-2 3 -2 3 0 0 Z M4 6 C4 23.82 4 41.64 4 60 C8.29465993 58.92633502 9.14097458 57.93361626 11.76171875 54.56640625 C13.35578563 52.54993679 15.15044998 50.78104817 17 49 C16.51273438 48.45214844 16.02546875 47.90429688 15.5234375 47.33984375 C12.85264859 43.23778591 13.48640267 38.72790967 14 34 C15.1875 31.0625 15.1875 31.0625 17 29 C17.66 28.236875 18.32 27.47375 19 26.6875 C23.56417218 24.12015315 27.88076427 24.36685169 33 25 C35.9375 26.1875 35.9375 26.1875 38 28 C38.763125 28.66 39.52625 29.32 40.3125 30 C42.87696967 34.55905719 42.65062512 38.88474043 42 44 C40.5 47.6875 40.5 47.6875 39 50 C39.55429687 50.47050781 40.10859375 50.94101563 40.6796875 51.42578125 C41.76636719 52.35970703 41.76636719 52.35970703 42.875 53.3125 C43.59429687 53.92738281 44.31359375 54.54226562 45.0546875 55.17578125 C47 57 47 57 49 60 C55.93 60 62.86 60 70 60 C70 42.18 70 24.36 70 6 C48.22 6 26.44 6 4 6 Z M22 33 C19.93803782 35.2140989 19.93803782 35.2140989 19 38 C19.76039197 41.80195984 20.76963408 44.72677954 24 47 C27.17695135 48.17045576 28.48883261 48.21907174 31.625 46.875 C34.34712589 44.72595325 35.72105706 43.23497332 37 40 C36.23960803 36.19804016 35.23036592 33.27322046 32 31 C27.67106404 29.40512886 25.56928197 30.18214581 22 33 Z " fill="#000000" transform="translate(11,15)"/>
<path d="M0 0 C1.03777588 -0.00315216 2.07555176 -0.00630432 3.14477539 -0.009552 C4.83848267 -0.00651566 4.83848267 -0.00651566 6.56640625 -0.00341797 C7.71681396 -0.00437469 8.86722168 -0.00533142 10.05249023 -0.00631714 C12.49039769 -0.00699916 14.92830695 -0.00514337 17.36621094 -0.00097656 C21.11267143 0.00437136 24.85901202 -0.00092086 28.60546875 -0.00732422 C30.96744818 -0.00666344 33.32942754 -0.00538229 35.69140625 -0.00341797 C36.82054443 -0.0054422 37.94968262 -0.00746643 39.11303711 -0.009552 C40.15081299 -0.00639984 41.18858887 -0.00324768 42.2578125 0 C43.1763501 0.00079559 44.0948877 0.00159119 45.04125977 0.00241089 C47.12890625 0.12939453 47.12890625 0.12939453 48.12890625 1.12939453 C48.23000978 4.07475023 48.26859904 6.99617013 48.26171875 9.94189453 C48.26267548 10.82594971 48.2636322 11.71000488 48.26461792 12.62084961 C48.26529976 14.49381583 48.26344518 16.36678439 48.25927734 18.23974609 C48.25392914 21.11707841 48.25922218 23.99425461 48.265625 26.87158203 C48.26496422 28.68668654 48.26368306 30.50179096 48.26171875 32.31689453 C48.26374298 33.18354736 48.26576721 34.0502002 48.26785278 34.94311523 C48.24385634 41.01444444 48.24385634 41.01444444 47.12890625 42.12939453 C45.44281659 42.20144964 43.75389966 42.21325521 42.06640625 42.19189453 C41.14730469 42.18287109 40.22820312 42.17384766 39.28125 42.16455078 C38.57097656 42.15294922 37.86070313 42.14134766 37.12890625 42.12939453 C36.74671858 40.47324796 36.41495523 38.80482429 36.12890625 37.12939453 C36.45890625 36.79939453 36.78890625 36.46939453 37.12890625 36.12939453 C38.77890625 36.12939453 40.42890625 36.12939453 42.12890625 36.12939453 C42.12890625 26.22939453 42.12890625 16.32939453 42.12890625 6.12939453 C28.26890625 6.12939453 14.40890625 6.12939453 0.12890625 6.12939453 C0.12890625 7.77939453 0.12890625 9.42939453 0.12890625 11.12939453 C-1.52724032 11.5115822 -3.19566399 11.84334555 -4.87109375 12.12939453 C-5.87109375 11.12939453 -5.87109375 11.12939453 -6.00390625 8.87939453 C-6.00132813 7.97189453 -5.99875 7.06439453 -5.99609375 6.12939453 C-5.99867187 5.22189453 -6.00125 4.31439453 -6.00390625 3.37939453 C-5.75844688 -0.77897605 -3.65748129 0.00316794 0 0 Z " fill="#000000" transform="translate(26.87109375,26.87060546875)"/>
</svg>
