<?xml version="1.0" encoding="UTF-8"?>
<svg version="1.1" xmlns="http://www.w3.org/2000/svg" width="96" height="96">
<path d="M0 0 C2.11009461 0.79462111 4.22880012 1.56142798 6.35058594 2.32421875 C16.62033173 6.07052704 16.62033173 6.07052704 18.95996094 8.41015625 C19.14746094 10.78515625 19.14746094 10.78515625 17.95996094 13.41015625 C13.36866952 16.31093033 8.34992718 17.8573392 2.95996094 18.41015625 C3.20746094 20.08078125 3.20746094 20.08078125 3.45996094 21.78515625 C3.62940169 23.32652049 3.7958192 24.86821871 3.95996094 26.41015625 C4.08628906 27.250625 4.21261719 28.09109375 4.34277344 28.95703125 C4.59933345 31.688154 4.65395029 33.74986372 3.95996094 36.41015625 C-1.01000438 41.66103265 -7.91630241 44.14470037 -14.99316406 44.74609375 C-16.42520496 44.77589 -17.85769179 44.78835738 -19.29003906 44.78515625 C-20.04003174 44.78354492 -20.79002441 44.78193359 -21.56274414 44.78027344 C-27.7345124 44.64441062 -32.60390959 43.40578829 -38.04003906 40.41015625 C-39.23628906 39.87390625 -40.43253906 39.33765625 -41.66503906 38.78515625 C-44.42031429 36.02988103 -44.41457832 35.40345879 -44.47753906 31.66015625 C-44.37091316 29.90733045 -44.22509348 28.15644438 -44.04003906 26.41015625 C-43.95882812 25.60835937 -43.87761719 24.8065625 -43.79394531 23.98046875 C-43.57867133 22.11917679 -43.31462725 20.26362651 -43.04003906 18.41015625 C-44.69003906 18.41015625 -46.34003906 18.41015625 -48.04003906 18.41015625 C-48.26230577 24.32492037 -47.9354901 29.55368804 -46.48535156 35.29296875 C-45.83422379 38.3886815 -45.90588584 41.25755545 -46.04003906 44.41015625 C-50.00003906 44.41015625 -53.96003906 44.41015625 -58.04003906 44.41015625 C-58.29142666 38.8796291 -57.50592838 33.80975186 -56.47753906 28.375 C-55.95276227 25.38453562 -55.95276227 25.38453562 -56.10253906 22.2265625 C-56.04003906 19.41015625 -56.04003906 19.41015625 -54.04003906 16.41015625 C-55.69003906 15.09015625 -57.34003906 13.77015625 -59.04003906 12.41015625 C-59.10253906 10.16015625 -59.10253906 10.16015625 -58.04003906 7.41015625 C-56.36523437 6.41601562 -56.36523437 6.41601562 -54.18066406 5.50390625 C-53.36605713 5.16327148 -52.5514502 4.82263672 -51.7121582 4.47167969 C-47.07391407 2.62909536 -42.42390857 0.8497229 -37.72753906 -0.83984375 C-36.77169922 -1.20335937 -35.81585938 -1.566875 -34.83105469 -1.94140625 C-22.15552709 -6.47629575 -12.27138371 -4.62282131 0 0 Z M-27.89550781 1.59765625 C-28.88796257 1.93059692 -28.88796257 1.93059692 -29.90046692 2.27026367 C-32.01093754 2.97934616 -34.11923432 3.69466278 -36.22753906 4.41015625 C-37.65904083 4.89233951 -39.09067993 5.37411527 -40.52246094 5.85546875 C-44.02992546 7.03564235 -47.53546745 8.22141568 -51.04003906 9.41015625 C-51.04003906 10.07015625 -51.04003906 10.73015625 -51.04003906 11.41015625 C-43.58209099 10.79090051 -36.27753417 9.67309271 -28.91503906 8.34765625 C-27.86316406 8.16138672 -26.81128906 7.97511719 -25.72753906 7.78320312 C-23.16442998 7.32883379 -20.60197261 6.87109928 -18.04003906 6.41015625 C-18.04003906 7.73015625 -18.04003906 9.05015625 -18.04003906 10.41015625 C-19.29300781 10.60351562 -20.54597656 10.796875 -21.83691406 10.99609375 C-23.48801087 11.25876824 -25.13904955 11.52180823 -26.79003906 11.78515625 C-27.61503906 11.91148438 -28.44003906 12.0378125 -29.29003906 12.16796875 C-30.08925781 12.296875 -30.88847656 12.42578125 -31.71191406 12.55859375 C-32.81164551 12.73140869 -32.81164551 12.73140869 -33.93359375 12.90771484 C-36.19091741 13.44614462 -38.01013841 14.29892605 -40.04003906 15.41015625 C-37.25716066 16.48329237 -34.46829713 17.51780903 -31.66503906 18.53515625 C-30.50294922 18.98955078 -30.50294922 18.98955078 -29.31738281 19.453125 C-18.92402537 23.14663219 -9.85095273 18.86259081 0.08496094 15.28515625 C1.13683594 14.91261719 2.18871094 14.54007813 3.27246094 14.15625 C5.83718657 13.24693818 8.39953801 12.33149874 10.95996094 11.41015625 C10.95996094 10.75015625 10.95996094 10.09015625 10.95996094 9.41015625 C6.88689473 7.98007604 2.81176667 6.5560853 -1.26538086 5.13769531 C-2.65203149 4.65433833 -4.03810527 4.16932314 -5.42358398 3.68261719 C-7.41533404 2.98325672 -9.40908361 2.28988907 -11.40332031 1.59765625 C-12.60255127 1.17871094 -13.80178223 0.75976562 -15.03735352 0.328125 C-20.02243102 -1.19589252 -23.05543532 -0.03612349 -27.89550781 1.59765625 Z M-38.04003906 20.41015625 C-38.37003906 24.70015625 -38.70003906 28.99015625 -39.04003906 33.41015625 C-31.1498932 38.86152976 -24.32806646 41.24866599 -14.68066406 40.03515625 C-9.82945402 38.88694085 -5.45361534 36.68407102 -1.04003906 34.41015625 C-0.96349371 29.89398026 -0.9377521 25.81930408 -2.04003906 21.41015625 C-3.47797298 21.72065351 -4.91537086 22.03363385 -6.35253906 22.34765625 C-7.15304688 22.52167969 -7.95355469 22.69570313 -8.77832031 22.875 C-11.18544007 23.40901784 -11.18544007 23.40901784 -14.04003906 24.41015625 C-22.90203055 25.25613666 -29.77322506 23.55941873 -38.04003906 20.41015625 Z M-53.04003906 38.41015625 C-53.04003906 39.07015625 -53.04003906 39.73015625 -53.04003906 40.41015625 C-52.38003906 40.41015625 -51.72003906 40.41015625 -51.04003906 40.41015625 C-51.04003906 39.75015625 -51.04003906 39.09015625 -51.04003906 38.41015625 C-51.70003906 38.41015625 -52.36003906 38.41015625 -53.04003906 38.41015625 Z " fill="#000000" transform="translate(68.0400390625,29.58984375)"/>
</svg>
