<?xml version="1.0" encoding="UTF-8"?>
<svg version="1.1" xmlns="http://www.w3.org/2000/svg" width="120" height="120">
<path d="M0 0 C1.4891878 -0.00389488 2.97837451 -0.00823116 4.46755981 -0.01298523 C7.57915864 -0.02041731 10.69064394 -0.02017831 13.80224609 -0.01489258 C17.76507891 -0.00910401 21.7274434 -0.02602851 25.6901989 -0.04923725 C28.76338358 -0.06405908 31.83645768 -0.06483485 34.90967178 -0.06172752 C36.36952771 -0.06223657 37.82939051 -0.06739492 39.28921127 -0.07753944 C52.10480651 -0.15567724 61.13329201 0.87197607 70.5625 10.03515625 C79.36515157 19.38595828 79.00935472 29.48076512 78.99609375 41.60546875 C78.99998863 43.09465655 79.00432491 44.58384326 79.00907898 46.07302856 C79.01651106 49.18462739 79.01627206 52.29611269 79.01098633 55.40771484 C79.00519776 59.37054766 79.02212226 63.33291215 79.045331 67.29566765 C79.06015283 70.36885233 79.0609286 73.44192643 79.05782127 76.51514053 C79.05833032 77.97499646 79.06348867 79.43485926 79.07363319 80.89468002 C79.15177099 93.71027526 78.12411768 102.73876076 68.9609375 112.16796875 C59.61013547 120.97062032 49.51532863 120.61482347 37.390625 120.6015625 C35.9014372 120.60545738 34.41225049 120.60979366 32.92306519 120.61454773 C29.81146636 120.62197981 26.69998106 120.62174081 23.58837891 120.61645508 C19.62554609 120.61066651 15.6631816 120.62759101 11.7004261 120.65079975 C8.62724142 120.66562158 5.55416732 120.66639735 2.48095322 120.66329002 C1.02109729 120.66379907 -0.43876551 120.66895742 -1.89858627 120.67910194 C-14.71418151 120.75723974 -23.74266701 119.72958643 -33.171875 110.56640625 C-41.97452657 101.21560422 -41.61872972 91.12079738 -41.60546875 78.99609375 C-41.60936363 77.50690595 -41.61369991 76.01771924 -41.61845398 74.52853394 C-41.62588606 71.41693511 -41.62564706 68.30544981 -41.62036133 65.19384766 C-41.61457276 61.23101484 -41.63149726 57.26865035 -41.654706 53.30589485 C-41.66952783 50.23271017 -41.6703036 47.15963607 -41.66719627 44.08642197 C-41.66770532 42.62656604 -41.67286367 41.16670324 -41.68300819 39.70688248 C-41.76114599 26.89128724 -40.73349268 17.86280174 -31.5703125 8.43359375 C-22.21951047 -0.36905782 -12.12470363 -0.01326097 0 0 Z " fill="#231F3A" transform="translate(41.3046875,-0.30078125)"/>
<path d="M0 0 C19.8 0 39.6 0 60 0 C60 6.93 60 13.86 60 21 C53.73 21 47.46 21 41 21 C41 35.52 41 50.04 41 65 C33.74 65 26.48 65 19 65 C19 50.81 19 36.62 19 22 C12.73 22 6.46 22 0 22 C0 14.74 0 7.48 0 0 Z " fill="#7679F9" transform="translate(28,28)"/>
<path d="M0 0 C9.9 0 19.8 0 30 0 C21.51923077 9.89423077 21.51923077 9.89423077 17.25 14.4375 C16.693125 15.07365234 16.13625 15.70980469 15.5625 16.36523438 C13.828125 18.18359375 13.828125 18.18359375 10 21 C6.7 21 3.4 21 0 21 C0 14.07 0 7.14 0 0 Z " fill="#FD7C95" transform="translate(28,28)"/>
<path d="M0 0 C9.57 0 19.14 0 29 0 C29 6.93 29 13.86 29 21 C19 21 19 21 16.44360352 19.50292969 C15.84475342 18.81618164 15.24590332 18.12943359 14.62890625 17.421875 C13.95279297 16.67292969 13.27667969 15.92398438 12.58007812 15.15234375 C11.91427734 14.35957031 11.24847656 13.56679688 10.5625 12.75 C9.86962891 11.97269531 9.17675781 11.19539063 8.46289062 10.39453125 C5.47981363 7.02235726 2.70386335 3.60515114 0 0 Z " fill="#00EFDF" transform="translate(59,28)"/>
</svg>
